%TF.GenerationSoftware,KiCad,Pcbnew,7.0.6-0*%
%TF.CreationDate,2023-08-18T22:24:39+03:00*%
%TF.ProjectId,iot-data-logger-nfc-samd21,696f742d-6461-4746-912d-6c6f67676572,rev?*%
%TF.SameCoordinates,Original*%
%TF.FileFunction,Legend,Bot*%
%TF.FilePolarity,Positive*%
%FSLAX46Y46*%
G04 Gerber Fmt 4.6, Leading zero omitted, Abs format (unit mm)*
G04 Created by KiCad (PCBNEW 7.0.6-0) date 2023-08-18 22:24:39*
%MOMM*%
%LPD*%
G01*
G04 APERTURE LIST*
%ADD10C,0.200000*%
%ADD11C,0.150000*%
%ADD12C,0.120000*%
%ADD13C,1.500000*%
%ADD14R,1.700000X1.700000*%
%ADD15O,1.700000X1.700000*%
%ADD16C,0.800000*%
%ADD17C,6.400000*%
%ADD18C,0.600000*%
%ADD19C,0.500000*%
%ADD20O,1.600000X1.000000*%
%ADD21O,2.100000X1.000000*%
%ADD22R,1.150000X0.300000*%
%ADD23C,3.450000*%
%ADD24R,2.000000X2.000000*%
%ADD25C,2.000000*%
G04 APERTURE END LIST*
D10*
G36*
X94377743Y-75082707D02*
G01*
X93722542Y-75301107D01*
X93722542Y-74864306D01*
X94377743Y-75082707D01*
G37*
G36*
X94377743Y-73796993D02*
G01*
X93722542Y-74015393D01*
X93722542Y-73578592D01*
X94377743Y-73796993D01*
G37*
G36*
X94377744Y-72511279D02*
G01*
X93722542Y-72729679D01*
X93722542Y-72292878D01*
X94377744Y-72511279D01*
G37*
G36*
X94373350Y-62177059D02*
G01*
X94491878Y-62236324D01*
X94540355Y-62284800D01*
X94593971Y-62392030D01*
X94593971Y-62487673D01*
X94540356Y-62594902D01*
X94491878Y-62643379D01*
X94373349Y-62702644D01*
X94110233Y-62768423D01*
X93777709Y-62768423D01*
X93514590Y-62702644D01*
X93396062Y-62643379D01*
X93347585Y-62594901D01*
X93293971Y-62487673D01*
X93293971Y-62392031D01*
X93347586Y-62284801D01*
X93396062Y-62236324D01*
X93514589Y-62177060D01*
X93777709Y-62111280D01*
X94110232Y-62111280D01*
X94373350Y-62177059D01*
G37*
G36*
X95079683Y-78467191D02*
G01*
X92879685Y-78467191D01*
X92879685Y-78154136D01*
X93093971Y-78154136D01*
X93101206Y-78176405D01*
X93104870Y-78199535D01*
X93110575Y-78205240D01*
X93113069Y-78212915D01*
X93132015Y-78226680D01*
X93148572Y-78243237D01*
X93156541Y-78244499D01*
X93163069Y-78249242D01*
X93186486Y-78249242D01*
X93209614Y-78252905D01*
X93216803Y-78249242D01*
X93224873Y-78249242D01*
X93243818Y-78235477D01*
X93264682Y-78224847D01*
X94105132Y-77384395D01*
X94281627Y-77325564D01*
X94384649Y-77325564D01*
X94491879Y-77379179D01*
X94540355Y-77427655D01*
X94593971Y-77534886D01*
X94593971Y-77844814D01*
X94540355Y-77952044D01*
X94480403Y-78011996D01*
X94452345Y-78067064D01*
X94462013Y-78128106D01*
X94505715Y-78171808D01*
X94566757Y-78181476D01*
X94621825Y-78153418D01*
X94693252Y-78081990D01*
X94700609Y-78067550D01*
X94711985Y-78056001D01*
X94783414Y-77913144D01*
X94786847Y-77890345D01*
X94793971Y-77868422D01*
X94793971Y-77511279D01*
X94786847Y-77489355D01*
X94783414Y-77466557D01*
X94711985Y-77323700D01*
X94700610Y-77312151D01*
X94693253Y-77297712D01*
X94621825Y-77226283D01*
X94607383Y-77218924D01*
X94595835Y-77207550D01*
X94452979Y-77136121D01*
X94430180Y-77132687D01*
X94408257Y-77125564D01*
X94265400Y-77125564D01*
X94249984Y-77130572D01*
X94233777Y-77130696D01*
X94019491Y-77202125D01*
X94000942Y-77215817D01*
X93980403Y-77226283D01*
X93293971Y-77912714D01*
X93293971Y-77225564D01*
X93274873Y-77166785D01*
X93224873Y-77130458D01*
X93163069Y-77130458D01*
X93113069Y-77166785D01*
X93093971Y-77225564D01*
X93093971Y-78154136D01*
X92879685Y-78154136D01*
X92879685Y-76698265D01*
X93097769Y-76698265D01*
X93100095Y-76760025D01*
X93138279Y-76808622D01*
X93197735Y-76825495D01*
X93255753Y-76804197D01*
X93693970Y-76459882D01*
X94132189Y-76804197D01*
X94190207Y-76825494D01*
X94249662Y-76808622D01*
X94287846Y-76760024D01*
X94290173Y-76698265D01*
X94255753Y-76646933D01*
X93855830Y-76332708D01*
X94255753Y-76018483D01*
X94290173Y-75967151D01*
X94287846Y-75905392D01*
X94249662Y-75856794D01*
X94190207Y-75839922D01*
X94132189Y-75861219D01*
X93693971Y-76205533D01*
X93255753Y-75861219D01*
X93197735Y-75839921D01*
X93138279Y-75856794D01*
X93100095Y-75905391D01*
X93097769Y-75967151D01*
X93132189Y-76018483D01*
X93532111Y-76332708D01*
X93132189Y-76646933D01*
X93097769Y-76698265D01*
X92879685Y-76698265D01*
X92879685Y-75583466D01*
X93093973Y-75583466D01*
X93113518Y-75642098D01*
X93163792Y-75678045D01*
X93225594Y-75677575D01*
X94725594Y-75177575D01*
X94749857Y-75159664D01*
X94774425Y-75142098D01*
X94774676Y-75141342D01*
X94775317Y-75140870D01*
X94784422Y-75112104D01*
X94793969Y-75083466D01*
X94793728Y-75082707D01*
X94793969Y-75081948D01*
X94784422Y-75053309D01*
X94775317Y-75024544D01*
X94774676Y-75024071D01*
X94774425Y-75023316D01*
X94749857Y-75005749D01*
X94725594Y-74987839D01*
X93225594Y-74487839D01*
X93163792Y-74487369D01*
X93113518Y-74523316D01*
X93093973Y-74581948D01*
X93112625Y-74640870D01*
X93162348Y-74677575D01*
X93522542Y-74797639D01*
X93522542Y-75367774D01*
X93162348Y-75487839D01*
X93112625Y-75524544D01*
X93093973Y-75583466D01*
X92879685Y-75583466D01*
X92879685Y-74297752D01*
X93093973Y-74297752D01*
X93113518Y-74356384D01*
X93163792Y-74392331D01*
X93225594Y-74391861D01*
X94725594Y-73891861D01*
X94749857Y-73873950D01*
X94774425Y-73856384D01*
X94774676Y-73855628D01*
X94775317Y-73855156D01*
X94784422Y-73826390D01*
X94793969Y-73797752D01*
X94793728Y-73796993D01*
X94793969Y-73796234D01*
X94784422Y-73767595D01*
X94775317Y-73738830D01*
X94774676Y-73738357D01*
X94774425Y-73737602D01*
X94749857Y-73720035D01*
X94725594Y-73702125D01*
X93225594Y-73202125D01*
X93163792Y-73201655D01*
X93113518Y-73237602D01*
X93093973Y-73296234D01*
X93112625Y-73355156D01*
X93162348Y-73391861D01*
X93522542Y-73511925D01*
X93522542Y-74082060D01*
X93162348Y-74202125D01*
X93112625Y-74238830D01*
X93093973Y-74297752D01*
X92879685Y-74297752D01*
X92879685Y-73012038D01*
X93093973Y-73012038D01*
X93113518Y-73070670D01*
X93163792Y-73106617D01*
X93225594Y-73106147D01*
X94725594Y-72606147D01*
X94749857Y-72588236D01*
X94774425Y-72570670D01*
X94774676Y-72569914D01*
X94775317Y-72569442D01*
X94784422Y-72540676D01*
X94793969Y-72512038D01*
X94793728Y-72511279D01*
X94793969Y-72510520D01*
X94784422Y-72481881D01*
X94775317Y-72453116D01*
X94774676Y-72452643D01*
X94774425Y-72451888D01*
X94749857Y-72434321D01*
X94725594Y-72416411D01*
X93225594Y-71916411D01*
X93163792Y-71915941D01*
X93113518Y-71951888D01*
X93093973Y-72010520D01*
X93112625Y-72069442D01*
X93162348Y-72106147D01*
X93522542Y-72226211D01*
X93522542Y-72796346D01*
X93162348Y-72916411D01*
X93112625Y-72953116D01*
X93093973Y-73012038D01*
X92879685Y-73012038D01*
X92879685Y-70511280D01*
X93093971Y-70511280D01*
X93101206Y-70533549D01*
X93104870Y-70556679D01*
X93110575Y-70562384D01*
X93113069Y-70570059D01*
X93132015Y-70583824D01*
X93148572Y-70600381D01*
X93156541Y-70601643D01*
X93163069Y-70606386D01*
X93186486Y-70606386D01*
X93209614Y-70610049D01*
X93216803Y-70606386D01*
X93224873Y-70606386D01*
X93243818Y-70592621D01*
X93264682Y-70581991D01*
X94105132Y-69741539D01*
X94281627Y-69682708D01*
X94384649Y-69682708D01*
X94491879Y-69736323D01*
X94540355Y-69784799D01*
X94593971Y-69892030D01*
X94593971Y-70201958D01*
X94540355Y-70309188D01*
X94480403Y-70369140D01*
X94452345Y-70424208D01*
X94462013Y-70485250D01*
X94505715Y-70528952D01*
X94566757Y-70538620D01*
X94621825Y-70510562D01*
X94693252Y-70439134D01*
X94700609Y-70424694D01*
X94711985Y-70413145D01*
X94783414Y-70270288D01*
X94786847Y-70247489D01*
X94793971Y-70225566D01*
X94793971Y-69868423D01*
X94786847Y-69846499D01*
X94783414Y-69823701D01*
X94711985Y-69680844D01*
X94700610Y-69669295D01*
X94693253Y-69654856D01*
X94621825Y-69583427D01*
X94607383Y-69576068D01*
X94595835Y-69564694D01*
X94452979Y-69493265D01*
X94430180Y-69489831D01*
X94408257Y-69482708D01*
X94265400Y-69482708D01*
X94249984Y-69487716D01*
X94233777Y-69487840D01*
X94019491Y-69559269D01*
X94000942Y-69572961D01*
X93980403Y-69583427D01*
X93293971Y-70269858D01*
X93293971Y-69582708D01*
X93274873Y-69523929D01*
X93224873Y-69487602D01*
X93163069Y-69487602D01*
X93113069Y-69523929D01*
X93093971Y-69582708D01*
X93093971Y-70511280D01*
X92879685Y-70511280D01*
X92879685Y-68955496D01*
X93095202Y-68955496D01*
X93098865Y-68962684D01*
X93098865Y-68970754D01*
X93103607Y-68977281D01*
X93104870Y-68985251D01*
X93116070Y-68996451D01*
X93123261Y-69010563D01*
X93194690Y-69081991D01*
X93208800Y-69089180D01*
X93220001Y-69100381D01*
X93235645Y-69102858D01*
X93249757Y-69110049D01*
X93265400Y-69107571D01*
X93281043Y-69110049D01*
X93295154Y-69102858D01*
X93310800Y-69100381D01*
X93321999Y-69089181D01*
X93336111Y-69081991D01*
X93407538Y-69010563D01*
X93414727Y-68996452D01*
X93425929Y-68985252D01*
X93427191Y-68977281D01*
X93431934Y-68970754D01*
X93431934Y-68962684D01*
X93435597Y-68955496D01*
X93433119Y-68939852D01*
X93435597Y-68924209D01*
X93431933Y-68917019D01*
X93431934Y-68908950D01*
X93427191Y-68902421D01*
X93425929Y-68894453D01*
X93414728Y-68883252D01*
X93407539Y-68869142D01*
X93336111Y-68797713D01*
X93321999Y-68790522D01*
X93310799Y-68779322D01*
X93295155Y-68776844D01*
X93281044Y-68769654D01*
X93265400Y-68772131D01*
X93249757Y-68769654D01*
X93235644Y-68776844D01*
X93220002Y-68779322D01*
X93208802Y-68790520D01*
X93194689Y-68797712D01*
X93123260Y-68869141D01*
X93116068Y-68883254D01*
X93104870Y-68894454D01*
X93103608Y-68902421D01*
X93098865Y-68908950D01*
X93098865Y-68917019D01*
X93095202Y-68924209D01*
X93097679Y-68939852D01*
X93095202Y-68955496D01*
X92879685Y-68955496D01*
X92879685Y-67613611D01*
X93098865Y-67613611D01*
X93135192Y-67663611D01*
X93193971Y-67682709D01*
X93593971Y-67682709D01*
X93593971Y-68296994D01*
X93594093Y-68297371D01*
X93593973Y-68297753D01*
X93603635Y-68326740D01*
X93613069Y-68355773D01*
X93613392Y-68356007D01*
X93613518Y-68356385D01*
X93638329Y-68374125D01*
X93663069Y-68392100D01*
X93663468Y-68392100D01*
X93663792Y-68392332D01*
X93694299Y-68392100D01*
X93724873Y-68392100D01*
X93725196Y-68391865D01*
X93725594Y-68391862D01*
X94797022Y-68034719D01*
X94846746Y-67998014D01*
X94865397Y-67939092D01*
X94845853Y-67880460D01*
X94795579Y-67844513D01*
X94733777Y-67844983D01*
X93793971Y-68158251D01*
X93793971Y-67682709D01*
X94193971Y-67682709D01*
X94252750Y-67663611D01*
X94289077Y-67613611D01*
X94289077Y-67551807D01*
X94252750Y-67501807D01*
X94193971Y-67482709D01*
X93793971Y-67482709D01*
X93793971Y-67368423D01*
X93774873Y-67309644D01*
X93724873Y-67273317D01*
X93663069Y-67273317D01*
X93613069Y-67309644D01*
X93593971Y-67368423D01*
X93593971Y-67482709D01*
X93193971Y-67482709D01*
X93135192Y-67501807D01*
X93098865Y-67551807D01*
X93098865Y-67613611D01*
X92879685Y-67613611D01*
X92879685Y-66796995D01*
X93665400Y-66796995D01*
X93684498Y-66855774D01*
X93734498Y-66892101D01*
X93796302Y-66892101D01*
X93846302Y-66855774D01*
X93865400Y-66796995D01*
X93865400Y-65654138D01*
X93846302Y-65595359D01*
X93796302Y-65559032D01*
X93734498Y-65559032D01*
X93684498Y-65595359D01*
X93665400Y-65654138D01*
X93665400Y-66796995D01*
X92879685Y-66796995D01*
X92879685Y-64868423D01*
X93093971Y-64868423D01*
X93101094Y-64890346D01*
X93104528Y-64913145D01*
X93175957Y-65056001D01*
X93187331Y-65067549D01*
X93194689Y-65081990D01*
X93266117Y-65153419D01*
X93321184Y-65181478D01*
X93382226Y-65171810D01*
X93425929Y-65128109D01*
X93435597Y-65067066D01*
X93407539Y-65011999D01*
X93347587Y-64952046D01*
X93293971Y-64844814D01*
X93293971Y-64463460D01*
X93347587Y-64356228D01*
X93396062Y-64307752D01*
X93503292Y-64254137D01*
X93813220Y-64254137D01*
X93920448Y-64307751D01*
X93968928Y-64356231D01*
X94022542Y-64463458D01*
X94022542Y-64654137D01*
X94028790Y-64673366D01*
X94030618Y-64693509D01*
X94038120Y-64702082D01*
X94041640Y-64712916D01*
X94058000Y-64724802D01*
X94071317Y-64740021D01*
X94082424Y-64742547D01*
X94091640Y-64749243D01*
X94111862Y-64749243D01*
X94131581Y-64753728D01*
X94142052Y-64749243D01*
X94153444Y-64749243D01*
X94169804Y-64737356D01*
X94188392Y-64729395D01*
X94593971Y-64374513D01*
X94593971Y-65082709D01*
X94613069Y-65141488D01*
X94663069Y-65177815D01*
X94724873Y-65177815D01*
X94774873Y-65141488D01*
X94793971Y-65082709D01*
X94793971Y-64154137D01*
X94787721Y-64134903D01*
X94785894Y-64114766D01*
X94778393Y-64106194D01*
X94774873Y-64095358D01*
X94758510Y-64083470D01*
X94745196Y-64068253D01*
X94734088Y-64065726D01*
X94724873Y-64059031D01*
X94704651Y-64059031D01*
X94684932Y-64054546D01*
X94674461Y-64059031D01*
X94663069Y-64059031D01*
X94646706Y-64070918D01*
X94628120Y-64078880D01*
X94221000Y-64435108D01*
X94215418Y-64417928D01*
X94211985Y-64395131D01*
X94140557Y-64252274D01*
X94129183Y-64240726D01*
X94121825Y-64226284D01*
X94050396Y-64154855D01*
X94035953Y-64147496D01*
X94024406Y-64136123D01*
X93881550Y-64064694D01*
X93858751Y-64061260D01*
X93836828Y-64054137D01*
X93479685Y-64054137D01*
X93457761Y-64061260D01*
X93434963Y-64064694D01*
X93292106Y-64136123D01*
X93280556Y-64147498D01*
X93266117Y-64154856D01*
X93194689Y-64226285D01*
X93187331Y-64240725D01*
X93175957Y-64252274D01*
X93104528Y-64395130D01*
X93101094Y-64417928D01*
X93093971Y-64439852D01*
X93093971Y-64868423D01*
X92879685Y-64868423D01*
X92879685Y-63526925D01*
X93095202Y-63526925D01*
X93098865Y-63534113D01*
X93098865Y-63542183D01*
X93103607Y-63548710D01*
X93104870Y-63556680D01*
X93116070Y-63567880D01*
X93123261Y-63581992D01*
X93194690Y-63653420D01*
X93208800Y-63660609D01*
X93220001Y-63671810D01*
X93235645Y-63674287D01*
X93249757Y-63681478D01*
X93265400Y-63679000D01*
X93281043Y-63681478D01*
X93295154Y-63674287D01*
X93310800Y-63671810D01*
X93321999Y-63660610D01*
X93336111Y-63653420D01*
X93407538Y-63581992D01*
X93414727Y-63567881D01*
X93425929Y-63556681D01*
X93427191Y-63548710D01*
X93431934Y-63542183D01*
X93431934Y-63534113D01*
X93435597Y-63526925D01*
X93433119Y-63511281D01*
X93435597Y-63495638D01*
X93431933Y-63488448D01*
X93431934Y-63480379D01*
X93427191Y-63473850D01*
X93425929Y-63465882D01*
X93414728Y-63454681D01*
X93407539Y-63440571D01*
X93336111Y-63369142D01*
X93321999Y-63361951D01*
X93310799Y-63350751D01*
X93295155Y-63348273D01*
X93281044Y-63341083D01*
X93265400Y-63343560D01*
X93249757Y-63341083D01*
X93235644Y-63348273D01*
X93220002Y-63350751D01*
X93208802Y-63361949D01*
X93194689Y-63369141D01*
X93123260Y-63440570D01*
X93116068Y-63454683D01*
X93104870Y-63465883D01*
X93103608Y-63473850D01*
X93098865Y-63480379D01*
X93098865Y-63488448D01*
X93095202Y-63495638D01*
X93097679Y-63511281D01*
X93095202Y-63526925D01*
X92879685Y-63526925D01*
X92879685Y-62511280D01*
X93093971Y-62511280D01*
X93101094Y-62533203D01*
X93104528Y-62556001D01*
X93175957Y-62698859D01*
X93187330Y-62710406D01*
X93194689Y-62724849D01*
X93266117Y-62796276D01*
X93280556Y-62803633D01*
X93292106Y-62815009D01*
X93434963Y-62886438D01*
X93445985Y-62888098D01*
X93455432Y-62894009D01*
X93741147Y-62965437D01*
X93753562Y-62964576D01*
X93765400Y-62968423D01*
X94122542Y-62968423D01*
X94134379Y-62964576D01*
X94146795Y-62965437D01*
X94432510Y-62894009D01*
X94441956Y-62888098D01*
X94452979Y-62886438D01*
X94595835Y-62815009D01*
X94607382Y-62803635D01*
X94621825Y-62796277D01*
X94693252Y-62724849D01*
X94700610Y-62710407D01*
X94711985Y-62698859D01*
X94783414Y-62556001D01*
X94786847Y-62533203D01*
X94793971Y-62511280D01*
X94793971Y-62368423D01*
X94786847Y-62346499D01*
X94783414Y-62323701D01*
X94711985Y-62180844D01*
X94700609Y-62169294D01*
X94693252Y-62154855D01*
X94621825Y-62083427D01*
X94607382Y-62076068D01*
X94595835Y-62064695D01*
X94452979Y-61993266D01*
X94441955Y-61991605D01*
X94432510Y-61985695D01*
X94146796Y-61914266D01*
X94134379Y-61915126D01*
X94122542Y-61911280D01*
X93765400Y-61911280D01*
X93753562Y-61915126D01*
X93741146Y-61914266D01*
X93455431Y-61985695D01*
X93445984Y-61991605D01*
X93434963Y-61993266D01*
X93292106Y-62064695D01*
X93280556Y-62076070D01*
X93266117Y-62083428D01*
X93194689Y-62154855D01*
X93187330Y-62169297D01*
X93175957Y-62180845D01*
X93104528Y-62323701D01*
X93101094Y-62346499D01*
X93093971Y-62368423D01*
X93093971Y-62511280D01*
X92879685Y-62511280D01*
X92879685Y-61083468D01*
X93093973Y-61083468D01*
X93103509Y-61112077D01*
X93112625Y-61140872D01*
X93113266Y-61141345D01*
X93113518Y-61142100D01*
X93138069Y-61159654D01*
X93162348Y-61177577D01*
X94662348Y-61677577D01*
X94724150Y-61678047D01*
X94774425Y-61642100D01*
X94793969Y-61583468D01*
X94775317Y-61524546D01*
X94725594Y-61487841D01*
X93510198Y-61082709D01*
X94725594Y-60677577D01*
X94775317Y-60640872D01*
X94793969Y-60581950D01*
X94774425Y-60523318D01*
X94724150Y-60487371D01*
X94662348Y-60487841D01*
X93162348Y-60987841D01*
X93138069Y-61005763D01*
X93113518Y-61023318D01*
X93113266Y-61024072D01*
X93112625Y-61024546D01*
X93103509Y-61053340D01*
X93093973Y-61081950D01*
X93094213Y-61082708D01*
X93093973Y-61083468D01*
X92879685Y-61083468D01*
X92879685Y-60273085D01*
X95079683Y-60273085D01*
X95079683Y-78467191D01*
G37*
G36*
X62911279Y-77706028D02*
G01*
X62463457Y-77706028D01*
X62356229Y-77652414D01*
X62307749Y-77603934D01*
X62254135Y-77496707D01*
X62254135Y-77329634D01*
X62307749Y-77222407D01*
X62351012Y-77179144D01*
X62527505Y-77120314D01*
X62911279Y-77120314D01*
X62911279Y-77706028D01*
G37*
G36*
X62911279Y-76920314D02*
G01*
X62534886Y-76920314D01*
X62427655Y-76866698D01*
X62379179Y-76818222D01*
X62325563Y-76710991D01*
X62325563Y-76615350D01*
X62379179Y-76508119D01*
X62427655Y-76459643D01*
X62534886Y-76406028D01*
X62911279Y-76406028D01*
X62911279Y-76920314D01*
G37*
G36*
X66325565Y-78120314D02*
G01*
X58483938Y-78120314D01*
X58483938Y-77678814D01*
X58698224Y-77678814D01*
X58726282Y-77733881D01*
X58797710Y-77805310D01*
X58818249Y-77815775D01*
X58836798Y-77829468D01*
X59051084Y-77900896D01*
X59067291Y-77901019D01*
X59082707Y-77906028D01*
X59225564Y-77906028D01*
X59240979Y-77901019D01*
X59257187Y-77900896D01*
X59471472Y-77829468D01*
X59490019Y-77815776D01*
X59510561Y-77805310D01*
X59653418Y-77662452D01*
X59660775Y-77648012D01*
X59672150Y-77636464D01*
X59730225Y-77520314D01*
X62054136Y-77520314D01*
X62061259Y-77542237D01*
X62064693Y-77565035D01*
X62136121Y-77707892D01*
X62147494Y-77719439D01*
X62154853Y-77733882D01*
X62226282Y-77805311D01*
X62240724Y-77812669D01*
X62252272Y-77824043D01*
X62395129Y-77895471D01*
X62417926Y-77898904D01*
X62439850Y-77906028D01*
X63011279Y-77906028D01*
X63026342Y-77901134D01*
X63042181Y-77901134D01*
X63054994Y-77891824D01*
X63070058Y-77886930D01*
X63079367Y-77874116D01*
X63092181Y-77864807D01*
X63097075Y-77849743D01*
X63106385Y-77836930D01*
X63106385Y-77821090D01*
X63111279Y-77806028D01*
X63111279Y-77520314D01*
X63554135Y-77520314D01*
X63561258Y-77542237D01*
X63564692Y-77565036D01*
X63636121Y-77707892D01*
X63647494Y-77719439D01*
X63654853Y-77733882D01*
X63726282Y-77805311D01*
X63740724Y-77812669D01*
X63752272Y-77824043D01*
X63895129Y-77895471D01*
X63917926Y-77898904D01*
X63939850Y-77906028D01*
X64296993Y-77906028D01*
X64312408Y-77901019D01*
X64328616Y-77900896D01*
X64542901Y-77829468D01*
X64592624Y-77792763D01*
X64611275Y-77733841D01*
X64591731Y-77675209D01*
X64541457Y-77639262D01*
X64479655Y-77639732D01*
X64280766Y-77706028D01*
X63963457Y-77706028D01*
X63856229Y-77652414D01*
X63807749Y-77603934D01*
X63765939Y-77520314D01*
X65054136Y-77520314D01*
X65061259Y-77542237D01*
X65064693Y-77565035D01*
X65136121Y-77707892D01*
X65147494Y-77719439D01*
X65154853Y-77733882D01*
X65226282Y-77805311D01*
X65240724Y-77812669D01*
X65252272Y-77824043D01*
X65395129Y-77895471D01*
X65417926Y-77898904D01*
X65439850Y-77906028D01*
X65725564Y-77906028D01*
X65747487Y-77898904D01*
X65770285Y-77895471D01*
X65913143Y-77824043D01*
X65924692Y-77812668D01*
X65939133Y-77805310D01*
X66010561Y-77733881D01*
X66017918Y-77719441D01*
X66029293Y-77707893D01*
X66100722Y-77565036D01*
X66104155Y-77542237D01*
X66111279Y-77520314D01*
X66111279Y-76306028D01*
X66092181Y-76247249D01*
X66042181Y-76210922D01*
X65980377Y-76210922D01*
X65930377Y-76247249D01*
X65911279Y-76306028D01*
X65911279Y-77496706D01*
X65857663Y-77603937D01*
X65809186Y-77652413D01*
X65701957Y-77706028D01*
X65463457Y-77706028D01*
X65356229Y-77652414D01*
X65307749Y-77603934D01*
X65254136Y-77496707D01*
X65254136Y-76306028D01*
X65235038Y-76247249D01*
X65185038Y-76210922D01*
X65123234Y-76210922D01*
X65073234Y-76247249D01*
X65054136Y-76306028D01*
X65054136Y-77520314D01*
X63765939Y-77520314D01*
X63754135Y-77496705D01*
X63754135Y-77401065D01*
X63807749Y-77293836D01*
X63856229Y-77245356D01*
X63974755Y-77186092D01*
X64249817Y-77117328D01*
X64259263Y-77111417D01*
X64270286Y-77109757D01*
X64413142Y-77038328D01*
X64424690Y-77026953D01*
X64439131Y-77019596D01*
X64510560Y-76948168D01*
X64517918Y-76933726D01*
X64529293Y-76922178D01*
X64600721Y-76779321D01*
X64604154Y-76756523D01*
X64611278Y-76734600D01*
X64611278Y-76591742D01*
X64604154Y-76569818D01*
X64600721Y-76547021D01*
X64529293Y-76404164D01*
X64517918Y-76392615D01*
X64510560Y-76378174D01*
X64439131Y-76306746D01*
X64424690Y-76299388D01*
X64413142Y-76288014D01*
X64270286Y-76216585D01*
X64247487Y-76213151D01*
X64225564Y-76206028D01*
X63868421Y-76206028D01*
X63853005Y-76211036D01*
X63836798Y-76211160D01*
X63622512Y-76282589D01*
X63572789Y-76319294D01*
X63554137Y-76378216D01*
X63573682Y-76436848D01*
X63623956Y-76472795D01*
X63685758Y-76472325D01*
X63884648Y-76406028D01*
X64201956Y-76406028D01*
X64309187Y-76459644D01*
X64357664Y-76508120D01*
X64411277Y-76615348D01*
X64411277Y-76710993D01*
X64357664Y-76818221D01*
X64309187Y-76866697D01*
X64190657Y-76925963D01*
X63915597Y-76994728D01*
X63906150Y-77000638D01*
X63895128Y-77002299D01*
X63752271Y-77073728D01*
X63740723Y-77085102D01*
X63726282Y-77092460D01*
X63654853Y-77163889D01*
X63647494Y-77178331D01*
X63636121Y-77189879D01*
X63564692Y-77332735D01*
X63561258Y-77355533D01*
X63554135Y-77377457D01*
X63554135Y-77520314D01*
X63111279Y-77520314D01*
X63111279Y-76306028D01*
X63106385Y-76290965D01*
X63106385Y-76275126D01*
X63097075Y-76262312D01*
X63092181Y-76247249D01*
X63079367Y-76237939D01*
X63070058Y-76225126D01*
X63054994Y-76220231D01*
X63042181Y-76210922D01*
X63026342Y-76210922D01*
X63011279Y-76206028D01*
X62511279Y-76206028D01*
X62489355Y-76213151D01*
X62466557Y-76216585D01*
X62323700Y-76288014D01*
X62312151Y-76299388D01*
X62297712Y-76306746D01*
X62226283Y-76378174D01*
X62218924Y-76392615D01*
X62207550Y-76404164D01*
X62136121Y-76547020D01*
X62132687Y-76569818D01*
X62125564Y-76591742D01*
X62125564Y-76734600D01*
X62132687Y-76756523D01*
X62136121Y-76779322D01*
X62207550Y-76922178D01*
X62218924Y-76933726D01*
X62226283Y-76948168D01*
X62272584Y-76994469D01*
X62265370Y-76996874D01*
X62246823Y-77010564D01*
X62226282Y-77021031D01*
X62154853Y-77092460D01*
X62147494Y-77106902D01*
X62136121Y-77118450D01*
X62064693Y-77261307D01*
X62061259Y-77284104D01*
X62054136Y-77306028D01*
X62054136Y-77520314D01*
X59730225Y-77520314D01*
X59743579Y-77493607D01*
X59745239Y-77482584D01*
X59751150Y-77473138D01*
X59803059Y-77265502D01*
X60273316Y-77265502D01*
X60309643Y-77315502D01*
X60368422Y-77334600D01*
X61511279Y-77334600D01*
X61570058Y-77315502D01*
X61606385Y-77265502D01*
X61606385Y-77203698D01*
X61570058Y-77153698D01*
X61511279Y-77134600D01*
X60368422Y-77134600D01*
X60309643Y-77153698D01*
X60273316Y-77203698D01*
X60273316Y-77265502D01*
X59803059Y-77265502D01*
X59822578Y-77187425D01*
X59821717Y-77175008D01*
X59825564Y-77163171D01*
X59825564Y-76948885D01*
X59821717Y-76937047D01*
X59822578Y-76924631D01*
X59751150Y-76638918D01*
X59745239Y-76629471D01*
X59743579Y-76618449D01*
X59672150Y-76475592D01*
X59660774Y-76464042D01*
X59653417Y-76449603D01*
X59510561Y-76306746D01*
X59490019Y-76296279D01*
X59471473Y-76282589D01*
X59257187Y-76211160D01*
X59240979Y-76211036D01*
X59225564Y-76206028D01*
X59082707Y-76206028D01*
X59067291Y-76211036D01*
X59051084Y-76211160D01*
X58836798Y-76282589D01*
X58818249Y-76296281D01*
X58797710Y-76306747D01*
X58726282Y-76378174D01*
X58698224Y-76433242D01*
X58707892Y-76494284D01*
X58751594Y-76537986D01*
X58812636Y-76547654D01*
X58867704Y-76519596D01*
X58922439Y-76464859D01*
X59098934Y-76406028D01*
X59209337Y-76406028D01*
X59385830Y-76464859D01*
X59500520Y-76579548D01*
X59559785Y-76698076D01*
X59625564Y-76961193D01*
X59625564Y-77150862D01*
X59559785Y-77413979D01*
X59500520Y-77532507D01*
X59385831Y-77647196D01*
X59209337Y-77706028D01*
X59098933Y-77706028D01*
X58922439Y-77647197D01*
X58867704Y-77592461D01*
X58812637Y-77564402D01*
X58751595Y-77574070D01*
X58707892Y-77617771D01*
X58698224Y-77678814D01*
X58483938Y-77678814D01*
X58483938Y-75991742D01*
X66325565Y-75991742D01*
X66325565Y-78120314D01*
G37*
D11*
X96095237Y-40304819D02*
X96571427Y-40304819D01*
X96571427Y-40304819D02*
X96619046Y-40781009D01*
X96619046Y-40781009D02*
X96571427Y-40733390D01*
X96571427Y-40733390D02*
X96476189Y-40685771D01*
X96476189Y-40685771D02*
X96238094Y-40685771D01*
X96238094Y-40685771D02*
X96142856Y-40733390D01*
X96142856Y-40733390D02*
X96095237Y-40781009D01*
X96095237Y-40781009D02*
X96047618Y-40876247D01*
X96047618Y-40876247D02*
X96047618Y-41114342D01*
X96047618Y-41114342D02*
X96095237Y-41209580D01*
X96095237Y-41209580D02*
X96142856Y-41257200D01*
X96142856Y-41257200D02*
X96238094Y-41304819D01*
X96238094Y-41304819D02*
X96476189Y-41304819D01*
X96476189Y-41304819D02*
X96571427Y-41257200D01*
X96571427Y-41257200D02*
X96619046Y-41209580D01*
X95571427Y-41304819D02*
X95380951Y-41304819D01*
X95380951Y-41304819D02*
X95285713Y-41257200D01*
X95285713Y-41257200D02*
X95238094Y-41209580D01*
X95238094Y-41209580D02*
X95142856Y-41066723D01*
X95142856Y-41066723D02*
X95095237Y-40876247D01*
X95095237Y-40876247D02*
X95095237Y-40495295D01*
X95095237Y-40495295D02*
X95142856Y-40400057D01*
X95142856Y-40400057D02*
X95190475Y-40352438D01*
X95190475Y-40352438D02*
X95285713Y-40304819D01*
X95285713Y-40304819D02*
X95476189Y-40304819D01*
X95476189Y-40304819D02*
X95571427Y-40352438D01*
X95571427Y-40352438D02*
X95619046Y-40400057D01*
X95619046Y-40400057D02*
X95666665Y-40495295D01*
X95666665Y-40495295D02*
X95666665Y-40733390D01*
X95666665Y-40733390D02*
X95619046Y-40828628D01*
X95619046Y-40828628D02*
X95571427Y-40876247D01*
X95571427Y-40876247D02*
X95476189Y-40923866D01*
X95476189Y-40923866D02*
X95285713Y-40923866D01*
X95285713Y-40923866D02*
X95190475Y-40876247D01*
X95190475Y-40876247D02*
X95142856Y-40828628D01*
X95142856Y-40828628D02*
X95095237Y-40733390D01*
X94666665Y-41209580D02*
X94619046Y-41257200D01*
X94619046Y-41257200D02*
X94666665Y-41304819D01*
X94666665Y-41304819D02*
X94714284Y-41257200D01*
X94714284Y-41257200D02*
X94666665Y-41209580D01*
X94666665Y-41209580D02*
X94666665Y-41304819D01*
X93999999Y-40304819D02*
X93904761Y-40304819D01*
X93904761Y-40304819D02*
X93809523Y-40352438D01*
X93809523Y-40352438D02*
X93761904Y-40400057D01*
X93761904Y-40400057D02*
X93714285Y-40495295D01*
X93714285Y-40495295D02*
X93666666Y-40685771D01*
X93666666Y-40685771D02*
X93666666Y-40923866D01*
X93666666Y-40923866D02*
X93714285Y-41114342D01*
X93714285Y-41114342D02*
X93761904Y-41209580D01*
X93761904Y-41209580D02*
X93809523Y-41257200D01*
X93809523Y-41257200D02*
X93904761Y-41304819D01*
X93904761Y-41304819D02*
X93999999Y-41304819D01*
X93999999Y-41304819D02*
X94095237Y-41257200D01*
X94095237Y-41257200D02*
X94142856Y-41209580D01*
X94142856Y-41209580D02*
X94190475Y-41114342D01*
X94190475Y-41114342D02*
X94238094Y-40923866D01*
X94238094Y-40923866D02*
X94238094Y-40685771D01*
X94238094Y-40685771D02*
X94190475Y-40495295D01*
X94190475Y-40495295D02*
X94142856Y-40400057D01*
X94142856Y-40400057D02*
X94095237Y-40352438D01*
X94095237Y-40352438D02*
X93999999Y-40304819D01*
X93047618Y-40304819D02*
X92952380Y-40304819D01*
X92952380Y-40304819D02*
X92857142Y-40352438D01*
X92857142Y-40352438D02*
X92809523Y-40400057D01*
X92809523Y-40400057D02*
X92761904Y-40495295D01*
X92761904Y-40495295D02*
X92714285Y-40685771D01*
X92714285Y-40685771D02*
X92714285Y-40923866D01*
X92714285Y-40923866D02*
X92761904Y-41114342D01*
X92761904Y-41114342D02*
X92809523Y-41209580D01*
X92809523Y-41209580D02*
X92857142Y-41257200D01*
X92857142Y-41257200D02*
X92952380Y-41304819D01*
X92952380Y-41304819D02*
X93047618Y-41304819D01*
X93047618Y-41304819D02*
X93142856Y-41257200D01*
X93142856Y-41257200D02*
X93190475Y-41209580D01*
X93190475Y-41209580D02*
X93238094Y-41114342D01*
X93238094Y-41114342D02*
X93285713Y-40923866D01*
X93285713Y-40923866D02*
X93285713Y-40685771D01*
X93285713Y-40685771D02*
X93238094Y-40495295D01*
X93238094Y-40495295D02*
X93190475Y-40400057D01*
X93190475Y-40400057D02*
X93142856Y-40352438D01*
X93142856Y-40352438D02*
X93047618Y-40304819D01*
X92095237Y-40304819D02*
X91999999Y-40304819D01*
X91999999Y-40304819D02*
X91904761Y-40352438D01*
X91904761Y-40352438D02*
X91857142Y-40400057D01*
X91857142Y-40400057D02*
X91809523Y-40495295D01*
X91809523Y-40495295D02*
X91761904Y-40685771D01*
X91761904Y-40685771D02*
X91761904Y-40923866D01*
X91761904Y-40923866D02*
X91809523Y-41114342D01*
X91809523Y-41114342D02*
X91857142Y-41209580D01*
X91857142Y-41209580D02*
X91904761Y-41257200D01*
X91904761Y-41257200D02*
X91999999Y-41304819D01*
X91999999Y-41304819D02*
X92095237Y-41304819D01*
X92095237Y-41304819D02*
X92190475Y-41257200D01*
X92190475Y-41257200D02*
X92238094Y-41209580D01*
X92238094Y-41209580D02*
X92285713Y-41114342D01*
X92285713Y-41114342D02*
X92333332Y-40923866D01*
X92333332Y-40923866D02*
X92333332Y-40685771D01*
X92333332Y-40685771D02*
X92285713Y-40495295D01*
X92285713Y-40495295D02*
X92238094Y-40400057D01*
X92238094Y-40400057D02*
X92190475Y-40352438D01*
X92190475Y-40352438D02*
X92095237Y-40304819D01*
X91142856Y-40304819D02*
X91047618Y-40304819D01*
X91047618Y-40304819D02*
X90952380Y-40352438D01*
X90952380Y-40352438D02*
X90904761Y-40400057D01*
X90904761Y-40400057D02*
X90857142Y-40495295D01*
X90857142Y-40495295D02*
X90809523Y-40685771D01*
X90809523Y-40685771D02*
X90809523Y-40923866D01*
X90809523Y-40923866D02*
X90857142Y-41114342D01*
X90857142Y-41114342D02*
X90904761Y-41209580D01*
X90904761Y-41209580D02*
X90952380Y-41257200D01*
X90952380Y-41257200D02*
X91047618Y-41304819D01*
X91047618Y-41304819D02*
X91142856Y-41304819D01*
X91142856Y-41304819D02*
X91238094Y-41257200D01*
X91238094Y-41257200D02*
X91285713Y-41209580D01*
X91285713Y-41209580D02*
X91333332Y-41114342D01*
X91333332Y-41114342D02*
X91380951Y-40923866D01*
X91380951Y-40923866D02*
X91380951Y-40685771D01*
X91380951Y-40685771D02*
X91333332Y-40495295D01*
X91333332Y-40495295D02*
X91285713Y-40400057D01*
X91285713Y-40400057D02*
X91238094Y-40352438D01*
X91238094Y-40352438D02*
X91142856Y-40304819D01*
X89619046Y-41304819D02*
X89619046Y-40638152D01*
X89619046Y-40733390D02*
X89571427Y-40685771D01*
X89571427Y-40685771D02*
X89476189Y-40638152D01*
X89476189Y-40638152D02*
X89333332Y-40638152D01*
X89333332Y-40638152D02*
X89238094Y-40685771D01*
X89238094Y-40685771D02*
X89190475Y-40781009D01*
X89190475Y-40781009D02*
X89190475Y-41304819D01*
X89190475Y-40781009D02*
X89142856Y-40685771D01*
X89142856Y-40685771D02*
X89047618Y-40638152D01*
X89047618Y-40638152D02*
X88904761Y-40638152D01*
X88904761Y-40638152D02*
X88809522Y-40685771D01*
X88809522Y-40685771D02*
X88761903Y-40781009D01*
X88761903Y-40781009D02*
X88761903Y-41304819D01*
X88285713Y-41304819D02*
X88285713Y-40638152D01*
X88285713Y-40733390D02*
X88238094Y-40685771D01*
X88238094Y-40685771D02*
X88142856Y-40638152D01*
X88142856Y-40638152D02*
X87999999Y-40638152D01*
X87999999Y-40638152D02*
X87904761Y-40685771D01*
X87904761Y-40685771D02*
X87857142Y-40781009D01*
X87857142Y-40781009D02*
X87857142Y-41304819D01*
X87857142Y-40781009D02*
X87809523Y-40685771D01*
X87809523Y-40685771D02*
X87714285Y-40638152D01*
X87714285Y-40638152D02*
X87571428Y-40638152D01*
X87571428Y-40638152D02*
X87476189Y-40685771D01*
X87476189Y-40685771D02*
X87428570Y-40781009D01*
X87428570Y-40781009D02*
X87428570Y-41304819D01*
X62500000Y-44000000D02*
X62500000Y-41413580D01*
X121500000Y-44000000D02*
X121500000Y-41413580D01*
X62500000Y-42000000D02*
X121500000Y-42000000D01*
X62500000Y-42000000D02*
X121500000Y-42000000D01*
X62500000Y-42000000D02*
X63626504Y-41413579D01*
X62500000Y-42000000D02*
X63626504Y-42586421D01*
X121500000Y-42000000D02*
X120373496Y-42586421D01*
X121500000Y-42000000D02*
X120373496Y-41413579D01*
X120138152Y-64857143D02*
X120804819Y-64857143D01*
X119757200Y-64619048D02*
X120471485Y-64380953D01*
X120471485Y-64380953D02*
X120471485Y-65000000D01*
X120804819Y-65428572D02*
X120804819Y-65619048D01*
X120804819Y-65619048D02*
X120757200Y-65714286D01*
X120757200Y-65714286D02*
X120709580Y-65761905D01*
X120709580Y-65761905D02*
X120566723Y-65857143D01*
X120566723Y-65857143D02*
X120376247Y-65904762D01*
X120376247Y-65904762D02*
X119995295Y-65904762D01*
X119995295Y-65904762D02*
X119900057Y-65857143D01*
X119900057Y-65857143D02*
X119852438Y-65809524D01*
X119852438Y-65809524D02*
X119804819Y-65714286D01*
X119804819Y-65714286D02*
X119804819Y-65523810D01*
X119804819Y-65523810D02*
X119852438Y-65428572D01*
X119852438Y-65428572D02*
X119900057Y-65380953D01*
X119900057Y-65380953D02*
X119995295Y-65333334D01*
X119995295Y-65333334D02*
X120233390Y-65333334D01*
X120233390Y-65333334D02*
X120328628Y-65380953D01*
X120328628Y-65380953D02*
X120376247Y-65428572D01*
X120376247Y-65428572D02*
X120423866Y-65523810D01*
X120423866Y-65523810D02*
X120423866Y-65714286D01*
X120423866Y-65714286D02*
X120376247Y-65809524D01*
X120376247Y-65809524D02*
X120328628Y-65857143D01*
X120328628Y-65857143D02*
X120233390Y-65904762D01*
X120709580Y-66333334D02*
X120757200Y-66380953D01*
X120757200Y-66380953D02*
X120804819Y-66333334D01*
X120804819Y-66333334D02*
X120757200Y-66285715D01*
X120757200Y-66285715D02*
X120709580Y-66333334D01*
X120709580Y-66333334D02*
X120804819Y-66333334D01*
X119804819Y-67000000D02*
X119804819Y-67095238D01*
X119804819Y-67095238D02*
X119852438Y-67190476D01*
X119852438Y-67190476D02*
X119900057Y-67238095D01*
X119900057Y-67238095D02*
X119995295Y-67285714D01*
X119995295Y-67285714D02*
X120185771Y-67333333D01*
X120185771Y-67333333D02*
X120423866Y-67333333D01*
X120423866Y-67333333D02*
X120614342Y-67285714D01*
X120614342Y-67285714D02*
X120709580Y-67238095D01*
X120709580Y-67238095D02*
X120757200Y-67190476D01*
X120757200Y-67190476D02*
X120804819Y-67095238D01*
X120804819Y-67095238D02*
X120804819Y-67000000D01*
X120804819Y-67000000D02*
X120757200Y-66904762D01*
X120757200Y-66904762D02*
X120709580Y-66857143D01*
X120709580Y-66857143D02*
X120614342Y-66809524D01*
X120614342Y-66809524D02*
X120423866Y-66761905D01*
X120423866Y-66761905D02*
X120185771Y-66761905D01*
X120185771Y-66761905D02*
X119995295Y-66809524D01*
X119995295Y-66809524D02*
X119900057Y-66857143D01*
X119900057Y-66857143D02*
X119852438Y-66904762D01*
X119852438Y-66904762D02*
X119804819Y-67000000D01*
X119804819Y-67952381D02*
X119804819Y-68047619D01*
X119804819Y-68047619D02*
X119852438Y-68142857D01*
X119852438Y-68142857D02*
X119900057Y-68190476D01*
X119900057Y-68190476D02*
X119995295Y-68238095D01*
X119995295Y-68238095D02*
X120185771Y-68285714D01*
X120185771Y-68285714D02*
X120423866Y-68285714D01*
X120423866Y-68285714D02*
X120614342Y-68238095D01*
X120614342Y-68238095D02*
X120709580Y-68190476D01*
X120709580Y-68190476D02*
X120757200Y-68142857D01*
X120757200Y-68142857D02*
X120804819Y-68047619D01*
X120804819Y-68047619D02*
X120804819Y-67952381D01*
X120804819Y-67952381D02*
X120757200Y-67857143D01*
X120757200Y-67857143D02*
X120709580Y-67809524D01*
X120709580Y-67809524D02*
X120614342Y-67761905D01*
X120614342Y-67761905D02*
X120423866Y-67714286D01*
X120423866Y-67714286D02*
X120185771Y-67714286D01*
X120185771Y-67714286D02*
X119995295Y-67761905D01*
X119995295Y-67761905D02*
X119900057Y-67809524D01*
X119900057Y-67809524D02*
X119852438Y-67857143D01*
X119852438Y-67857143D02*
X119804819Y-67952381D01*
X119804819Y-68904762D02*
X119804819Y-69000000D01*
X119804819Y-69000000D02*
X119852438Y-69095238D01*
X119852438Y-69095238D02*
X119900057Y-69142857D01*
X119900057Y-69142857D02*
X119995295Y-69190476D01*
X119995295Y-69190476D02*
X120185771Y-69238095D01*
X120185771Y-69238095D02*
X120423866Y-69238095D01*
X120423866Y-69238095D02*
X120614342Y-69190476D01*
X120614342Y-69190476D02*
X120709580Y-69142857D01*
X120709580Y-69142857D02*
X120757200Y-69095238D01*
X120757200Y-69095238D02*
X120804819Y-69000000D01*
X120804819Y-69000000D02*
X120804819Y-68904762D01*
X120804819Y-68904762D02*
X120757200Y-68809524D01*
X120757200Y-68809524D02*
X120709580Y-68761905D01*
X120709580Y-68761905D02*
X120614342Y-68714286D01*
X120614342Y-68714286D02*
X120423866Y-68666667D01*
X120423866Y-68666667D02*
X120185771Y-68666667D01*
X120185771Y-68666667D02*
X119995295Y-68714286D01*
X119995295Y-68714286D02*
X119900057Y-68761905D01*
X119900057Y-68761905D02*
X119852438Y-68809524D01*
X119852438Y-68809524D02*
X119804819Y-68904762D01*
X119804819Y-69857143D02*
X119804819Y-69952381D01*
X119804819Y-69952381D02*
X119852438Y-70047619D01*
X119852438Y-70047619D02*
X119900057Y-70095238D01*
X119900057Y-70095238D02*
X119995295Y-70142857D01*
X119995295Y-70142857D02*
X120185771Y-70190476D01*
X120185771Y-70190476D02*
X120423866Y-70190476D01*
X120423866Y-70190476D02*
X120614342Y-70142857D01*
X120614342Y-70142857D02*
X120709580Y-70095238D01*
X120709580Y-70095238D02*
X120757200Y-70047619D01*
X120757200Y-70047619D02*
X120804819Y-69952381D01*
X120804819Y-69952381D02*
X120804819Y-69857143D01*
X120804819Y-69857143D02*
X120757200Y-69761905D01*
X120757200Y-69761905D02*
X120709580Y-69714286D01*
X120709580Y-69714286D02*
X120614342Y-69666667D01*
X120614342Y-69666667D02*
X120423866Y-69619048D01*
X120423866Y-69619048D02*
X120185771Y-69619048D01*
X120185771Y-69619048D02*
X119995295Y-69666667D01*
X119995295Y-69666667D02*
X119900057Y-69714286D01*
X119900057Y-69714286D02*
X119852438Y-69761905D01*
X119852438Y-69761905D02*
X119804819Y-69857143D01*
X120804819Y-71380953D02*
X120138152Y-71380953D01*
X120233390Y-71380953D02*
X120185771Y-71428572D01*
X120185771Y-71428572D02*
X120138152Y-71523810D01*
X120138152Y-71523810D02*
X120138152Y-71666667D01*
X120138152Y-71666667D02*
X120185771Y-71761905D01*
X120185771Y-71761905D02*
X120281009Y-71809524D01*
X120281009Y-71809524D02*
X120804819Y-71809524D01*
X120281009Y-71809524D02*
X120185771Y-71857143D01*
X120185771Y-71857143D02*
X120138152Y-71952381D01*
X120138152Y-71952381D02*
X120138152Y-72095238D01*
X120138152Y-72095238D02*
X120185771Y-72190477D01*
X120185771Y-72190477D02*
X120281009Y-72238096D01*
X120281009Y-72238096D02*
X120804819Y-72238096D01*
X120804819Y-72714286D02*
X120138152Y-72714286D01*
X120233390Y-72714286D02*
X120185771Y-72761905D01*
X120185771Y-72761905D02*
X120138152Y-72857143D01*
X120138152Y-72857143D02*
X120138152Y-73000000D01*
X120138152Y-73000000D02*
X120185771Y-73095238D01*
X120185771Y-73095238D02*
X120281009Y-73142857D01*
X120281009Y-73142857D02*
X120804819Y-73142857D01*
X120281009Y-73142857D02*
X120185771Y-73190476D01*
X120185771Y-73190476D02*
X120138152Y-73285714D01*
X120138152Y-73285714D02*
X120138152Y-73428571D01*
X120138152Y-73428571D02*
X120185771Y-73523810D01*
X120185771Y-73523810D02*
X120281009Y-73571429D01*
X120281009Y-73571429D02*
X120804819Y-73571429D01*
X121000000Y-93500000D02*
X120913580Y-93500000D01*
X121000000Y-44500000D02*
X120913580Y-44500000D01*
X121500000Y-93500000D02*
X121500000Y-44500000D01*
X121500000Y-93500000D02*
X121500000Y-44500000D01*
X121500000Y-93500000D02*
X120913579Y-92373496D01*
X121500000Y-93500000D02*
X122086421Y-92373496D01*
X121500000Y-44500000D02*
X122086421Y-45626504D01*
X121500000Y-44500000D02*
X120913579Y-45626504D01*
X118116858Y-58366819D02*
X118116858Y-57366819D01*
X118116858Y-58319200D02*
X118212096Y-58366819D01*
X118212096Y-58366819D02*
X118402572Y-58366819D01*
X118402572Y-58366819D02*
X118497810Y-58319200D01*
X118497810Y-58319200D02*
X118545429Y-58271580D01*
X118545429Y-58271580D02*
X118593048Y-58176342D01*
X118593048Y-58176342D02*
X118593048Y-57890628D01*
X118593048Y-57890628D02*
X118545429Y-57795390D01*
X118545429Y-57795390D02*
X118497810Y-57747771D01*
X118497810Y-57747771D02*
X118402572Y-57700152D01*
X118402572Y-57700152D02*
X118212096Y-57700152D01*
X118212096Y-57700152D02*
X118116858Y-57747771D01*
X117497810Y-58366819D02*
X117593048Y-58319200D01*
X117593048Y-58319200D02*
X117640667Y-58271580D01*
X117640667Y-58271580D02*
X117688286Y-58176342D01*
X117688286Y-58176342D02*
X117688286Y-57890628D01*
X117688286Y-57890628D02*
X117640667Y-57795390D01*
X117640667Y-57795390D02*
X117593048Y-57747771D01*
X117593048Y-57747771D02*
X117497810Y-57700152D01*
X117497810Y-57700152D02*
X117354953Y-57700152D01*
X117354953Y-57700152D02*
X117259715Y-57747771D01*
X117259715Y-57747771D02*
X117212096Y-57795390D01*
X117212096Y-57795390D02*
X117164477Y-57890628D01*
X117164477Y-57890628D02*
X117164477Y-58176342D01*
X117164477Y-58176342D02*
X117212096Y-58271580D01*
X117212096Y-58271580D02*
X117259715Y-58319200D01*
X117259715Y-58319200D02*
X117354953Y-58366819D01*
X117354953Y-58366819D02*
X117497810Y-58366819D01*
X116307334Y-57700152D02*
X116307334Y-58366819D01*
X116735905Y-57700152D02*
X116735905Y-58223961D01*
X116735905Y-58223961D02*
X116688286Y-58319200D01*
X116688286Y-58319200D02*
X116593048Y-58366819D01*
X116593048Y-58366819D02*
X116450191Y-58366819D01*
X116450191Y-58366819D02*
X116354953Y-58319200D01*
X116354953Y-58319200D02*
X116307334Y-58271580D01*
X115831143Y-58366819D02*
X115831143Y-57366819D01*
X115831143Y-57747771D02*
X115735905Y-57700152D01*
X115735905Y-57700152D02*
X115545429Y-57700152D01*
X115545429Y-57700152D02*
X115450191Y-57747771D01*
X115450191Y-57747771D02*
X115402572Y-57795390D01*
X115402572Y-57795390D02*
X115354953Y-57890628D01*
X115354953Y-57890628D02*
X115354953Y-58176342D01*
X115354953Y-58176342D02*
X115402572Y-58271580D01*
X115402572Y-58271580D02*
X115450191Y-58319200D01*
X115450191Y-58319200D02*
X115545429Y-58366819D01*
X115545429Y-58366819D02*
X115735905Y-58366819D01*
X115735905Y-58366819D02*
X115831143Y-58319200D01*
X114783524Y-58366819D02*
X114878762Y-58319200D01*
X114878762Y-58319200D02*
X114926381Y-58223961D01*
X114926381Y-58223961D02*
X114926381Y-57366819D01*
X114021619Y-58319200D02*
X114116857Y-58366819D01*
X114116857Y-58366819D02*
X114307333Y-58366819D01*
X114307333Y-58366819D02*
X114402571Y-58319200D01*
X114402571Y-58319200D02*
X114450190Y-58223961D01*
X114450190Y-58223961D02*
X114450190Y-57843009D01*
X114450190Y-57843009D02*
X114402571Y-57747771D01*
X114402571Y-57747771D02*
X114307333Y-57700152D01*
X114307333Y-57700152D02*
X114116857Y-57700152D01*
X114116857Y-57700152D02*
X114021619Y-57747771D01*
X114021619Y-57747771D02*
X113974000Y-57843009D01*
X113974000Y-57843009D02*
X113974000Y-57938247D01*
X113974000Y-57938247D02*
X114450190Y-58033485D01*
X112640666Y-58366819D02*
X112735904Y-58319200D01*
X112735904Y-58319200D02*
X112783523Y-58223961D01*
X112783523Y-58223961D02*
X112783523Y-57366819D01*
X111831142Y-58366819D02*
X111831142Y-57843009D01*
X111831142Y-57843009D02*
X111878761Y-57747771D01*
X111878761Y-57747771D02*
X111973999Y-57700152D01*
X111973999Y-57700152D02*
X112164475Y-57700152D01*
X112164475Y-57700152D02*
X112259713Y-57747771D01*
X111831142Y-58319200D02*
X111926380Y-58366819D01*
X111926380Y-58366819D02*
X112164475Y-58366819D01*
X112164475Y-58366819D02*
X112259713Y-58319200D01*
X112259713Y-58319200D02*
X112307332Y-58223961D01*
X112307332Y-58223961D02*
X112307332Y-58128723D01*
X112307332Y-58128723D02*
X112259713Y-58033485D01*
X112259713Y-58033485D02*
X112164475Y-57985866D01*
X112164475Y-57985866D02*
X111926380Y-57985866D01*
X111926380Y-57985866D02*
X111831142Y-57938247D01*
X111450189Y-57700152D02*
X111212094Y-58366819D01*
X110973999Y-57700152D02*
X111212094Y-58366819D01*
X111212094Y-58366819D02*
X111307332Y-58604914D01*
X111307332Y-58604914D02*
X111354951Y-58652533D01*
X111354951Y-58652533D02*
X111450189Y-58700152D01*
X110212094Y-58319200D02*
X110307332Y-58366819D01*
X110307332Y-58366819D02*
X110497808Y-58366819D01*
X110497808Y-58366819D02*
X110593046Y-58319200D01*
X110593046Y-58319200D02*
X110640665Y-58223961D01*
X110640665Y-58223961D02*
X110640665Y-57843009D01*
X110640665Y-57843009D02*
X110593046Y-57747771D01*
X110593046Y-57747771D02*
X110497808Y-57700152D01*
X110497808Y-57700152D02*
X110307332Y-57700152D01*
X110307332Y-57700152D02*
X110212094Y-57747771D01*
X110212094Y-57747771D02*
X110164475Y-57843009D01*
X110164475Y-57843009D02*
X110164475Y-57938247D01*
X110164475Y-57938247D02*
X110640665Y-58033485D01*
X109735903Y-58366819D02*
X109735903Y-57700152D01*
X109735903Y-57890628D02*
X109688284Y-57795390D01*
X109688284Y-57795390D02*
X109640665Y-57747771D01*
X109640665Y-57747771D02*
X109545427Y-57700152D01*
X109545427Y-57700152D02*
X109450189Y-57700152D01*
X108450188Y-57366819D02*
X107831141Y-57366819D01*
X107831141Y-57366819D02*
X108164474Y-57747771D01*
X108164474Y-57747771D02*
X108021617Y-57747771D01*
X108021617Y-57747771D02*
X107926379Y-57795390D01*
X107926379Y-57795390D02*
X107878760Y-57843009D01*
X107878760Y-57843009D02*
X107831141Y-57938247D01*
X107831141Y-57938247D02*
X107831141Y-58176342D01*
X107831141Y-58176342D02*
X107878760Y-58271580D01*
X107878760Y-58271580D02*
X107926379Y-58319200D01*
X107926379Y-58319200D02*
X108021617Y-58366819D01*
X108021617Y-58366819D02*
X108307331Y-58366819D01*
X108307331Y-58366819D02*
X108402569Y-58319200D01*
X108402569Y-58319200D02*
X108450188Y-58271580D01*
X106926379Y-58366819D02*
X107402569Y-58366819D01*
X107402569Y-58366819D02*
X107402569Y-57366819D01*
X106593045Y-57843009D02*
X105831141Y-57843009D01*
X105831141Y-58128723D02*
X106593045Y-58128723D01*
X104926379Y-57700152D02*
X104926379Y-58366819D01*
X105164474Y-57319200D02*
X105402569Y-58033485D01*
X105402569Y-58033485D02*
X104783522Y-58033485D01*
X104402569Y-58271580D02*
X104354950Y-58319200D01*
X104354950Y-58319200D02*
X104402569Y-58366819D01*
X104402569Y-58366819D02*
X104450188Y-58319200D01*
X104450188Y-58319200D02*
X104402569Y-58271580D01*
X104402569Y-58271580D02*
X104402569Y-58366819D01*
X103783522Y-57795390D02*
X103878760Y-57747771D01*
X103878760Y-57747771D02*
X103926379Y-57700152D01*
X103926379Y-57700152D02*
X103973998Y-57604914D01*
X103973998Y-57604914D02*
X103973998Y-57557295D01*
X103973998Y-57557295D02*
X103926379Y-57462057D01*
X103926379Y-57462057D02*
X103878760Y-57414438D01*
X103878760Y-57414438D02*
X103783522Y-57366819D01*
X103783522Y-57366819D02*
X103593046Y-57366819D01*
X103593046Y-57366819D02*
X103497808Y-57414438D01*
X103497808Y-57414438D02*
X103450189Y-57462057D01*
X103450189Y-57462057D02*
X103402570Y-57557295D01*
X103402570Y-57557295D02*
X103402570Y-57604914D01*
X103402570Y-57604914D02*
X103450189Y-57700152D01*
X103450189Y-57700152D02*
X103497808Y-57747771D01*
X103497808Y-57747771D02*
X103593046Y-57795390D01*
X103593046Y-57795390D02*
X103783522Y-57795390D01*
X103783522Y-57795390D02*
X103878760Y-57843009D01*
X103878760Y-57843009D02*
X103926379Y-57890628D01*
X103926379Y-57890628D02*
X103973998Y-57985866D01*
X103973998Y-57985866D02*
X103973998Y-58176342D01*
X103973998Y-58176342D02*
X103926379Y-58271580D01*
X103926379Y-58271580D02*
X103878760Y-58319200D01*
X103878760Y-58319200D02*
X103783522Y-58366819D01*
X103783522Y-58366819D02*
X103593046Y-58366819D01*
X103593046Y-58366819D02*
X103497808Y-58319200D01*
X103497808Y-58319200D02*
X103450189Y-58271580D01*
X103450189Y-58271580D02*
X103402570Y-58176342D01*
X103402570Y-58176342D02*
X103402570Y-57985866D01*
X103402570Y-57985866D02*
X103450189Y-57890628D01*
X103450189Y-57890628D02*
X103497808Y-57843009D01*
X103497808Y-57843009D02*
X103593046Y-57795390D01*
X102926379Y-58366819D02*
X102735903Y-58366819D01*
X102735903Y-58366819D02*
X102640665Y-58319200D01*
X102640665Y-58319200D02*
X102593046Y-58271580D01*
X102593046Y-58271580D02*
X102497808Y-58128723D01*
X102497808Y-58128723D02*
X102450189Y-57938247D01*
X102450189Y-57938247D02*
X102450189Y-57557295D01*
X102450189Y-57557295D02*
X102497808Y-57462057D01*
X102497808Y-57462057D02*
X102545427Y-57414438D01*
X102545427Y-57414438D02*
X102640665Y-57366819D01*
X102640665Y-57366819D02*
X102831141Y-57366819D01*
X102831141Y-57366819D02*
X102926379Y-57414438D01*
X102926379Y-57414438D02*
X102973998Y-57462057D01*
X102973998Y-57462057D02*
X103021617Y-57557295D01*
X103021617Y-57557295D02*
X103021617Y-57795390D01*
X103021617Y-57795390D02*
X102973998Y-57890628D01*
X102973998Y-57890628D02*
X102926379Y-57938247D01*
X102926379Y-57938247D02*
X102831141Y-57985866D01*
X102831141Y-57985866D02*
X102640665Y-57985866D01*
X102640665Y-57985866D02*
X102545427Y-57938247D01*
X102545427Y-57938247D02*
X102497808Y-57890628D01*
X102497808Y-57890628D02*
X102450189Y-57795390D01*
X102021617Y-57700152D02*
X102021617Y-58700152D01*
X101545427Y-58223961D02*
X101497808Y-58319200D01*
X101497808Y-58319200D02*
X101402570Y-58366819D01*
X102021617Y-58223961D02*
X101973998Y-58319200D01*
X101973998Y-58319200D02*
X101878760Y-58366819D01*
X101878760Y-58366819D02*
X101688284Y-58366819D01*
X101688284Y-58366819D02*
X101593046Y-58319200D01*
X101593046Y-58319200D02*
X101545427Y-58223961D01*
X101545427Y-58223961D02*
X101545427Y-57700152D01*
X100973998Y-58366819D02*
X100973998Y-57366819D01*
X100973998Y-57843009D02*
X100402570Y-57843009D01*
X100402570Y-58366819D02*
X100402570Y-57366819D01*
X117648667Y-56588819D02*
X117743905Y-56541200D01*
X117743905Y-56541200D02*
X117791524Y-56493580D01*
X117791524Y-56493580D02*
X117839143Y-56398342D01*
X117839143Y-56398342D02*
X117839143Y-56112628D01*
X117839143Y-56112628D02*
X117791524Y-56017390D01*
X117791524Y-56017390D02*
X117743905Y-55969771D01*
X117743905Y-55969771D02*
X117648667Y-55922152D01*
X117648667Y-55922152D02*
X117505810Y-55922152D01*
X117505810Y-55922152D02*
X117410572Y-55969771D01*
X117410572Y-55969771D02*
X117362953Y-56017390D01*
X117362953Y-56017390D02*
X117315334Y-56112628D01*
X117315334Y-56112628D02*
X117315334Y-56398342D01*
X117315334Y-56398342D02*
X117362953Y-56493580D01*
X117362953Y-56493580D02*
X117410572Y-56541200D01*
X117410572Y-56541200D02*
X117505810Y-56588819D01*
X117505810Y-56588819D02*
X117648667Y-56588819D01*
X116886762Y-55922152D02*
X116886762Y-56588819D01*
X116886762Y-56017390D02*
X116839143Y-55969771D01*
X116839143Y-55969771D02*
X116743905Y-55922152D01*
X116743905Y-55922152D02*
X116601048Y-55922152D01*
X116601048Y-55922152D02*
X116505810Y-55969771D01*
X116505810Y-55969771D02*
X116458191Y-56065009D01*
X116458191Y-56065009D02*
X116458191Y-56588819D01*
X115601048Y-56541200D02*
X115696286Y-56588819D01*
X115696286Y-56588819D02*
X115886762Y-56588819D01*
X115886762Y-56588819D02*
X115982000Y-56541200D01*
X115982000Y-56541200D02*
X116029619Y-56445961D01*
X116029619Y-56445961D02*
X116029619Y-56065009D01*
X116029619Y-56065009D02*
X115982000Y-55969771D01*
X115982000Y-55969771D02*
X115886762Y-55922152D01*
X115886762Y-55922152D02*
X115696286Y-55922152D01*
X115696286Y-55922152D02*
X115601048Y-55969771D01*
X115601048Y-55969771D02*
X115553429Y-56065009D01*
X115553429Y-56065009D02*
X115553429Y-56160247D01*
X115553429Y-56160247D02*
X116029619Y-56255485D01*
X114220095Y-56588819D02*
X114315333Y-56541200D01*
X114315333Y-56541200D02*
X114362952Y-56445961D01*
X114362952Y-56445961D02*
X114362952Y-55588819D01*
X113410571Y-56588819D02*
X113410571Y-56065009D01*
X113410571Y-56065009D02*
X113458190Y-55969771D01*
X113458190Y-55969771D02*
X113553428Y-55922152D01*
X113553428Y-55922152D02*
X113743904Y-55922152D01*
X113743904Y-55922152D02*
X113839142Y-55969771D01*
X113410571Y-56541200D02*
X113505809Y-56588819D01*
X113505809Y-56588819D02*
X113743904Y-56588819D01*
X113743904Y-56588819D02*
X113839142Y-56541200D01*
X113839142Y-56541200D02*
X113886761Y-56445961D01*
X113886761Y-56445961D02*
X113886761Y-56350723D01*
X113886761Y-56350723D02*
X113839142Y-56255485D01*
X113839142Y-56255485D02*
X113743904Y-56207866D01*
X113743904Y-56207866D02*
X113505809Y-56207866D01*
X113505809Y-56207866D02*
X113410571Y-56160247D01*
X113029618Y-55922152D02*
X112791523Y-56588819D01*
X112553428Y-55922152D02*
X112791523Y-56588819D01*
X112791523Y-56588819D02*
X112886761Y-56826914D01*
X112886761Y-56826914D02*
X112934380Y-56874533D01*
X112934380Y-56874533D02*
X113029618Y-56922152D01*
X111791523Y-56541200D02*
X111886761Y-56588819D01*
X111886761Y-56588819D02*
X112077237Y-56588819D01*
X112077237Y-56588819D02*
X112172475Y-56541200D01*
X112172475Y-56541200D02*
X112220094Y-56445961D01*
X112220094Y-56445961D02*
X112220094Y-56065009D01*
X112220094Y-56065009D02*
X112172475Y-55969771D01*
X112172475Y-55969771D02*
X112077237Y-55922152D01*
X112077237Y-55922152D02*
X111886761Y-55922152D01*
X111886761Y-55922152D02*
X111791523Y-55969771D01*
X111791523Y-55969771D02*
X111743904Y-56065009D01*
X111743904Y-56065009D02*
X111743904Y-56160247D01*
X111743904Y-56160247D02*
X112220094Y-56255485D01*
X111315332Y-56588819D02*
X111315332Y-55922152D01*
X111315332Y-56112628D02*
X111267713Y-56017390D01*
X111267713Y-56017390D02*
X111220094Y-55969771D01*
X111220094Y-55969771D02*
X111124856Y-55922152D01*
X111124856Y-55922152D02*
X111029618Y-55922152D01*
X109458189Y-56588819D02*
X109934379Y-56588819D01*
X109934379Y-56588819D02*
X109934379Y-55588819D01*
X109124855Y-56065009D02*
X108362951Y-56065009D01*
X108362951Y-56350723D02*
X109124855Y-56350723D01*
X107362951Y-56588819D02*
X107934379Y-56588819D01*
X107648665Y-56588819D02*
X107648665Y-55588819D01*
X107648665Y-55588819D02*
X107743903Y-55731676D01*
X107743903Y-55731676D02*
X107839141Y-55826914D01*
X107839141Y-55826914D02*
X107934379Y-55874533D01*
X106934379Y-56493580D02*
X106886760Y-56541200D01*
X106886760Y-56541200D02*
X106934379Y-56588819D01*
X106934379Y-56588819D02*
X106981998Y-56541200D01*
X106981998Y-56541200D02*
X106934379Y-56493580D01*
X106934379Y-56493580D02*
X106934379Y-56588819D01*
X106029618Y-55588819D02*
X106220094Y-55588819D01*
X106220094Y-55588819D02*
X106315332Y-55636438D01*
X106315332Y-55636438D02*
X106362951Y-55684057D01*
X106362951Y-55684057D02*
X106458189Y-55826914D01*
X106458189Y-55826914D02*
X106505808Y-56017390D01*
X106505808Y-56017390D02*
X106505808Y-56398342D01*
X106505808Y-56398342D02*
X106458189Y-56493580D01*
X106458189Y-56493580D02*
X106410570Y-56541200D01*
X106410570Y-56541200D02*
X106315332Y-56588819D01*
X106315332Y-56588819D02*
X106124856Y-56588819D01*
X106124856Y-56588819D02*
X106029618Y-56541200D01*
X106029618Y-56541200D02*
X105981999Y-56493580D01*
X105981999Y-56493580D02*
X105934380Y-56398342D01*
X105934380Y-56398342D02*
X105934380Y-56160247D01*
X105934380Y-56160247D02*
X105981999Y-56065009D01*
X105981999Y-56065009D02*
X106029618Y-56017390D01*
X106029618Y-56017390D02*
X106124856Y-55969771D01*
X106124856Y-55969771D02*
X106315332Y-55969771D01*
X106315332Y-55969771D02*
X106410570Y-56017390D01*
X106410570Y-56017390D02*
X106458189Y-56065009D01*
X106458189Y-56065009D02*
X106505808Y-56160247D01*
X105601046Y-55588819D02*
X104981999Y-55588819D01*
X104981999Y-55588819D02*
X105315332Y-55969771D01*
X105315332Y-55969771D02*
X105172475Y-55969771D01*
X105172475Y-55969771D02*
X105077237Y-56017390D01*
X105077237Y-56017390D02*
X105029618Y-56065009D01*
X105029618Y-56065009D02*
X104981999Y-56160247D01*
X104981999Y-56160247D02*
X104981999Y-56398342D01*
X104981999Y-56398342D02*
X105029618Y-56493580D01*
X105029618Y-56493580D02*
X105077237Y-56541200D01*
X105077237Y-56541200D02*
X105172475Y-56588819D01*
X105172475Y-56588819D02*
X105458189Y-56588819D01*
X105458189Y-56588819D02*
X105553427Y-56541200D01*
X105553427Y-56541200D02*
X105601046Y-56493580D01*
X103791522Y-55922152D02*
X103791522Y-56922152D01*
X103315332Y-56445961D02*
X103267713Y-56541200D01*
X103267713Y-56541200D02*
X103172475Y-56588819D01*
X103791522Y-56445961D02*
X103743903Y-56541200D01*
X103743903Y-56541200D02*
X103648665Y-56588819D01*
X103648665Y-56588819D02*
X103458189Y-56588819D01*
X103458189Y-56588819D02*
X103362951Y-56541200D01*
X103362951Y-56541200D02*
X103315332Y-56445961D01*
X103315332Y-56445961D02*
X103315332Y-55922152D01*
X102743903Y-56588819D02*
X102743903Y-55588819D01*
X102743903Y-56065009D02*
X102172475Y-56065009D01*
X102172475Y-56588819D02*
X102172475Y-55588819D01*
X113418571Y-55064819D02*
X113418571Y-54064819D01*
X113418571Y-54064819D02*
X112847143Y-55064819D01*
X112847143Y-55064819D02*
X112847143Y-54064819D01*
X112037619Y-54541009D02*
X112370952Y-54541009D01*
X112370952Y-55064819D02*
X112370952Y-54064819D01*
X112370952Y-54064819D02*
X111894762Y-54064819D01*
X110942381Y-54969580D02*
X110990000Y-55017200D01*
X110990000Y-55017200D02*
X111132857Y-55064819D01*
X111132857Y-55064819D02*
X111228095Y-55064819D01*
X111228095Y-55064819D02*
X111370952Y-55017200D01*
X111370952Y-55017200D02*
X111466190Y-54921961D01*
X111466190Y-54921961D02*
X111513809Y-54826723D01*
X111513809Y-54826723D02*
X111561428Y-54636247D01*
X111561428Y-54636247D02*
X111561428Y-54493390D01*
X111561428Y-54493390D02*
X111513809Y-54302914D01*
X111513809Y-54302914D02*
X111466190Y-54207676D01*
X111466190Y-54207676D02*
X111370952Y-54112438D01*
X111370952Y-54112438D02*
X111228095Y-54064819D01*
X111228095Y-54064819D02*
X111132857Y-54064819D01*
X111132857Y-54064819D02*
X110990000Y-54112438D01*
X110990000Y-54112438D02*
X110942381Y-54160057D01*
X109799523Y-54779104D02*
X109323333Y-54779104D01*
X109894761Y-55064819D02*
X109561428Y-54064819D01*
X109561428Y-54064819D02*
X109228095Y-55064819D01*
X108894761Y-55064819D02*
X108894761Y-54064819D01*
X108894761Y-54064819D02*
X108323333Y-55064819D01*
X108323333Y-55064819D02*
X108323333Y-54064819D01*
X107989999Y-54064819D02*
X107418571Y-54064819D01*
X107704285Y-55064819D02*
X107704285Y-54064819D01*
X67643333Y-80734819D02*
X67643333Y-81449104D01*
X67643333Y-81449104D02*
X67690952Y-81591961D01*
X67690952Y-81591961D02*
X67786190Y-81687200D01*
X67786190Y-81687200D02*
X67929047Y-81734819D01*
X67929047Y-81734819D02*
X68024285Y-81734819D01*
X67214761Y-80830057D02*
X67167142Y-80782438D01*
X67167142Y-80782438D02*
X67071904Y-80734819D01*
X67071904Y-80734819D02*
X66833809Y-80734819D01*
X66833809Y-80734819D02*
X66738571Y-80782438D01*
X66738571Y-80782438D02*
X66690952Y-80830057D01*
X66690952Y-80830057D02*
X66643333Y-80925295D01*
X66643333Y-80925295D02*
X66643333Y-81020533D01*
X66643333Y-81020533D02*
X66690952Y-81163390D01*
X66690952Y-81163390D02*
X67262380Y-81734819D01*
X67262380Y-81734819D02*
X66643333Y-81734819D01*
X69285714Y-40931009D02*
X69142857Y-40978628D01*
X69142857Y-40978628D02*
X69095238Y-41026247D01*
X69095238Y-41026247D02*
X69047619Y-41121485D01*
X69047619Y-41121485D02*
X69047619Y-41264342D01*
X69047619Y-41264342D02*
X69095238Y-41359580D01*
X69095238Y-41359580D02*
X69142857Y-41407200D01*
X69142857Y-41407200D02*
X69238095Y-41454819D01*
X69238095Y-41454819D02*
X69619047Y-41454819D01*
X69619047Y-41454819D02*
X69619047Y-40454819D01*
X69619047Y-40454819D02*
X69285714Y-40454819D01*
X69285714Y-40454819D02*
X69190476Y-40502438D01*
X69190476Y-40502438D02*
X69142857Y-40550057D01*
X69142857Y-40550057D02*
X69095238Y-40645295D01*
X69095238Y-40645295D02*
X69095238Y-40740533D01*
X69095238Y-40740533D02*
X69142857Y-40835771D01*
X69142857Y-40835771D02*
X69190476Y-40883390D01*
X69190476Y-40883390D02*
X69285714Y-40931009D01*
X69285714Y-40931009D02*
X69619047Y-40931009D01*
X68761904Y-40454819D02*
X68190476Y-40454819D01*
X68476190Y-41454819D02*
X68476190Y-40454819D01*
X67333333Y-41454819D02*
X67904761Y-41454819D01*
X67619047Y-41454819D02*
X67619047Y-40454819D01*
X67619047Y-40454819D02*
X67714285Y-40597676D01*
X67714285Y-40597676D02*
X67809523Y-40692914D01*
X67809523Y-40692914D02*
X67904761Y-40740533D01*
X73414700Y-79728571D02*
X73414700Y-80871429D01*
X73414700Y-96238571D02*
X73414700Y-97381429D01*
X73414700Y-57328571D02*
X73414700Y-58471429D01*
X73986128Y-57900000D02*
X72843271Y-57900000D01*
X86114700Y-96238571D02*
X86114700Y-97381429D01*
X86686128Y-96810000D02*
X85543271Y-96810000D01*
X86114700Y-57328571D02*
X86114700Y-58471429D01*
X86114700Y-79728571D02*
X86114700Y-80871429D01*
X86686128Y-80300000D02*
X85543271Y-80300000D01*
D12*
%TO.C,J2*%
X57215000Y-88580000D02*
X58920000Y-88580000D01*
X62850000Y-88580000D02*
X60930000Y-88580000D01*
X57215000Y-79420000D02*
X57215000Y-88580000D01*
X58920000Y-79420000D02*
X57215000Y-79420000D01*
X60930000Y-79420000D02*
X62850000Y-79420000D01*
%TO.C,BT1*%
X67245000Y-95700000D02*
X67245000Y-42500000D01*
X92050000Y-95700000D02*
X67250000Y-95700000D01*
X68220000Y-94270000D02*
X68220000Y-91730000D01*
X80000000Y-94270000D02*
X80000000Y-71410000D01*
X91080000Y-94270000D02*
X68220000Y-94270000D01*
X68220000Y-91730000D02*
X69490000Y-91730000D01*
X69490000Y-91730000D02*
X69490000Y-79030000D01*
X89810000Y-91730000D02*
X91080000Y-91730000D01*
X89810000Y-91730000D02*
X89810000Y-79030000D01*
X91080000Y-91730000D02*
X91080000Y-94270000D01*
X68220000Y-79030000D02*
X68220000Y-59170000D01*
X69490000Y-79030000D02*
X68220000Y-79030000D01*
X70760000Y-79030000D02*
X75840000Y-79030000D01*
X75840000Y-79030000D02*
X75840000Y-60440000D01*
X84730000Y-79030000D02*
X87270000Y-79030000D01*
X87270000Y-79030000D02*
X87270000Y-77760000D01*
X91080000Y-79030000D02*
X89810000Y-79030000D01*
X83460000Y-77760000D02*
X84730000Y-77760000D01*
X84730000Y-77760000D02*
X84730000Y-79030000D01*
X87270000Y-77760000D02*
X88540000Y-77760000D01*
X88540000Y-77760000D02*
X88540000Y-59170000D01*
X79300000Y-71410000D02*
X79300000Y-94270000D01*
X80000000Y-71410000D02*
X79300000Y-71410000D01*
X79300000Y-64250000D02*
X79300000Y-43930000D01*
X80000000Y-64250000D02*
X79300000Y-64250000D01*
X70760000Y-60440000D02*
X70760000Y-79030000D01*
X72030000Y-60440000D02*
X70760000Y-60440000D01*
X74570000Y-60440000D02*
X74570000Y-59170000D01*
X75840000Y-60440000D02*
X74570000Y-60440000D01*
X68220000Y-59170000D02*
X69490000Y-59170000D01*
X72030000Y-59170000D02*
X72030000Y-60440000D01*
X74570000Y-59170000D02*
X72030000Y-59170000D01*
X83460000Y-59170000D02*
X83460000Y-77760000D01*
X88540000Y-59170000D02*
X83460000Y-59170000D01*
X89810000Y-59170000D02*
X91080000Y-59170000D01*
X91080000Y-59170000D02*
X91080000Y-79030000D01*
X68220000Y-46470000D02*
X69490000Y-46470000D01*
X69490000Y-46470000D02*
X69490000Y-59170000D01*
X89810000Y-46470000D02*
X89810000Y-59170000D01*
X91080000Y-46470000D02*
X89810000Y-46470000D01*
X68220000Y-43930000D02*
X68220000Y-46470000D01*
X80000000Y-43930000D02*
X80000000Y-64250000D01*
X91080000Y-43930000D02*
X91080000Y-46470000D01*
X91080000Y-43930000D02*
X68220000Y-43930000D01*
X67250000Y-42500000D02*
X92050000Y-42500000D01*
X92055000Y-42500000D02*
X92055000Y-95700000D01*
%TD*%
%LPC*%
D13*
%TO.C,TP1*%
X83566000Y-46228000D03*
%TD*%
D14*
%TO.C,J1*%
X114808000Y-93472000D03*
D15*
X112268000Y-93472000D03*
X109728000Y-93472000D03*
X107188000Y-93472000D03*
X104648000Y-93472000D03*
X102108000Y-93472000D03*
X99568000Y-93472000D03*
X97028000Y-93472000D03*
%TD*%
D16*
%TO.C,H3*%
X119100000Y-93500000D03*
X119802944Y-91802944D03*
X119802944Y-95197056D03*
X121500000Y-91100000D03*
D17*
X121500000Y-93500000D03*
D16*
X121500000Y-95900000D03*
X123197056Y-91802944D03*
X123197056Y-95197056D03*
X123900000Y-93500000D03*
%TD*%
D13*
%TO.C,TP6*%
X89154000Y-46228000D03*
%TD*%
%TO.C,TP8*%
X81788000Y-70866000D03*
%TD*%
%TO.C,TP2*%
X86360000Y-46228000D03*
%TD*%
%TO.C,TP11*%
X68326000Y-46228000D03*
%TD*%
D16*
%TO.C,H1*%
X60100000Y-44500000D03*
X60802944Y-42802944D03*
X60802944Y-46197056D03*
X62500000Y-42100000D03*
D17*
X62500000Y-44500000D03*
D16*
X62500000Y-46900000D03*
X64197056Y-42802944D03*
X64197056Y-46197056D03*
X64900000Y-44500000D03*
%TD*%
D13*
%TO.C,TP9*%
X81788000Y-73406000D03*
%TD*%
D18*
%TO.C,AE1*%
X98500000Y-54000000D03*
D19*
X93500000Y-50000000D03*
%TD*%
D16*
%TO.C,H4*%
X60100000Y-93500000D03*
X60802944Y-91802944D03*
X60802944Y-95197056D03*
X62500000Y-91100000D03*
D17*
X62500000Y-93500000D03*
D16*
X62500000Y-95900000D03*
X64197056Y-91802944D03*
X64197056Y-95197056D03*
X64900000Y-93500000D03*
%TD*%
%TO.C,H2*%
X119100000Y-44500000D03*
X119802944Y-42802944D03*
X119802944Y-46197056D03*
X121500000Y-42100000D03*
D17*
X121500000Y-44500000D03*
D16*
X121500000Y-46900000D03*
X123197056Y-42802944D03*
X123197056Y-46197056D03*
X123900000Y-44500000D03*
%TD*%
D20*
%TO.C,J2*%
X59925000Y-88320000D03*
X59925000Y-79680000D03*
D21*
X64105000Y-79680000D03*
D22*
X64670000Y-87350000D03*
X64670000Y-86550000D03*
X64670000Y-85250000D03*
X64670000Y-84250000D03*
X64670000Y-83750000D03*
X64670000Y-82750000D03*
X64670000Y-81450000D03*
X64670000Y-80650000D03*
X64670000Y-80950000D03*
X64670000Y-81750000D03*
X64670000Y-82250000D03*
X64670000Y-83250000D03*
X64670000Y-84750000D03*
X64670000Y-85750000D03*
X64670000Y-86250000D03*
X64670000Y-87050000D03*
D21*
X64105000Y-88320000D03*
%TD*%
D23*
%TO.C,BT1*%
X82000000Y-84360000D03*
X77300000Y-54390000D03*
D24*
X86000000Y-93000000D03*
D25*
X73300000Y-93000000D03*
%TD*%
%LPD*%
M02*
