M48
; DRILL file {KiCad 7.0.6-0} date 2023 August 18, Friday 22:25:15
; FORMAT={-:-/ absolute / metric / decimal}
; #@! TF.CreationDate,2023-08-18T22:25:15+03:00
; #@! TF.GenerationSoftware,Kicad,Pcbnew,7.0.6-0
; #@! TF.FileFunction,Plated,1,2,PTH
FMAT,2
METRIC
; #@! TA.AperFunction,Plated,PTH,ComponentDrill
T1C0.300
; #@! TA.AperFunction,Plated,PTH,ViaDrill
T2C0.400
; #@! TA.AperFunction,Plated,PTH,ComponentDrill
T3C0.500
; #@! TA.AperFunction,Plated,PTH,ComponentDrill
T4C0.600
; #@! TA.AperFunction,Plated,PTH,ComponentDrill
T5C0.700
; #@! TA.AperFunction,Plated,PTH,ComponentDrill
T6C1.000
; #@! TA.AperFunction,Plated,PTH,ComponentDrill
T7C1.020
; #@! TA.AperFunction,Plated,PTH,ComponentDrill
T8C3.200
%
G90
G05
T1
X98.5Y-54.0
T2
X62.357Y-78.359
X62.587Y-50.9
X63.143Y-64.122
X63.373Y-83.82
X64.352Y-89.56
X64.516Y-60.579
X64.897Y-55.626
X65.628Y-67.397
X65.913Y-83.185
X66.273Y-86.853
X66.293Y-85.576
X66.294Y-88.519
X66.929Y-52.324
X66.929Y-54.102
X70.883Y-61.613
X70.993Y-48.006
X72.104Y-62.34
X72.251Y-72.601
X72.343Y-74.055
X73.279Y-64.516
X74.288Y-89.98
X74.295Y-77.216
X75.184Y-50.038
X75.228Y-66.734
X75.946Y-68.453
X75.946Y-72.898
X76.2Y-64.516
X77.498Y-73.314
X78.218Y-81.75
X82.296Y-90.464
X83.48Y-70.954
X84.328Y-67.31
X85.163Y-83.214
X85.183Y-86.156
X85.725Y-76.962
X85.852Y-71.501
X87.122Y-58.293
X87.122Y-61.468
X87.503Y-68.961
X91.313Y-52.324
X91.313Y-69.342
X91.333Y-88.214
X92.55Y-49.725
X111.379Y-95.758
T3
X60.1Y-44.5
X60.1Y-93.5
X60.803Y-42.803
X60.803Y-46.197
X60.803Y-91.803
X60.803Y-95.197
X62.5Y-42.1
X62.5Y-46.9
X62.5Y-91.1
X62.5Y-95.9
X64.197Y-42.803
X64.197Y-46.197
X64.197Y-91.803
X64.197Y-95.197
X64.9Y-44.5
X64.9Y-93.5
X119.1Y-44.5
X119.1Y-93.5
X119.803Y-42.803
X119.803Y-46.197
X119.803Y-91.803
X119.803Y-95.197
X121.5Y-42.1
X121.5Y-46.9
X121.5Y-91.1
X121.5Y-95.9
X123.197Y-42.803
X123.197Y-46.197
X123.197Y-91.803
X123.197Y-95.197
X123.9Y-44.5
X123.9Y-93.5
T5
X68.326Y-46.228
X81.788Y-70.866
X81.788Y-73.406
X83.566Y-46.228
X86.36Y-46.228
X89.154Y-46.228
T6
X97.028Y-93.472
X99.568Y-93.472
X102.108Y-93.472
X104.648Y-93.472
X107.188Y-93.472
X109.728Y-93.472
X112.268Y-93.472
X114.808Y-93.472
T7
X73.3Y-93.0
X86.0Y-93.0
T8
X62.5Y-44.5
X62.5Y-93.5
X121.5Y-44.5
X121.5Y-93.5
T4
G00X59.625Y-79.68
M15
G01X60.225Y-79.68
M16
G05
G00X59.625Y-88.32
M15
G01X60.225Y-88.32
M16
G05
G00X63.555Y-79.68
M15
G01X64.655Y-79.68
M16
G05
G00X63.555Y-88.32
M15
G01X64.655Y-88.32
M16
G05
T0
M30
