%TF.GenerationSoftware,KiCad,Pcbnew,7.0.6-0*%
%TF.CreationDate,2023-08-18T22:24:39+03:00*%
%TF.ProjectId,iot-data-logger-nfc-samd21,696f742d-6461-4746-912d-6c6f67676572,rev?*%
%TF.SameCoordinates,Original*%
%TF.FileFunction,Soldermask,Bot*%
%TF.FilePolarity,Negative*%
%FSLAX46Y46*%
G04 Gerber Fmt 4.6, Leading zero omitted, Abs format (unit mm)*
G04 Created by KiCad (PCBNEW 7.0.6-0) date 2023-08-18 22:24:39*
%MOMM*%
%LPD*%
G01*
G04 APERTURE LIST*
%ADD10C,1.500000*%
%ADD11R,1.700000X1.700000*%
%ADD12O,1.700000X1.700000*%
%ADD13C,0.800000*%
%ADD14C,6.400000*%
%ADD15C,0.600000*%
%ADD16C,0.500000*%
%ADD17O,1.600000X1.000000*%
%ADD18O,2.100000X1.000000*%
%ADD19R,1.150000X0.300000*%
%ADD20C,3.450000*%
%ADD21R,2.000000X2.000000*%
%ADD22C,2.000000*%
G04 APERTURE END LIST*
D10*
%TO.C,TP1*%
X83566000Y-46228000D03*
%TD*%
D11*
%TO.C,J1*%
X114808000Y-93472000D03*
D12*
X112268000Y-93472000D03*
X109728000Y-93472000D03*
X107188000Y-93472000D03*
X104648000Y-93472000D03*
X102108000Y-93472000D03*
X99568000Y-93472000D03*
X97028000Y-93472000D03*
%TD*%
D13*
%TO.C,H3*%
X119100000Y-93500000D03*
X119802944Y-91802944D03*
X119802944Y-95197056D03*
X121500000Y-91100000D03*
D14*
X121500000Y-93500000D03*
D13*
X121500000Y-95900000D03*
X123197056Y-91802944D03*
X123197056Y-95197056D03*
X123900000Y-93500000D03*
%TD*%
D10*
%TO.C,TP6*%
X89154000Y-46228000D03*
%TD*%
%TO.C,TP8*%
X81788000Y-70866000D03*
%TD*%
%TO.C,TP2*%
X86360000Y-46228000D03*
%TD*%
%TO.C,TP11*%
X68326000Y-46228000D03*
%TD*%
D13*
%TO.C,H1*%
X60100000Y-44500000D03*
X60802944Y-42802944D03*
X60802944Y-46197056D03*
X62500000Y-42100000D03*
D14*
X62500000Y-44500000D03*
D13*
X62500000Y-46900000D03*
X64197056Y-42802944D03*
X64197056Y-46197056D03*
X64900000Y-44500000D03*
%TD*%
D10*
%TO.C,TP9*%
X81788000Y-73406000D03*
%TD*%
D15*
%TO.C,AE1*%
X98500000Y-54000000D03*
D16*
X93500000Y-50000000D03*
%TD*%
D13*
%TO.C,H4*%
X60100000Y-93500000D03*
X60802944Y-91802944D03*
X60802944Y-95197056D03*
X62500000Y-91100000D03*
D14*
X62500000Y-93500000D03*
D13*
X62500000Y-95900000D03*
X64197056Y-91802944D03*
X64197056Y-95197056D03*
X64900000Y-93500000D03*
%TD*%
%TO.C,H2*%
X119100000Y-44500000D03*
X119802944Y-42802944D03*
X119802944Y-46197056D03*
X121500000Y-42100000D03*
D14*
X121500000Y-44500000D03*
D13*
X121500000Y-46900000D03*
X123197056Y-42802944D03*
X123197056Y-46197056D03*
X123900000Y-44500000D03*
%TD*%
D17*
%TO.C,J2*%
X59925000Y-88320000D03*
X59925000Y-79680000D03*
D18*
X64105000Y-79680000D03*
D19*
X64670000Y-87350000D03*
X64670000Y-86550000D03*
X64670000Y-85250000D03*
X64670000Y-84250000D03*
X64670000Y-83750000D03*
X64670000Y-82750000D03*
X64670000Y-81450000D03*
X64670000Y-80650000D03*
X64670000Y-80950000D03*
X64670000Y-81750000D03*
X64670000Y-82250000D03*
X64670000Y-83250000D03*
X64670000Y-84750000D03*
X64670000Y-85750000D03*
X64670000Y-86250000D03*
X64670000Y-87050000D03*
D18*
X64105000Y-88320000D03*
%TD*%
D20*
%TO.C,BT1*%
X82000000Y-84360000D03*
X77300000Y-54390000D03*
D21*
X86000000Y-93000000D03*
D22*
X73300000Y-93000000D03*
%TD*%
M02*
