%TF.GenerationSoftware,KiCad,Pcbnew,7.0.6-0*%
%TF.CreationDate,2023-08-18T22:24:39+03:00*%
%TF.ProjectId,iot-data-logger-nfc-samd21,696f742d-6461-4746-912d-6c6f67676572,rev?*%
%TF.SameCoordinates,Original*%
%TF.FileFunction,Paste,Top*%
%TF.FilePolarity,Positive*%
%FSLAX46Y46*%
G04 Gerber Fmt 4.6, Leading zero omitted, Abs format (unit mm)*
G04 Created by KiCad (PCBNEW 7.0.6-0) date 2023-08-18 22:24:39*
%MOMM*%
%LPD*%
G01*
G04 APERTURE LIST*
G04 Aperture macros list*
%AMRoundRect*
0 Rectangle with rounded corners*
0 $1 Rounding radius*
0 $2 $3 $4 $5 $6 $7 $8 $9 X,Y pos of 4 corners*
0 Add a 4 corners polygon primitive as box body*
4,1,4,$2,$3,$4,$5,$6,$7,$8,$9,$2,$3,0*
0 Add four circle primitives for the rounded corners*
1,1,$1+$1,$2,$3*
1,1,$1+$1,$4,$5*
1,1,$1+$1,$6,$7*
1,1,$1+$1,$8,$9*
0 Add four rect primitives between the rounded corners*
20,1,$1+$1,$2,$3,$4,$5,0*
20,1,$1+$1,$4,$5,$6,$7,0*
20,1,$1+$1,$6,$7,$8,$9,0*
20,1,$1+$1,$8,$9,$2,$3,0*%
%AMFreePoly0*
4,1,9,5.362500,-0.866500,1.237500,-0.866500,1.237500,-0.450000,-1.237500,-0.450000,-1.237500,0.450000,1.237500,0.450000,1.237500,0.866500,5.362500,0.866500,5.362500,-0.866500,5.362500,-0.866500,$1*%
%AMFreePoly1*
4,1,6,0.450000,-0.800000,-0.450000,-0.800000,-0.450000,0.530000,-0.180000,0.800000,0.450000,0.800000,0.450000,-0.800000,0.450000,-0.800000,$1*%
G04 Aperture macros list end*
%ADD10C,0.010000*%
%ADD11R,0.900000X2.300000*%
%ADD12FreePoly0,270.000000*%
%ADD13RoundRect,0.250000X-0.450000X0.350000X-0.450000X-0.350000X0.450000X-0.350000X0.450000X0.350000X0*%
%ADD14RoundRect,0.008100X0.126900X-0.361900X0.126900X0.361900X-0.126900X0.361900X-0.126900X-0.361900X0*%
%ADD15RoundRect,0.250000X-0.337500X-0.475000X0.337500X-0.475000X0.337500X0.475000X-0.337500X0.475000X0*%
%ADD16RoundRect,0.250000X0.450000X-0.350000X0.450000X0.350000X-0.450000X0.350000X-0.450000X-0.350000X0*%
%ADD17RoundRect,0.250000X-0.475000X0.337500X-0.475000X-0.337500X0.475000X-0.337500X0.475000X0.337500X0*%
%ADD18R,1.000000X0.700000*%
%ADD19R,0.600000X0.700000*%
%ADD20R,1.000000X1.000000*%
%ADD21RoundRect,0.250000X0.400000X1.450000X-0.400000X1.450000X-0.400000X-1.450000X0.400000X-1.450000X0*%
%ADD22RoundRect,0.150000X-0.150000X0.587500X-0.150000X-0.587500X0.150000X-0.587500X0.150000X0.587500X0*%
%ADD23RoundRect,0.250000X0.475000X-0.337500X0.475000X0.337500X-0.475000X0.337500X-0.475000X-0.337500X0*%
%ADD24FreePoly1,90.000000*%
%ADD25R,0.250000X1.100000*%
%ADD26RoundRect,0.250000X0.350000X0.450000X-0.350000X0.450000X-0.350000X-0.450000X0.350000X-0.450000X0*%
%ADD27RoundRect,0.250000X0.337500X0.475000X-0.337500X0.475000X-0.337500X-0.475000X0.337500X-0.475000X0*%
%ADD28R,0.600000X0.500000*%
%ADD29R,0.300000X0.750000*%
%ADD30RoundRect,0.250000X-0.350000X-0.450000X0.350000X-0.450000X0.350000X0.450000X-0.350000X0.450000X0*%
%ADD31R,1.600000X0.550000*%
%ADD32R,0.550000X1.600000*%
%ADD33R,1.800000X1.750000*%
%ADD34RoundRect,0.150000X0.150000X-0.650000X0.150000X0.650000X-0.150000X0.650000X-0.150000X-0.650000X0*%
%ADD35RoundRect,0.250000X-0.650000X0.412500X-0.650000X-0.412500X0.650000X-0.412500X0.650000X0.412500X0*%
%ADD36RoundRect,0.100000X0.637500X0.100000X-0.637500X0.100000X-0.637500X-0.100000X0.637500X-0.100000X0*%
%ADD37C,0.500000*%
%ADD38RoundRect,0.250000X0.325000X0.450000X-0.325000X0.450000X-0.325000X-0.450000X0.325000X-0.450000X0*%
G04 APERTURE END LIST*
%TO.C,U8*%
D10*
X63430000Y-53210000D02*
X62570000Y-53210000D01*
X62570000Y-52790000D01*
X63430000Y-52790000D01*
X63430000Y-53210000D01*
G36*
X63430000Y-53210000D02*
G01*
X62570000Y-53210000D01*
X62570000Y-52790000D01*
X63430000Y-52790000D01*
X63430000Y-53210000D01*
G37*
%TO.C,U7*%
X87520500Y-72768000D02*
X86733500Y-72768000D01*
X86733500Y-72488000D01*
X87520500Y-72488000D01*
X87520500Y-72768000D01*
G36*
X87520500Y-72768000D02*
G01*
X86733500Y-72768000D01*
X86733500Y-72488000D01*
X87520500Y-72488000D01*
X87520500Y-72768000D01*
G37*
X87520500Y-72268000D02*
X86733500Y-72268000D01*
X86733500Y-71988000D01*
X87520500Y-71988000D01*
X87520500Y-72268000D01*
G36*
X87520500Y-72268000D02*
G01*
X86733500Y-72268000D01*
X86733500Y-71988000D01*
X87520500Y-71988000D01*
X87520500Y-72268000D01*
G37*
X87520500Y-71768000D02*
X86733500Y-71768000D01*
X86733500Y-71488000D01*
X87520500Y-71488000D01*
X87520500Y-71768000D01*
G36*
X87520500Y-71768000D02*
G01*
X86733500Y-71768000D01*
X86733500Y-71488000D01*
X87520500Y-71488000D01*
X87520500Y-71768000D01*
G37*
X87520500Y-71268000D02*
X86733500Y-71268000D01*
X86733500Y-70988000D01*
X87520500Y-70988000D01*
X87520500Y-71268000D01*
G36*
X87520500Y-71268000D02*
G01*
X86733500Y-71268000D01*
X86733500Y-70988000D01*
X87520500Y-70988000D01*
X87520500Y-71268000D01*
G37*
X87520500Y-70768000D02*
X86733500Y-70768000D01*
X86733500Y-70488000D01*
X87520500Y-70488000D01*
X87520500Y-70768000D01*
G36*
X87520500Y-70768000D02*
G01*
X86733500Y-70768000D01*
X86733500Y-70488000D01*
X87520500Y-70488000D01*
X87520500Y-70768000D01*
G37*
X86492000Y-73296500D02*
X86212000Y-73296500D01*
X86212000Y-72509500D01*
X86492000Y-72509500D01*
X86492000Y-73296500D01*
G36*
X86492000Y-73296500D02*
G01*
X86212000Y-73296500D01*
X86212000Y-72509500D01*
X86492000Y-72509500D01*
X86492000Y-73296500D01*
G37*
X86492000Y-70746500D02*
X86212000Y-70746500D01*
X86212000Y-69959500D01*
X86492000Y-69959500D01*
X86492000Y-70746500D01*
G36*
X86492000Y-70746500D02*
G01*
X86212000Y-70746500D01*
X86212000Y-69959500D01*
X86492000Y-69959500D01*
X86492000Y-70746500D01*
G37*
X85992000Y-73296500D02*
X85712000Y-73296500D01*
X85712000Y-72509500D01*
X85992000Y-72509500D01*
X85992000Y-73296500D01*
G36*
X85992000Y-73296500D02*
G01*
X85712000Y-73296500D01*
X85712000Y-72509500D01*
X85992000Y-72509500D01*
X85992000Y-73296500D01*
G37*
X85992000Y-70746500D02*
X85712000Y-70746500D01*
X85712000Y-69959500D01*
X85992000Y-69959500D01*
X85992000Y-70746500D01*
G36*
X85992000Y-70746500D02*
G01*
X85712000Y-70746500D01*
X85712000Y-69959500D01*
X85992000Y-69959500D01*
X85992000Y-70746500D01*
G37*
X85492000Y-73296500D02*
X85212000Y-73296500D01*
X85212000Y-72509500D01*
X85492000Y-72509500D01*
X85492000Y-73296500D01*
G36*
X85492000Y-73296500D02*
G01*
X85212000Y-73296500D01*
X85212000Y-72509500D01*
X85492000Y-72509500D01*
X85492000Y-73296500D01*
G37*
X85492000Y-70746500D02*
X85212000Y-70746500D01*
X85212000Y-69959500D01*
X85492000Y-69959500D01*
X85492000Y-70746500D01*
G36*
X85492000Y-70746500D02*
G01*
X85212000Y-70746500D01*
X85212000Y-69959500D01*
X85492000Y-69959500D01*
X85492000Y-70746500D01*
G37*
X84970500Y-72768000D02*
X84183500Y-72768000D01*
X84183500Y-72488000D01*
X84970500Y-72488000D01*
X84970500Y-72768000D01*
G36*
X84970500Y-72768000D02*
G01*
X84183500Y-72768000D01*
X84183500Y-72488000D01*
X84970500Y-72488000D01*
X84970500Y-72768000D01*
G37*
X84970500Y-72268000D02*
X84183500Y-72268000D01*
X84183500Y-71988000D01*
X84970500Y-71988000D01*
X84970500Y-72268000D01*
G36*
X84970500Y-72268000D02*
G01*
X84183500Y-72268000D01*
X84183500Y-71988000D01*
X84970500Y-71988000D01*
X84970500Y-72268000D01*
G37*
X84970500Y-71768000D02*
X84183500Y-71768000D01*
X84183500Y-71488000D01*
X84970500Y-71488000D01*
X84970500Y-71768000D01*
G36*
X84970500Y-71768000D02*
G01*
X84183500Y-71768000D01*
X84183500Y-71488000D01*
X84970500Y-71488000D01*
X84970500Y-71768000D01*
G37*
X84970500Y-71268000D02*
X84183500Y-71268000D01*
X84183500Y-70988000D01*
X84970500Y-70988000D01*
X84970500Y-71268000D01*
G36*
X84970500Y-71268000D02*
G01*
X84183500Y-71268000D01*
X84183500Y-70988000D01*
X84970500Y-70988000D01*
X84970500Y-71268000D01*
G37*
X84970500Y-70768000D02*
X84183500Y-70768000D01*
X84183500Y-70488000D01*
X84970500Y-70488000D01*
X84970500Y-70768000D01*
G36*
X84970500Y-70768000D02*
G01*
X84183500Y-70768000D01*
X84183500Y-70488000D01*
X84970500Y-70488000D01*
X84970500Y-70768000D01*
G37*
%TD*%
D11*
%TO.C,U1*%
X78970000Y-90768000D03*
D12*
X77470000Y-90855500D03*
D11*
X75970000Y-90768000D03*
%TD*%
D13*
%TO.C,R9*%
X77262000Y-61118500D03*
X77262000Y-63118500D03*
%TD*%
D14*
%TO.C,U8*%
X62350000Y-53995000D03*
X63000000Y-53995000D03*
X63650000Y-53995000D03*
X63650000Y-52005000D03*
X63000000Y-52005000D03*
X62350000Y-52005000D03*
%TD*%
D15*
%TO.C,C19*%
X89132500Y-76200000D03*
X91207500Y-76200000D03*
%TD*%
D16*
%TO.C,R1*%
X70485000Y-86344000D03*
X70485000Y-84344000D03*
%TD*%
D17*
%TO.C,C4*%
X84368000Y-63168500D03*
X84368000Y-65243500D03*
%TD*%
D18*
%TO.C,D3*%
X61988000Y-84566000D03*
D19*
X63688000Y-84566000D03*
X63688000Y-82566000D03*
X61788000Y-82566000D03*
%TD*%
D20*
%TO.C,D1*%
X60726000Y-86360000D03*
X63226000Y-86360000D03*
%TD*%
D21*
%TO.C,F1*%
X92903000Y-93218000D03*
X88453000Y-93218000D03*
%TD*%
D17*
%TO.C,C11*%
X74549000Y-84306500D03*
X74549000Y-86381500D03*
%TD*%
D22*
%TO.C,Q1*%
X83246000Y-90502500D03*
X81346000Y-90502500D03*
X82296000Y-92377500D03*
%TD*%
D23*
%TO.C,C16*%
X68326000Y-56409500D03*
X68326000Y-54334500D03*
%TD*%
D13*
%TO.C,R3*%
X86487000Y-84344000D03*
X86487000Y-86344000D03*
%TD*%
D16*
%TO.C,R6*%
X67691000Y-88503000D03*
X67691000Y-86503000D03*
%TD*%
D15*
%TO.C,C14*%
X80205500Y-65278000D03*
X82280500Y-65278000D03*
%TD*%
%TO.C,C20*%
X89132500Y-71120000D03*
X91207500Y-71120000D03*
%TD*%
D17*
%TO.C,C2*%
X84074000Y-74908500D03*
X84074000Y-76983500D03*
%TD*%
D13*
%TO.C,R4*%
X88646000Y-84344000D03*
X88646000Y-86344000D03*
%TD*%
%TO.C,R10*%
X75262000Y-61118500D03*
X75262000Y-63118500D03*
%TD*%
D15*
%TO.C,C10*%
X85068500Y-52324000D03*
X87143500Y-52324000D03*
%TD*%
%TO.C,C12*%
X67542500Y-94488000D03*
X69617500Y-94488000D03*
%TD*%
D24*
%TO.C,U6*%
X63000000Y-61000000D03*
D25*
X62250000Y-62450000D03*
X62750000Y-62450000D03*
X63250000Y-62450000D03*
X63750000Y-62450000D03*
X63750000Y-59550000D03*
X63250000Y-59550000D03*
X62750000Y-59550000D03*
X62250000Y-59550000D03*
%TD*%
D26*
%TO.C,R8*%
X64246000Y-74295000D03*
X62246000Y-74295000D03*
%TD*%
D15*
%TO.C,C13*%
X80205500Y-67310000D03*
X82280500Y-67310000D03*
%TD*%
D27*
%TO.C,C5*%
X69617500Y-90424000D03*
X67542500Y-90424000D03*
%TD*%
D28*
%TO.C,U4*%
X72773000Y-51707000D03*
X73523000Y-51707000D03*
X72773000Y-51057000D03*
X73523000Y-51057000D03*
D29*
X72398000Y-52832000D03*
X72898000Y-52832000D03*
X73398000Y-52832000D03*
X73898000Y-52832000D03*
X73898000Y-49932000D03*
X73398000Y-49932000D03*
X72898000Y-49932000D03*
X72398000Y-49932000D03*
%TD*%
D30*
%TO.C,R7*%
X62246000Y-76454000D03*
X64246000Y-76454000D03*
%TD*%
D31*
%TO.C,U2*%
X78952500Y-77989000D03*
X78952500Y-77189000D03*
X78952500Y-76389000D03*
X78952500Y-75589000D03*
X78952500Y-74789000D03*
X78952500Y-73989000D03*
X78952500Y-73189000D03*
X78952500Y-72389000D03*
D32*
X77502500Y-70939000D03*
X76702500Y-70939000D03*
X75902500Y-70939000D03*
X75102500Y-70939000D03*
X74302500Y-70939000D03*
X73502500Y-70939000D03*
X72702500Y-70939000D03*
X71902500Y-70939000D03*
D31*
X70452500Y-72389000D03*
X70452500Y-73189000D03*
X70452500Y-73989000D03*
X70452500Y-74789000D03*
X70452500Y-75589000D03*
X70452500Y-76389000D03*
X70452500Y-77189000D03*
X70452500Y-77989000D03*
D32*
X71902500Y-79439000D03*
X72702500Y-79439000D03*
X73502500Y-79439000D03*
X74302500Y-79439000D03*
X75102500Y-79439000D03*
X75902500Y-79439000D03*
X76702500Y-79439000D03*
X77502500Y-79439000D03*
%TD*%
D30*
%TO.C,R5*%
X67580000Y-92456000D03*
X69580000Y-92456000D03*
%TD*%
D23*
%TO.C,C8*%
X70358000Y-56409500D03*
X70358000Y-54334500D03*
%TD*%
D26*
%TO.C,FB1*%
X82243000Y-63246000D03*
X80243000Y-63246000D03*
%TD*%
D33*
%TO.C,Y1*%
X81788000Y-79349000D03*
X81788000Y-76099000D03*
%TD*%
D17*
%TO.C,C15*%
X70612000Y-50270500D03*
X70612000Y-52345500D03*
%TD*%
%TO.C,C9*%
X76708000Y-84306500D03*
X76708000Y-86381500D03*
%TD*%
D34*
%TO.C,U3*%
X69215000Y-67100000D03*
X70485000Y-67100000D03*
X71755000Y-67100000D03*
X73025000Y-67100000D03*
X73025000Y-59900000D03*
X71755000Y-59900000D03*
X70485000Y-59900000D03*
X69215000Y-59900000D03*
%TD*%
D35*
%TO.C,C3*%
X86868000Y-63143500D03*
X86868000Y-66268500D03*
%TD*%
D23*
%TO.C,C6*%
X90805000Y-86381500D03*
X90805000Y-84306500D03*
%TD*%
D36*
%TO.C,U9*%
X91000500Y-50210000D03*
X91000500Y-49560000D03*
X91000500Y-48910000D03*
X91000500Y-48260000D03*
X85275500Y-48260000D03*
X85275500Y-48910000D03*
X85275500Y-49560000D03*
X85275500Y-50210000D03*
%TD*%
D13*
%TO.C,R2*%
X72517000Y-84344000D03*
X72517000Y-86344000D03*
%TD*%
D17*
%TO.C,C21*%
X68326000Y-50270500D03*
X68326000Y-52345500D03*
%TD*%
D23*
%TO.C,C1*%
X84074000Y-80793500D03*
X84074000Y-78718500D03*
%TD*%
D15*
%TO.C,C18*%
X89111000Y-74168000D03*
X91186000Y-74168000D03*
%TD*%
D37*
%TO.C,AE1*%
X94500000Y-49000000D03*
%TD*%
D38*
%TO.C,D2*%
X64025000Y-69000000D03*
X61975000Y-69000000D03*
%TD*%
M02*
