%TF.GenerationSoftware,KiCad,Pcbnew,7.0.6-0*%
%TF.CreationDate,2023-08-18T22:24:39+03:00*%
%TF.ProjectId,iot-data-logger-nfc-samd21,696f742d-6461-4746-912d-6c6f67676572,rev?*%
%TF.SameCoordinates,Original*%
%TF.FileFunction,Copper,L2,Bot*%
%TF.FilePolarity,Positive*%
%FSLAX46Y46*%
G04 Gerber Fmt 4.6, Leading zero omitted, Abs format (unit mm)*
G04 Created by KiCad (PCBNEW 7.0.6-0) date 2023-08-18 22:24:39*
%MOMM*%
%LPD*%
G01*
G04 APERTURE LIST*
%TA.AperFunction,EtchedComponent*%
%ADD10C,0.500000*%
%TD*%
%TA.AperFunction,ComponentPad*%
%ADD11C,1.500000*%
%TD*%
%TA.AperFunction,ComponentPad*%
%ADD12R,1.700000X1.700000*%
%TD*%
%TA.AperFunction,ComponentPad*%
%ADD13O,1.700000X1.700000*%
%TD*%
%TA.AperFunction,ComponentPad*%
%ADD14C,0.800000*%
%TD*%
%TA.AperFunction,ComponentPad*%
%ADD15C,6.400000*%
%TD*%
%TA.AperFunction,ComponentPad*%
%ADD16C,0.600000*%
%TD*%
%TA.AperFunction,SMDPad,CuDef*%
%ADD17C,0.500000*%
%TD*%
%TA.AperFunction,ComponentPad*%
%ADD18O,1.600000X1.000000*%
%TD*%
%TA.AperFunction,ComponentPad*%
%ADD19O,2.100000X1.000000*%
%TD*%
%TA.AperFunction,SMDPad,CuDef*%
%ADD20R,1.150000X0.300000*%
%TD*%
%TA.AperFunction,ComponentPad*%
%ADD21R,2.000000X2.000000*%
%TD*%
%TA.AperFunction,ComponentPad*%
%ADD22C,2.000000*%
%TD*%
%TA.AperFunction,ViaPad*%
%ADD23C,0.800000*%
%TD*%
%TA.AperFunction,Conductor*%
%ADD24C,0.400000*%
%TD*%
%TA.AperFunction,Conductor*%
%ADD25C,0.200000*%
%TD*%
G04 APERTURE END LIST*
D10*
%TO.C,AE1*%
X93500000Y-89000000D02*
X93500000Y-50000000D01*
X93500000Y-89000000D02*
X124500000Y-89000000D01*
X94500000Y-50000000D02*
X124500000Y-50000000D01*
X94500000Y-88000000D02*
X94500000Y-50000000D01*
X94500000Y-88000000D02*
X123500000Y-88000000D01*
X95500000Y-51000000D02*
X123500000Y-51000000D01*
X95500000Y-87000000D02*
X95500000Y-51000000D01*
X95500000Y-87000000D02*
X122500000Y-87000000D01*
X96500000Y-52000000D02*
X122500000Y-52000000D01*
X96500000Y-86000000D02*
X96500000Y-52000000D01*
X96500000Y-86000000D02*
X121500000Y-86000000D01*
X97500000Y-53000000D02*
X121500000Y-53000000D01*
X97500000Y-85000000D02*
X97500000Y-53000000D01*
X97500000Y-85000000D02*
X120500000Y-85000000D01*
X98500000Y-54000000D02*
X120500000Y-54000000D01*
X120500000Y-85000000D02*
X120500000Y-54000000D01*
X121500000Y-86000000D02*
X121500000Y-53000000D01*
X122500000Y-87000000D02*
X122500000Y-52000000D01*
X123500000Y-88000000D02*
X123500000Y-51000000D01*
X124500000Y-89000000D02*
X124500000Y-50000000D01*
%TD*%
D11*
%TO.P,TP1,1,1*%
%TO.N,SDA*%
X83566000Y-46228000D03*
%TD*%
D12*
%TO.P,J1,1,Pin_1*%
%TO.N,~RESET*%
X114808000Y-93472000D03*
D13*
%TO.P,J1,2,Pin_2*%
%TO.N,+3V0*%
X112268000Y-93472000D03*
%TO.P,J1,3,Pin_3*%
%TO.N,GND*%
X109728000Y-93472000D03*
%TO.P,J1,4,Pin_4*%
%TO.N,unconnected-(J1-Pin_4-Pad4)*%
X107188000Y-93472000D03*
%TO.P,J1,5,Pin_5*%
%TO.N,SWDCLK*%
X104648000Y-93472000D03*
%TO.P,J1,6,Pin_6*%
%TO.N,unconnected-(J1-Pin_6-Pad6)*%
X102108000Y-93472000D03*
%TO.P,J1,7,Pin_7*%
%TO.N,unconnected-(J1-Pin_7-Pad7)*%
X99568000Y-93472000D03*
%TO.P,J1,8,Pin_8*%
%TO.N,SWDIO*%
X97028000Y-93472000D03*
%TD*%
D14*
%TO.P,H3,1,1*%
%TO.N,GND*%
X119100000Y-93500000D03*
X119802944Y-91802944D03*
X119802944Y-95197056D03*
X121500000Y-91100000D03*
D15*
X121500000Y-93500000D03*
D14*
X121500000Y-95900000D03*
X123197056Y-91802944D03*
X123197056Y-95197056D03*
X123900000Y-93500000D03*
%TD*%
D11*
%TO.P,TP6,1,1*%
%TO.N,NFC_INT*%
X89154000Y-46228000D03*
%TD*%
%TO.P,TP8,1,1*%
%TO.N,IMU_INT1*%
X81788000Y-70866000D03*
%TD*%
%TO.P,TP2,1,1*%
%TO.N,SCL*%
X86360000Y-46228000D03*
%TD*%
%TO.P,TP11,1,1*%
%TO.N,LIGHT_INT*%
X68326000Y-46228000D03*
%TD*%
D14*
%TO.P,H1,1,1*%
%TO.N,GND*%
X60100000Y-44500000D03*
X60802944Y-42802944D03*
X60802944Y-46197056D03*
X62500000Y-42100000D03*
D15*
X62500000Y-44500000D03*
D14*
X62500000Y-46900000D03*
X64197056Y-42802944D03*
X64197056Y-46197056D03*
X64900000Y-44500000D03*
%TD*%
D11*
%TO.P,TP9,1,1*%
%TO.N,IMU_INT2*%
X81788000Y-73406000D03*
%TD*%
D16*
%TO.P,AE1,*%
%TO.N,*%
X98500000Y-54000000D03*
D17*
%TO.P,AE1,2*%
%TO.N,Net-(U9-AC0)*%
X93500000Y-50000000D03*
%TD*%
D14*
%TO.P,H4,1,1*%
%TO.N,GND*%
X60100000Y-93500000D03*
X60802944Y-91802944D03*
X60802944Y-95197056D03*
X62500000Y-91100000D03*
D15*
X62500000Y-93500000D03*
D14*
X62500000Y-95900000D03*
X64197056Y-91802944D03*
X64197056Y-95197056D03*
X64900000Y-93500000D03*
%TD*%
%TO.P,H2,1,1*%
%TO.N,GND*%
X119100000Y-44500000D03*
X119802944Y-42802944D03*
X119802944Y-46197056D03*
X121500000Y-42100000D03*
D15*
X121500000Y-44500000D03*
D14*
X121500000Y-46900000D03*
X123197056Y-42802944D03*
X123197056Y-46197056D03*
X123900000Y-44500000D03*
%TD*%
D18*
%TO.P,J2,*%
%TO.N,*%
X59925000Y-88320000D03*
X59925000Y-79680000D03*
D19*
X64105000Y-79680000D03*
D20*
%TO.P,J2,A1,GND*%
%TO.N,GND*%
X64670000Y-87350000D03*
%TO.P,J2,A4,VBUS*%
%TO.N,Net-(D1-A)*%
X64670000Y-86550000D03*
%TO.P,J2,A5,CC1*%
%TO.N,Net-(J2-CC1)*%
X64670000Y-85250000D03*
%TO.P,J2,A6,D+*%
%TO.N,USB_D+*%
X64670000Y-84250000D03*
%TO.P,J2,A7,D-*%
%TO.N,USB_D-*%
X64670000Y-83750000D03*
%TO.P,J2,A8,SBU1*%
%TO.N,unconnected-(J2-SBU1-PadA8)*%
X64670000Y-82750000D03*
%TO.P,J2,A9,VBUS*%
%TO.N,Net-(D1-A)*%
X64670000Y-81450000D03*
%TO.P,J2,A12,GND*%
%TO.N,GND*%
X64670000Y-80650000D03*
%TO.P,J2,B1,GND*%
X64670000Y-80950000D03*
%TO.P,J2,B4,VBUS*%
%TO.N,Net-(D1-A)*%
X64670000Y-81750000D03*
%TO.P,J2,B5,CC2*%
%TO.N,Net-(J2-CC2)*%
X64670000Y-82250000D03*
%TO.P,J2,B6,D+*%
%TO.N,USB_D+*%
X64670000Y-83250000D03*
%TO.P,J2,B7,D-*%
%TO.N,USB_D-*%
X64670000Y-84750000D03*
%TO.P,J2,B8,SBU2*%
%TO.N,unconnected-(J2-SBU2-PadB8)*%
X64670000Y-85750000D03*
%TO.P,J2,B9,VBUS*%
%TO.N,Net-(D1-A)*%
X64670000Y-86250000D03*
%TO.P,J2,B12,GND*%
%TO.N,GND*%
X64670000Y-87050000D03*
D19*
%TO.P,J2,S1,SHIELD*%
%TO.N,Net-(D3-GND)*%
X64105000Y-88320000D03*
%TD*%
D21*
%TO.P,BT1,1,+*%
%TO.N,Net-(BT1-+)*%
X86000000Y-93000000D03*
D22*
%TO.P,BT1,2,-*%
%TO.N,GND*%
X73300000Y-93000000D03*
%TD*%
D23*
%TO.N,GND*%
X75184000Y-50038000D03*
X66929000Y-54102000D03*
X74295000Y-77216000D03*
X76200000Y-64516000D03*
X84328000Y-67310000D03*
X75946000Y-68453000D03*
X75946000Y-72898000D03*
X73279000Y-64516000D03*
X64516000Y-60579000D03*
X85725000Y-76962000D03*
X70993000Y-48006000D03*
X85852000Y-71501000D03*
X66294000Y-88519000D03*
X64897000Y-55626000D03*
X87503000Y-68961000D03*
X87122000Y-61468000D03*
X91313000Y-69342000D03*
X87122000Y-58293000D03*
X111379000Y-95758000D03*
X66929000Y-52324000D03*
X91313000Y-52324000D03*
%TO.N,+5V*%
X74287800Y-89980500D03*
X82296000Y-90464200D03*
X64352400Y-89560000D03*
%TO.N,SDA*%
X63143100Y-64121900D03*
X62586700Y-50900200D03*
%TO.N,SCL*%
X75228300Y-66733700D03*
X70882700Y-61613200D03*
%TO.N,SWDIO*%
X85162900Y-83214400D03*
%TO.N,SWDCLK*%
X78218400Y-81749700D03*
X85182700Y-86155900D03*
%TO.N,NFC_INT*%
X83480200Y-70953800D03*
%TO.N,Net-(D1-A)*%
X66273500Y-86853500D03*
%TO.N,TEMP_INT*%
X72343300Y-74055400D03*
X65627600Y-67397200D03*
%TO.N,SCK*%
X72250700Y-72600600D03*
X72103900Y-62340300D03*
%TO.N,USB_D+*%
X63373000Y-83820000D03*
%TO.N,USB_D-*%
X65913000Y-83185000D03*
%TO.N,~RESET*%
X91333400Y-88213700D03*
%TO.N,IMU_INT2*%
X77498500Y-73314000D03*
%TO.N,Net-(J2-CC1)*%
X66293300Y-85576400D03*
%TO.N,Net-(J2-CC2)*%
X62357000Y-78359000D03*
%TO.N,Net-(U9-AC0)*%
X92550500Y-49725400D03*
%TD*%
D24*
%TO.N,+5V*%
X73867300Y-89560000D02*
X64352400Y-89560000D01*
X74287800Y-89980500D02*
X81812300Y-89980500D01*
X74287800Y-89980500D02*
X73867300Y-89560000D01*
X81812300Y-89980500D02*
X82296000Y-90464200D01*
D25*
%TO.N,SDA*%
X63143100Y-64121900D02*
X63143100Y-51456600D01*
X63143100Y-51456600D02*
X62586700Y-50900200D01*
X83566000Y-46228000D02*
X78893800Y-50900200D01*
X78893800Y-50900200D02*
X62586700Y-50900200D01*
%TO.N,SCL*%
X86360000Y-46228000D02*
X86360000Y-50481500D01*
X86360000Y-50481500D02*
X75228300Y-61613200D01*
X75228300Y-61613200D02*
X70882700Y-61613200D01*
X75228300Y-61613200D02*
X75228300Y-66733700D01*
%TO.N,SWDIO*%
X95420500Y-93472000D02*
X97028000Y-93472000D01*
X85162900Y-83214400D02*
X95420500Y-93472000D01*
%TO.N,SWDCLK*%
X78218400Y-81749700D02*
X82717500Y-81749700D01*
X84276900Y-83309100D02*
X84276900Y-85250100D01*
X82717500Y-81749700D02*
X84276900Y-83309100D01*
X84276900Y-85250100D02*
X85182700Y-86155900D01*
%TO.N,NFC_INT*%
X89154000Y-65280000D02*
X83480200Y-70953800D01*
X89154000Y-46228000D02*
X89154000Y-65280000D01*
%TO.N,Net-(D1-A)*%
X64670000Y-81750000D02*
X65546900Y-81750000D01*
X66273500Y-86550000D02*
X64670000Y-86550000D01*
X67005200Y-83208300D02*
X67005200Y-85920400D01*
X66375600Y-86550000D02*
X66273500Y-86550000D01*
X64670000Y-81450000D02*
X64670000Y-81750000D01*
X64670000Y-86550000D02*
X64670000Y-86250000D01*
X67005200Y-85920400D02*
X66375600Y-86550000D01*
X66273500Y-86550000D02*
X66273500Y-86853500D01*
X65546900Y-81750000D02*
X67005200Y-83208300D01*
%TO.N,TEMP_INT*%
X72285800Y-74055400D02*
X65627600Y-67397200D01*
X72343300Y-74055400D02*
X72285800Y-74055400D01*
%TO.N,SCK*%
X72103900Y-62340300D02*
X72250700Y-62487100D01*
X72250700Y-62487100D02*
X72250700Y-72600600D01*
%TO.N,USB_D+*%
X63689000Y-83250000D02*
X63500000Y-83439000D01*
X63500000Y-83947000D02*
X63500000Y-84050000D01*
X63500000Y-83439000D02*
X63500000Y-83693000D01*
X63676000Y-84250000D02*
X64670000Y-84250000D01*
X63500000Y-84074000D02*
X63676000Y-84250000D01*
X64670000Y-83250000D02*
X63689000Y-83250000D01*
X63500000Y-83693000D02*
X63373000Y-83820000D01*
X63373000Y-83820000D02*
X63500000Y-83947000D01*
X63500000Y-84050000D02*
X63500000Y-84074000D01*
%TO.N,USB_D-*%
X64670000Y-84750000D02*
X65745000Y-84750000D01*
X65913000Y-84582000D02*
X65913000Y-83947000D01*
X65913000Y-83223100D02*
X65913000Y-83553000D01*
X65716000Y-83750000D02*
X64670000Y-83750000D01*
X65913000Y-83947000D02*
X65716000Y-83750000D01*
X65745000Y-84750000D02*
X65913000Y-84582000D01*
X65913000Y-83553000D02*
X65716000Y-83750000D01*
%TO.N,~RESET*%
X113656100Y-93472000D02*
X113656100Y-93183900D01*
X112792300Y-92320100D02*
X95301200Y-92320100D01*
X114808000Y-93472000D02*
X113656100Y-93472000D01*
X91333400Y-88352300D02*
X91333400Y-88213700D01*
X95301200Y-92320100D02*
X91333400Y-88352300D01*
X113656100Y-93183900D02*
X112792300Y-92320100D01*
%TO.N,IMU_INT2*%
X77498500Y-73314000D02*
X81696000Y-73314000D01*
X81696000Y-73314000D02*
X81788000Y-73406000D01*
%TO.N,Net-(J2-CC1)*%
X65966900Y-85250000D02*
X64670000Y-85250000D01*
X66293300Y-85576400D02*
X65966900Y-85250000D01*
%TO.N,Net-(J2-CC2)*%
X63793100Y-82250000D02*
X64670000Y-82250000D01*
X62357000Y-78359000D02*
X62357000Y-80813900D01*
X62357000Y-80813900D02*
X63793100Y-82250000D01*
%TO.N,Net-(U9-AC0)*%
X93500000Y-50000000D02*
X92825100Y-50000000D01*
X92825100Y-50000000D02*
X92550500Y-49725400D01*
%TD*%
%TA.AperFunction,Conductor*%
%TO.N,GND*%
G36*
X64356420Y-95002867D02*
G01*
X64294601Y-94961561D01*
X64221680Y-94947056D01*
X64172432Y-94947056D01*
X64099511Y-94961561D01*
X64016816Y-95016816D01*
X63961561Y-95099511D01*
X63942158Y-95197056D01*
X63961561Y-95294601D01*
X64002867Y-95356420D01*
X63444180Y-94797733D01*
X63634870Y-94634870D01*
X63797733Y-94444180D01*
X64356420Y-95002867D01*
G37*
%TD.AperFunction*%
%TA.AperFunction,Conductor*%
G36*
X61365130Y-94634870D02*
G01*
X61555819Y-94797733D01*
X60997135Y-95356416D01*
X61038439Y-95294601D01*
X61057842Y-95197056D01*
X61038439Y-95099511D01*
X60983184Y-95016816D01*
X60900489Y-94961561D01*
X60827568Y-94947056D01*
X60778320Y-94947056D01*
X60705399Y-94961561D01*
X60643576Y-95002869D01*
X61202266Y-94444179D01*
X61365130Y-94634870D01*
G37*
%TD.AperFunction*%
%TA.AperFunction,Conductor*%
G36*
X61555819Y-92202266D02*
G01*
X61365130Y-92365130D01*
X61202266Y-92555818D01*
X60643582Y-91997134D01*
X60705399Y-92038439D01*
X60778320Y-92052944D01*
X60827568Y-92052944D01*
X60900489Y-92038439D01*
X60983184Y-91983184D01*
X61038439Y-91900489D01*
X61057842Y-91802944D01*
X61038439Y-91705399D01*
X60997133Y-91643581D01*
X61555819Y-92202266D01*
G37*
%TD.AperFunction*%
%TA.AperFunction,Conductor*%
G36*
X63961561Y-91705399D02*
G01*
X63942158Y-91802944D01*
X63961561Y-91900489D01*
X64016816Y-91983184D01*
X64099511Y-92038439D01*
X64172432Y-92052944D01*
X64221680Y-92052944D01*
X64294601Y-92038439D01*
X64356415Y-91997135D01*
X63797732Y-92555818D01*
X63634870Y-92365130D01*
X63444180Y-92202266D01*
X64002867Y-91643578D01*
X63961561Y-91705399D01*
G37*
%TD.AperFunction*%
%TA.AperFunction,Conductor*%
G36*
X64356420Y-46002867D02*
G01*
X64294601Y-45961561D01*
X64221680Y-45947056D01*
X64172432Y-45947056D01*
X64099511Y-45961561D01*
X64016816Y-46016816D01*
X63961561Y-46099511D01*
X63942158Y-46197056D01*
X63961561Y-46294601D01*
X64002867Y-46356420D01*
X63444180Y-45797733D01*
X63634870Y-45634870D01*
X63797733Y-45444180D01*
X64356420Y-46002867D01*
G37*
%TD.AperFunction*%
%TA.AperFunction,Conductor*%
G36*
X61365130Y-45634870D02*
G01*
X61555819Y-45797733D01*
X60997135Y-46356416D01*
X61038439Y-46294601D01*
X61057842Y-46197056D01*
X61038439Y-46099511D01*
X60983184Y-46016816D01*
X60900489Y-45961561D01*
X60827568Y-45947056D01*
X60778320Y-45947056D01*
X60705399Y-45961561D01*
X60643577Y-46002868D01*
X61202266Y-45444180D01*
X61365130Y-45634870D01*
G37*
%TD.AperFunction*%
%TA.AperFunction,Conductor*%
G36*
X61555819Y-43202266D02*
G01*
X61365130Y-43365130D01*
X61202266Y-43555818D01*
X60643582Y-42997134D01*
X60705399Y-43038439D01*
X60778320Y-43052944D01*
X60827568Y-43052944D01*
X60900489Y-43038439D01*
X60983184Y-42983184D01*
X61038439Y-42900489D01*
X61057842Y-42802944D01*
X61038439Y-42705399D01*
X60997133Y-42643581D01*
X61555819Y-43202266D01*
G37*
%TD.AperFunction*%
%TA.AperFunction,Conductor*%
G36*
X63961561Y-42705399D02*
G01*
X63942158Y-42802944D01*
X63961561Y-42900489D01*
X64016816Y-42983184D01*
X64099511Y-43038439D01*
X64172432Y-43052944D01*
X64221680Y-43052944D01*
X64294601Y-43038439D01*
X64356415Y-42997135D01*
X63797732Y-43555818D01*
X63634870Y-43365130D01*
X63444180Y-43202266D01*
X64002867Y-42643578D01*
X63961561Y-42705399D01*
G37*
%TD.AperFunction*%
%TA.AperFunction,Conductor*%
G36*
X122001423Y-40000566D02*
G01*
X122040986Y-40002394D01*
X122172950Y-40008495D01*
X122372549Y-40018302D01*
X122378048Y-40018819D01*
X122563357Y-40044668D01*
X122749828Y-40072329D01*
X122754871Y-40073294D01*
X122939341Y-40116681D01*
X123120221Y-40161989D01*
X123124797Y-40163327D01*
X123305568Y-40223916D01*
X123480339Y-40286450D01*
X123484471Y-40288100D01*
X123542986Y-40313936D01*
X123659474Y-40365370D01*
X123826973Y-40444592D01*
X123830601Y-40446457D01*
X123998128Y-40539770D01*
X123998142Y-40539778D01*
X124156964Y-40634972D01*
X124160119Y-40636996D01*
X124318603Y-40745559D01*
X124467377Y-40855897D01*
X124470001Y-40857957D01*
X124618027Y-40980876D01*
X124755321Y-41105314D01*
X124757514Y-41107402D01*
X124892596Y-41242484D01*
X124894687Y-41244680D01*
X125019129Y-41381980D01*
X125142034Y-41529989D01*
X125144109Y-41532632D01*
X125254443Y-41681400D01*
X125363002Y-41839879D01*
X125365032Y-41843044D01*
X125460221Y-42001857D01*
X125553527Y-42169371D01*
X125555410Y-42173034D01*
X125634638Y-42340547D01*
X125711899Y-42515527D01*
X125713558Y-42519685D01*
X125776093Y-42694459D01*
X125836662Y-42875173D01*
X125838018Y-42879812D01*
X125883317Y-43060654D01*
X125926696Y-43245090D01*
X125927672Y-43250189D01*
X125955337Y-43436689D01*
X125981177Y-43621933D01*
X125981697Y-43627459D01*
X125991512Y-43827229D01*
X125999434Y-43998575D01*
X125999500Y-44001439D01*
X125999500Y-44376000D01*
X125979815Y-44443039D01*
X125927011Y-44488794D01*
X125875500Y-44500000D01*
X125322749Y-44500000D01*
X125255710Y-44480315D01*
X125209955Y-44427511D01*
X125198919Y-44382490D01*
X125184780Y-44112712D01*
X125124113Y-43729676D01*
X125124112Y-43729669D01*
X125023737Y-43355063D01*
X124884755Y-42993005D01*
X124708689Y-42647456D01*
X124497468Y-42322206D01*
X124288904Y-42064649D01*
X124288903Y-42064648D01*
X123391248Y-42962302D01*
X123432551Y-42900489D01*
X123451954Y-42802944D01*
X123432551Y-42705399D01*
X123377296Y-42622704D01*
X123294601Y-42567449D01*
X123221680Y-42552944D01*
X123172432Y-42552944D01*
X123099511Y-42567449D01*
X123037690Y-42608755D01*
X123935350Y-41711096D01*
X123935350Y-41711095D01*
X123677793Y-41502531D01*
X123352543Y-41291310D01*
X123006994Y-41115244D01*
X122644936Y-40976262D01*
X122270330Y-40875887D01*
X122270323Y-40875886D01*
X121887287Y-40815219D01*
X121500001Y-40794922D01*
X121499999Y-40794922D01*
X121112712Y-40815219D01*
X120729676Y-40875886D01*
X120729669Y-40875887D01*
X120355063Y-40976262D01*
X119993005Y-41115244D01*
X119647456Y-41291310D01*
X119322206Y-41502531D01*
X119064648Y-41711095D01*
X119064648Y-41711096D01*
X119962306Y-42608754D01*
X119900489Y-42567449D01*
X119827568Y-42552944D01*
X119778320Y-42552944D01*
X119705399Y-42567449D01*
X119622704Y-42622704D01*
X119567449Y-42705399D01*
X119548046Y-42802944D01*
X119567449Y-42900489D01*
X119608754Y-42962306D01*
X118711096Y-42064648D01*
X118711095Y-42064648D01*
X118502531Y-42322206D01*
X118291310Y-42647456D01*
X118115244Y-42993005D01*
X117976262Y-43355063D01*
X117875887Y-43729669D01*
X117875886Y-43729676D01*
X117815219Y-44112712D01*
X117801081Y-44382490D01*
X117777915Y-44448407D01*
X117722789Y-44491336D01*
X117677251Y-44500000D01*
X92999999Y-44500000D01*
X92000000Y-45499999D01*
X92000000Y-49242712D01*
X91980315Y-49309751D01*
X91978050Y-49313152D01*
X91921402Y-49395221D01*
X91921401Y-49395222D01*
X91860665Y-49555370D01*
X91840020Y-49725399D01*
X91840020Y-49725400D01*
X91860665Y-49895429D01*
X91921402Y-50055580D01*
X91921403Y-50055582D01*
X91978049Y-50137646D01*
X91999933Y-50204001D01*
X92000000Y-50208087D01*
X92000000Y-87586468D01*
X91980315Y-87653507D01*
X91927511Y-87699262D01*
X91858353Y-87709206D01*
X91794797Y-87680181D01*
X91793773Y-87679283D01*
X91737000Y-87628986D01*
X91585338Y-87549389D01*
X91419040Y-87508400D01*
X91419039Y-87508400D01*
X91247761Y-87508400D01*
X91247760Y-87508400D01*
X91081461Y-87549389D01*
X90929802Y-87628985D01*
X90801598Y-87742564D01*
X90801596Y-87742567D01*
X90704301Y-87883521D01*
X90704300Y-87883524D01*
X90690066Y-87921055D01*
X90647887Y-87976757D01*
X90582289Y-88000813D01*
X90514099Y-87985585D01*
X90486444Y-87964763D01*
X85901206Y-83379525D01*
X85867721Y-83318202D01*
X85865791Y-83276900D01*
X85873380Y-83214400D01*
X85852735Y-83044371D01*
X85791999Y-82884223D01*
X85787476Y-82877671D01*
X85697005Y-82746602D01*
X85694702Y-82743265D01*
X85566499Y-82629686D01*
X85414840Y-82550090D01*
X85414839Y-82550089D01*
X85414838Y-82550089D01*
X85248540Y-82509100D01*
X85248539Y-82509100D01*
X85077261Y-82509100D01*
X85077260Y-82509100D01*
X84910961Y-82550089D01*
X84759302Y-82629685D01*
X84631098Y-82743264D01*
X84631094Y-82743269D01*
X84573973Y-82826022D01*
X84519690Y-82870012D01*
X84450241Y-82877671D01*
X84387677Y-82846566D01*
X84384243Y-82843262D01*
X83695981Y-82155000D01*
X82981536Y-81440555D01*
X82958699Y-81417718D01*
X82958698Y-81417717D01*
X82958697Y-81417716D01*
X82938617Y-81407485D01*
X82922029Y-81397320D01*
X82903796Y-81384073D01*
X82903792Y-81384071D01*
X82882354Y-81377105D01*
X82864384Y-81369661D01*
X82844306Y-81359431D01*
X82822048Y-81355906D01*
X82803131Y-81351365D01*
X82781695Y-81344400D01*
X82781693Y-81344400D01*
X82749397Y-81344400D01*
X78860725Y-81344400D01*
X78793686Y-81324715D01*
X78758676Y-81290841D01*
X78750205Y-81278569D01*
X78750201Y-81278564D01*
X78722949Y-81254421D01*
X78621999Y-81164986D01*
X78470340Y-81085390D01*
X78470339Y-81085389D01*
X78470338Y-81085389D01*
X78304040Y-81044400D01*
X78304039Y-81044400D01*
X78132761Y-81044400D01*
X78132760Y-81044400D01*
X77966461Y-81085389D01*
X77814802Y-81164985D01*
X77686598Y-81278564D01*
X77686596Y-81278567D01*
X77589301Y-81419521D01*
X77589301Y-81419522D01*
X77528565Y-81579670D01*
X77507920Y-81749699D01*
X77507920Y-81749700D01*
X77528565Y-81919729D01*
X77589301Y-82079877D01*
X77589301Y-82079878D01*
X77641155Y-82155000D01*
X77686598Y-82220835D01*
X77814801Y-82334414D01*
X77966460Y-82414010D01*
X78032928Y-82430393D01*
X78132760Y-82455000D01*
X78132761Y-82455000D01*
X78304040Y-82455000D01*
X78403872Y-82430393D01*
X78470340Y-82414010D01*
X78621999Y-82334414D01*
X78750202Y-82220835D01*
X78758675Y-82208559D01*
X78812959Y-82164569D01*
X78860725Y-82155000D01*
X81689236Y-82155000D01*
X81756275Y-82174685D01*
X81802030Y-82227489D01*
X81811974Y-82296647D01*
X81782949Y-82360203D01*
X81724171Y-82397977D01*
X81715594Y-82400166D01*
X81442022Y-82459678D01*
X81442017Y-82459679D01*
X81442016Y-82459680D01*
X81411374Y-82471109D01*
X81177249Y-82558432D01*
X81177245Y-82558434D01*
X80929241Y-82693855D01*
X80929233Y-82693860D01*
X80703025Y-82863196D01*
X80703007Y-82863212D01*
X80503212Y-83063007D01*
X80503196Y-83063025D01*
X80333860Y-83289233D01*
X80333855Y-83289241D01*
X80198434Y-83537245D01*
X80198432Y-83537249D01*
X80123555Y-83738003D01*
X80100763Y-83799114D01*
X80099678Y-83802022D01*
X80039613Y-84078133D01*
X80019454Y-84359998D01*
X80019454Y-84360001D01*
X80039613Y-84641866D01*
X80099678Y-84917977D01*
X80099680Y-84917984D01*
X80137502Y-85019388D01*
X80198432Y-85182750D01*
X80198434Y-85182754D01*
X80333855Y-85430758D01*
X80333860Y-85430766D01*
X80503196Y-85656974D01*
X80503212Y-85656992D01*
X80703007Y-85856787D01*
X80703025Y-85856803D01*
X80929233Y-86026139D01*
X80929241Y-86026144D01*
X81177245Y-86161565D01*
X81177249Y-86161567D01*
X81177251Y-86161568D01*
X81442016Y-86260320D01*
X81580077Y-86290353D01*
X81718133Y-86320386D01*
X81718135Y-86320386D01*
X81718139Y-86320387D01*
X81929447Y-86335500D01*
X82070553Y-86335500D01*
X82281861Y-86320387D01*
X82557984Y-86260320D01*
X82822749Y-86161568D01*
X83070764Y-86026141D01*
X83296982Y-85856797D01*
X83496797Y-85656982D01*
X83666141Y-85430764D01*
X83680808Y-85403902D01*
X83730212Y-85354497D01*
X83798485Y-85339644D01*
X83863950Y-85364059D01*
X83905822Y-85419992D01*
X83907570Y-85425004D01*
X83911270Y-85436389D01*
X83911273Y-85436396D01*
X83924520Y-85454629D01*
X83934685Y-85471217D01*
X83944916Y-85491297D01*
X83944917Y-85491298D01*
X83944918Y-85491299D01*
X83967754Y-85514135D01*
X83967755Y-85514136D01*
X84279340Y-85825721D01*
X84444393Y-85990774D01*
X84477878Y-86052097D01*
X84479808Y-86093400D01*
X84472220Y-86155899D01*
X84472220Y-86155900D01*
X84492865Y-86325929D01*
X84553601Y-86486077D01*
X84553601Y-86486078D01*
X84615773Y-86576148D01*
X84650898Y-86627035D01*
X84779101Y-86740614D01*
X84930760Y-86820210D01*
X85013910Y-86840705D01*
X85097060Y-86861200D01*
X85097061Y-86861200D01*
X85268340Y-86861200D01*
X85323772Y-86847536D01*
X85434640Y-86820210D01*
X85586299Y-86740614D01*
X85714502Y-86627035D01*
X85811799Y-86486077D01*
X85872535Y-86325929D01*
X85893180Y-86155900D01*
X85872535Y-85985871D01*
X85811799Y-85825723D01*
X85714502Y-85684765D01*
X85586299Y-85571186D01*
X85434640Y-85491590D01*
X85434639Y-85491589D01*
X85434638Y-85491589D01*
X85268340Y-85450600D01*
X85268339Y-85450600D01*
X85101943Y-85450600D01*
X85034904Y-85430915D01*
X85014262Y-85414281D01*
X84718519Y-85118537D01*
X84685034Y-85057214D01*
X84682200Y-85030856D01*
X84682200Y-83963768D01*
X84701885Y-83896729D01*
X84754689Y-83850974D01*
X84823847Y-83841030D01*
X84863823Y-83853971D01*
X84910960Y-83878709D01*
X84910960Y-83878710D01*
X85077260Y-83919700D01*
X85243657Y-83919700D01*
X85310696Y-83939385D01*
X85331338Y-83956019D01*
X91963681Y-90588362D01*
X91997166Y-90649685D01*
X92000000Y-90676043D01*
X92000000Y-92500000D01*
X93000000Y-93500000D01*
X94823957Y-93500000D01*
X94890996Y-93519685D01*
X94911638Y-93536319D01*
X95088518Y-93713199D01*
X95179301Y-93803982D01*
X95191970Y-93810437D01*
X95199380Y-93814213D01*
X95215968Y-93824378D01*
X95234204Y-93837627D01*
X95255634Y-93844590D01*
X95273612Y-93852036D01*
X95293690Y-93862266D01*
X95293694Y-93862268D01*
X95315953Y-93865792D01*
X95334868Y-93870333D01*
X95356307Y-93877300D01*
X95388603Y-93877300D01*
X95862435Y-93877300D01*
X95929474Y-93896985D01*
X95973435Y-93946028D01*
X96041536Y-94082792D01*
X96170567Y-94253657D01*
X96328793Y-94397898D01*
X96328795Y-94397900D01*
X96510829Y-94510610D01*
X96510830Y-94510610D01*
X96510833Y-94510612D01*
X96710483Y-94587957D01*
X96920946Y-94627300D01*
X96920948Y-94627300D01*
X97135052Y-94627300D01*
X97135054Y-94627300D01*
X97345517Y-94587957D01*
X97545167Y-94510612D01*
X97727206Y-94397899D01*
X97878411Y-94260057D01*
X97885432Y-94253657D01*
X97904331Y-94228631D01*
X98014464Y-94082792D01*
X98109900Y-93891130D01*
X98168494Y-93685195D01*
X98174529Y-93620062D01*
X98200315Y-93555126D01*
X98257115Y-93514438D01*
X98326896Y-93510918D01*
X98387503Y-93545683D01*
X98419693Y-93607696D01*
X98421470Y-93620058D01*
X98427506Y-93685195D01*
X98436376Y-93716369D01*
X98486099Y-93891127D01*
X98486104Y-93891140D01*
X98581536Y-94082792D01*
X98710567Y-94253657D01*
X98868793Y-94397898D01*
X98868795Y-94397900D01*
X99050829Y-94510610D01*
X99050830Y-94510610D01*
X99050833Y-94510612D01*
X99250483Y-94587957D01*
X99460946Y-94627300D01*
X99460948Y-94627300D01*
X99675052Y-94627300D01*
X99675054Y-94627300D01*
X99885517Y-94587957D01*
X100085167Y-94510612D01*
X100267206Y-94397899D01*
X100418411Y-94260057D01*
X100425432Y-94253657D01*
X100444331Y-94228631D01*
X100554464Y-94082792D01*
X100649900Y-93891130D01*
X100708494Y-93685195D01*
X100714529Y-93620062D01*
X100740315Y-93555126D01*
X100797115Y-93514438D01*
X100866896Y-93510918D01*
X100927503Y-93545683D01*
X100959693Y-93607696D01*
X100961470Y-93620058D01*
X100967506Y-93685195D01*
X100976376Y-93716369D01*
X101026099Y-93891127D01*
X101026104Y-93891140D01*
X101121536Y-94082792D01*
X101250567Y-94253657D01*
X101408793Y-94397898D01*
X101408795Y-94397900D01*
X101590829Y-94510610D01*
X101590830Y-94510610D01*
X101590833Y-94510612D01*
X101790483Y-94587957D01*
X102000946Y-94627300D01*
X102000948Y-94627300D01*
X102215052Y-94627300D01*
X102215054Y-94627300D01*
X102425517Y-94587957D01*
X102625167Y-94510612D01*
X102807206Y-94397899D01*
X102958411Y-94260057D01*
X102965432Y-94253657D01*
X102984331Y-94228631D01*
X103094464Y-94082792D01*
X103189900Y-93891130D01*
X103248494Y-93685195D01*
X103254529Y-93620061D01*
X103280313Y-93555127D01*
X103337113Y-93514439D01*
X103406893Y-93510917D01*
X103467501Y-93545682D01*
X103499692Y-93607694D01*
X103501470Y-93620062D01*
X103506771Y-93677269D01*
X103507506Y-93685195D01*
X103516376Y-93716369D01*
X103566099Y-93891127D01*
X103566104Y-93891140D01*
X103661536Y-94082792D01*
X103790567Y-94253657D01*
X103948793Y-94397898D01*
X103948795Y-94397900D01*
X104130829Y-94510610D01*
X104130830Y-94510610D01*
X104130833Y-94510612D01*
X104330483Y-94587957D01*
X104540946Y-94627300D01*
X104540948Y-94627300D01*
X104755052Y-94627300D01*
X104755054Y-94627300D01*
X104965517Y-94587957D01*
X105165167Y-94510612D01*
X105347206Y-94397899D01*
X105498411Y-94260057D01*
X105505432Y-94253657D01*
X105524331Y-94228631D01*
X105634464Y-94082792D01*
X105729900Y-93891130D01*
X105788494Y-93685195D01*
X105794529Y-93620062D01*
X105820315Y-93555126D01*
X105877115Y-93514438D01*
X105946896Y-93510918D01*
X106007503Y-93545683D01*
X106039693Y-93607696D01*
X106041470Y-93620058D01*
X106047506Y-93685195D01*
X106056376Y-93716369D01*
X106106099Y-93891127D01*
X106106104Y-93891140D01*
X106201536Y-94082792D01*
X106330567Y-94253657D01*
X106488793Y-94397898D01*
X106488795Y-94397900D01*
X106670829Y-94510610D01*
X106670830Y-94510610D01*
X106670833Y-94510612D01*
X106870483Y-94587957D01*
X107080946Y-94627300D01*
X107080948Y-94627300D01*
X107295052Y-94627300D01*
X107295054Y-94627300D01*
X107505517Y-94587957D01*
X107705167Y-94510612D01*
X107887206Y-94397899D01*
X108038411Y-94260057D01*
X108045432Y-94253657D01*
X108064331Y-94228631D01*
X108174464Y-94082792D01*
X108239916Y-93951345D01*
X108287418Y-93900109D01*
X108355081Y-93882687D01*
X108421421Y-93904612D01*
X108463298Y-93954212D01*
X108554399Y-94149578D01*
X108689894Y-94343082D01*
X108856917Y-94510105D01*
X109050421Y-94645600D01*
X109264507Y-94745429D01*
X109264516Y-94745433D01*
X109478000Y-94802634D01*
X109478000Y-93907501D01*
X109585685Y-93956680D01*
X109692237Y-93972000D01*
X109763763Y-93972000D01*
X109870315Y-93956680D01*
X109978000Y-93907501D01*
X109978000Y-94802633D01*
X110191483Y-94745433D01*
X110191492Y-94745429D01*
X110405578Y-94645600D01*
X110599082Y-94510105D01*
X110766105Y-94343082D01*
X110901600Y-94149578D01*
X110992701Y-93954212D01*
X111038873Y-93901773D01*
X111106067Y-93882621D01*
X111172948Y-93902837D01*
X111216083Y-93951345D01*
X111281536Y-94082792D01*
X111410567Y-94253657D01*
X111568793Y-94397898D01*
X111568795Y-94397900D01*
X111750829Y-94510610D01*
X111750830Y-94510610D01*
X111750833Y-94510612D01*
X111950483Y-94587957D01*
X112160946Y-94627300D01*
X112160948Y-94627300D01*
X112375052Y-94627300D01*
X112375054Y-94627300D01*
X112585517Y-94587957D01*
X112785167Y-94510612D01*
X112967206Y-94397899D01*
X113118411Y-94260057D01*
X113125432Y-94253657D01*
X113144331Y-94228631D01*
X113254464Y-94082792D01*
X113294981Y-94001423D01*
X113341883Y-93907231D01*
X113389386Y-93855993D01*
X113457048Y-93838572D01*
X113509174Y-93852016D01*
X113529294Y-93862268D01*
X113548097Y-93865246D01*
X113611230Y-93895173D01*
X113648163Y-93954484D01*
X113652700Y-93987719D01*
X113652700Y-94367571D01*
X113652702Y-94367594D01*
X113655661Y-94393106D01*
X113655662Y-94393109D01*
X113701765Y-94497524D01*
X113701766Y-94497525D01*
X113782475Y-94578234D01*
X113886891Y-94624338D01*
X113912421Y-94627300D01*
X115703578Y-94627299D01*
X115729109Y-94624338D01*
X115833525Y-94578234D01*
X115914234Y-94497525D01*
X115960338Y-94393109D01*
X115963300Y-94367579D01*
X115963300Y-93624000D01*
X115982985Y-93556961D01*
X116035789Y-93511206D01*
X116087300Y-93500000D01*
X117677251Y-93500000D01*
X117744290Y-93519685D01*
X117790045Y-93572489D01*
X117801081Y-93617510D01*
X117815219Y-93887287D01*
X117875886Y-94270323D01*
X117875887Y-94270330D01*
X117976262Y-94644936D01*
X118115244Y-95006994D01*
X118291310Y-95352543D01*
X118502531Y-95677793D01*
X118711095Y-95935350D01*
X118711096Y-95935350D01*
X119608756Y-95037689D01*
X119567449Y-95099511D01*
X119548046Y-95197056D01*
X119567449Y-95294601D01*
X119622704Y-95377296D01*
X119705399Y-95432551D01*
X119778320Y-95447056D01*
X119827568Y-95447056D01*
X119900489Y-95432551D01*
X119962304Y-95391247D01*
X119064648Y-96288903D01*
X119064649Y-96288904D01*
X119322206Y-96497468D01*
X119647456Y-96708689D01*
X119993005Y-96884755D01*
X120355063Y-97023737D01*
X120729669Y-97124112D01*
X120729676Y-97124113D01*
X121112712Y-97184780D01*
X121499999Y-97205078D01*
X121500001Y-97205078D01*
X121887287Y-97184780D01*
X122270323Y-97124113D01*
X122270330Y-97124112D01*
X122644936Y-97023737D01*
X123006994Y-96884755D01*
X123352543Y-96708689D01*
X123677783Y-96497476D01*
X123677785Y-96497475D01*
X123935349Y-96288902D01*
X123037691Y-95391244D01*
X123099511Y-95432551D01*
X123172432Y-95447056D01*
X123221680Y-95447056D01*
X123294601Y-95432551D01*
X123377296Y-95377296D01*
X123432551Y-95294601D01*
X123451954Y-95197056D01*
X123432551Y-95099511D01*
X123391244Y-95037691D01*
X124288902Y-95935349D01*
X124497475Y-95677785D01*
X124497476Y-95677783D01*
X124708689Y-95352543D01*
X124884755Y-95006994D01*
X125023737Y-94644936D01*
X125124112Y-94270330D01*
X125124113Y-94270323D01*
X125184780Y-93887287D01*
X125198919Y-93617510D01*
X125222085Y-93551593D01*
X125277211Y-93508664D01*
X125322749Y-93500000D01*
X125875499Y-93500000D01*
X125942538Y-93519685D01*
X125988293Y-93572489D01*
X125999499Y-93624000D01*
X125999499Y-94168732D01*
X125999244Y-94174345D01*
X125985260Y-94328241D01*
X125963749Y-94556897D01*
X125962950Y-94562565D01*
X125934736Y-94712416D01*
X125928511Y-94745477D01*
X125888996Y-94944851D01*
X125887736Y-94950029D01*
X125834506Y-95134037D01*
X125776400Y-95323536D01*
X125774767Y-95328192D01*
X125703371Y-95508462D01*
X125627069Y-95689243D01*
X125625152Y-95693358D01*
X125536289Y-95867177D01*
X125442442Y-96038456D01*
X125440330Y-96042022D01*
X125334845Y-96207287D01*
X125224320Y-96367768D01*
X125222101Y-96370790D01*
X125100987Y-96525694D01*
X124974806Y-96673998D01*
X124972563Y-96676493D01*
X124837997Y-96818335D01*
X124835909Y-96820433D01*
X124696305Y-96954177D01*
X124694119Y-96956174D01*
X124546663Y-97084519D01*
X124544074Y-97086652D01*
X124390474Y-97206382D01*
X124230537Y-97320736D01*
X124227422Y-97322823D01*
X124062348Y-97426373D01*
X123892718Y-97524675D01*
X123889065Y-97526632D01*
X123713936Y-97613048D01*
X123536445Y-97694390D01*
X123532252Y-97696129D01*
X123348390Y-97764606D01*
X123165209Y-97828217D01*
X123160487Y-97829648D01*
X122968693Y-97879575D01*
X122782551Y-97924878D01*
X122777323Y-97925915D01*
X122765914Y-97927672D01*
X122576382Y-97956858D01*
X122392231Y-97983418D01*
X122386534Y-97983972D01*
X122156932Y-97995677D01*
X122067939Y-97999929D01*
X122064979Y-98000000D01*
X70161477Y-98000000D01*
X62001437Y-97999500D01*
X61998577Y-97999434D01*
X61827238Y-97991512D01*
X61627459Y-97981697D01*
X61621933Y-97981177D01*
X61436689Y-97955337D01*
X61250189Y-97927672D01*
X61245090Y-97926696D01*
X61060654Y-97883317D01*
X60879812Y-97838018D01*
X60875173Y-97836662D01*
X60694459Y-97776093D01*
X60519685Y-97713558D01*
X60515527Y-97711899D01*
X60340547Y-97634638D01*
X60173034Y-97555410D01*
X60169371Y-97553527D01*
X60117572Y-97524675D01*
X60070865Y-97498659D01*
X60001857Y-97460221D01*
X59843044Y-97365032D01*
X59839879Y-97363002D01*
X59730371Y-97287989D01*
X59681392Y-97254437D01*
X59532632Y-97144109D01*
X59529989Y-97142034D01*
X59381980Y-97019129D01*
X59312520Y-96956174D01*
X59244680Y-96894687D01*
X59242484Y-96892596D01*
X59107402Y-96757514D01*
X59105314Y-96755321D01*
X58980876Y-96618027D01*
X58857957Y-96470001D01*
X58855897Y-96467377D01*
X58745559Y-96318603D01*
X58636996Y-96160119D01*
X58634966Y-96156954D01*
X58539778Y-95998142D01*
X58446457Y-95830601D01*
X58444588Y-95826964D01*
X58365361Y-95659452D01*
X58288100Y-95484471D01*
X58286450Y-95480339D01*
X58223916Y-95305568D01*
X58163327Y-95124797D01*
X58161989Y-95120221D01*
X58116675Y-94939315D01*
X58111402Y-94916895D01*
X58073294Y-94754871D01*
X58072329Y-94749828D01*
X58044668Y-94563357D01*
X58018819Y-94378048D01*
X58018302Y-94372549D01*
X58008495Y-94172950D01*
X58000566Y-94001423D01*
X58000500Y-93998560D01*
X58000500Y-93500000D01*
X58794922Y-93500000D01*
X58815219Y-93887287D01*
X58875886Y-94270323D01*
X58875887Y-94270330D01*
X58976262Y-94644936D01*
X59115244Y-95006994D01*
X59291310Y-95352543D01*
X59502531Y-95677793D01*
X59711095Y-95935350D01*
X59711096Y-95935350D01*
X60608757Y-95037688D01*
X60567449Y-95099511D01*
X60548046Y-95197056D01*
X60567449Y-95294601D01*
X60622704Y-95377296D01*
X60705399Y-95432551D01*
X60778320Y-95447056D01*
X60827568Y-95447056D01*
X60900489Y-95432551D01*
X60962304Y-95391247D01*
X60064648Y-96288903D01*
X60064649Y-96288904D01*
X60322206Y-96497468D01*
X60647456Y-96708689D01*
X60993005Y-96884755D01*
X61355063Y-97023737D01*
X61729669Y-97124112D01*
X61729676Y-97124113D01*
X62112712Y-97184780D01*
X62499999Y-97205078D01*
X62500001Y-97205078D01*
X62887287Y-97184780D01*
X63270323Y-97124113D01*
X63270330Y-97124112D01*
X63644936Y-97023737D01*
X64006994Y-96884755D01*
X64352543Y-96708689D01*
X64677783Y-96497476D01*
X64677785Y-96497475D01*
X64935349Y-96288902D01*
X64037691Y-95391244D01*
X64099511Y-95432551D01*
X64172432Y-95447056D01*
X64221680Y-95447056D01*
X64294601Y-95432551D01*
X64377296Y-95377296D01*
X64432551Y-95294601D01*
X64451954Y-95197056D01*
X64432551Y-95099511D01*
X64391244Y-95037691D01*
X65288902Y-95935349D01*
X65497475Y-95677785D01*
X65497476Y-95677783D01*
X65708689Y-95352543D01*
X65884755Y-95006994D01*
X66023737Y-94644936D01*
X66124112Y-94270330D01*
X66124113Y-94270323D01*
X66184780Y-93887287D01*
X66205078Y-93500000D01*
X66205078Y-93499999D01*
X66184780Y-93112712D01*
X66166929Y-93000005D01*
X71794859Y-93000005D01*
X71815385Y-93247729D01*
X71815387Y-93247738D01*
X71876412Y-93488717D01*
X71976266Y-93716364D01*
X72076564Y-93869882D01*
X72808866Y-93137580D01*
X72831318Y-93214040D01*
X72910605Y-93337413D01*
X73021438Y-93433451D01*
X73154839Y-93494373D01*
X73158634Y-93494918D01*
X72429942Y-94223609D01*
X72476768Y-94260055D01*
X72476770Y-94260056D01*
X72695385Y-94378364D01*
X72695396Y-94378369D01*
X72930506Y-94459083D01*
X73175707Y-94500000D01*
X73424293Y-94500000D01*
X73669493Y-94459083D01*
X73904603Y-94378369D01*
X73904614Y-94378364D01*
X74123228Y-94260057D01*
X74123231Y-94260055D01*
X74170056Y-94223609D01*
X73992018Y-94045571D01*
X84694700Y-94045571D01*
X84694702Y-94045594D01*
X84697661Y-94071106D01*
X84697662Y-94071109D01*
X84743765Y-94175524D01*
X84743766Y-94175525D01*
X84824475Y-94256234D01*
X84928891Y-94302338D01*
X84954421Y-94305300D01*
X87045578Y-94305299D01*
X87071109Y-94302338D01*
X87175525Y-94256234D01*
X87256234Y-94175525D01*
X87302338Y-94071109D01*
X87305300Y-94045579D01*
X87305299Y-91954422D01*
X87302338Y-91928891D01*
X87256234Y-91824475D01*
X87175525Y-91743766D01*
X87166867Y-91739943D01*
X87071110Y-91697662D01*
X87045579Y-91694700D01*
X84954428Y-91694700D01*
X84954405Y-91694702D01*
X84928893Y-91697661D01*
X84928890Y-91697662D01*
X84824475Y-91743765D01*
X84743766Y-91824474D01*
X84697662Y-91928888D01*
X84697662Y-91928890D01*
X84694700Y-91954419D01*
X84694700Y-94045571D01*
X73992018Y-94045571D01*
X73441365Y-93494918D01*
X73445161Y-93494373D01*
X73578562Y-93433451D01*
X73689395Y-93337413D01*
X73768682Y-93214040D01*
X73791132Y-93137580D01*
X74523434Y-93869882D01*
X74623731Y-93716369D01*
X74723587Y-93488717D01*
X74784612Y-93247738D01*
X74784614Y-93247729D01*
X74805141Y-93000005D01*
X74805141Y-92999994D01*
X74784614Y-92752270D01*
X74784612Y-92752261D01*
X74723587Y-92511282D01*
X74623731Y-92283630D01*
X74523434Y-92130116D01*
X73791132Y-92862418D01*
X73768682Y-92785960D01*
X73689395Y-92662587D01*
X73578562Y-92566549D01*
X73445161Y-92505627D01*
X73441366Y-92505081D01*
X74170057Y-91776390D01*
X74170056Y-91776389D01*
X74123229Y-91739943D01*
X73904614Y-91621635D01*
X73904603Y-91621630D01*
X73669493Y-91540916D01*
X73424293Y-91500000D01*
X73175707Y-91500000D01*
X72930506Y-91540916D01*
X72695396Y-91621630D01*
X72695390Y-91621632D01*
X72476761Y-91739949D01*
X72429942Y-91776388D01*
X72429942Y-91776390D01*
X73158634Y-92505081D01*
X73154839Y-92505627D01*
X73021438Y-92566549D01*
X72910605Y-92662587D01*
X72831318Y-92785960D01*
X72808867Y-92862419D01*
X72076564Y-92130116D01*
X71976267Y-92283632D01*
X71876412Y-92511282D01*
X71815387Y-92752261D01*
X71815385Y-92752270D01*
X71794859Y-92999994D01*
X71794859Y-93000005D01*
X66166929Y-93000005D01*
X66124113Y-92729676D01*
X66124112Y-92729669D01*
X66023737Y-92355063D01*
X65884755Y-91993005D01*
X65708689Y-91647456D01*
X65497468Y-91322206D01*
X65288904Y-91064649D01*
X65288903Y-91064648D01*
X64391247Y-91962303D01*
X64432551Y-91900489D01*
X64451954Y-91802944D01*
X64432551Y-91705399D01*
X64377296Y-91622704D01*
X64294601Y-91567449D01*
X64221680Y-91552944D01*
X64172432Y-91552944D01*
X64099511Y-91567449D01*
X64037690Y-91608755D01*
X64935350Y-90711096D01*
X64935350Y-90711095D01*
X64677797Y-90502534D01*
X64585363Y-90442506D01*
X64539861Y-90389485D01*
X64530247Y-90320279D01*
X64559574Y-90256863D01*
X64598692Y-90229687D01*
X64597699Y-90227795D01*
X64604338Y-90224310D01*
X64604340Y-90224310D01*
X64755999Y-90144714D01*
X64768069Y-90134021D01*
X64810439Y-90096485D01*
X64873672Y-90066763D01*
X64892666Y-90065300D01*
X73480051Y-90065300D01*
X73547090Y-90084985D01*
X73592845Y-90137789D01*
X73595993Y-90145329D01*
X73658701Y-90310677D01*
X73658701Y-90310678D01*
X73746948Y-90438524D01*
X73755998Y-90451635D01*
X73884201Y-90565214D01*
X74035860Y-90644810D01*
X74119010Y-90665305D01*
X74202160Y-90685800D01*
X74202161Y-90685800D01*
X74373440Y-90685800D01*
X74428872Y-90672136D01*
X74539740Y-90644810D01*
X74691399Y-90565214D01*
X74699216Y-90558289D01*
X74745839Y-90516985D01*
X74809072Y-90487263D01*
X74828066Y-90485800D01*
X81478288Y-90485800D01*
X81545327Y-90505485D01*
X81591082Y-90558289D01*
X81601384Y-90594854D01*
X81606165Y-90634229D01*
X81666901Y-90794377D01*
X81666901Y-90794378D01*
X81705295Y-90850000D01*
X81764198Y-90935335D01*
X81892401Y-91048914D01*
X82044060Y-91128510D01*
X82127210Y-91149004D01*
X82210360Y-91169500D01*
X82210361Y-91169500D01*
X82381640Y-91169500D01*
X82437072Y-91155836D01*
X82547940Y-91128510D01*
X82699599Y-91048914D01*
X82827802Y-90935335D01*
X82925099Y-90794377D01*
X82985835Y-90634229D01*
X83006480Y-90464200D01*
X82985835Y-90294171D01*
X82925099Y-90134023D01*
X82827802Y-89993065D01*
X82699599Y-89879486D01*
X82547940Y-89799890D01*
X82547939Y-89799889D01*
X82547938Y-89799889D01*
X82381640Y-89758900D01*
X82381639Y-89758900D01*
X82356664Y-89758900D01*
X82289625Y-89739215D01*
X82268983Y-89722581D01*
X82217440Y-89671038D01*
X82200808Y-89650399D01*
X82198107Y-89646196D01*
X82198104Y-89646193D01*
X82158505Y-89611880D01*
X82155265Y-89608863D01*
X82144055Y-89597653D01*
X82144048Y-89597646D01*
X82144042Y-89597642D01*
X82144036Y-89597636D01*
X82131333Y-89588127D01*
X82127899Y-89585360D01*
X82088295Y-89551043D01*
X82088294Y-89551042D01*
X82088292Y-89551041D01*
X82083746Y-89548965D01*
X82060950Y-89535440D01*
X82056955Y-89532449D01*
X82056952Y-89532448D01*
X82055941Y-89532071D01*
X82045448Y-89528157D01*
X82007855Y-89514135D01*
X82003771Y-89512443D01*
X81956123Y-89490683D01*
X81951174Y-89489971D01*
X81925498Y-89483417D01*
X81920815Y-89481670D01*
X81868550Y-89477931D01*
X81864154Y-89477459D01*
X81848440Y-89475200D01*
X81848438Y-89475200D01*
X81832558Y-89475200D01*
X81828137Y-89475042D01*
X81812436Y-89473919D01*
X81775886Y-89471305D01*
X81775878Y-89471305D01*
X81771004Y-89472366D01*
X81744647Y-89475200D01*
X74828066Y-89475200D01*
X74761027Y-89455515D01*
X74745839Y-89444015D01*
X74691400Y-89395786D01*
X74539738Y-89316189D01*
X74373440Y-89275200D01*
X74373439Y-89275200D01*
X74352630Y-89275200D01*
X74285591Y-89255515D01*
X74260593Y-89230935D01*
X74258910Y-89232394D01*
X74253105Y-89225694D01*
X74213505Y-89191380D01*
X74210265Y-89188363D01*
X74199055Y-89177153D01*
X74199048Y-89177146D01*
X74199042Y-89177142D01*
X74199036Y-89177136D01*
X74186333Y-89167627D01*
X74182899Y-89164860D01*
X74143295Y-89130543D01*
X74143294Y-89130542D01*
X74143292Y-89130541D01*
X74138746Y-89128465D01*
X74115950Y-89114940D01*
X74111955Y-89111949D01*
X74111952Y-89111948D01*
X74062855Y-89093635D01*
X74058771Y-89091943D01*
X74011123Y-89070183D01*
X74006174Y-89069471D01*
X73980498Y-89062917D01*
X73975815Y-89061170D01*
X73923550Y-89057431D01*
X73919154Y-89056959D01*
X73903440Y-89054700D01*
X73903438Y-89054700D01*
X73887558Y-89054700D01*
X73883137Y-89054542D01*
X73867436Y-89053419D01*
X73830886Y-89050805D01*
X73830878Y-89050805D01*
X73826004Y-89051866D01*
X73799647Y-89054700D01*
X65358529Y-89054700D01*
X65291490Y-89035015D01*
X65245735Y-88982211D01*
X65235791Y-88913053D01*
X65264816Y-88849497D01*
X65270848Y-88843019D01*
X65288593Y-88825274D01*
X65385138Y-88671625D01*
X65385140Y-88671622D01*
X65385140Y-88671620D01*
X65385142Y-88671618D01*
X65445078Y-88500330D01*
X65465396Y-88320000D01*
X65445078Y-88139670D01*
X65428905Y-88093449D01*
X65425344Y-88023670D01*
X65460073Y-87963043D01*
X65486531Y-87943657D01*
X65487096Y-87943348D01*
X65602187Y-87857190D01*
X65602190Y-87857187D01*
X65688350Y-87742093D01*
X65688354Y-87742086D01*
X65738596Y-87607379D01*
X65738598Y-87607372D01*
X65743339Y-87563281D01*
X65770077Y-87498730D01*
X65827469Y-87458881D01*
X65897294Y-87456388D01*
X65924244Y-87466735D01*
X66021560Y-87517810D01*
X66021562Y-87517810D01*
X66021563Y-87517811D01*
X66187860Y-87558800D01*
X66187861Y-87558800D01*
X66359140Y-87558800D01*
X66414572Y-87545136D01*
X66525440Y-87517810D01*
X66677099Y-87438214D01*
X66805302Y-87324635D01*
X66902599Y-87183677D01*
X66963335Y-87023529D01*
X66983980Y-86853500D01*
X66963335Y-86683471D01*
X66951061Y-86651109D01*
X66945693Y-86581449D01*
X66978840Y-86519942D01*
X66979063Y-86519716D01*
X67314345Y-86184436D01*
X67314344Y-86184436D01*
X67337182Y-86161599D01*
X67337183Y-86161596D01*
X67341338Y-86157442D01*
X67345310Y-86145644D01*
X67347412Y-86141520D01*
X67357580Y-86124927D01*
X67370827Y-86106696D01*
X67377794Y-86085251D01*
X67385233Y-86067292D01*
X67395468Y-86047206D01*
X67398992Y-86024947D01*
X67403534Y-86006028D01*
X67410500Y-85984593D01*
X67410500Y-85856207D01*
X67410500Y-85856206D01*
X67410500Y-84024862D01*
X67430185Y-83957823D01*
X67446819Y-83937181D01*
X68169601Y-83214399D01*
X68961000Y-82423000D01*
X68961000Y-79172362D01*
X68980685Y-79105323D01*
X68997319Y-79084681D01*
X69151025Y-78930975D01*
X69342000Y-78740000D01*
X69342000Y-76708000D01*
X68326000Y-76708000D01*
X68325999Y-76708000D01*
X66929000Y-78104999D01*
X66929000Y-81355637D01*
X66909315Y-81422676D01*
X66892681Y-81443318D01*
X66440721Y-81895278D01*
X66379398Y-81928763D01*
X66309706Y-81923779D01*
X66265359Y-81895278D01*
X66043500Y-81673419D01*
X65810936Y-81440855D01*
X65788099Y-81418018D01*
X65788098Y-81418017D01*
X65788097Y-81418016D01*
X65779015Y-81413389D01*
X65728220Y-81365415D01*
X65711425Y-81297594D01*
X65719130Y-81259570D01*
X65738596Y-81207380D01*
X65738598Y-81207372D01*
X65744999Y-81147844D01*
X65745000Y-81147827D01*
X65745000Y-81100000D01*
X65528121Y-81100000D01*
X65461082Y-81080315D01*
X65440440Y-81063681D01*
X65420525Y-81043766D01*
X65316110Y-80997662D01*
X65290579Y-80994700D01*
X64049428Y-80994700D01*
X64049405Y-80994702D01*
X64023893Y-80997661D01*
X64023890Y-80997662D01*
X63919475Y-81043765D01*
X63919474Y-81043766D01*
X63899560Y-81063681D01*
X63838237Y-81097166D01*
X63811879Y-81100000D01*
X63595000Y-81100000D01*
X63595000Y-81147844D01*
X63597286Y-81169098D01*
X63584881Y-81237858D01*
X63537271Y-81288995D01*
X63469572Y-81306275D01*
X63403278Y-81284211D01*
X63386316Y-81270035D01*
X62798619Y-80682338D01*
X62765134Y-80621015D01*
X62762300Y-80594657D01*
X62762300Y-80325529D01*
X62781985Y-80258490D01*
X62834789Y-80212735D01*
X62903947Y-80202791D01*
X62967503Y-80231816D01*
X62973981Y-80237848D01*
X63049725Y-80313592D01*
X63049731Y-80313597D01*
X63203374Y-80410138D01*
X63203377Y-80410140D01*
X63203381Y-80410141D01*
X63203382Y-80410142D01*
X63374670Y-80470078D01*
X63374675Y-80470079D01*
X63465710Y-80480335D01*
X63509765Y-80485299D01*
X63509768Y-80485300D01*
X63528938Y-80485300D01*
X63579000Y-80500000D01*
X65745000Y-80500000D01*
X65745000Y-80452172D01*
X65744999Y-80452155D01*
X65738598Y-80392627D01*
X65738596Y-80392620D01*
X65688354Y-80257913D01*
X65688350Y-80257906D01*
X65602190Y-80142812D01*
X65602187Y-80142809D01*
X65487094Y-80056649D01*
X65486521Y-80056337D01*
X65486059Y-80055875D01*
X65479989Y-80051331D01*
X65480642Y-80050458D01*
X65437115Y-80006932D01*
X65422263Y-79938659D01*
X65428906Y-79906549D01*
X65445076Y-79860337D01*
X65445079Y-79860324D01*
X65465396Y-79680003D01*
X65465396Y-79679996D01*
X65445079Y-79499675D01*
X65445078Y-79499670D01*
X65385140Y-79328377D01*
X65385138Y-79328374D01*
X65288597Y-79174731D01*
X65288592Y-79174725D01*
X65160274Y-79046407D01*
X65160268Y-79046402D01*
X65006625Y-78949861D01*
X65006622Y-78949859D01*
X64835329Y-78889921D01*
X64835324Y-78889920D01*
X64700235Y-78874700D01*
X64700229Y-78874700D01*
X63509771Y-78874700D01*
X63509764Y-78874700D01*
X63374675Y-78889920D01*
X63374670Y-78889921D01*
X63203377Y-78949859D01*
X63203374Y-78949861D01*
X63049731Y-79046402D01*
X63049725Y-79046407D01*
X62973981Y-79122152D01*
X62912658Y-79155637D01*
X62842966Y-79150653D01*
X62787033Y-79108781D01*
X62762616Y-79043317D01*
X62762300Y-79034471D01*
X62762300Y-78998014D01*
X62781985Y-78930975D01*
X62804073Y-78905199D01*
X62888797Y-78830139D01*
X62888802Y-78830135D01*
X62986099Y-78689177D01*
X63046835Y-78529029D01*
X63067480Y-78359000D01*
X63046835Y-78188971D01*
X62986099Y-78028823D01*
X62888802Y-77887865D01*
X62760599Y-77774286D01*
X62608940Y-77694690D01*
X62608939Y-77694689D01*
X62608938Y-77694689D01*
X62442640Y-77653700D01*
X62442639Y-77653700D01*
X62271361Y-77653700D01*
X62271360Y-77653700D01*
X62105061Y-77694689D01*
X61953402Y-77774285D01*
X61825198Y-77887864D01*
X61825196Y-77887867D01*
X61727901Y-78028821D01*
X61727901Y-78028822D01*
X61667165Y-78188970D01*
X61646520Y-78358999D01*
X61646520Y-78359000D01*
X61667165Y-78529029D01*
X61727901Y-78689177D01*
X61727901Y-78689178D01*
X61816148Y-78817024D01*
X61825198Y-78830135D01*
X61909927Y-78905200D01*
X61947053Y-78964389D01*
X61951699Y-78998014D01*
X61951699Y-80801060D01*
X61951700Y-80801070D01*
X61951700Y-80878095D01*
X61958665Y-80899531D01*
X61963206Y-80918448D01*
X61966731Y-80940706D01*
X61976961Y-80960784D01*
X61984405Y-80978754D01*
X61991371Y-81000192D01*
X61991373Y-81000196D01*
X62004620Y-81018429D01*
X62014785Y-81035017D01*
X62025016Y-81055097D01*
X62025017Y-81055098D01*
X62025018Y-81055099D01*
X62047855Y-81077936D01*
X63461118Y-82491199D01*
X63551901Y-82581982D01*
X63571987Y-82592216D01*
X63588569Y-82602377D01*
X63606804Y-82615626D01*
X63606806Y-82615626D01*
X63606808Y-82615628D01*
X63615498Y-82620056D01*
X63614729Y-82621564D01*
X63663031Y-82654589D01*
X63690232Y-82718946D01*
X63678321Y-82787793D01*
X63631079Y-82839271D01*
X63605345Y-82851023D01*
X63603356Y-82851669D01*
X63584452Y-82856206D01*
X63562194Y-82859731D01*
X63542107Y-82869966D01*
X63524137Y-82877409D01*
X63502706Y-82884372D01*
X63502703Y-82884374D01*
X63484470Y-82897621D01*
X63467885Y-82907784D01*
X63447801Y-82918017D01*
X63447799Y-82918019D01*
X63366403Y-82999411D01*
X63366377Y-82999441D01*
X63263707Y-83102111D01*
X63205703Y-83134826D01*
X63121062Y-83155689D01*
X63121060Y-83155690D01*
X62969402Y-83235285D01*
X62841198Y-83348864D01*
X62841196Y-83348867D01*
X62743901Y-83489821D01*
X62743901Y-83489822D01*
X62683165Y-83649970D01*
X62662520Y-83819999D01*
X62662520Y-83820000D01*
X62683165Y-83990029D01*
X62743901Y-84150177D01*
X62743901Y-84150178D01*
X62832148Y-84278024D01*
X62841198Y-84291135D01*
X62969401Y-84404714D01*
X63121060Y-84484310D01*
X63204210Y-84504805D01*
X63287360Y-84525300D01*
X63287361Y-84525300D01*
X63326756Y-84525300D01*
X63393795Y-84544985D01*
X63414437Y-84561619D01*
X63434795Y-84581977D01*
X63434798Y-84581979D01*
X63434801Y-84581982D01*
X63447874Y-84588643D01*
X63454884Y-84592215D01*
X63471473Y-84602380D01*
X63489705Y-84615627D01*
X63511140Y-84622591D01*
X63529114Y-84630036D01*
X63549194Y-84640268D01*
X63571459Y-84643794D01*
X63590366Y-84648333D01*
X63611807Y-84655300D01*
X63644103Y-84655300D01*
X63665700Y-84655300D01*
X63732739Y-84674985D01*
X63778494Y-84727789D01*
X63789700Y-84779299D01*
X63789700Y-84945570D01*
X63789702Y-84945594D01*
X63793736Y-84980375D01*
X63791669Y-84980614D01*
X63791669Y-85019388D01*
X63793737Y-85019628D01*
X63789700Y-85054419D01*
X63789700Y-85445571D01*
X63789702Y-85445594D01*
X63793736Y-85480375D01*
X63791669Y-85480614D01*
X63791669Y-85519388D01*
X63793737Y-85519628D01*
X63789700Y-85554419D01*
X63789700Y-85945571D01*
X63789702Y-85945594D01*
X63793736Y-85980375D01*
X63791669Y-85980614D01*
X63791669Y-86019388D01*
X63793737Y-86019628D01*
X63789700Y-86054419D01*
X63789700Y-86441897D01*
X63770015Y-86508936D01*
X63740018Y-86541158D01*
X63737813Y-86542808D01*
X63737809Y-86542812D01*
X63651649Y-86657906D01*
X63651645Y-86657913D01*
X63601403Y-86792620D01*
X63601401Y-86792627D01*
X63595000Y-86852155D01*
X63595000Y-86900000D01*
X63811879Y-86900000D01*
X63878918Y-86919685D01*
X63899560Y-86936319D01*
X63919475Y-86956234D01*
X64023891Y-87002338D01*
X64049421Y-87005300D01*
X64696001Y-87005299D01*
X64763039Y-87024983D01*
X64808794Y-87077787D01*
X64820000Y-87129299D01*
X64820000Y-87376000D01*
X64800315Y-87443039D01*
X64747511Y-87488794D01*
X64696000Y-87500000D01*
X63577027Y-87500000D01*
X63555296Y-87511866D01*
X63528938Y-87514700D01*
X63509764Y-87514700D01*
X63374675Y-87529920D01*
X63374670Y-87529921D01*
X63203377Y-87589859D01*
X63203374Y-87589861D01*
X63049731Y-87686402D01*
X63049725Y-87686407D01*
X62921407Y-87814725D01*
X62921402Y-87814731D01*
X62824861Y-87968374D01*
X62824859Y-87968377D01*
X62764921Y-88139670D01*
X62764920Y-88139675D01*
X62744604Y-88319996D01*
X62744604Y-88320003D01*
X62764920Y-88500324D01*
X62764921Y-88500329D01*
X62824859Y-88671622D01*
X62824861Y-88671625D01*
X62921402Y-88825268D01*
X62921407Y-88825274D01*
X63049725Y-88953592D01*
X63049731Y-88953597D01*
X63203374Y-89050138D01*
X63203377Y-89050140D01*
X63203381Y-89050141D01*
X63203382Y-89050142D01*
X63329879Y-89094405D01*
X63374670Y-89110078D01*
X63374675Y-89110079D01*
X63465710Y-89120335D01*
X63509765Y-89125299D01*
X63509768Y-89125300D01*
X63509771Y-89125300D01*
X63583296Y-89125300D01*
X63650335Y-89144985D01*
X63696090Y-89197789D01*
X63706034Y-89266947D01*
X63699238Y-89293271D01*
X63662565Y-89389970D01*
X63641920Y-89559999D01*
X63641920Y-89560000D01*
X63662564Y-89730029D01*
X63682636Y-89782952D01*
X63688003Y-89852615D01*
X63654856Y-89914121D01*
X63593718Y-89947943D01*
X63534601Y-89946698D01*
X63270330Y-89875887D01*
X63270323Y-89875886D01*
X62887287Y-89815219D01*
X62500001Y-89794922D01*
X62499999Y-89794922D01*
X62112712Y-89815219D01*
X61729676Y-89875886D01*
X61729669Y-89875887D01*
X61355063Y-89976262D01*
X60993005Y-90115244D01*
X60647456Y-90291310D01*
X60322206Y-90502531D01*
X60064648Y-90711095D01*
X60064648Y-90711096D01*
X60962306Y-91608754D01*
X60900489Y-91567449D01*
X60827568Y-91552944D01*
X60778320Y-91552944D01*
X60705399Y-91567449D01*
X60622704Y-91622704D01*
X60567449Y-91705399D01*
X60548046Y-91802944D01*
X60567449Y-91900489D01*
X60608753Y-91962305D01*
X59711096Y-91064648D01*
X59711095Y-91064648D01*
X59502531Y-91322206D01*
X59291310Y-91647456D01*
X59115244Y-91993005D01*
X58976262Y-92355063D01*
X58875887Y-92729669D01*
X58875886Y-92729676D01*
X58815219Y-93112712D01*
X58794922Y-93499999D01*
X58794922Y-93500000D01*
X58000500Y-93500000D01*
X58000500Y-88320003D01*
X58814604Y-88320003D01*
X58834920Y-88500324D01*
X58834921Y-88500329D01*
X58894859Y-88671622D01*
X58894861Y-88671625D01*
X58991402Y-88825268D01*
X58991407Y-88825274D01*
X59119725Y-88953592D01*
X59119731Y-88953597D01*
X59273374Y-89050138D01*
X59273377Y-89050140D01*
X59273381Y-89050141D01*
X59273382Y-89050142D01*
X59399879Y-89094405D01*
X59444670Y-89110078D01*
X59444675Y-89110079D01*
X59535710Y-89120335D01*
X59579765Y-89125299D01*
X59579768Y-89125300D01*
X59579771Y-89125300D01*
X60270232Y-89125300D01*
X60270233Y-89125299D01*
X60337779Y-89117688D01*
X60405324Y-89110079D01*
X60405327Y-89110078D01*
X60405330Y-89110078D01*
X60576618Y-89050142D01*
X60576620Y-89050140D01*
X60576622Y-89050140D01*
X60576625Y-89050138D01*
X60730268Y-88953597D01*
X60730269Y-88953596D01*
X60730274Y-88953593D01*
X60858593Y-88825274D01*
X60955138Y-88671625D01*
X60955140Y-88671622D01*
X60955140Y-88671620D01*
X60955142Y-88671618D01*
X61015078Y-88500330D01*
X61035396Y-88320000D01*
X61015078Y-88139670D01*
X60955142Y-87968382D01*
X60955141Y-87968381D01*
X60955140Y-87968377D01*
X60955138Y-87968374D01*
X60858597Y-87814731D01*
X60858592Y-87814725D01*
X60730274Y-87686407D01*
X60730268Y-87686402D01*
X60576625Y-87589861D01*
X60576622Y-87589859D01*
X60405329Y-87529921D01*
X60405324Y-87529920D01*
X60270235Y-87514700D01*
X60270229Y-87514700D01*
X59579771Y-87514700D01*
X59579764Y-87514700D01*
X59444675Y-87529920D01*
X59444670Y-87529921D01*
X59273377Y-87589859D01*
X59273374Y-87589861D01*
X59119731Y-87686402D01*
X59119725Y-87686407D01*
X58991407Y-87814725D01*
X58991402Y-87814731D01*
X58894861Y-87968374D01*
X58894859Y-87968377D01*
X58834921Y-88139670D01*
X58834920Y-88139675D01*
X58814604Y-88319996D01*
X58814604Y-88320003D01*
X58000500Y-88320003D01*
X58000500Y-79680003D01*
X58814604Y-79680003D01*
X58834920Y-79860324D01*
X58834921Y-79860329D01*
X58894859Y-80031622D01*
X58894861Y-80031625D01*
X58991402Y-80185268D01*
X58991407Y-80185274D01*
X59119725Y-80313592D01*
X59119731Y-80313597D01*
X59273374Y-80410138D01*
X59273377Y-80410140D01*
X59273381Y-80410141D01*
X59273382Y-80410142D01*
X59444670Y-80470078D01*
X59444675Y-80470079D01*
X59535710Y-80480335D01*
X59579765Y-80485299D01*
X59579768Y-80485300D01*
X59579771Y-80485300D01*
X60270232Y-80485300D01*
X60270233Y-80485299D01*
X60337779Y-80477688D01*
X60405324Y-80470079D01*
X60405327Y-80470078D01*
X60405330Y-80470078D01*
X60576618Y-80410142D01*
X60576620Y-80410140D01*
X60576622Y-80410140D01*
X60576625Y-80410138D01*
X60730268Y-80313597D01*
X60730269Y-80313596D01*
X60730274Y-80313593D01*
X60858593Y-80185274D01*
X60939610Y-80056337D01*
X60955138Y-80031625D01*
X60955140Y-80031622D01*
X60955140Y-80031620D01*
X60955142Y-80031618D01*
X61015078Y-79860330D01*
X61035396Y-79680000D01*
X61015078Y-79499670D01*
X60955142Y-79328382D01*
X60955141Y-79328381D01*
X60955140Y-79328377D01*
X60955138Y-79328374D01*
X60858597Y-79174731D01*
X60858592Y-79174725D01*
X60730274Y-79046407D01*
X60730268Y-79046402D01*
X60576625Y-78949861D01*
X60576622Y-78949859D01*
X60405329Y-78889921D01*
X60405324Y-78889920D01*
X60270235Y-78874700D01*
X60270229Y-78874700D01*
X59579771Y-78874700D01*
X59579764Y-78874700D01*
X59444675Y-78889920D01*
X59444670Y-78889921D01*
X59273377Y-78949859D01*
X59273374Y-78949861D01*
X59119731Y-79046402D01*
X59119725Y-79046407D01*
X58991407Y-79174725D01*
X58991402Y-79174731D01*
X58894861Y-79328374D01*
X58894859Y-79328377D01*
X58834921Y-79499670D01*
X58834920Y-79499675D01*
X58814604Y-79679996D01*
X58814604Y-79680003D01*
X58000500Y-79680003D01*
X58000500Y-67397200D01*
X64917120Y-67397200D01*
X64937765Y-67567229D01*
X64998501Y-67727377D01*
X64998501Y-67727378D01*
X65086748Y-67855224D01*
X65095798Y-67868335D01*
X65224001Y-67981914D01*
X65375660Y-68061510D01*
X65458810Y-68082005D01*
X65541960Y-68102500D01*
X65708357Y-68102500D01*
X65775396Y-68122185D01*
X65796038Y-68138819D01*
X71598767Y-73941548D01*
X71632252Y-74002871D01*
X71634183Y-74044169D01*
X71632820Y-74055399D01*
X71632820Y-74055400D01*
X71653465Y-74225429D01*
X71714201Y-74385577D01*
X71714201Y-74385578D01*
X71802448Y-74513424D01*
X71811498Y-74526535D01*
X71939701Y-74640114D01*
X72091360Y-74719710D01*
X72174510Y-74740204D01*
X72257660Y-74760700D01*
X72257661Y-74760700D01*
X72428940Y-74760700D01*
X72484372Y-74747036D01*
X72595240Y-74719710D01*
X72746899Y-74640114D01*
X72875102Y-74526535D01*
X72972399Y-74385577D01*
X73033135Y-74225429D01*
X73053780Y-74055400D01*
X73033135Y-73885371D01*
X72972399Y-73725223D01*
X72875102Y-73584265D01*
X72746899Y-73470686D01*
X72637932Y-73413496D01*
X72587720Y-73364912D01*
X72575763Y-73314000D01*
X76788020Y-73314000D01*
X76808665Y-73484029D01*
X76869401Y-73644177D01*
X76869401Y-73644178D01*
X76925343Y-73725223D01*
X76966698Y-73785135D01*
X77094901Y-73898714D01*
X77246560Y-73978310D01*
X77270623Y-73984241D01*
X77412860Y-74019300D01*
X77412861Y-74019300D01*
X77584140Y-74019300D01*
X77682199Y-73995130D01*
X77750440Y-73978310D01*
X77902099Y-73898714D01*
X78030302Y-73785135D01*
X78038775Y-73772859D01*
X78093059Y-73728869D01*
X78140825Y-73719300D01*
X80688289Y-73719300D01*
X80755328Y-73738985D01*
X80801083Y-73791789D01*
X80806947Y-73807297D01*
X80808313Y-73811800D01*
X80808314Y-73811801D01*
X80808315Y-73811804D01*
X80906301Y-73995124D01*
X80906305Y-73995131D01*
X81038179Y-74155820D01*
X81198868Y-74287694D01*
X81198875Y-74287698D01*
X81381994Y-74385577D01*
X81382200Y-74385687D01*
X81581125Y-74446031D01*
X81788000Y-74466406D01*
X81994875Y-74446031D01*
X82193800Y-74385687D01*
X82377130Y-74287695D01*
X82537820Y-74155820D01*
X82669695Y-73995130D01*
X82767687Y-73811800D01*
X82828031Y-73612875D01*
X82848406Y-73406000D01*
X82828031Y-73199125D01*
X82767687Y-73000200D01*
X82710386Y-72892997D01*
X82669698Y-72816875D01*
X82669694Y-72816868D01*
X82537820Y-72656179D01*
X82377131Y-72524305D01*
X82377124Y-72524301D01*
X82193801Y-72426313D01*
X81994877Y-72365969D01*
X81788000Y-72345594D01*
X81581122Y-72365969D01*
X81382198Y-72426313D01*
X81198875Y-72524301D01*
X81198868Y-72524305D01*
X81038179Y-72656179D01*
X80906305Y-72816868D01*
X80906303Y-72816871D01*
X80892257Y-72843152D01*
X80843295Y-72892997D01*
X80782898Y-72908700D01*
X78140825Y-72908700D01*
X78073786Y-72889015D01*
X78038776Y-72855141D01*
X78030305Y-72842869D01*
X78030301Y-72842864D01*
X77931619Y-72755439D01*
X77902099Y-72729286D01*
X77750440Y-72649690D01*
X77750439Y-72649689D01*
X77750438Y-72649689D01*
X77584140Y-72608700D01*
X77584139Y-72608700D01*
X77412861Y-72608700D01*
X77412860Y-72608700D01*
X77246561Y-72649689D01*
X77094902Y-72729285D01*
X76966698Y-72842864D01*
X76966696Y-72842867D01*
X76869401Y-72983821D01*
X76869401Y-72983822D01*
X76808665Y-73143970D01*
X76788020Y-73313999D01*
X76788020Y-73314000D01*
X72575763Y-73314000D01*
X72571745Y-73296894D01*
X72595080Y-73231036D01*
X72637931Y-73193904D01*
X72654299Y-73185314D01*
X72782502Y-73071735D01*
X72879799Y-72930777D01*
X72940535Y-72770629D01*
X72961180Y-72600600D01*
X72940535Y-72430571D01*
X72879799Y-72270423D01*
X72782502Y-72129465D01*
X72782498Y-72129462D01*
X72782496Y-72129459D01*
X72697772Y-72054398D01*
X72660646Y-71995208D01*
X72656000Y-71961584D01*
X72656000Y-70865999D01*
X80727594Y-70865999D01*
X80747969Y-71072877D01*
X80808313Y-71271801D01*
X80906301Y-71455124D01*
X80906305Y-71455131D01*
X81038179Y-71615820D01*
X81198868Y-71747694D01*
X81198875Y-71747698D01*
X81382198Y-71845686D01*
X81382200Y-71845687D01*
X81581125Y-71906031D01*
X81788000Y-71926406D01*
X81994875Y-71906031D01*
X82193800Y-71845687D01*
X82377130Y-71747695D01*
X82537820Y-71615820D01*
X82669695Y-71455130D01*
X82704548Y-71389923D01*
X82753510Y-71340079D01*
X82821648Y-71324618D01*
X82887328Y-71348449D01*
X82915955Y-71377934D01*
X82948398Y-71424935D01*
X83076601Y-71538514D01*
X83228260Y-71618110D01*
X83311410Y-71638605D01*
X83394560Y-71659100D01*
X83394561Y-71659100D01*
X83565840Y-71659100D01*
X83621272Y-71645436D01*
X83732140Y-71618110D01*
X83883799Y-71538514D01*
X84012002Y-71424935D01*
X84109299Y-71283977D01*
X84170035Y-71123829D01*
X84190680Y-70953800D01*
X84183091Y-70891299D01*
X84194551Y-70822377D01*
X84218503Y-70788676D01*
X89463145Y-65544036D01*
X89490137Y-65517044D01*
X89494110Y-65505244D01*
X89496212Y-65501120D01*
X89506380Y-65484527D01*
X89519627Y-65466296D01*
X89526594Y-65444851D01*
X89534033Y-65426892D01*
X89544268Y-65406806D01*
X89547792Y-65384547D01*
X89552334Y-65365628D01*
X89559300Y-65344193D01*
X89559300Y-65215807D01*
X89559300Y-47282277D01*
X89578985Y-47215238D01*
X89624847Y-47172919D01*
X89743124Y-47109698D01*
X89743128Y-47109696D01*
X89743130Y-47109695D01*
X89903820Y-46977820D01*
X90035695Y-46817130D01*
X90133687Y-46633800D01*
X90194031Y-46434875D01*
X90214406Y-46228000D01*
X90194031Y-46021125D01*
X90133687Y-45822200D01*
X90120982Y-45798430D01*
X90035698Y-45638875D01*
X90035694Y-45638868D01*
X89903820Y-45478179D01*
X89743131Y-45346305D01*
X89743124Y-45346301D01*
X89559801Y-45248313D01*
X89360877Y-45187969D01*
X89154000Y-45167594D01*
X88947122Y-45187969D01*
X88748198Y-45248313D01*
X88564875Y-45346301D01*
X88564868Y-45346305D01*
X88404179Y-45478179D01*
X88272305Y-45638868D01*
X88272301Y-45638875D01*
X88174313Y-45822198D01*
X88113969Y-46021122D01*
X88093594Y-46228000D01*
X88113969Y-46434877D01*
X88174313Y-46633801D01*
X88272301Y-46817124D01*
X88272305Y-46817131D01*
X88404179Y-46977820D01*
X88564868Y-47109694D01*
X88564875Y-47109698D01*
X88683152Y-47172919D01*
X88732996Y-47221881D01*
X88748699Y-47282277D01*
X88748700Y-65060756D01*
X88729015Y-65127795D01*
X88712381Y-65148437D01*
X83648637Y-70212181D01*
X83587314Y-70245666D01*
X83560956Y-70248500D01*
X83394560Y-70248500D01*
X83228261Y-70289489D01*
X83076599Y-70369086D01*
X82951462Y-70479949D01*
X82888229Y-70509671D01*
X82818966Y-70500487D01*
X82765662Y-70455315D01*
X82759877Y-70445587D01*
X82669698Y-70276875D01*
X82669694Y-70276868D01*
X82537820Y-70116179D01*
X82377131Y-69984305D01*
X82377124Y-69984301D01*
X82193801Y-69886313D01*
X81994877Y-69825969D01*
X81788000Y-69805594D01*
X81581122Y-69825969D01*
X81382198Y-69886313D01*
X81198875Y-69984301D01*
X81198868Y-69984305D01*
X81038179Y-70116179D01*
X80906305Y-70276868D01*
X80906301Y-70276875D01*
X80808313Y-70460198D01*
X80747969Y-70659122D01*
X80727594Y-70865999D01*
X72656000Y-70865999D01*
X72656000Y-62820669D01*
X72675685Y-62753630D01*
X72677951Y-62750228D01*
X72732996Y-62670482D01*
X72732997Y-62670480D01*
X72732998Y-62670478D01*
X72732999Y-62670477D01*
X72793735Y-62510329D01*
X72814380Y-62340300D01*
X72810142Y-62305400D01*
X72792831Y-62162825D01*
X72794625Y-62162607D01*
X72797272Y-62102377D01*
X72837590Y-62045313D01*
X72902358Y-62019106D01*
X72914601Y-62018500D01*
X74699000Y-62018500D01*
X74766039Y-62038185D01*
X74811794Y-62090989D01*
X74823000Y-62142500D01*
X74823000Y-66094684D01*
X74803315Y-66161723D01*
X74781228Y-66187498D01*
X74696503Y-66262559D01*
X74696496Y-66262567D01*
X74599201Y-66403521D01*
X74599201Y-66403522D01*
X74538465Y-66563670D01*
X74517820Y-66733699D01*
X74517820Y-66733700D01*
X74538465Y-66903729D01*
X74599201Y-67063877D01*
X74599201Y-67063878D01*
X74687448Y-67191724D01*
X74696498Y-67204835D01*
X74824701Y-67318414D01*
X74976360Y-67398010D01*
X75059510Y-67418504D01*
X75142660Y-67439000D01*
X75142661Y-67439000D01*
X75313940Y-67439000D01*
X75369372Y-67425336D01*
X75480240Y-67398010D01*
X75631899Y-67318414D01*
X75760102Y-67204835D01*
X75857399Y-67063877D01*
X75918135Y-66903729D01*
X75938780Y-66733700D01*
X75918135Y-66563671D01*
X75857399Y-66403523D01*
X75760102Y-66262565D01*
X75760098Y-66262562D01*
X75760096Y-66262559D01*
X75675372Y-66187498D01*
X75638246Y-66128308D01*
X75633600Y-66094684D01*
X75633600Y-61832443D01*
X75653285Y-61765404D01*
X75669919Y-61744762D01*
X81124361Y-56290320D01*
X86669145Y-50745536D01*
X86669145Y-50745535D01*
X86691982Y-50722699D01*
X86702212Y-50702618D01*
X86712378Y-50686028D01*
X86725626Y-50667796D01*
X86732591Y-50646359D01*
X86740029Y-50628399D01*
X86750268Y-50608306D01*
X86753794Y-50586040D01*
X86758336Y-50567125D01*
X86765300Y-50545693D01*
X86765300Y-50417307D01*
X86765299Y-47282276D01*
X86784984Y-47215238D01*
X86830845Y-47172919D01*
X86949130Y-47109695D01*
X87109820Y-46977820D01*
X87241695Y-46817130D01*
X87339687Y-46633800D01*
X87400031Y-46434875D01*
X87420406Y-46228000D01*
X87400031Y-46021125D01*
X87339687Y-45822200D01*
X87326982Y-45798430D01*
X87241698Y-45638875D01*
X87241694Y-45638868D01*
X87109820Y-45478179D01*
X86949131Y-45346305D01*
X86949124Y-45346301D01*
X86765801Y-45248313D01*
X86566877Y-45187969D01*
X86360000Y-45167594D01*
X86153122Y-45187969D01*
X85954198Y-45248313D01*
X85770875Y-45346301D01*
X85770868Y-45346305D01*
X85610179Y-45478179D01*
X85478305Y-45638868D01*
X85478301Y-45638875D01*
X85380313Y-45822198D01*
X85319969Y-46021122D01*
X85299594Y-46228000D01*
X85319969Y-46434877D01*
X85380313Y-46633801D01*
X85478301Y-46817124D01*
X85478305Y-46817131D01*
X85610179Y-46977820D01*
X85770868Y-47109694D01*
X85770875Y-47109698D01*
X85889153Y-47172919D01*
X85938997Y-47221881D01*
X85954700Y-47282277D01*
X85954700Y-50262257D01*
X85935015Y-50329296D01*
X85918381Y-50349938D01*
X75096738Y-61171581D01*
X75035415Y-61205066D01*
X75009057Y-61207900D01*
X71525025Y-61207900D01*
X71457986Y-61188215D01*
X71422976Y-61154341D01*
X71414505Y-61142069D01*
X71414501Y-61142064D01*
X71397993Y-61127440D01*
X71286299Y-61028486D01*
X71134640Y-60948890D01*
X71134639Y-60948889D01*
X71134638Y-60948889D01*
X70968340Y-60907900D01*
X70968339Y-60907900D01*
X70797061Y-60907900D01*
X70797060Y-60907900D01*
X70630761Y-60948889D01*
X70479102Y-61028485D01*
X70350898Y-61142064D01*
X70350896Y-61142067D01*
X70253601Y-61283021D01*
X70253601Y-61283022D01*
X70192865Y-61443170D01*
X70172220Y-61613199D01*
X70172220Y-61613200D01*
X70192865Y-61783229D01*
X70253601Y-61943377D01*
X70253601Y-61943378D01*
X70305455Y-62018500D01*
X70350898Y-62084335D01*
X70479101Y-62197914D01*
X70630760Y-62277510D01*
X70713910Y-62298005D01*
X70797060Y-62318500D01*
X70797061Y-62318500D01*
X70968340Y-62318500D01*
X71023772Y-62304836D01*
X71134640Y-62277510D01*
X71211796Y-62237015D01*
X71280303Y-62223292D01*
X71345356Y-62248784D01*
X71386300Y-62305400D01*
X71391050Y-62333032D01*
X71392516Y-62332855D01*
X71414065Y-62510329D01*
X71474801Y-62670477D01*
X71474801Y-62670478D01*
X71532198Y-62753630D01*
X71572098Y-62811435D01*
X71700301Y-62925014D01*
X71779025Y-62966331D01*
X71829238Y-63014916D01*
X71845400Y-63076128D01*
X71845400Y-71961584D01*
X71825715Y-72028623D01*
X71803628Y-72054398D01*
X71718903Y-72129459D01*
X71718896Y-72129467D01*
X71621601Y-72270421D01*
X71621601Y-72270422D01*
X71560865Y-72430570D01*
X71556187Y-72469095D01*
X71528565Y-72533273D01*
X71470630Y-72572329D01*
X71400777Y-72573864D01*
X71345410Y-72541829D01*
X66365906Y-67562325D01*
X66332421Y-67501002D01*
X66330491Y-67459700D01*
X66338080Y-67397200D01*
X66317435Y-67227171D01*
X66256699Y-67067023D01*
X66254528Y-67063878D01*
X66159403Y-66926067D01*
X66159401Y-66926064D01*
X66134190Y-66903729D01*
X66031199Y-66812486D01*
X65879540Y-66732890D01*
X65879539Y-66732889D01*
X65879538Y-66732889D01*
X65713240Y-66691900D01*
X65713239Y-66691900D01*
X65541961Y-66691900D01*
X65541960Y-66691900D01*
X65375661Y-66732889D01*
X65224002Y-66812485D01*
X65095798Y-66926064D01*
X65095796Y-66926067D01*
X64998501Y-67067021D01*
X64998501Y-67067022D01*
X64937765Y-67227170D01*
X64917120Y-67397199D01*
X64917120Y-67397200D01*
X58000500Y-67397200D01*
X58000500Y-50900200D01*
X61876220Y-50900200D01*
X61896865Y-51070229D01*
X61957601Y-51230377D01*
X61957601Y-51230378D01*
X62004648Y-51298536D01*
X62054898Y-51371335D01*
X62183101Y-51484914D01*
X62334760Y-51564510D01*
X62417910Y-51585005D01*
X62501060Y-51605500D01*
X62613800Y-51605500D01*
X62680839Y-51625185D01*
X62726594Y-51677989D01*
X62737800Y-51729500D01*
X62737800Y-63482884D01*
X62718115Y-63549923D01*
X62696028Y-63575698D01*
X62611303Y-63650759D01*
X62611296Y-63650767D01*
X62514001Y-63791721D01*
X62514001Y-63791722D01*
X62453265Y-63951870D01*
X62432620Y-64121899D01*
X62432620Y-64121900D01*
X62453265Y-64291929D01*
X62514001Y-64452077D01*
X62514001Y-64452078D01*
X62602248Y-64579924D01*
X62611298Y-64593035D01*
X62739501Y-64706614D01*
X62891160Y-64786210D01*
X62974310Y-64806705D01*
X63057460Y-64827200D01*
X63057461Y-64827200D01*
X63228740Y-64827200D01*
X63284172Y-64813536D01*
X63395040Y-64786210D01*
X63546699Y-64706614D01*
X63674902Y-64593035D01*
X63772199Y-64452077D01*
X63832935Y-64291929D01*
X63853580Y-64121900D01*
X63832935Y-63951871D01*
X63772199Y-63791723D01*
X63674902Y-63650765D01*
X63674898Y-63650762D01*
X63674896Y-63650759D01*
X63590172Y-63575698D01*
X63553046Y-63516508D01*
X63548400Y-63482884D01*
X63548400Y-54390001D01*
X75319454Y-54390001D01*
X75339613Y-54671866D01*
X75399678Y-54947977D01*
X75399680Y-54947984D01*
X75460993Y-55112372D01*
X75498432Y-55212750D01*
X75498434Y-55212754D01*
X75633855Y-55460758D01*
X75633860Y-55460766D01*
X75803196Y-55686974D01*
X75803212Y-55686992D01*
X76003007Y-55886787D01*
X76003025Y-55886803D01*
X76229233Y-56056139D01*
X76229241Y-56056144D01*
X76477245Y-56191565D01*
X76477249Y-56191567D01*
X76477251Y-56191568D01*
X76742016Y-56290320D01*
X76880077Y-56320353D01*
X77018133Y-56350386D01*
X77018135Y-56350386D01*
X77018139Y-56350387D01*
X77229447Y-56365500D01*
X77370553Y-56365500D01*
X77581861Y-56350387D01*
X77857984Y-56290320D01*
X78122749Y-56191568D01*
X78370764Y-56056141D01*
X78596982Y-55886797D01*
X78796797Y-55686982D01*
X78966141Y-55460764D01*
X79101568Y-55212749D01*
X79200320Y-54947984D01*
X79260387Y-54671861D01*
X79280546Y-54390000D01*
X79260387Y-54108139D01*
X79200320Y-53832016D01*
X79101568Y-53567251D01*
X78966141Y-53319236D01*
X78966139Y-53319233D01*
X78796803Y-53093025D01*
X78796787Y-53093007D01*
X78596992Y-52893212D01*
X78596974Y-52893196D01*
X78370766Y-52723860D01*
X78370758Y-52723855D01*
X78122754Y-52588434D01*
X78122750Y-52588432D01*
X78022372Y-52550993D01*
X77857984Y-52489680D01*
X77857980Y-52489679D01*
X77857977Y-52489678D01*
X77581866Y-52429613D01*
X77370553Y-52414500D01*
X77229447Y-52414500D01*
X77018133Y-52429613D01*
X76742022Y-52489678D01*
X76742017Y-52489679D01*
X76742016Y-52489680D01*
X76678003Y-52513555D01*
X76477249Y-52588432D01*
X76477245Y-52588434D01*
X76229241Y-52723855D01*
X76229233Y-52723860D01*
X76003025Y-52893196D01*
X76003007Y-52893212D01*
X75803212Y-53093007D01*
X75803196Y-53093025D01*
X75633860Y-53319233D01*
X75633855Y-53319241D01*
X75498434Y-53567245D01*
X75498432Y-53567249D01*
X75399678Y-53832022D01*
X75339613Y-54108133D01*
X75319454Y-54389998D01*
X75319454Y-54390001D01*
X63548400Y-54390001D01*
X63548400Y-51429500D01*
X63568085Y-51362461D01*
X63620889Y-51316706D01*
X63672400Y-51305500D01*
X78957992Y-51305500D01*
X78957993Y-51305500D01*
X78979428Y-51298534D01*
X78998347Y-51293992D01*
X79020606Y-51290468D01*
X79040692Y-51280233D01*
X79058651Y-51272794D01*
X79080096Y-51265827D01*
X79080096Y-51265826D01*
X79080098Y-51265826D01*
X79086369Y-51261268D01*
X79098327Y-51252580D01*
X79114915Y-51242414D01*
X79134999Y-51232182D01*
X79225782Y-51141399D01*
X83107105Y-47260074D01*
X83168426Y-47226591D01*
X83230778Y-47229096D01*
X83359125Y-47268031D01*
X83566000Y-47288406D01*
X83772875Y-47268031D01*
X83971800Y-47207687D01*
X84155130Y-47109695D01*
X84315820Y-46977820D01*
X84447695Y-46817130D01*
X84545687Y-46633800D01*
X84606031Y-46434875D01*
X84626406Y-46228000D01*
X84606031Y-46021125D01*
X84545687Y-45822200D01*
X84532982Y-45798430D01*
X84447698Y-45638875D01*
X84447694Y-45638868D01*
X84315820Y-45478179D01*
X84155131Y-45346305D01*
X84155124Y-45346301D01*
X83971801Y-45248313D01*
X83772877Y-45187969D01*
X83566000Y-45167594D01*
X83359122Y-45187969D01*
X83160198Y-45248313D01*
X82976875Y-45346301D01*
X82976868Y-45346305D01*
X82816179Y-45478179D01*
X82684305Y-45638868D01*
X82684301Y-45638875D01*
X82586313Y-45822198D01*
X82525969Y-46021122D01*
X82505594Y-46227999D01*
X82525968Y-46434873D01*
X82564902Y-46563219D01*
X82565525Y-46633086D01*
X82533922Y-46686895D01*
X78762238Y-50458581D01*
X78700915Y-50492066D01*
X78674557Y-50494900D01*
X63229025Y-50494900D01*
X63161986Y-50475215D01*
X63126976Y-50441341D01*
X63118505Y-50429069D01*
X63118501Y-50429064D01*
X63074080Y-50389710D01*
X62990299Y-50315486D01*
X62838640Y-50235890D01*
X62838639Y-50235889D01*
X62838638Y-50235889D01*
X62672340Y-50194900D01*
X62672339Y-50194900D01*
X62501061Y-50194900D01*
X62501060Y-50194900D01*
X62334761Y-50235889D01*
X62183102Y-50315485D01*
X62054898Y-50429064D01*
X62054896Y-50429067D01*
X61957601Y-50570021D01*
X61957601Y-50570022D01*
X61896865Y-50730170D01*
X61876220Y-50900199D01*
X61876220Y-50900200D01*
X58000500Y-50900200D01*
X58000500Y-44500000D01*
X58794922Y-44500000D01*
X58815219Y-44887287D01*
X58875886Y-45270323D01*
X58875887Y-45270330D01*
X58976262Y-45644936D01*
X59115244Y-46006994D01*
X59291310Y-46352543D01*
X59502531Y-46677793D01*
X59711095Y-46935350D01*
X59711096Y-46935350D01*
X60608756Y-46037689D01*
X60567449Y-46099511D01*
X60548046Y-46197056D01*
X60567449Y-46294601D01*
X60622704Y-46377296D01*
X60705399Y-46432551D01*
X60778320Y-46447056D01*
X60827568Y-46447056D01*
X60900489Y-46432551D01*
X60962304Y-46391247D01*
X60064648Y-47288903D01*
X60064649Y-47288904D01*
X60322206Y-47497468D01*
X60647456Y-47708689D01*
X60993005Y-47884755D01*
X61355063Y-48023737D01*
X61729669Y-48124112D01*
X61729676Y-48124113D01*
X62112712Y-48184780D01*
X62499999Y-48205078D01*
X62500001Y-48205078D01*
X62887287Y-48184780D01*
X63270323Y-48124113D01*
X63270330Y-48124112D01*
X63644936Y-48023737D01*
X64006994Y-47884755D01*
X64352543Y-47708689D01*
X64677783Y-47497476D01*
X64677785Y-47497475D01*
X64935349Y-47288902D01*
X64037691Y-46391244D01*
X64099511Y-46432551D01*
X64172432Y-46447056D01*
X64221680Y-46447056D01*
X64294601Y-46432551D01*
X64377296Y-46377296D01*
X64432551Y-46294601D01*
X64451954Y-46197056D01*
X64432551Y-46099511D01*
X64391244Y-46037691D01*
X65288902Y-46935349D01*
X65497475Y-46677785D01*
X65497476Y-46677783D01*
X65708689Y-46352543D01*
X65772147Y-46228000D01*
X67265594Y-46228000D01*
X67285969Y-46434877D01*
X67346313Y-46633801D01*
X67444301Y-46817124D01*
X67444305Y-46817131D01*
X67576179Y-46977820D01*
X67736868Y-47109694D01*
X67736875Y-47109698D01*
X67919740Y-47207441D01*
X67920200Y-47207687D01*
X68119125Y-47268031D01*
X68326000Y-47288406D01*
X68532875Y-47268031D01*
X68731800Y-47207687D01*
X68915130Y-47109695D01*
X69075820Y-46977820D01*
X69207695Y-46817130D01*
X69305687Y-46633800D01*
X69366031Y-46434875D01*
X69386406Y-46228000D01*
X69366031Y-46021125D01*
X69305687Y-45822200D01*
X69292982Y-45798430D01*
X69207698Y-45638875D01*
X69207694Y-45638868D01*
X69075820Y-45478179D01*
X68915131Y-45346305D01*
X68915124Y-45346301D01*
X68731801Y-45248313D01*
X68532877Y-45187969D01*
X68326000Y-45167594D01*
X68119122Y-45187969D01*
X67920198Y-45248313D01*
X67736875Y-45346301D01*
X67736868Y-45346305D01*
X67576179Y-45478179D01*
X67444305Y-45638868D01*
X67444301Y-45638875D01*
X67346313Y-45822198D01*
X67285969Y-46021122D01*
X67265594Y-46228000D01*
X65772147Y-46228000D01*
X65884755Y-46006994D01*
X66023737Y-45644936D01*
X66124112Y-45270330D01*
X66124113Y-45270323D01*
X66184780Y-44887287D01*
X66205078Y-44500000D01*
X66205078Y-44499999D01*
X66184780Y-44112712D01*
X66124113Y-43729676D01*
X66124112Y-43729669D01*
X66023737Y-43355063D01*
X65884755Y-42993005D01*
X65708689Y-42647456D01*
X65497468Y-42322206D01*
X65288904Y-42064649D01*
X65288903Y-42064648D01*
X64391247Y-42962303D01*
X64432551Y-42900489D01*
X64451954Y-42802944D01*
X64432551Y-42705399D01*
X64377296Y-42622704D01*
X64294601Y-42567449D01*
X64221680Y-42552944D01*
X64172432Y-42552944D01*
X64099511Y-42567449D01*
X64037690Y-42608755D01*
X64935350Y-41711096D01*
X64935350Y-41711095D01*
X64677793Y-41502531D01*
X64352543Y-41291310D01*
X64006994Y-41115244D01*
X63644936Y-40976262D01*
X63270330Y-40875887D01*
X63270323Y-40875886D01*
X62887287Y-40815219D01*
X62500001Y-40794922D01*
X62499999Y-40794922D01*
X62112712Y-40815219D01*
X61729676Y-40875886D01*
X61729669Y-40875887D01*
X61355063Y-40976262D01*
X60993005Y-41115244D01*
X60647456Y-41291310D01*
X60322206Y-41502531D01*
X60064648Y-41711095D01*
X60064648Y-41711096D01*
X60962306Y-42608754D01*
X60900489Y-42567449D01*
X60827568Y-42552944D01*
X60778320Y-42552944D01*
X60705399Y-42567449D01*
X60622704Y-42622704D01*
X60567449Y-42705399D01*
X60548046Y-42802944D01*
X60567449Y-42900489D01*
X60608753Y-42962305D01*
X59711096Y-42064648D01*
X59711095Y-42064648D01*
X59502531Y-42322206D01*
X59291310Y-42647456D01*
X59115244Y-42993005D01*
X58976262Y-43355063D01*
X58875887Y-43729669D01*
X58875886Y-43729676D01*
X58815219Y-44112712D01*
X58794922Y-44499999D01*
X58794922Y-44500000D01*
X58000500Y-44500000D01*
X58000500Y-44001439D01*
X58000566Y-43998576D01*
X58008487Y-43827238D01*
X58008488Y-43827229D01*
X58008490Y-43827168D01*
X58018302Y-43627446D01*
X58018818Y-43621955D01*
X58044670Y-43436633D01*
X58072331Y-43250162D01*
X58073292Y-43245137D01*
X58116689Y-43060626D01*
X58161993Y-42879764D01*
X58163323Y-42875216D01*
X58223915Y-42694431D01*
X58286457Y-42519641D01*
X58288100Y-42515527D01*
X58365368Y-42340530D01*
X58444615Y-42172977D01*
X58446444Y-42169423D01*
X58539781Y-42001852D01*
X58634990Y-41843005D01*
X58636979Y-41839904D01*
X58745570Y-41681381D01*
X58855924Y-41532586D01*
X58857928Y-41530033D01*
X58980875Y-41381973D01*
X59105351Y-41244636D01*
X59107361Y-41242526D01*
X59242526Y-41107361D01*
X59244636Y-41105351D01*
X59381973Y-40980875D01*
X59530033Y-40857928D01*
X59532586Y-40855924D01*
X59681381Y-40745570D01*
X59839904Y-40636979D01*
X59843005Y-40634990D01*
X60001858Y-40539778D01*
X60169423Y-40446444D01*
X60172977Y-40444615D01*
X60340530Y-40365368D01*
X60515538Y-40288095D01*
X60519641Y-40286457D01*
X60694431Y-40223915D01*
X60875216Y-40163323D01*
X60879764Y-40161993D01*
X61060626Y-40116689D01*
X61245137Y-40073292D01*
X61250162Y-40072331D01*
X61436651Y-40044667D01*
X61621955Y-40018818D01*
X61627446Y-40018302D01*
X61826958Y-40008500D01*
X61968945Y-40001935D01*
X61998577Y-40000566D01*
X62001440Y-40000500D01*
X121998560Y-40000500D01*
X122001423Y-40000566D01*
G37*
%TD.AperFunction*%
%TA.AperFunction,Conductor*%
G36*
X123356420Y-95002867D02*
G01*
X123294601Y-94961561D01*
X123221680Y-94947056D01*
X123172432Y-94947056D01*
X123099511Y-94961561D01*
X123016816Y-95016816D01*
X122961561Y-95099511D01*
X122942158Y-95197056D01*
X122961561Y-95294601D01*
X123002867Y-95356420D01*
X122444180Y-94797733D01*
X122634870Y-94634870D01*
X122797733Y-94444180D01*
X123356420Y-95002867D01*
G37*
%TD.AperFunction*%
%TA.AperFunction,Conductor*%
G36*
X120365130Y-94634870D02*
G01*
X120555819Y-94797733D01*
X119997135Y-95356416D01*
X120038439Y-95294601D01*
X120057842Y-95197056D01*
X120038439Y-95099511D01*
X119983184Y-95016816D01*
X119900489Y-94961561D01*
X119827568Y-94947056D01*
X119778320Y-94947056D01*
X119705399Y-94961561D01*
X119643577Y-95002868D01*
X120202266Y-94444180D01*
X120365130Y-94634870D01*
G37*
%TD.AperFunction*%
%TA.AperFunction,Conductor*%
G36*
X120555819Y-43202266D02*
G01*
X120365130Y-43365130D01*
X120202266Y-43555819D01*
X119643581Y-42997133D01*
X119705399Y-43038439D01*
X119778320Y-43052944D01*
X119827568Y-43052944D01*
X119900489Y-43038439D01*
X119983184Y-42983184D01*
X120038439Y-42900489D01*
X120057842Y-42802944D01*
X120038439Y-42705399D01*
X119997133Y-42643581D01*
X120555819Y-43202266D01*
G37*
%TD.AperFunction*%
%TA.AperFunction,Conductor*%
G36*
X122961561Y-42705399D02*
G01*
X122942158Y-42802944D01*
X122961561Y-42900489D01*
X123016816Y-42983184D01*
X123099511Y-43038439D01*
X123172432Y-43052944D01*
X123221680Y-43052944D01*
X123294601Y-43038439D01*
X123356414Y-42997136D01*
X122797732Y-43555818D01*
X122634870Y-43365130D01*
X122444180Y-43202266D01*
X123002867Y-42643578D01*
X122961561Y-42705399D01*
G37*
%TD.AperFunction*%
%TD*%
M02*
