%TF.GenerationSoftware,KiCad,Pcbnew,7.0.6-0*%
%TF.CreationDate,2023-08-18T22:24:39+03:00*%
%TF.ProjectId,iot-data-logger-nfc-samd21,696f742d-6461-4746-912d-6c6f67676572,rev?*%
%TF.SameCoordinates,Original*%
%TF.FileFunction,Copper,L1,Top*%
%TF.FilePolarity,Positive*%
%FSLAX46Y46*%
G04 Gerber Fmt 4.6, Leading zero omitted, Abs format (unit mm)*
G04 Created by KiCad (PCBNEW 7.0.6-0) date 2023-08-18 22:24:39*
%MOMM*%
%LPD*%
G01*
G04 APERTURE LIST*
G04 Aperture macros list*
%AMRoundRect*
0 Rectangle with rounded corners*
0 $1 Rounding radius*
0 $2 $3 $4 $5 $6 $7 $8 $9 X,Y pos of 4 corners*
0 Add a 4 corners polygon primitive as box body*
4,1,4,$2,$3,$4,$5,$6,$7,$8,$9,$2,$3,0*
0 Add four circle primitives for the rounded corners*
1,1,$1+$1,$2,$3*
1,1,$1+$1,$4,$5*
1,1,$1+$1,$6,$7*
1,1,$1+$1,$8,$9*
0 Add four rect primitives between the rounded corners*
20,1,$1+$1,$2,$3,$4,$5,0*
20,1,$1+$1,$4,$5,$6,$7,0*
20,1,$1+$1,$6,$7,$8,$9,0*
20,1,$1+$1,$8,$9,$2,$3,0*%
%AMFreePoly0*
4,1,9,5.362500,-0.866500,1.237500,-0.866500,1.237500,-0.450000,-1.237500,-0.450000,-1.237500,0.450000,1.237500,0.450000,1.237500,0.866500,5.362500,0.866500,5.362500,-0.866500,5.362500,-0.866500,$1*%
%AMFreePoly1*
4,1,6,0.500000,-0.850000,-0.500000,-0.850000,-0.500000,0.550000,-0.200000,0.850000,0.500000,0.850000,0.500000,-0.850000,0.500000,-0.850000,$1*%
G04 Aperture macros list end*
%TA.AperFunction,EtchedComponent*%
%ADD10C,0.500000*%
%TD*%
%TA.AperFunction,SMDPad,CuDef*%
%ADD11R,0.900000X2.300000*%
%TD*%
%TA.AperFunction,SMDPad,CuDef*%
%ADD12FreePoly0,270.000000*%
%TD*%
%TA.AperFunction,SMDPad,CuDef*%
%ADD13C,0.500000*%
%TD*%
%TA.AperFunction,SMDPad,CuDef*%
%ADD14RoundRect,0.250000X-0.450000X0.350000X-0.450000X-0.350000X0.450000X-0.350000X0.450000X0.350000X0*%
%TD*%
%TA.AperFunction,SMDPad,CuDef*%
%ADD15RoundRect,0.008100X0.126900X-0.361900X0.126900X0.361900X-0.126900X0.361900X-0.126900X-0.361900X0*%
%TD*%
%TA.AperFunction,SMDPad,CuDef*%
%ADD16R,1.350000X0.650000*%
%TD*%
%TA.AperFunction,SMDPad,CuDef*%
%ADD17RoundRect,0.250000X-0.337500X-0.475000X0.337500X-0.475000X0.337500X0.475000X-0.337500X0.475000X0*%
%TD*%
%TA.AperFunction,SMDPad,CuDef*%
%ADD18RoundRect,0.250000X0.450000X-0.350000X0.450000X0.350000X-0.450000X0.350000X-0.450000X-0.350000X0*%
%TD*%
%TA.AperFunction,ComponentPad*%
%ADD19C,1.500000*%
%TD*%
%TA.AperFunction,SMDPad,CuDef*%
%ADD20RoundRect,0.250000X-0.475000X0.337500X-0.475000X-0.337500X0.475000X-0.337500X0.475000X0.337500X0*%
%TD*%
%TA.AperFunction,SMDPad,CuDef*%
%ADD21R,1.000000X0.700000*%
%TD*%
%TA.AperFunction,SMDPad,CuDef*%
%ADD22R,0.600000X0.700000*%
%TD*%
%TA.AperFunction,SMDPad,CuDef*%
%ADD23R,1.000000X1.000000*%
%TD*%
%TA.AperFunction,SMDPad,CuDef*%
%ADD24RoundRect,0.250000X0.400000X1.450000X-0.400000X1.450000X-0.400000X-1.450000X0.400000X-1.450000X0*%
%TD*%
%TA.AperFunction,ComponentPad*%
%ADD25R,1.700000X1.700000*%
%TD*%
%TA.AperFunction,ComponentPad*%
%ADD26O,1.700000X1.700000*%
%TD*%
%TA.AperFunction,ComponentPad*%
%ADD27C,0.800000*%
%TD*%
%TA.AperFunction,ComponentPad*%
%ADD28C,6.400000*%
%TD*%
%TA.AperFunction,SMDPad,CuDef*%
%ADD29RoundRect,0.150000X-0.150000X0.587500X-0.150000X-0.587500X0.150000X-0.587500X0.150000X0.587500X0*%
%TD*%
%TA.AperFunction,SMDPad,CuDef*%
%ADD30RoundRect,0.250000X0.475000X-0.337500X0.475000X0.337500X-0.475000X0.337500X-0.475000X-0.337500X0*%
%TD*%
%TA.AperFunction,SMDPad,CuDef*%
%ADD31R,0.250000X1.100000*%
%TD*%
%TA.AperFunction,SMDPad,CuDef*%
%ADD32FreePoly1,90.000000*%
%TD*%
%TA.AperFunction,SMDPad,CuDef*%
%ADD33RoundRect,0.250000X0.350000X0.450000X-0.350000X0.450000X-0.350000X-0.450000X0.350000X-0.450000X0*%
%TD*%
%TA.AperFunction,SMDPad,CuDef*%
%ADD34RoundRect,0.250000X0.337500X0.475000X-0.337500X0.475000X-0.337500X-0.475000X0.337500X-0.475000X0*%
%TD*%
%TA.AperFunction,SMDPad,CuDef*%
%ADD35R,0.300000X0.750000*%
%TD*%
%TA.AperFunction,SMDPad,CuDef*%
%ADD36R,1.500000X1.300000*%
%TD*%
%TA.AperFunction,SMDPad,CuDef*%
%ADD37RoundRect,0.250000X-0.350000X-0.450000X0.350000X-0.450000X0.350000X0.450000X-0.350000X0.450000X0*%
%TD*%
%TA.AperFunction,SMDPad,CuDef*%
%ADD38R,1.600000X0.550000*%
%TD*%
%TA.AperFunction,SMDPad,CuDef*%
%ADD39R,0.550000X1.600000*%
%TD*%
%TA.AperFunction,SMDPad,CuDef*%
%ADD40R,1.800000X1.750000*%
%TD*%
%TA.AperFunction,SMDPad,CuDef*%
%ADD41RoundRect,0.150000X0.150000X-0.650000X0.150000X0.650000X-0.150000X0.650000X-0.150000X-0.650000X0*%
%TD*%
%TA.AperFunction,SMDPad,CuDef*%
%ADD42RoundRect,0.250000X-0.650000X0.412500X-0.650000X-0.412500X0.650000X-0.412500X0.650000X0.412500X0*%
%TD*%
%TA.AperFunction,SMDPad,CuDef*%
%ADD43RoundRect,0.100000X0.637500X0.100000X-0.637500X0.100000X-0.637500X-0.100000X0.637500X-0.100000X0*%
%TD*%
%TA.AperFunction,ComponentPad*%
%ADD44C,0.600000*%
%TD*%
%TA.AperFunction,SMDPad,CuDef*%
%ADD45R,0.813000X0.305000*%
%TD*%
%TA.AperFunction,SMDPad,CuDef*%
%ADD46R,0.305000X0.813000*%
%TD*%
%TA.AperFunction,SMDPad,CuDef*%
%ADD47RoundRect,0.250000X0.325000X0.450000X-0.325000X0.450000X-0.325000X-0.450000X0.325000X-0.450000X0*%
%TD*%
%TA.AperFunction,ComponentPad*%
%ADD48O,1.600000X1.000000*%
%TD*%
%TA.AperFunction,ComponentPad*%
%ADD49O,2.100000X1.000000*%
%TD*%
%TA.AperFunction,ComponentPad*%
%ADD50R,2.000000X2.000000*%
%TD*%
%TA.AperFunction,ComponentPad*%
%ADD51C,2.000000*%
%TD*%
%TA.AperFunction,ViaPad*%
%ADD52C,0.800000*%
%TD*%
%TA.AperFunction,Conductor*%
%ADD53C,0.200000*%
%TD*%
%TA.AperFunction,Conductor*%
%ADD54C,0.800000*%
%TD*%
%TA.AperFunction,Conductor*%
%ADD55C,0.400000*%
%TD*%
%TA.AperFunction,Conductor*%
%ADD56C,0.770000*%
%TD*%
%TA.AperFunction,Conductor*%
%ADD57C,0.300000*%
%TD*%
G04 APERTURE END LIST*
%TA.AperFunction,EtchedComponent*%
%TO.C,NT3*%
G36*
X84070000Y-51808000D02*
G01*
X83570000Y-51808000D01*
X83570000Y-50808000D01*
X84070000Y-50808000D01*
X84070000Y-51808000D01*
G37*
%TD.AperFunction*%
%TA.AperFunction,EtchedComponent*%
%TO.C,NT5*%
G36*
X64004000Y-58420000D02*
G01*
X63504000Y-58420000D01*
X63504000Y-57420000D01*
X64004000Y-57420000D01*
X64004000Y-58420000D01*
G37*
%TD.AperFunction*%
%TA.AperFunction,EtchedComponent*%
%TO.C,NT4*%
G36*
X62734000Y-55880000D02*
G01*
X62234000Y-55880000D01*
X62234000Y-54880000D01*
X62734000Y-54880000D01*
X62734000Y-55880000D01*
G37*
%TD.AperFunction*%
%TA.AperFunction,EtchedComponent*%
%TO.C,NT1*%
G36*
X72640000Y-49014000D02*
G01*
X72140000Y-49014000D01*
X72140000Y-48014000D01*
X72640000Y-48014000D01*
X72640000Y-49014000D01*
G37*
%TD.AperFunction*%
%TA.AperFunction,EtchedComponent*%
%TO.C,NT2*%
G36*
X89138000Y-72894000D02*
G01*
X88138000Y-72894000D01*
X88138000Y-72394000D01*
X89138000Y-72394000D01*
X89138000Y-72894000D01*
G37*
%TD.AperFunction*%
D10*
%TO.C,AE1*%
X94500000Y-49000000D02*
X124500000Y-49000000D01*
X94500000Y-50000000D02*
X123500000Y-50000000D01*
X94500000Y-89000000D02*
X94500000Y-50000000D01*
X95500000Y-51000000D02*
X122500000Y-51000000D01*
X95500000Y-88000000D02*
X95500000Y-51000000D01*
X96500000Y-52000000D02*
X121500000Y-52000000D01*
X96500000Y-87000000D02*
X96500000Y-52000000D01*
X97500000Y-53000000D02*
X120500000Y-53000000D01*
X97500000Y-86000000D02*
X97500000Y-53000000D01*
X98500000Y-85000000D02*
X98500000Y-54000000D01*
X120500000Y-53000000D02*
X120500000Y-85000000D01*
X120500000Y-85000000D02*
X98500000Y-85000000D01*
X121500000Y-52000000D02*
X121500000Y-86000000D01*
X121500000Y-86000000D02*
X97500000Y-86000000D01*
X122500000Y-51000000D02*
X122500000Y-87000000D01*
X122500000Y-87000000D02*
X96500000Y-87000000D01*
X123500000Y-50000000D02*
X123500000Y-88000000D01*
X123500000Y-88000000D02*
X95500000Y-88000000D01*
X124500000Y-49000000D02*
X124500000Y-89000000D01*
X124500000Y-89000000D02*
X94500000Y-89000000D01*
%TD*%
D11*
%TO.P,U1,1,OUT*%
%TO.N,+3V0*%
X78970000Y-90768000D03*
D12*
%TO.P,U1,2,GND*%
%TO.N,GND*%
X77470000Y-90855500D03*
D11*
%TO.P,U1,3,IN*%
%TO.N,+5V*%
X75970000Y-90768000D03*
%TD*%
D13*
%TO.P,NT3,1,1*%
%TO.N,Net-(U9-VCC)*%
X83820000Y-50808000D03*
%TO.P,NT3,2,2*%
%TO.N,+3V0*%
X83820000Y-51808000D03*
%TD*%
D14*
%TO.P,R9,1*%
%TO.N,+3V0*%
X77262000Y-61118500D03*
%TO.P,R9,2*%
%TO.N,SDA*%
X77262000Y-63118500D03*
%TD*%
D13*
%TO.P,NT5,1,1*%
%TO.N,Net-(U6-VDD)*%
X63754000Y-58420000D03*
%TO.P,NT5,2,2*%
%TO.N,+3V0*%
X63754000Y-57420000D03*
%TD*%
D15*
%TO.P,U8,1,VDD*%
%TO.N,Net-(U8-VDD)*%
X62350000Y-53995000D03*
%TO.P,U8,2,ADDR*%
%TO.N,GND*%
X63000000Y-53995000D03*
%TO.P,U8,3,GND*%
X63650000Y-53995000D03*
%TO.P,U8,4,SCL*%
%TO.N,SCL*%
X63650000Y-52005000D03*
%TO.P,U8,5,INT*%
%TO.N,LIGHT_INT*%
X63000000Y-52005000D03*
%TO.P,U8,6,SDA*%
%TO.N,SDA*%
X62350000Y-52005000D03*
D16*
%TO.P,U8,7,EXP*%
%TO.N,GND*%
X63000000Y-53000000D03*
%TD*%
D17*
%TO.P,C19,1*%
%TO.N,+3V0*%
X89132500Y-76200000D03*
%TO.P,C19,2*%
%TO.N,GND*%
X91207500Y-76200000D03*
%TD*%
D18*
%TO.P,R1,1*%
%TO.N,+5V*%
X70485000Y-86344000D03*
%TO.P,R1,2*%
%TO.N,USB_VBUS_SENSE*%
X70485000Y-84344000D03*
%TD*%
D19*
%TO.P,TP1,1,1*%
%TO.N,SDA*%
X83566000Y-46228000D03*
%TD*%
D20*
%TO.P,C4,1*%
%TO.N,+3V0*%
X84368000Y-63168500D03*
%TO.P,C4,2*%
%TO.N,GND*%
X84368000Y-65243500D03*
%TD*%
D21*
%TO.P,D3,1,GND*%
%TO.N,Net-(D3-GND)*%
X61988000Y-84566000D03*
D22*
%TO.P,D3,2,I/O1*%
%TO.N,USB_D+*%
X63688000Y-84566000D03*
%TO.P,D3,3,I/O2*%
%TO.N,USB_D-*%
X63688000Y-82566000D03*
%TO.P,D3,4,VCC*%
%TO.N,+5V*%
X61788000Y-82566000D03*
%TD*%
D23*
%TO.P,D1,1,K*%
%TO.N,+5V*%
X60726000Y-86360000D03*
%TO.P,D1,2,A*%
%TO.N,Net-(D1-A)*%
X63226000Y-86360000D03*
%TD*%
D24*
%TO.P,F1,1*%
%TO.N,Net-(Q1-D)*%
X92903000Y-93218000D03*
%TO.P,F1,2*%
%TO.N,Net-(BT1-+)*%
X88453000Y-93218000D03*
%TD*%
D20*
%TO.P,C11,1*%
%TO.N,Net-(U2-VDDCORE)*%
X74549000Y-84306500D03*
%TO.P,C11,2*%
%TO.N,GND*%
X74549000Y-86381500D03*
%TD*%
D25*
%TO.P,J1,1,Pin_1*%
%TO.N,~RESET*%
X114808000Y-93472000D03*
D26*
%TO.P,J1,2,Pin_2*%
%TO.N,+3V0*%
X112268000Y-93472000D03*
%TO.P,J1,3,Pin_3*%
%TO.N,GND*%
X109728000Y-93472000D03*
%TO.P,J1,4,Pin_4*%
%TO.N,unconnected-(J1-Pin_4-Pad4)*%
X107188000Y-93472000D03*
%TO.P,J1,5,Pin_5*%
%TO.N,SWDCLK*%
X104648000Y-93472000D03*
%TO.P,J1,6,Pin_6*%
%TO.N,unconnected-(J1-Pin_6-Pad6)*%
X102108000Y-93472000D03*
%TO.P,J1,7,Pin_7*%
%TO.N,unconnected-(J1-Pin_7-Pad7)*%
X99568000Y-93472000D03*
%TO.P,J1,8,Pin_8*%
%TO.N,SWDIO*%
X97028000Y-93472000D03*
%TD*%
D27*
%TO.P,H3,1,1*%
%TO.N,GND*%
X119100000Y-93500000D03*
X119802944Y-91802944D03*
X119802944Y-95197056D03*
X121500000Y-91100000D03*
D28*
X121500000Y-93500000D03*
D27*
X121500000Y-95900000D03*
X123197056Y-91802944D03*
X123197056Y-95197056D03*
X123900000Y-93500000D03*
%TD*%
D29*
%TO.P,Q1,1,G*%
%TO.N,+5V*%
X83246000Y-90502500D03*
%TO.P,Q1,2,S*%
%TO.N,+3V0*%
X81346000Y-90502500D03*
%TO.P,Q1,3,D*%
%TO.N,Net-(Q1-D)*%
X82296000Y-92377500D03*
%TD*%
D30*
%TO.P,C16,1*%
%TO.N,+3V0*%
X68326000Y-56409500D03*
%TO.P,C16,2*%
%TO.N,GND*%
X68326000Y-54334500D03*
%TD*%
D14*
%TO.P,R3,1*%
%TO.N,+3V0*%
X86487000Y-84344000D03*
%TO.P,R3,2*%
%TO.N,SWDCLK*%
X86487000Y-86344000D03*
%TD*%
D18*
%TO.P,R6,1*%
%TO.N,GND*%
X67691000Y-88503000D03*
%TO.P,R6,2*%
%TO.N,Net-(J2-CC1)*%
X67691000Y-86503000D03*
%TD*%
D13*
%TO.P,NT4,1,1*%
%TO.N,+3V0*%
X62484000Y-55880000D03*
%TO.P,NT4,2,2*%
%TO.N,Net-(U8-VDD)*%
X62484000Y-54880000D03*
%TD*%
D17*
%TO.P,C14,1*%
%TO.N,Net-(U2-VDDANA)*%
X80205500Y-65278000D03*
%TO.P,C14,2*%
%TO.N,GND*%
X82280500Y-65278000D03*
%TD*%
%TO.P,C20,1*%
%TO.N,Net-(U7-BYP)*%
X89132500Y-71120000D03*
%TO.P,C20,2*%
%TO.N,GND*%
X91207500Y-71120000D03*
%TD*%
D20*
%TO.P,C2,1*%
%TO.N,XOUT32*%
X84074000Y-74908500D03*
%TO.P,C2,2*%
%TO.N,GND*%
X84074000Y-76983500D03*
%TD*%
D14*
%TO.P,R4,1*%
%TO.N,+3V0*%
X88646000Y-84344000D03*
%TO.P,R4,2*%
%TO.N,~RESET*%
X88646000Y-86344000D03*
%TD*%
D19*
%TO.P,TP6,1,1*%
%TO.N,NFC_INT*%
X89154000Y-46228000D03*
%TD*%
D14*
%TO.P,R10,1*%
%TO.N,+3V0*%
X75262000Y-61118500D03*
%TO.P,R10,2*%
%TO.N,SCL*%
X75262000Y-63118500D03*
%TD*%
D17*
%TO.P,C10,1*%
%TO.N,+3V0*%
X85068500Y-52324000D03*
%TO.P,C10,2*%
%TO.N,GND*%
X87143500Y-52324000D03*
%TD*%
%TO.P,C12,1*%
%TO.N,Net-(D3-GND)*%
X67542500Y-94488000D03*
%TO.P,C12,2*%
%TO.N,GND*%
X69617500Y-94488000D03*
%TD*%
D31*
%TO.P,U6,1,SDA*%
%TO.N,SDA*%
X62250000Y-62450000D03*
%TO.P,U6,2,ADDR*%
%TO.N,GND*%
X62750000Y-62450000D03*
%TO.P,U6,3,ALERT*%
%TO.N,TEMP_INT*%
X63250000Y-62450000D03*
%TO.P,U6,4,SCL*%
%TO.N,SCL*%
X63750000Y-62450000D03*
%TO.P,U6,5,VDD*%
%TO.N,Net-(U6-VDD)*%
X63750000Y-59550000D03*
%TO.P,U6,6,~{RESET}*%
%TO.N,~TEMP_RESET*%
X63250000Y-59550000D03*
%TO.P,U6,7,R*%
%TO.N,GND*%
X62750000Y-59550000D03*
%TO.P,U6,8,VSS*%
X62250000Y-59550000D03*
D32*
%TO.P,U6,9,VSS*%
X63000000Y-61000000D03*
%TD*%
D33*
%TO.P,R8,1*%
%TO.N,+3V0*%
X64246000Y-74295000D03*
%TO.P,R8,2*%
%TO.N,Net-(D2-A)*%
X62246000Y-74295000D03*
%TD*%
D19*
%TO.P,TP8,1,1*%
%TO.N,IMU_INT1*%
X81788000Y-70866000D03*
%TD*%
D17*
%TO.P,C13,1*%
%TO.N,Net-(U2-VDDANA)*%
X80205500Y-67310000D03*
%TO.P,C13,2*%
%TO.N,GND*%
X82280500Y-67310000D03*
%TD*%
D34*
%TO.P,C5,1*%
%TO.N,+5V*%
X69617500Y-90424000D03*
%TO.P,C5,2*%
%TO.N,GND*%
X67542500Y-90424000D03*
%TD*%
D35*
%TO.P,U4,1*%
%TO.N,N/C*%
X72398000Y-52832000D03*
%TO.P,U4,2*%
X72898000Y-52832000D03*
%TO.P,U4,3*%
X73398000Y-52832000D03*
%TO.P,U4,4,GND*%
%TO.N,GND*%
X73898000Y-52832000D03*
%TO.P,U4,5,SDA*%
%TO.N,SDA*%
X73898000Y-49932000D03*
%TO.P,U4,6,SCL*%
%TO.N,SCL*%
X73398000Y-49932000D03*
%TO.P,U4,7*%
%TO.N,N/C*%
X72898000Y-49932000D03*
%TO.P,U4,8,VCC*%
%TO.N,Net-(U4-VCC)*%
X72398000Y-49932000D03*
D36*
%TO.P,U4,9*%
%TO.N,N/C*%
X73148000Y-51382000D03*
%TD*%
D37*
%TO.P,R7,1*%
%TO.N,GND*%
X62246000Y-76454000D03*
%TO.P,R7,2*%
%TO.N,Net-(J2-CC2)*%
X64246000Y-76454000D03*
%TD*%
D38*
%TO.P,U2,1,PA00/VDDANA/EXTINT[0]/SERCOM1/PAD[0]/TCC2/WO[0]*%
%TO.N,XIN32*%
X78952500Y-77989000D03*
%TO.P,U2,2,PA01/VDDANA/EXTINT[1]/SERCOM1/PAD[1]/TCC2/WO[1]*%
%TO.N,XOUT32*%
X78952500Y-77189000D03*
%TO.P,U2,3,PA02/VDDANA/EXTINT[2]/AIN[0]/Y[0]/VOUT*%
%TO.N,unconnected-(U2-PA02{slash}VDDANA{slash}EXTINT[2]{slash}AIN[0]{slash}Y[0]{slash}VOUT-Pad3)*%
X78952500Y-76389000D03*
%TO.P,U2,4,PA03/VDDANA/EXTINT[3]/ADC/VREFADAC/VREFA/AIN[1]/Y[1]*%
%TO.N,NFC_INT*%
X78952500Y-75589000D03*
%TO.P,U2,5,PA04/VDDANA/EXTINT[4]/ADC/VREFB/AIN[4]/AIN[0]/Y[2]/SERCOM0/PAD[0]/TCC0/WO[0]*%
%TO.N,unconnected-(U2-PA04{slash}VDDANA{slash}EXTINT[4]{slash}ADC{slash}VREFB{slash}AIN[4]{slash}AIN[0]{slash}Y[2]{slash}SERCOM0{slash}PAD[0]{slash}TCC0{slash}WO[0]-Pad5)*%
X78952500Y-74789000D03*
%TO.P,U2,6,PA05/VDDANA/EXTINT[5]/AIN[5]/AIN[1]/Y[3]/SERCOM0/PAD[1]/TCC0/WO[1]*%
%TO.N,TEMP_INT*%
X78952500Y-73989000D03*
%TO.P,U2,7,PA06/VDDANA/EXTINT[6]/AIN[6]/AIN[2]/Y[4]/SERCOM0/PAD[2]/TCC1/WO[0]*%
%TO.N,IMU_INT2*%
X78952500Y-73189000D03*
%TO.P,U2,8,PA07/VDDANA/EXTINT[7]/AIN[7]/AIN[3]/Y[5]/SERCOM0/PAD[3]/TCC1/WO[1]/I2S/SD[0]*%
%TO.N,IMU_INT1*%
X78952500Y-72389000D03*
D39*
%TO.P,U2,9,VDDANA*%
%TO.N,Net-(U2-VDDANA)*%
X77502500Y-70939000D03*
%TO.P,U2,10,GND*%
%TO.N,GND*%
X76702500Y-70939000D03*
%TO.P,U2,11,PA08/VDDIO/NMI/AIN[16]/X[0]/SERCOM0/PAD[0]/SERCOM2/PAD[0]/TCC0/WO[0]/TCC1/WO[2]/I2S/SD[1]*%
%TO.N,SDA*%
X75902500Y-70939000D03*
%TO.P,U2,12,PA09/VDDIO/EXTINT[9]/AIN[17]/X[1]/SERCOM0/PAD[1]/SERCOM2/PAD[1]/TCC0/WO[1]/TCC1/WO[3]/I2S/MCK[0]*%
%TO.N,SCL*%
X75102500Y-70939000D03*
%TO.P,U2,13,PA10/VDDIO/EXTINT[10]/AIN[18]/X[2]/SERCOM0/PAD[2]/SERCOM2/PAD[2]/TCC1/WO[0]/TCC0/WO[2]/I2S/SCK[0]/GCLK_IO[4]*%
%TO.N,LIGHT_INT*%
X74302500Y-70939000D03*
%TO.P,U2,14,PA11/VDDIO/EXTINT[11]/AIN[19]/X[3]/SERCOM0/PAD[3]/SERCOM2/PAD[3]/TCC1/WO[1]/TCC0/WO[3]/I2S/FS[0]/GCLK_IO[5]*%
%TO.N,unconnected-(U2-PA11{slash}VDDIO{slash}EXTINT[11]{slash}AIN[19]{slash}X[3]{slash}SERCOM0{slash}PAD[3]{slash}SERCOM2{slash}PAD[3]{slash}TCC1{slash}WO[1]{slash}TCC0{slash}WO[3]{slash}I2S{slash}FS[0]{slash}GCLK_IO[5]-Pad14)*%
X73502500Y-70939000D03*
%TO.P,U2,15,PA14/VDDIO/EXTINT[14]/SERCOM2/PAD[2]/SERCOM4/PAD[2]/TC3/WO[0]/TCC0/WO[4]/GCLK_IO[0]*%
%TO.N,unconnected-(U2-PA14{slash}VDDIO{slash}EXTINT[14]{slash}SERCOM2{slash}PAD[2]{slash}SERCOM4{slash}PAD[2]{slash}TC3{slash}WO[0]{slash}TCC0{slash}WO[4]{slash}GCLK_IO[0]-Pad15)*%
X72702500Y-70939000D03*
%TO.P,U2,16,PA15/VDDIO/EXTINT[15]/SERCOM2/PAD[3]/SERCOM4/PAD[3]/TC3/WO[1]/TCC0/WO[5]/GCLK_IO[1]*%
%TO.N,unconnected-(U2-PA15{slash}VDDIO{slash}EXTINT[15]{slash}SERCOM2{slash}PAD[3]{slash}SERCOM4{slash}PAD[3]{slash}TC3{slash}WO[1]{slash}TCC0{slash}WO[5]{slash}GCLK_IO[1]-Pad16)*%
X71902500Y-70939000D03*
D38*
%TO.P,U2,17,PA16/VDDIO/EXTINT[0]/X[4]/SERCOM1/PAD[0]/SERCOM3/PAD[0]/TCC2/WO[0]/TCC0/WO[6]/GCLK_IO[2]*%
%TO.N,MOSI*%
X70452500Y-72389000D03*
%TO.P,U2,18,PA17/VDDIO/EXTINT[1]/X[5]/SERCOM1/PAD[1]/SERCOM3/PAD[1]/TCC2/WO[1]/TCC0/WO[7]/GCLK_IO[3]*%
%TO.N,SCK*%
X70452500Y-73189000D03*
%TO.P,U2,19,PA18/VDDIO/EXTINT[2]/X[6]/SERCOM1/PAD[2]/SERCOM3/PAD[2]/TC3/WO[0]/TCC0/WO[2]/AC/CMP[0]*%
%TO.N,~FLASH_CS*%
X70452500Y-73989000D03*
%TO.P,U2,20,PA19/VDDIO/EXTINT[3]/X[7]/SERCOM1/PAD[3]/SERCOM3/PAD[3]/TC3/WO[1]/TCC0/WO[3]/I2S/SD[0]/AC/CMP[1]*%
%TO.N,MISO*%
X70452500Y-74789000D03*
%TO.P,U2,21,PA22/VDDIO/EXTINT[6]/X[10]/SERCOM3/PAD[0]/SERCOM5/PAD[0]/TC4/WO[0]/TCC0/WO[4]/GCLK_IO[6]*%
%TO.N,~TEMP_RESET*%
X70452500Y-75589000D03*
%TO.P,U2,22,PA23/VDDIO/EXTINT[7]/X[11]/SERCOM3/PAD[1]/SERCOM5/PAD[1]/TC4/WO[1]/TCC0/WO[5]/USB/SOF1KHZ/GCLK_IO[7]*%
%TO.N,LED*%
X70452500Y-76389000D03*
%TO.P,U2,23,PA24/VDDIO/EXTINT[12]/SERCOM3/PAD[2]/SERCOM5/PAD[2]/TC5/WO[0]/TCC1/WO[2]/USB/DM*%
%TO.N,USB_D-*%
X70452500Y-77189000D03*
%TO.P,U2,24,PA25/VDDIO/EXTINT[13]/SERCOM3/PAD[3]/SERCOM5/PAD[3]/TC5/WO[1]/TCC1/WO[3]/USB/DP*%
%TO.N,USB_D+*%
X70452500Y-77989000D03*
D39*
%TO.P,U2,25,PA27/VDDIO/EXTINT[15]/GCLK_IO[0]*%
%TO.N,USB_VBUS_SENSE*%
X71902500Y-79439000D03*
%TO.P,U2,26,~{RESET}*%
%TO.N,~RESET*%
X72702500Y-79439000D03*
%TO.P,U2,27,PA28/VDDIO/EXTINT[8]/GCLK_IO[0]*%
%TO.N,unconnected-(U2-PA28{slash}VDDIO{slash}EXTINT[8]{slash}GCLK_IO[0]-Pad27)*%
X73502500Y-79439000D03*
%TO.P,U2,28,GND*%
%TO.N,GND*%
X74302500Y-79439000D03*
%TO.P,U2,29,VDDCORE*%
%TO.N,Net-(U2-VDDCORE)*%
X75102500Y-79439000D03*
%TO.P,U2,30,VDDIN*%
%TO.N,+3V0*%
X75902500Y-79439000D03*
%TO.P,U2,31,PA30/VDDIO/EXTINT[10]/SERCOM1/PAD[2]/TCC1/WO[0]/SWCLK/GCLK_IO[0]*%
%TO.N,SWDCLK*%
X76702500Y-79439000D03*
%TO.P,U2,32,PA31/VDDIO/EXTINT[11]/SERCOM1/PAD[3]/TCC1/WO[1]/SWDIO*%
%TO.N,SWDIO*%
X77502500Y-79439000D03*
%TD*%
D37*
%TO.P,R5,1*%
%TO.N,Net-(D3-GND)*%
X67580000Y-92456000D03*
%TO.P,R5,2*%
%TO.N,GND*%
X69580000Y-92456000D03*
%TD*%
D30*
%TO.P,C8,1*%
%TO.N,+3V0*%
X70358000Y-56409500D03*
%TO.P,C8,2*%
%TO.N,GND*%
X70358000Y-54334500D03*
%TD*%
D19*
%TO.P,TP2,1,1*%
%TO.N,SCL*%
X86360000Y-46228000D03*
%TD*%
D33*
%TO.P,FB1,1*%
%TO.N,+3V0*%
X82243000Y-63246000D03*
%TO.P,FB1,2*%
%TO.N,Net-(U2-VDDANA)*%
X80243000Y-63246000D03*
%TD*%
D40*
%TO.P,Y1,1,1*%
%TO.N,XIN32*%
X81788000Y-79349000D03*
%TO.P,Y1,2,2*%
%TO.N,XOUT32*%
X81788000Y-76099000D03*
%TD*%
D19*
%TO.P,TP11,1,1*%
%TO.N,LIGHT_INT*%
X68326000Y-46228000D03*
%TD*%
D20*
%TO.P,C15,1*%
%TO.N,+3V0*%
X70612000Y-50270500D03*
%TO.P,C15,2*%
%TO.N,GND*%
X70612000Y-52345500D03*
%TD*%
D27*
%TO.P,H1,1,1*%
%TO.N,GND*%
X60100000Y-44500000D03*
X60802944Y-42802944D03*
X60802944Y-46197056D03*
X62500000Y-42100000D03*
D28*
X62500000Y-44500000D03*
D27*
X62500000Y-46900000D03*
X64197056Y-42802944D03*
X64197056Y-46197056D03*
X64900000Y-44500000D03*
%TD*%
D13*
%TO.P,NT1,1,1*%
%TO.N,+3V0*%
X72390000Y-48014000D03*
%TO.P,NT1,2,2*%
%TO.N,Net-(U4-VCC)*%
X72390000Y-49014000D03*
%TD*%
D20*
%TO.P,C9,1*%
%TO.N,+3V0*%
X76708000Y-84306500D03*
%TO.P,C9,2*%
%TO.N,GND*%
X76708000Y-86381500D03*
%TD*%
D13*
%TO.P,NT2,1,1*%
%TO.N,+3V0*%
X89138000Y-72644000D03*
%TO.P,NT2,2,2*%
%TO.N,Net-(U7-VDD)*%
X88138000Y-72644000D03*
%TD*%
D41*
%TO.P,U3,1,~{CS}*%
%TO.N,~FLASH_CS*%
X69215000Y-67100000D03*
%TO.P,U3,2,SO*%
%TO.N,MISO*%
X70485000Y-67100000D03*
%TO.P,U3,3,~{WP}*%
%TO.N,unconnected-(U3-~{WP}-Pad3)*%
X71755000Y-67100000D03*
%TO.P,U3,4,GND*%
%TO.N,GND*%
X73025000Y-67100000D03*
%TO.P,U3,5,SI*%
%TO.N,MOSI*%
X73025000Y-59900000D03*
%TO.P,U3,6,SCK*%
%TO.N,SCK*%
X71755000Y-59900000D03*
%TO.P,U3,7,~{HOLD}*%
%TO.N,unconnected-(U3-~{HOLD}-Pad7)*%
X70485000Y-59900000D03*
%TO.P,U3,8,VCC*%
%TO.N,+3V0*%
X69215000Y-59900000D03*
%TD*%
D42*
%TO.P,C3,1*%
%TO.N,+3V0*%
X86868000Y-63143500D03*
%TO.P,C3,2*%
%TO.N,GND*%
X86868000Y-66268500D03*
%TD*%
D19*
%TO.P,TP9,1,1*%
%TO.N,IMU_INT2*%
X81788000Y-73406000D03*
%TD*%
D30*
%TO.P,C6,1*%
%TO.N,~RESET*%
X90805000Y-86381500D03*
%TO.P,C6,2*%
%TO.N,GND*%
X90805000Y-84306500D03*
%TD*%
D43*
%TO.P,U9,1,V_EH*%
%TO.N,unconnected-(U9-V_EH-Pad1)*%
X91000500Y-50210000D03*
%TO.P,U9,2,AC0*%
%TO.N,Net-(U9-AC0)*%
X91000500Y-49560000D03*
%TO.P,U9,3,AC1*%
%TO.N,Net-(U9-AC1)*%
X91000500Y-48910000D03*
%TO.P,U9,4,VSS*%
%TO.N,GND*%
X91000500Y-48260000D03*
%TO.P,U9,5,SDA*%
%TO.N,SDA*%
X85275500Y-48260000D03*
%TO.P,U9,6,SCL*%
%TO.N,SCL*%
X85275500Y-48910000D03*
%TO.P,U9,7,GPO_(OD)*%
%TO.N,NFC_INT*%
X85275500Y-49560000D03*
%TO.P,U9,8,VCC*%
%TO.N,Net-(U9-VCC)*%
X85275500Y-50210000D03*
%TD*%
D14*
%TO.P,R2,1*%
%TO.N,USB_VBUS_SENSE*%
X72517000Y-84344000D03*
%TO.P,R2,2*%
%TO.N,GND*%
X72517000Y-86344000D03*
%TD*%
D20*
%TO.P,C21,1*%
%TO.N,+3V0*%
X68326000Y-50270500D03*
%TO.P,C21,2*%
%TO.N,GND*%
X68326000Y-52345500D03*
%TD*%
D30*
%TO.P,C1,1*%
%TO.N,XIN32*%
X84074000Y-80793500D03*
%TO.P,C1,2*%
%TO.N,GND*%
X84074000Y-78718500D03*
%TD*%
D17*
%TO.P,C18,1*%
%TO.N,+3V0*%
X89111000Y-74168000D03*
%TO.P,C18,2*%
%TO.N,GND*%
X91186000Y-74168000D03*
%TD*%
D44*
%TO.P,AE1,*%
%TO.N,*%
X98500000Y-54000000D03*
D13*
%TO.P,AE1,1*%
%TO.N,Net-(U9-AC1)*%
X94500000Y-49000000D03*
%TD*%
D45*
%TO.P,U7,1,VDDIO*%
%TO.N,Net-(U7-VDD)*%
X87127000Y-72628000D03*
%TO.P,U7,2,BYP*%
%TO.N,Net-(U7-BYP)*%
X87127000Y-72128000D03*
%TO.P,U7,3*%
%TO.N,N/C*%
X87127000Y-71628000D03*
%TO.P,U7,4,SCL*%
%TO.N,SCL*%
X87127000Y-71128000D03*
%TO.P,U7,5,GND@0*%
%TO.N,GND*%
X87127000Y-70628000D03*
D46*
%TO.P,U7,6,SDA*%
%TO.N,SDA*%
X86352000Y-70353000D03*
%TO.P,U7,7,SA0*%
%TO.N,GND*%
X85852000Y-70353000D03*
%TO.P,U7,8*%
%TO.N,N/C*%
X85352000Y-70353000D03*
D45*
%TO.P,U7,9,INT2*%
%TO.N,IMU_INT1*%
X84577000Y-70628000D03*
%TO.P,U7,10,GND@1*%
%TO.N,GND*%
X84577000Y-71128000D03*
%TO.P,U7,11,INT1*%
%TO.N,IMU_INT2*%
X84577000Y-71628000D03*
%TO.P,U7,12,GND@2*%
%TO.N,GND*%
X84577000Y-72128000D03*
%TO.P,U7,13*%
%TO.N,N/C*%
X84577000Y-72628000D03*
D46*
%TO.P,U7,14,VDD*%
%TO.N,Net-(U7-VDD)*%
X85352000Y-72903000D03*
%TO.P,U7,15*%
%TO.N,N/C*%
X85852000Y-72903000D03*
%TO.P,U7,16*%
X86352000Y-72903000D03*
%TD*%
D47*
%TO.P,D2,1,K*%
%TO.N,LED*%
X64025000Y-69000000D03*
%TO.P,D2,2,A*%
%TO.N,Net-(D2-A)*%
X61975000Y-69000000D03*
%TD*%
D27*
%TO.P,H4,1,1*%
%TO.N,GND*%
X60100000Y-93500000D03*
X60802944Y-91802944D03*
X60802944Y-95197056D03*
X62500000Y-91100000D03*
D28*
X62500000Y-93500000D03*
D27*
X62500000Y-95900000D03*
X64197056Y-91802944D03*
X64197056Y-95197056D03*
X64900000Y-93500000D03*
%TD*%
%TO.P,H2,1,1*%
%TO.N,GND*%
X119100000Y-44500000D03*
X119802944Y-42802944D03*
X119802944Y-46197056D03*
X121500000Y-42100000D03*
D28*
X121500000Y-44500000D03*
D27*
X121500000Y-46900000D03*
X123197056Y-42802944D03*
X123197056Y-46197056D03*
X123900000Y-44500000D03*
%TD*%
D48*
%TO.P,J2,*%
%TO.N,*%
X59925000Y-88320000D03*
X59925000Y-79680000D03*
D49*
X64105000Y-79680000D03*
%TO.P,J2,S1,SHIELD*%
%TO.N,Net-(D3-GND)*%
X64105000Y-88320000D03*
%TD*%
D50*
%TO.P,BT1,1,+*%
%TO.N,Net-(BT1-+)*%
X86000000Y-93000000D03*
D51*
%TO.P,BT1,2,-*%
%TO.N,GND*%
X73300000Y-93000000D03*
%TD*%
D52*
%TO.N,GND*%
X75184000Y-50038000D03*
X66929000Y-54102000D03*
X74295000Y-77216000D03*
X76200000Y-64516000D03*
X84328000Y-67310000D03*
X75946000Y-68453000D03*
X75946000Y-72898000D03*
X73279000Y-64516000D03*
X64516000Y-60579000D03*
X85725000Y-76962000D03*
X70993000Y-48006000D03*
X85852000Y-71501000D03*
X66294000Y-88519000D03*
X64897000Y-55626000D03*
X87503000Y-68961000D03*
X87122000Y-61468000D03*
X91313000Y-69342000D03*
X87122000Y-58293000D03*
X111379000Y-95758000D03*
X66929000Y-52324000D03*
X91313000Y-52324000D03*
%TO.N,+5V*%
X74287800Y-89980500D03*
X82296000Y-90464200D03*
X64352400Y-89560000D03*
%TO.N,SDA*%
X63143100Y-64121900D03*
X62586700Y-50900200D03*
%TO.N,SCL*%
X75228300Y-66733700D03*
X70882700Y-61613200D03*
%TO.N,SWDIO*%
X85162900Y-83214400D03*
%TO.N,SWDCLK*%
X78218400Y-81749700D03*
X85182700Y-86155900D03*
%TO.N,NFC_INT*%
X83480200Y-70953800D03*
%TO.N,Net-(D1-A)*%
X66273500Y-86853500D03*
%TO.N,TEMP_INT*%
X72343300Y-74055400D03*
X65627600Y-67397200D03*
%TO.N,SCK*%
X72250700Y-72600600D03*
X72103900Y-62340300D03*
%TO.N,USB_D+*%
X63373000Y-83820000D03*
%TO.N,USB_D-*%
X65913000Y-83185000D03*
%TO.N,~RESET*%
X91333400Y-88213700D03*
%TO.N,IMU_INT2*%
X77498500Y-73314000D03*
%TO.N,Net-(J2-CC1)*%
X66293300Y-85576400D03*
%TO.N,Net-(J2-CC2)*%
X62357000Y-78359000D03*
%TO.N,Net-(U9-AC0)*%
X92550500Y-49725400D03*
%TD*%
D53*
%TO.N,GND*%
X85852000Y-70353000D02*
X85852000Y-71501000D01*
X63000000Y-61000000D02*
X64095000Y-61000000D01*
X62250000Y-59550000D02*
X62250000Y-59698000D01*
X62750000Y-59550000D02*
X62750000Y-60198000D01*
X62250000Y-59698000D02*
X62750000Y-60198000D01*
X84577000Y-71128000D02*
X85479000Y-71128000D01*
X62750000Y-60198000D02*
X62750000Y-60750000D01*
X84082000Y-72128000D02*
X83566000Y-72644000D01*
X62750000Y-61250000D02*
X63000000Y-61000000D01*
X84577000Y-72128000D02*
X84082000Y-72128000D01*
X62750000Y-60750000D02*
X63000000Y-61000000D01*
X85479000Y-71128000D02*
X85852000Y-71501000D01*
X64095000Y-61000000D02*
X64516000Y-60579000D01*
X62750000Y-62450000D02*
X62750000Y-61250000D01*
%TO.N,XIN32*%
X84074000Y-80793500D02*
X82989900Y-79709400D01*
X81788000Y-79349000D02*
X80586100Y-79349000D01*
X80586100Y-78520700D02*
X80586100Y-79349000D01*
X82989900Y-79709400D02*
X82989900Y-79349000D01*
X80054400Y-77989000D02*
X80586100Y-78520700D01*
X78952500Y-77989000D02*
X80054400Y-77989000D01*
X81788000Y-79349000D02*
X82989900Y-79349000D01*
%TO.N,Net-(BT1-+)*%
X88235000Y-93000000D02*
X88453000Y-93218000D01*
D54*
X86000000Y-93000000D02*
X88235000Y-93000000D01*
D53*
%TO.N,Net-(U2-VDDCORE)*%
X75102500Y-79439000D02*
X75102500Y-83753000D01*
X75102500Y-83753000D02*
X74549000Y-84306500D01*
%TO.N,XOUT32*%
X81788000Y-76099000D02*
X81788000Y-75088500D01*
X78952500Y-77189000D02*
X80054400Y-77189000D01*
X81788000Y-76099000D02*
X80586100Y-76099000D01*
X80054400Y-77189000D02*
X80054400Y-76630700D01*
X81788000Y-75088500D02*
X83894000Y-75088500D01*
X83894000Y-75088500D02*
X84074000Y-74908500D01*
X80054400Y-76630700D02*
X80586100Y-76099000D01*
D55*
%TO.N,+5V*%
X63024100Y-89560000D02*
X60726000Y-87261900D01*
X74287800Y-89980500D02*
X75075300Y-90768000D01*
X60726000Y-82926100D02*
X61086100Y-82566000D01*
X82296000Y-90464200D02*
X83207700Y-90464200D01*
X70485000Y-89556500D02*
X70909000Y-89980500D01*
X70909000Y-89980500D02*
X74287800Y-89980500D01*
X70485000Y-89556500D02*
X70485000Y-86344000D01*
X69617500Y-90424000D02*
X70485000Y-89556500D01*
X75075300Y-90768000D02*
X75118100Y-90768000D01*
X60726000Y-86360000D02*
X60726000Y-82926100D01*
X64352400Y-89560000D02*
X63024100Y-89560000D01*
X60726000Y-86360000D02*
X60726000Y-87261900D01*
X83207700Y-90464200D02*
X83246000Y-90502500D01*
X61788000Y-82566000D02*
X61086100Y-82566000D01*
X75970000Y-90768000D02*
X75118100Y-90768000D01*
%TO.N,+3V0*%
X110490000Y-95250000D02*
X112268000Y-93472000D01*
X68326000Y-57420000D02*
X63754000Y-57420000D01*
X71822800Y-53384400D02*
X75262000Y-56823600D01*
X69395600Y-45019600D02*
X67306800Y-45019600D01*
X84356600Y-85848100D02*
X84356600Y-86598800D01*
X82320500Y-63168500D02*
X82243000Y-63246000D01*
X67306800Y-45019600D02*
X61731500Y-50594900D01*
X86487000Y-84344000D02*
X85860700Y-84344000D01*
X86487000Y-84344000D02*
X88646000Y-84344000D01*
X63129500Y-56795400D02*
X63754000Y-57420000D01*
X90321800Y-47070700D02*
X90321800Y-45731100D01*
X62484000Y-56149900D02*
X62921300Y-56587200D01*
X84336000Y-52324000D02*
X83820000Y-51808000D01*
X89214200Y-44623500D02*
X75780500Y-44623500D01*
X80469400Y-61118500D02*
X77262000Y-61118500D01*
X84356600Y-86598800D02*
X88181800Y-90424000D01*
X68326000Y-57420000D02*
X68326000Y-56409500D01*
X85068500Y-52324000D02*
X84336000Y-52324000D01*
X70612000Y-49792000D02*
X70612000Y-50270500D01*
X61299800Y-65300900D02*
X62952900Y-66954000D01*
X75902500Y-83501000D02*
X75902500Y-79439000D01*
X69215000Y-59900000D02*
X68326000Y-59011000D01*
X75262000Y-56823600D02*
X75262000Y-61118500D01*
X89132500Y-76200000D02*
X89111000Y-76178500D01*
X96266000Y-95250000D02*
X94615000Y-93599000D01*
X99485900Y-95250000D02*
X110490000Y-95250000D01*
X85068500Y-52324000D02*
X90321800Y-47070700D01*
X81346000Y-88664000D02*
X81065500Y-88664000D01*
X62484000Y-55880000D02*
X62484000Y-56149900D01*
X62921300Y-56587200D02*
X62921300Y-56587300D01*
X81065500Y-88664000D02*
X76708000Y-84306500D01*
X62952900Y-70237400D02*
X64246000Y-71530500D01*
X86868000Y-63143500D02*
X84393000Y-63143500D01*
X68326000Y-59011000D02*
X68326000Y-57420000D01*
X89111000Y-74168000D02*
X89111000Y-72671000D01*
X88646000Y-84344000D02*
X88646000Y-76686500D01*
X82320500Y-62969600D02*
X80469400Y-61118500D01*
X89111000Y-72671000D02*
X89138000Y-72644000D01*
X70612000Y-50270500D02*
X71822800Y-51481300D01*
X82320500Y-63168500D02*
X82320500Y-62969600D01*
X84368000Y-63168500D02*
X82320500Y-63168500D01*
X94615000Y-93599000D02*
X94615000Y-91059000D01*
X99485900Y-95250000D02*
X96266000Y-95250000D01*
X81346000Y-88664000D02*
X81346000Y-90502500D01*
X61299800Y-58625100D02*
X61299800Y-65300900D01*
X88646000Y-76686500D02*
X89132500Y-76200000D01*
X90321800Y-45731100D02*
X89214200Y-44623500D01*
X90170000Y-57425500D02*
X85068500Y-52324000D01*
X94615000Y-91059000D02*
X93980000Y-90424000D01*
X89111000Y-76178500D02*
X89111000Y-74168000D01*
X72390000Y-48014000D02*
X69395600Y-45019600D01*
X70358000Y-56409500D02*
X68326000Y-56409500D01*
X89393000Y-72644000D02*
X90170000Y-71867000D01*
X71822800Y-51481300D02*
X71822800Y-53384400D01*
X89138000Y-72644000D02*
X89393000Y-72644000D01*
X82291400Y-88664000D02*
X81346000Y-88664000D01*
X81080500Y-90768000D02*
X81346000Y-90502500D01*
X78970000Y-90768000D02*
X81080500Y-90768000D01*
X85860700Y-84344000D02*
X84356600Y-85848100D01*
X84356600Y-86598800D02*
X82291400Y-88664000D01*
X88181800Y-90424000D02*
X93980000Y-90424000D01*
X61731500Y-55127500D02*
X62484000Y-55880000D01*
X62952900Y-66954000D02*
X62952900Y-70237400D01*
X75262000Y-61118500D02*
X77262000Y-61118500D01*
X63129500Y-56795400D02*
X61299800Y-58625100D01*
X75780500Y-44623500D02*
X72390000Y-48014000D01*
X90170000Y-71867000D02*
X90170000Y-57425500D01*
X64246000Y-71530500D02*
X64246000Y-74295000D01*
X62921300Y-56587300D02*
X63129500Y-56795400D01*
X84393000Y-63143500D02*
X84368000Y-63168500D01*
X76708000Y-84306500D02*
X75902500Y-83501000D01*
X61731500Y-50594900D02*
X61731500Y-55127500D01*
X68326000Y-50270500D02*
X70612000Y-50270500D01*
X72390000Y-48014000D02*
X70612000Y-49792000D01*
D53*
%TO.N,Net-(D3-GND)*%
X62753100Y-88320000D02*
X61988000Y-87554900D01*
X64105000Y-88320000D02*
X62753100Y-88320000D01*
X67542500Y-92493500D02*
X67542500Y-94488000D01*
X61988000Y-87554900D02*
X61988000Y-84566000D01*
X65456900Y-90332900D02*
X65456900Y-88320000D01*
X67580000Y-92456000D02*
X65456900Y-90332900D01*
X67580000Y-92456000D02*
X67542500Y-92493500D01*
X64105000Y-88320000D02*
X65456900Y-88320000D01*
%TO.N,SDA*%
X88074800Y-67338500D02*
X86352000Y-69061300D01*
X85275500Y-48301000D02*
X83566000Y-46591500D01*
X80902400Y-49255100D02*
X80902400Y-50685500D01*
X80902400Y-49255100D02*
X83566000Y-46591500D01*
X82015300Y-69061300D02*
X81243000Y-68289000D01*
X86352000Y-70353000D02*
X86352000Y-69644600D01*
X73898000Y-49255100D02*
X80902400Y-49255100D01*
X83566000Y-46591500D02*
X83566000Y-46228000D01*
X81243000Y-62662900D02*
X80771800Y-62191700D01*
X81243000Y-68289000D02*
X81243000Y-62662900D01*
X80771800Y-62191700D02*
X78188800Y-62191700D01*
X78188800Y-62191700D02*
X77262000Y-63118500D01*
X62250000Y-63301900D02*
X62323100Y-63301900D01*
X86352000Y-69061300D02*
X82015300Y-69061300D01*
X62250000Y-62450000D02*
X62250000Y-63301900D01*
X75902500Y-69766800D02*
X75902500Y-70939000D01*
X77404000Y-65181000D02*
X77404000Y-68265300D01*
X86352000Y-69061300D02*
X86352000Y-69644600D01*
X62350000Y-51136900D02*
X62350000Y-52005000D01*
X77404000Y-65181000D02*
X77262000Y-65039000D01*
X80902400Y-50685500D02*
X88074800Y-57857900D01*
X88074800Y-57857900D02*
X88074800Y-67338500D01*
X77262000Y-65039000D02*
X77262000Y-63118500D01*
X62323100Y-63301900D02*
X63143100Y-64121900D01*
X77404000Y-68265300D02*
X75902500Y-69766800D01*
X62586700Y-50900200D02*
X62350000Y-51136900D01*
X73898000Y-49932000D02*
X73898000Y-49255100D01*
%TO.N,SCL*%
X88497500Y-69173900D02*
X88497500Y-57559700D01*
X86360000Y-48546800D02*
X86360000Y-46228000D01*
X87835400Y-69836000D02*
X88497500Y-69173900D01*
X87835400Y-71128000D02*
X87835400Y-69836000D01*
X70882700Y-61613200D02*
X71120000Y-61375900D01*
X75102500Y-70939000D02*
X75102500Y-66859500D01*
X75228300Y-65456700D02*
X75504000Y-65181000D01*
X75262000Y-64939000D02*
X75262000Y-63118500D01*
X85275500Y-48951000D02*
X85955800Y-48951000D01*
X71401400Y-57095600D02*
X71401400Y-55844000D01*
X84563300Y-48951000D02*
X85275500Y-48951000D01*
X73398000Y-49106500D02*
X73398000Y-49932000D01*
X75102500Y-66859500D02*
X75228300Y-66733700D01*
X71120000Y-57377000D02*
X71401400Y-57095600D01*
X71120000Y-61375900D02*
X71120000Y-57377000D01*
X71401400Y-55844000D02*
X70929400Y-55372000D01*
X77330200Y-45174300D02*
X73398000Y-49106500D01*
X88497500Y-57559700D02*
X83192500Y-52254700D01*
X83192500Y-50321800D02*
X84563300Y-48951000D01*
X86360000Y-46228000D02*
X85306300Y-45174300D01*
X87127000Y-71128000D02*
X87835400Y-71128000D01*
X83192500Y-52254700D02*
X83192500Y-50321800D01*
X70929400Y-55372000D02*
X67017000Y-55372000D01*
X85955800Y-48951000D02*
X86360000Y-48546800D01*
X75228300Y-66733700D02*
X75228300Y-65456700D01*
X67017000Y-55372000D02*
X63650000Y-52005000D01*
X63750000Y-62450000D02*
X64586700Y-61613300D01*
X75504000Y-65181000D02*
X75262000Y-64939000D01*
X70882700Y-61613300D02*
X70882700Y-61613200D01*
X85306300Y-45174300D02*
X77330200Y-45174300D01*
X64586700Y-61613300D02*
X70882700Y-61613300D01*
%TO.N,SWDIO*%
X83652000Y-81703500D02*
X79968300Y-81703500D01*
X78805700Y-80540900D02*
X77502500Y-80540900D01*
X77502500Y-79439000D02*
X77502500Y-80540900D01*
X85162900Y-83214400D02*
X83652000Y-81703500D01*
X79968300Y-81703500D02*
X78805700Y-80540900D01*
%TO.N,SWDCLK*%
X101092000Y-89789000D02*
X89932000Y-89789000D01*
X89932000Y-89789000D02*
X86487000Y-86344000D01*
X104648000Y-93472000D02*
X104648000Y-93345000D01*
X76702500Y-80540900D02*
X77911300Y-81749700D01*
X86298900Y-86155900D02*
X86487000Y-86344000D01*
X77911300Y-81749700D02*
X78218400Y-81749700D01*
X104648000Y-93345000D02*
X101092000Y-89789000D01*
X85182700Y-86155900D02*
X86298900Y-86155900D01*
X76702500Y-79439000D02*
X76702500Y-80540900D01*
%TO.N,Net-(U2-VDDANA)*%
X80205500Y-67056000D02*
X77502500Y-69759000D01*
X77502500Y-69759000D02*
X77502500Y-69837100D01*
X80205500Y-63283500D02*
X80205500Y-65151000D01*
X80243000Y-63246000D02*
X80205500Y-63283500D01*
X80205500Y-65151000D02*
X80205500Y-67056000D01*
X77502500Y-70939000D02*
X77502500Y-69837100D01*
%TO.N,Net-(U7-BYP)*%
X89132500Y-71120000D02*
X88843400Y-71120000D01*
X88843400Y-71120000D02*
X87835400Y-72128000D01*
X87127000Y-72128000D02*
X87835400Y-72128000D01*
%TO.N,NFC_INT*%
X85275500Y-49601000D02*
X85941800Y-49601000D01*
X81369200Y-72272100D02*
X82161900Y-72272100D01*
X80054400Y-73586900D02*
X81369200Y-72272100D01*
X89154000Y-46388800D02*
X89154000Y-46228000D01*
X78952500Y-75589000D02*
X80054400Y-75589000D01*
X80054400Y-75589000D02*
X80054400Y-73586900D01*
X85941800Y-49601000D02*
X89154000Y-46388800D01*
X82161900Y-72272100D02*
X83480200Y-70953800D01*
%TO.N,Net-(D1-A)*%
X63226000Y-86360000D02*
X64027900Y-86360000D01*
X66273500Y-86853500D02*
X64521400Y-86853500D01*
X64521400Y-86853500D02*
X64027900Y-86360000D01*
%TO.N,Net-(D2-A)*%
X61975000Y-74024000D02*
X62246000Y-74295000D01*
X61975000Y-69000000D02*
X61975000Y-74024000D01*
D55*
%TO.N,Net-(Q1-D)*%
X82296000Y-92377500D02*
X83169100Y-92377500D01*
X83169100Y-92377500D02*
X84487600Y-91059000D01*
X84487600Y-91059000D02*
X90744000Y-91059000D01*
X90744000Y-91059000D02*
X92903000Y-93218000D01*
D53*
%TO.N,TEMP_INT*%
X63250000Y-63301900D02*
X63323300Y-63301900D01*
X77784200Y-74055400D02*
X72343300Y-74055400D01*
X78952500Y-73989000D02*
X77850600Y-73989000D01*
X63323300Y-63301900D02*
X65627600Y-65606200D01*
X63250000Y-62450000D02*
X63250000Y-63301900D01*
X65627600Y-65606200D02*
X65627600Y-67397200D01*
X77850600Y-73989000D02*
X77784200Y-74055400D01*
%TO.N,MOSI*%
X71120200Y-71721300D02*
X70452500Y-72389000D01*
X71120200Y-65361400D02*
X71120200Y-71721300D01*
X73025000Y-59900000D02*
X73025000Y-63456600D01*
X73025000Y-63456600D02*
X71120200Y-65361400D01*
%TO.N,SCK*%
X71755000Y-59900000D02*
X71755000Y-61991400D01*
X72250700Y-72600600D02*
X71662300Y-73189000D01*
X71755000Y-61991400D02*
X72103900Y-62340300D01*
X71662300Y-73189000D02*
X70452500Y-73189000D01*
%TO.N,MISO*%
X69350600Y-74789000D02*
X68571500Y-74009900D01*
X68851100Y-65991100D02*
X69583000Y-65991100D01*
X68571500Y-66270700D02*
X68851100Y-65991100D01*
X70452500Y-74789000D02*
X69350600Y-74789000D01*
X70485000Y-66893100D02*
X70485000Y-67100000D01*
X69583000Y-65991100D02*
X70485000Y-66893100D01*
X68571500Y-74009900D02*
X68571500Y-66270700D01*
D56*
%TO.N,USB_D+*%
X68430000Y-78813900D02*
X68430000Y-82115900D01*
X69034900Y-78209000D02*
X68430000Y-78813900D01*
X64340000Y-84820000D02*
X63815000Y-84820000D01*
X68430000Y-82115900D02*
X66240900Y-84305000D01*
D53*
X63688000Y-84566000D02*
X63688000Y-84135000D01*
X63688000Y-84135000D02*
X63373000Y-83820000D01*
D57*
X69254900Y-77989000D02*
X69034900Y-78209000D01*
D56*
X64855000Y-84305000D02*
X64340000Y-84820000D01*
X66240900Y-84305000D02*
X64855000Y-84305000D01*
D57*
X70522500Y-77989000D02*
X69254900Y-77989000D01*
D53*
X63815000Y-84820000D02*
X63815000Y-84389000D01*
D56*
%TO.N,USB_D-*%
X65913000Y-83223100D02*
X65801100Y-83335000D01*
X65913000Y-83223100D02*
X65913000Y-83223100D01*
D57*
X68683100Y-77189000D02*
X68633100Y-77239000D01*
D56*
X66018050Y-83118050D02*
X67460000Y-81676100D01*
X67460000Y-78412100D02*
X68633100Y-77239000D01*
D57*
X70522500Y-77189000D02*
X68683100Y-77189000D01*
D56*
X65913000Y-83223100D02*
X65913000Y-83185000D01*
X64340000Y-82820000D02*
X63815000Y-82820000D01*
X65951100Y-83185000D02*
X65995550Y-83140550D01*
X64855000Y-83335000D02*
X64340000Y-82820000D01*
X67460000Y-81676100D02*
X67460000Y-78412100D01*
X65801100Y-83335000D02*
X64855000Y-83335000D01*
X65913000Y-83185000D02*
X65951100Y-83185000D01*
X65995550Y-83140550D02*
X66018050Y-83118050D01*
D53*
%TO.N,~RESET*%
X91333400Y-88213700D02*
X90805000Y-87685300D01*
X68673200Y-89603300D02*
X68673200Y-93186100D01*
X74703100Y-96547300D02*
X111732700Y-96547300D01*
X88683500Y-86381500D02*
X88646000Y-86344000D01*
X73521100Y-82730800D02*
X73521100Y-84952400D01*
X111732700Y-96547300D02*
X114808000Y-93472000D01*
X69480200Y-85702200D02*
X69480200Y-88796300D01*
X69838400Y-85344000D02*
X69480200Y-85702200D01*
X72702500Y-81912200D02*
X73521100Y-82730800D01*
X68946600Y-93459500D02*
X71615300Y-93459500D01*
X69480200Y-88796300D02*
X68673200Y-89603300D01*
X90805000Y-86381500D02*
X88683500Y-86381500D01*
X68673200Y-93186100D02*
X68946600Y-93459500D01*
X72702500Y-79439000D02*
X72702500Y-81912200D01*
X90805000Y-87685300D02*
X90805000Y-86381500D01*
X73129500Y-85344000D02*
X69838400Y-85344000D01*
X73521100Y-84952400D02*
X73129500Y-85344000D01*
X71615300Y-93459500D02*
X74703100Y-96547300D01*
%TO.N,LED*%
X64747900Y-71786300D02*
X64747900Y-69722900D01*
X70452500Y-76389000D02*
X69350600Y-76389000D01*
X64747900Y-69722900D02*
X64025000Y-69000000D01*
X69350600Y-76389000D02*
X64747900Y-71786300D01*
%TO.N,USB_VBUS_SENSE*%
X71902500Y-84344000D02*
X70485000Y-84344000D01*
X72517000Y-84344000D02*
X71902500Y-84344000D01*
X71902500Y-79439000D02*
X71902500Y-80540900D01*
X71902500Y-80540900D02*
X71902500Y-84344000D01*
%TO.N,IMU_INT1*%
X82412900Y-70241100D02*
X84190100Y-70241100D01*
X78952500Y-72389000D02*
X80054400Y-72389000D01*
X84190100Y-70241100D02*
X84577000Y-70628000D01*
X81788000Y-70866000D02*
X82412900Y-70241100D01*
X81788000Y-70866000D02*
X81577400Y-70866000D01*
X81577400Y-70866000D02*
X80054400Y-72389000D01*
%TO.N,IMU_INT2*%
X81788000Y-73406000D02*
X82090600Y-73406000D01*
X77725600Y-73314000D02*
X77498500Y-73314000D01*
X77850600Y-73189000D02*
X77725600Y-73314000D01*
X84577000Y-71628000D02*
X83868600Y-71628000D01*
X82090600Y-73406000D02*
X83868600Y-71628000D01*
X78952500Y-73189000D02*
X77850600Y-73189000D01*
%TO.N,Net-(J2-CC1)*%
X66764400Y-85576400D02*
X66293300Y-85576400D01*
X67691000Y-86503000D02*
X66764400Y-85576400D01*
%TO.N,Net-(J2-CC2)*%
X62738000Y-77978000D02*
X62738000Y-77962000D01*
X62357000Y-78359000D02*
X62738000Y-77978000D01*
X62738000Y-77962000D02*
X64246000Y-76454000D01*
%TO.N,~FLASH_CS*%
X69350600Y-73989000D02*
X69215000Y-73853400D01*
X69215000Y-73853400D02*
X69215000Y-67100000D01*
X70452500Y-73989000D02*
X69350600Y-73989000D01*
%TO.N,LIGHT_INT*%
X63411300Y-51310100D02*
X63000000Y-51721400D01*
X66322300Y-53340000D02*
X70961600Y-53340000D01*
X64292400Y-51310100D02*
X64292400Y-50261600D01*
X64292400Y-51310100D02*
X63411300Y-51310100D01*
X74203200Y-56581600D02*
X74203200Y-69737800D01*
X64292400Y-51310100D02*
X66322300Y-53340000D01*
X74203200Y-69737800D02*
X74302500Y-69837100D01*
X63000000Y-51721400D02*
X63000000Y-52005000D01*
X74302500Y-70939000D02*
X74302500Y-69837100D01*
X70961600Y-53340000D02*
X74203200Y-56581600D01*
X64292400Y-50261600D02*
X68326000Y-46228000D01*
%TO.N,~TEMP_RESET*%
X70452500Y-75589000D02*
X69350600Y-75589000D01*
X61999900Y-58698100D02*
X61823100Y-58874900D01*
X61823100Y-64654700D02*
X66113400Y-68945000D01*
X66113400Y-72351800D02*
X69350600Y-75589000D01*
X61823100Y-58874900D02*
X61823100Y-64654700D01*
X63250000Y-59550000D02*
X63250000Y-58698100D01*
X63250000Y-58698100D02*
X61999900Y-58698100D01*
X66113400Y-68945000D02*
X66113400Y-72351800D01*
%TO.N,Net-(U7-VDD)*%
X87127000Y-72644000D02*
X88138000Y-72644000D01*
X87127000Y-73114000D02*
X87127000Y-72644000D01*
X85352000Y-72903000D02*
X85352000Y-73611400D01*
X86629600Y-73611400D02*
X87127000Y-73114000D01*
X87127000Y-72644000D02*
X87127000Y-72628000D01*
X85352000Y-73611400D02*
X86629600Y-73611400D01*
%TO.N,Net-(U4-VCC)*%
X72398000Y-49932000D02*
X72398000Y-49255100D01*
X72390000Y-49247100D02*
X72390000Y-49014000D01*
X72398000Y-49255100D02*
X72390000Y-49247100D01*
%TO.N,Net-(U8-VDD)*%
X62350000Y-53995000D02*
X62350000Y-54746000D01*
X62350000Y-54746000D02*
X62484000Y-54880000D01*
%TO.N,Net-(U6-VDD)*%
X63750000Y-59550000D02*
X63750000Y-58424000D01*
X63750000Y-58424000D02*
X63754000Y-58420000D01*
%TO.N,Net-(U9-AC0)*%
X92426100Y-49601000D02*
X91000500Y-49601000D01*
X92550500Y-49725400D02*
X92426100Y-49601000D01*
%TO.N,Net-(U9-AC1)*%
X91049500Y-49000000D02*
X91000500Y-48951000D01*
X94500000Y-49000000D02*
X91049500Y-49000000D01*
%TO.N,Net-(U9-VCC)*%
X85275500Y-50251000D02*
X84377000Y-50251000D01*
X84377000Y-50251000D02*
X83820000Y-50808000D01*
%TD*%
%TA.AperFunction,Conductor*%
%TO.N,GND*%
G36*
X122001423Y-40000566D02*
G01*
X122040986Y-40002394D01*
X122172950Y-40008495D01*
X122372549Y-40018302D01*
X122378048Y-40018819D01*
X122563357Y-40044668D01*
X122749828Y-40072329D01*
X122754871Y-40073294D01*
X122939341Y-40116681D01*
X123120221Y-40161989D01*
X123124797Y-40163327D01*
X123305568Y-40223916D01*
X123480339Y-40286450D01*
X123484471Y-40288100D01*
X123542986Y-40313936D01*
X123659474Y-40365370D01*
X123826973Y-40444592D01*
X123830601Y-40446457D01*
X123998128Y-40539770D01*
X123998142Y-40539778D01*
X124156964Y-40634972D01*
X124160119Y-40636996D01*
X124318603Y-40745559D01*
X124467377Y-40855897D01*
X124470001Y-40857957D01*
X124618027Y-40980876D01*
X124755321Y-41105314D01*
X124757514Y-41107402D01*
X124892596Y-41242484D01*
X124894687Y-41244680D01*
X125019129Y-41381980D01*
X125142034Y-41529989D01*
X125144109Y-41532632D01*
X125254443Y-41681400D01*
X125363002Y-41839879D01*
X125365032Y-41843044D01*
X125460221Y-42001857D01*
X125553527Y-42169371D01*
X125555410Y-42173034D01*
X125634638Y-42340547D01*
X125711899Y-42515527D01*
X125713558Y-42519685D01*
X125776093Y-42694459D01*
X125836662Y-42875173D01*
X125838018Y-42879812D01*
X125883317Y-43060654D01*
X125926696Y-43245090D01*
X125927672Y-43250189D01*
X125955337Y-43436689D01*
X125981177Y-43621933D01*
X125981697Y-43627459D01*
X125991512Y-43827229D01*
X125999434Y-43998575D01*
X125999500Y-44001439D01*
X125999500Y-44376000D01*
X125979815Y-44443039D01*
X125927011Y-44488794D01*
X125875500Y-44500000D01*
X125322749Y-44500000D01*
X125255710Y-44480315D01*
X125209955Y-44427511D01*
X125198919Y-44382490D01*
X125184780Y-44112712D01*
X125124113Y-43729676D01*
X125124112Y-43729669D01*
X125023737Y-43355063D01*
X124884755Y-42993005D01*
X124708689Y-42647456D01*
X124497468Y-42322206D01*
X124288904Y-42064649D01*
X124288903Y-42064648D01*
X123391248Y-42962302D01*
X123432551Y-42900489D01*
X123451954Y-42802944D01*
X123432551Y-42705399D01*
X123377296Y-42622704D01*
X123294601Y-42567449D01*
X123221680Y-42552944D01*
X123172432Y-42552944D01*
X123099511Y-42567449D01*
X123037690Y-42608755D01*
X123935350Y-41711096D01*
X123935350Y-41711095D01*
X123677793Y-41502531D01*
X123352543Y-41291310D01*
X123006994Y-41115244D01*
X122644936Y-40976262D01*
X122270330Y-40875887D01*
X122270323Y-40875886D01*
X121887287Y-40815219D01*
X121500001Y-40794922D01*
X121499999Y-40794922D01*
X121112712Y-40815219D01*
X120729676Y-40875886D01*
X120729669Y-40875887D01*
X120355063Y-40976262D01*
X119993005Y-41115244D01*
X119647456Y-41291310D01*
X119322206Y-41502531D01*
X119064648Y-41711095D01*
X119064648Y-41711096D01*
X119962306Y-42608754D01*
X119900489Y-42567449D01*
X119827568Y-42552944D01*
X119778320Y-42552944D01*
X119705399Y-42567449D01*
X119622704Y-42622704D01*
X119567449Y-42705399D01*
X119548046Y-42802944D01*
X119567449Y-42900489D01*
X119608754Y-42962306D01*
X118711096Y-42064648D01*
X118711095Y-42064648D01*
X118502531Y-42322206D01*
X118291310Y-42647456D01*
X118115244Y-42993005D01*
X117976262Y-43355063D01*
X117875887Y-43729669D01*
X117875886Y-43729676D01*
X117815219Y-44112712D01*
X117801081Y-44382490D01*
X117777915Y-44448407D01*
X117722789Y-44491336D01*
X117677251Y-44500000D01*
X92999999Y-44500000D01*
X92000000Y-45499999D01*
X92000000Y-47474931D01*
X91980315Y-47541970D01*
X91927511Y-47587725D01*
X91858353Y-47597669D01*
X91828549Y-47589493D01*
X91794630Y-47575444D01*
X91677330Y-47560000D01*
X91200500Y-47560000D01*
X91200500Y-48280700D01*
X91180815Y-48347739D01*
X91128011Y-48393494D01*
X91076500Y-48404700D01*
X90924500Y-48404700D01*
X90857461Y-48385015D01*
X90811706Y-48332211D01*
X90800500Y-48280700D01*
X90800500Y-47559999D01*
X90784932Y-47544432D01*
X90770910Y-47540315D01*
X90725155Y-47487511D01*
X90715211Y-47418353D01*
X90744236Y-47354797D01*
X90744237Y-47354796D01*
X90751257Y-47346695D01*
X90753330Y-47342153D01*
X90766861Y-47319347D01*
X90769851Y-47315355D01*
X90788167Y-47266243D01*
X90789844Y-47262195D01*
X90811617Y-47214523D01*
X90812326Y-47209584D01*
X90818883Y-47183896D01*
X90820630Y-47179214D01*
X90820630Y-47179210D01*
X90820631Y-47179208D01*
X90822719Y-47150000D01*
X90824368Y-47126925D01*
X90824835Y-47122584D01*
X90827100Y-47106838D01*
X90827100Y-47090957D01*
X90827258Y-47086533D01*
X90830995Y-47034285D01*
X90830994Y-47034284D01*
X90830995Y-47034282D01*
X90829931Y-47029393D01*
X90827100Y-47003045D01*
X90827100Y-45798752D01*
X90829933Y-45772397D01*
X90830995Y-45767518D01*
X90827257Y-45715261D01*
X90827100Y-45710841D01*
X90827100Y-45694961D01*
X90824841Y-45679253D01*
X90824367Y-45674846D01*
X90820630Y-45622588D01*
X90820629Y-45622582D01*
X90818884Y-45617903D01*
X90812326Y-45592213D01*
X90811617Y-45587277D01*
X90789852Y-45539620D01*
X90788168Y-45535558D01*
X90769851Y-45486445D01*
X90766859Y-45482448D01*
X90753333Y-45459651D01*
X90751257Y-45455105D01*
X90716936Y-45415497D01*
X90714175Y-45412070D01*
X90704655Y-45399352D01*
X90693415Y-45388112D01*
X90690411Y-45384885D01*
X90656105Y-45345294D01*
X90656104Y-45345293D01*
X90651902Y-45342593D01*
X90631262Y-45325959D01*
X89619340Y-44314038D01*
X89602708Y-44293399D01*
X89600007Y-44289196D01*
X89600004Y-44289193D01*
X89560405Y-44254880D01*
X89557165Y-44251863D01*
X89545955Y-44240653D01*
X89545948Y-44240646D01*
X89545942Y-44240642D01*
X89545936Y-44240636D01*
X89533233Y-44231127D01*
X89529799Y-44228360D01*
X89490195Y-44194043D01*
X89490194Y-44194042D01*
X89490192Y-44194041D01*
X89485646Y-44191965D01*
X89462850Y-44178440D01*
X89458855Y-44175449D01*
X89458852Y-44175448D01*
X89409755Y-44157135D01*
X89405671Y-44155443D01*
X89358023Y-44133683D01*
X89353074Y-44132971D01*
X89327398Y-44126417D01*
X89322715Y-44124670D01*
X89270450Y-44120931D01*
X89266054Y-44120459D01*
X89250340Y-44118200D01*
X89250338Y-44118200D01*
X89234458Y-44118200D01*
X89230037Y-44118042D01*
X89214336Y-44116919D01*
X89177786Y-44114305D01*
X89177778Y-44114305D01*
X89172904Y-44115366D01*
X89146547Y-44118200D01*
X75848153Y-44118200D01*
X75821796Y-44115366D01*
X75816921Y-44114305D01*
X75816913Y-44114305D01*
X75778026Y-44117086D01*
X75764662Y-44118042D01*
X75760242Y-44118200D01*
X75744360Y-44118200D01*
X75728647Y-44120459D01*
X75724251Y-44120931D01*
X75671986Y-44124670D01*
X75671983Y-44124671D01*
X75667296Y-44126419D01*
X75641620Y-44132972D01*
X75636680Y-44133682D01*
X75636674Y-44133684D01*
X75589017Y-44155447D01*
X75584930Y-44157139D01*
X75535850Y-44175446D01*
X75535840Y-44175452D01*
X75531842Y-44178445D01*
X75509057Y-44191964D01*
X75504506Y-44194042D01*
X75504503Y-44194044D01*
X75464907Y-44228353D01*
X75461466Y-44231127D01*
X75448752Y-44240645D01*
X75437519Y-44251876D01*
X75434285Y-44254886D01*
X75394695Y-44289193D01*
X75394690Y-44289198D01*
X75391988Y-44293404D01*
X75375359Y-44314037D01*
X72477680Y-47211716D01*
X72416357Y-47245201D01*
X72346665Y-47240217D01*
X72302318Y-47211716D01*
X69800740Y-44710138D01*
X69784108Y-44689499D01*
X69781407Y-44685296D01*
X69781404Y-44685293D01*
X69741805Y-44650980D01*
X69738565Y-44647963D01*
X69727355Y-44636753D01*
X69727348Y-44636746D01*
X69727342Y-44636742D01*
X69727336Y-44636736D01*
X69714633Y-44627227D01*
X69711199Y-44624460D01*
X69671595Y-44590143D01*
X69671594Y-44590142D01*
X69671592Y-44590141D01*
X69667046Y-44588065D01*
X69644250Y-44574540D01*
X69640255Y-44571549D01*
X69640252Y-44571548D01*
X69640249Y-44571547D01*
X69630281Y-44567828D01*
X69591155Y-44553235D01*
X69587071Y-44551543D01*
X69539423Y-44529783D01*
X69534474Y-44529071D01*
X69508798Y-44522517D01*
X69504115Y-44520770D01*
X69451850Y-44517031D01*
X69447454Y-44516559D01*
X69431740Y-44514300D01*
X69431738Y-44514300D01*
X69415858Y-44514300D01*
X69411437Y-44514142D01*
X69395736Y-44513019D01*
X69359186Y-44510405D01*
X69359178Y-44510405D01*
X69354304Y-44511466D01*
X69327947Y-44514300D01*
X67374453Y-44514300D01*
X67348096Y-44511466D01*
X67343221Y-44510405D01*
X67343213Y-44510405D01*
X67304326Y-44513186D01*
X67290962Y-44514142D01*
X67286542Y-44514300D01*
X67270660Y-44514300D01*
X67254947Y-44516559D01*
X67250551Y-44517031D01*
X67198286Y-44520770D01*
X67198283Y-44520771D01*
X67193596Y-44522519D01*
X67167920Y-44529072D01*
X67162980Y-44529782D01*
X67162977Y-44529783D01*
X67115318Y-44551547D01*
X67111230Y-44553240D01*
X67062147Y-44571547D01*
X67062140Y-44571551D01*
X67058140Y-44574546D01*
X67035357Y-44588063D01*
X67030807Y-44590140D01*
X67030806Y-44590141D01*
X66991211Y-44624450D01*
X66987769Y-44627224D01*
X66985836Y-44628671D01*
X66975051Y-44636745D01*
X66963811Y-44647983D01*
X66960577Y-44650994D01*
X66920995Y-44685294D01*
X66920988Y-44685301D01*
X66918290Y-44689500D01*
X66901661Y-44710134D01*
X66353063Y-45258731D01*
X66291740Y-45292216D01*
X66222048Y-45287232D01*
X66166115Y-45245360D01*
X66141698Y-45179896D01*
X66142909Y-45151652D01*
X66184780Y-44887287D01*
X66205078Y-44500000D01*
X66205078Y-44499999D01*
X66184780Y-44112712D01*
X66124113Y-43729676D01*
X66124112Y-43729669D01*
X66023737Y-43355063D01*
X65884755Y-42993005D01*
X65708689Y-42647456D01*
X65497468Y-42322206D01*
X65288904Y-42064649D01*
X65288903Y-42064648D01*
X64391247Y-42962304D01*
X64432551Y-42900489D01*
X64451954Y-42802944D01*
X64432551Y-42705399D01*
X64377296Y-42622704D01*
X64294601Y-42567449D01*
X64221680Y-42552944D01*
X64172432Y-42552944D01*
X64099511Y-42567449D01*
X64037690Y-42608755D01*
X64935350Y-41711096D01*
X64935350Y-41711095D01*
X64677793Y-41502531D01*
X64352543Y-41291310D01*
X64006994Y-41115244D01*
X63644936Y-40976262D01*
X63270330Y-40875887D01*
X63270323Y-40875886D01*
X62887287Y-40815219D01*
X62500001Y-40794922D01*
X62499999Y-40794922D01*
X62112712Y-40815219D01*
X61729676Y-40875886D01*
X61729669Y-40875887D01*
X61355063Y-40976262D01*
X60993005Y-41115244D01*
X60647456Y-41291310D01*
X60322206Y-41502531D01*
X60064648Y-41711095D01*
X60064648Y-41711096D01*
X60962306Y-42608754D01*
X60900489Y-42567449D01*
X60827568Y-42552944D01*
X60778320Y-42552944D01*
X60705399Y-42567449D01*
X60622704Y-42622704D01*
X60567449Y-42705399D01*
X60548046Y-42802944D01*
X60567449Y-42900489D01*
X60608753Y-42962305D01*
X59711096Y-42064648D01*
X59711095Y-42064648D01*
X59502531Y-42322206D01*
X59291310Y-42647456D01*
X59115244Y-42993005D01*
X58976262Y-43355063D01*
X58875887Y-43729669D01*
X58875886Y-43729676D01*
X58815219Y-44112712D01*
X58794922Y-44499999D01*
X58794922Y-44500000D01*
X58815219Y-44887287D01*
X58875886Y-45270323D01*
X58875887Y-45270330D01*
X58976262Y-45644936D01*
X59115244Y-46006994D01*
X59291310Y-46352543D01*
X59502531Y-46677793D01*
X59711095Y-46935350D01*
X59711096Y-46935350D01*
X60608756Y-46037689D01*
X60567449Y-46099511D01*
X60548046Y-46197056D01*
X60567449Y-46294601D01*
X60622704Y-46377296D01*
X60705399Y-46432551D01*
X60778320Y-46447056D01*
X60827568Y-46447056D01*
X60900489Y-46432551D01*
X60962304Y-46391247D01*
X60064648Y-47288903D01*
X60064649Y-47288904D01*
X60322206Y-47497468D01*
X60647456Y-47708689D01*
X60993005Y-47884755D01*
X61355063Y-48023737D01*
X61729669Y-48124112D01*
X61729676Y-48124113D01*
X62112712Y-48184780D01*
X62499999Y-48205078D01*
X62500001Y-48205078D01*
X62887287Y-48184780D01*
X63151653Y-48142909D01*
X63220946Y-48151863D01*
X63274398Y-48196860D01*
X63295038Y-48263611D01*
X63276313Y-48330925D01*
X63258732Y-48353063D01*
X61422037Y-50189759D01*
X61401404Y-50206388D01*
X61397198Y-50209090D01*
X61397193Y-50209095D01*
X61362886Y-50248685D01*
X61359876Y-50251919D01*
X61348645Y-50263152D01*
X61339127Y-50275866D01*
X61336353Y-50279307D01*
X61302044Y-50318903D01*
X61302042Y-50318906D01*
X61299964Y-50323457D01*
X61286445Y-50346242D01*
X61283452Y-50350240D01*
X61283446Y-50350250D01*
X61265139Y-50399330D01*
X61263447Y-50403417D01*
X61241684Y-50451074D01*
X61241682Y-50451080D01*
X61240972Y-50456020D01*
X61234419Y-50481696D01*
X61232671Y-50486383D01*
X61232670Y-50486386D01*
X61228931Y-50538651D01*
X61228459Y-50543047D01*
X61226200Y-50558760D01*
X61226200Y-50574641D01*
X61226042Y-50579065D01*
X61222305Y-50631314D01*
X61222305Y-50631319D01*
X61223367Y-50636201D01*
X61226199Y-50662552D01*
X61226199Y-55059845D01*
X61223368Y-55086188D01*
X61222306Y-55091072D01*
X61222305Y-55091082D01*
X61226042Y-55143333D01*
X61226200Y-55147757D01*
X61226200Y-55163640D01*
X61228459Y-55179354D01*
X61228931Y-55183750D01*
X61232670Y-55236015D01*
X61234417Y-55240698D01*
X61240971Y-55266374D01*
X61241683Y-55271323D01*
X61256876Y-55304592D01*
X61263441Y-55318966D01*
X61265135Y-55323055D01*
X61283448Y-55372152D01*
X61283449Y-55372155D01*
X61286440Y-55376150D01*
X61299965Y-55398946D01*
X61302041Y-55403492D01*
X61302042Y-55403494D01*
X61302043Y-55403495D01*
X61336360Y-55443099D01*
X61339127Y-55446533D01*
X61348636Y-55459236D01*
X61348642Y-55459242D01*
X61348646Y-55459248D01*
X61348653Y-55459255D01*
X61359863Y-55470465D01*
X61362880Y-55473705D01*
X61397196Y-55513307D01*
X61401399Y-55516008D01*
X61422038Y-55532640D01*
X61939938Y-56050540D01*
X61973423Y-56111863D01*
X61975941Y-56129373D01*
X61978542Y-56165733D01*
X61978700Y-56170158D01*
X61978700Y-56186040D01*
X61980959Y-56201754D01*
X61981431Y-56206150D01*
X61985170Y-56258415D01*
X61986917Y-56263098D01*
X61993471Y-56288774D01*
X61994183Y-56293723D01*
X61994184Y-56293725D01*
X62015941Y-56341366D01*
X62017635Y-56345455D01*
X62035948Y-56394552D01*
X62035949Y-56394555D01*
X62038940Y-56398550D01*
X62052465Y-56421346D01*
X62054541Y-56425892D01*
X62054542Y-56425894D01*
X62054543Y-56425895D01*
X62088860Y-56465499D01*
X62091627Y-56468933D01*
X62101136Y-56481636D01*
X62101142Y-56481642D01*
X62101146Y-56481648D01*
X62101153Y-56481655D01*
X62112363Y-56492865D01*
X62115380Y-56496105D01*
X62124241Y-56506331D01*
X62149696Y-56535707D01*
X62153899Y-56538408D01*
X62174538Y-56555040D01*
X62327216Y-56707718D01*
X62360701Y-56769041D01*
X62355717Y-56838733D01*
X62327216Y-56883080D01*
X60990337Y-58219959D01*
X60969704Y-58236588D01*
X60965498Y-58239290D01*
X60965493Y-58239295D01*
X60931186Y-58278885D01*
X60928176Y-58282119D01*
X60916945Y-58293352D01*
X60907427Y-58306066D01*
X60904653Y-58309507D01*
X60870344Y-58349103D01*
X60870342Y-58349106D01*
X60868264Y-58353657D01*
X60854745Y-58376442D01*
X60851752Y-58380440D01*
X60851746Y-58380450D01*
X60833439Y-58429530D01*
X60831747Y-58433617D01*
X60809984Y-58481274D01*
X60809982Y-58481280D01*
X60809272Y-58486220D01*
X60802719Y-58511896D01*
X60800971Y-58516583D01*
X60800970Y-58516586D01*
X60797231Y-58568851D01*
X60796759Y-58573247D01*
X60794500Y-58588960D01*
X60794500Y-58604841D01*
X60794342Y-58609261D01*
X60790605Y-58661518D01*
X60791666Y-58666397D01*
X60794500Y-58692752D01*
X60794500Y-65233245D01*
X60791668Y-65259597D01*
X60790604Y-65264485D01*
X60794342Y-65316733D01*
X60794500Y-65321157D01*
X60794500Y-65337040D01*
X60796759Y-65352754D01*
X60797231Y-65357150D01*
X60800970Y-65409415D01*
X60802717Y-65414098D01*
X60809271Y-65439774D01*
X60809983Y-65444723D01*
X60809984Y-65444725D01*
X60831741Y-65492366D01*
X60833435Y-65496455D01*
X60851748Y-65545552D01*
X60851749Y-65545555D01*
X60854740Y-65549550D01*
X60868265Y-65572346D01*
X60870341Y-65576892D01*
X60870342Y-65576894D01*
X60870343Y-65576895D01*
X60904660Y-65616499D01*
X60907427Y-65619933D01*
X60916936Y-65632636D01*
X60916942Y-65632642D01*
X60916946Y-65632648D01*
X60916953Y-65632655D01*
X60928163Y-65643865D01*
X60931180Y-65647105D01*
X60961378Y-65681955D01*
X60965496Y-65686707D01*
X60969699Y-65689408D01*
X60990338Y-65706040D01*
X62411281Y-67126983D01*
X62444766Y-67188306D01*
X62447600Y-67214664D01*
X62447600Y-67870700D01*
X62427915Y-67937739D01*
X62375111Y-67983494D01*
X62323600Y-67994700D01*
X61606524Y-67994700D01*
X61566353Y-67999523D01*
X61517290Y-68005415D01*
X61375280Y-68061417D01*
X61253651Y-68153651D01*
X61161417Y-68275280D01*
X61105415Y-68417290D01*
X61101392Y-68450797D01*
X61094700Y-68506524D01*
X61094700Y-69493476D01*
X61098558Y-69525601D01*
X61105415Y-69582709D01*
X61129649Y-69644162D01*
X61143947Y-69680420D01*
X61161417Y-69724719D01*
X61253651Y-69846348D01*
X61366541Y-69931955D01*
X61375283Y-69938584D01*
X61491192Y-69984292D01*
X61546334Y-70027197D01*
X61569527Y-70093105D01*
X61569700Y-70099646D01*
X61569700Y-73333943D01*
X61550015Y-73400982D01*
X61520628Y-73432745D01*
X61499652Y-73448652D01*
X61499648Y-73448656D01*
X61407417Y-73570280D01*
X61351415Y-73712290D01*
X61348196Y-73739103D01*
X61340700Y-73801524D01*
X61340700Y-74788476D01*
X61345035Y-74824575D01*
X61351415Y-74877709D01*
X61407417Y-75019719D01*
X61497807Y-75138915D01*
X61499652Y-75141348D01*
X61519757Y-75156594D01*
X61561280Y-75212787D01*
X61565831Y-75282508D01*
X61531966Y-75343622D01*
X61509928Y-75360936D01*
X61427659Y-75411680D01*
X61427655Y-75411683D01*
X61303684Y-75535654D01*
X61211643Y-75684875D01*
X61211641Y-75684880D01*
X61156494Y-75851302D01*
X61156493Y-75851309D01*
X61146000Y-75954013D01*
X61146000Y-76204000D01*
X62372000Y-76204000D01*
X62439039Y-76223685D01*
X62484794Y-76276489D01*
X62496000Y-76328000D01*
X62496000Y-76580000D01*
X62476315Y-76647039D01*
X62423511Y-76692794D01*
X62372000Y-76704000D01*
X61146001Y-76704000D01*
X61146001Y-76953986D01*
X61156494Y-77056697D01*
X61211641Y-77223119D01*
X61211643Y-77223124D01*
X61303684Y-77372345D01*
X61427654Y-77496315D01*
X61576875Y-77588356D01*
X61576880Y-77588358D01*
X61743302Y-77643505D01*
X61743310Y-77643506D01*
X61782829Y-77647544D01*
X61847521Y-77673940D01*
X61887672Y-77731121D01*
X61890536Y-77800932D01*
X61855202Y-77861208D01*
X61852456Y-77863716D01*
X61825199Y-77887863D01*
X61825196Y-77887867D01*
X61727901Y-78028821D01*
X61727901Y-78028822D01*
X61667165Y-78188970D01*
X61646520Y-78358999D01*
X61646520Y-78359000D01*
X61667165Y-78529029D01*
X61727901Y-78689177D01*
X61727901Y-78689178D01*
X61762942Y-78739943D01*
X61825198Y-78830135D01*
X61953401Y-78943714D01*
X62105060Y-79023310D01*
X62188210Y-79043804D01*
X62271360Y-79064300D01*
X62271361Y-79064300D01*
X62442640Y-79064300D01*
X62515253Y-79046402D01*
X62608940Y-79023310D01*
X62760599Y-78943714D01*
X62888802Y-78830135D01*
X62986099Y-78689177D01*
X63046835Y-78529029D01*
X63067480Y-78359000D01*
X63058811Y-78287608D01*
X63070271Y-78218689D01*
X63071390Y-78216434D01*
X63077688Y-78204072D01*
X63100488Y-78172691D01*
X63777561Y-77495618D01*
X63838884Y-77462134D01*
X63865242Y-77459300D01*
X64639470Y-77459300D01*
X64639476Y-77459300D01*
X64728711Y-77448584D01*
X64870717Y-77392584D01*
X64992348Y-77300348D01*
X65084584Y-77178717D01*
X65140584Y-77036711D01*
X65151300Y-76947476D01*
X65151300Y-75960524D01*
X65140584Y-75871289D01*
X65084584Y-75729283D01*
X65061692Y-75699095D01*
X64992348Y-75607651D01*
X64870719Y-75515417D01*
X64870717Y-75515416D01*
X64805895Y-75489853D01*
X64750753Y-75446949D01*
X64727560Y-75381041D01*
X64743680Y-75313057D01*
X64793997Y-75264580D01*
X64805885Y-75259150D01*
X64870717Y-75233584D01*
X64992348Y-75141348D01*
X65084584Y-75019717D01*
X65140584Y-74877711D01*
X65151300Y-74788476D01*
X65151300Y-73801524D01*
X65140584Y-73712289D01*
X65084584Y-73570283D01*
X65077006Y-73560290D01*
X64992348Y-73448651D01*
X64870716Y-73356415D01*
X64829809Y-73340283D01*
X64774665Y-73297377D01*
X64751473Y-73231469D01*
X64751300Y-73224929D01*
X64751300Y-72662243D01*
X64770985Y-72595204D01*
X64823789Y-72549449D01*
X64892947Y-72539505D01*
X64956503Y-72568530D01*
X64962981Y-72574562D01*
X68724152Y-76335733D01*
X68757637Y-76397056D01*
X68752653Y-76466748D01*
X68710781Y-76522681D01*
X68645317Y-76547098D01*
X68628985Y-76547188D01*
X68591119Y-76544897D01*
X68591113Y-76544898D01*
X68426225Y-76575114D01*
X68426221Y-76575116D01*
X68273359Y-76643914D01*
X68273356Y-76643916D01*
X68174506Y-76721360D01*
X66987962Y-77907904D01*
X66985236Y-77910471D01*
X66939505Y-77950986D01*
X66904810Y-78001251D01*
X66902591Y-78004267D01*
X66864916Y-78052355D01*
X66864915Y-78052357D01*
X66860881Y-78061320D01*
X66849863Y-78080855D01*
X66844282Y-78088941D01*
X66844280Y-78088944D01*
X66822618Y-78146059D01*
X66821186Y-78149517D01*
X66796112Y-78205231D01*
X66794341Y-78214895D01*
X66788320Y-78236497D01*
X66784837Y-78245681D01*
X66784835Y-78245689D01*
X66777473Y-78306320D01*
X66776910Y-78310022D01*
X66765898Y-78370112D01*
X66765898Y-78370116D01*
X66769587Y-78431094D01*
X66769700Y-78434839D01*
X66769700Y-81338805D01*
X66750015Y-81405844D01*
X66733381Y-81426486D01*
X65628352Y-82531514D01*
X65598297Y-82553629D01*
X65509402Y-82600284D01*
X65509400Y-82600286D01*
X65494468Y-82613515D01*
X65431235Y-82643237D01*
X65412241Y-82644700D01*
X65192294Y-82644700D01*
X65125255Y-82625015D01*
X65104613Y-82608381D01*
X64985647Y-82489415D01*
X64844178Y-82347946D01*
X64841627Y-82345235D01*
X64801116Y-82299508D01*
X64801117Y-82299508D01*
X64750842Y-82264806D01*
X64747826Y-82262586D01*
X64708396Y-82231696D01*
X64699741Y-82224915D01*
X64699739Y-82224914D01*
X64699733Y-82224910D01*
X64690781Y-82220881D01*
X64671239Y-82209860D01*
X64663155Y-82204280D01*
X64606045Y-82182621D01*
X64602585Y-82181188D01*
X64546875Y-82156115D01*
X64537211Y-82154344D01*
X64515593Y-82148317D01*
X64506413Y-82144836D01*
X64506411Y-82144835D01*
X64506410Y-82144835D01*
X64445778Y-82137473D01*
X64442084Y-82136911D01*
X64381985Y-82125898D01*
X64381981Y-82125897D01*
X64370640Y-82126584D01*
X64302534Y-82110983D01*
X64253674Y-82061037D01*
X64249719Y-82052897D01*
X64244235Y-82040478D01*
X64244234Y-82040475D01*
X64163525Y-81959766D01*
X64147339Y-81952619D01*
X64059110Y-81913662D01*
X64033579Y-81910700D01*
X63342428Y-81910700D01*
X63342405Y-81910702D01*
X63316893Y-81913661D01*
X63316890Y-81913662D01*
X63212475Y-81959765D01*
X63131766Y-82040474D01*
X63085662Y-82144888D01*
X63085662Y-82144890D01*
X63082700Y-82170419D01*
X63082700Y-82961571D01*
X63082702Y-82961594D01*
X63085660Y-82987105D01*
X63085662Y-82987109D01*
X63105940Y-83033035D01*
X63115011Y-83102311D01*
X63085187Y-83165496D01*
X63050131Y-83192915D01*
X62969403Y-83235284D01*
X62841198Y-83348864D01*
X62841196Y-83348867D01*
X62743901Y-83489821D01*
X62743901Y-83489822D01*
X62683165Y-83649969D01*
X62664717Y-83801904D01*
X62637095Y-83866082D01*
X62579161Y-83905138D01*
X62537161Y-83910416D01*
X62537161Y-83910700D01*
X62534901Y-83910700D01*
X62534488Y-83910752D01*
X62533585Y-83910700D01*
X61442428Y-83910700D01*
X61442405Y-83910702D01*
X61416893Y-83913661D01*
X61416892Y-83913661D01*
X61405383Y-83918743D01*
X61336105Y-83927812D01*
X61272920Y-83897987D01*
X61235891Y-83838737D01*
X61231300Y-83805307D01*
X61231300Y-83326692D01*
X61250985Y-83259653D01*
X61303789Y-83213898D01*
X61372947Y-83203954D01*
X61405384Y-83213257D01*
X61416891Y-83218338D01*
X61442421Y-83221300D01*
X62133578Y-83221299D01*
X62159109Y-83218338D01*
X62263525Y-83172234D01*
X62344234Y-83091525D01*
X62390338Y-82987109D01*
X62393300Y-82961579D01*
X62393299Y-82170422D01*
X62390338Y-82144891D01*
X62344234Y-82040475D01*
X62263525Y-81959766D01*
X62247339Y-81952619D01*
X62159110Y-81913662D01*
X62133579Y-81910700D01*
X61442428Y-81910700D01*
X61442405Y-81910702D01*
X61416893Y-81913661D01*
X61416890Y-81913662D01*
X61312475Y-81959765D01*
X61312474Y-81959766D01*
X61247860Y-82024381D01*
X61186537Y-82057866D01*
X61160179Y-82060700D01*
X61153753Y-82060700D01*
X61127396Y-82057866D01*
X61122521Y-82056805D01*
X61122513Y-82056805D01*
X61083626Y-82059586D01*
X61070262Y-82060542D01*
X61065842Y-82060700D01*
X61049960Y-82060700D01*
X61034247Y-82062959D01*
X61029851Y-82063431D01*
X60977586Y-82067170D01*
X60977583Y-82067171D01*
X60972896Y-82068919D01*
X60947220Y-82075472D01*
X60942280Y-82076182D01*
X60942274Y-82076184D01*
X60894617Y-82097947D01*
X60890530Y-82099639D01*
X60841450Y-82117946D01*
X60841440Y-82117952D01*
X60837442Y-82120945D01*
X60814657Y-82134464D01*
X60810106Y-82136542D01*
X60810103Y-82136544D01*
X60770507Y-82170853D01*
X60767066Y-82173627D01*
X60754352Y-82183145D01*
X60743119Y-82194376D01*
X60739885Y-82197386D01*
X60700295Y-82231693D01*
X60700290Y-82231698D01*
X60697588Y-82235904D01*
X60680959Y-82256537D01*
X60416537Y-82520959D01*
X60395904Y-82537588D01*
X60391698Y-82540290D01*
X60391693Y-82540295D01*
X60357386Y-82579885D01*
X60354376Y-82583119D01*
X60343145Y-82594352D01*
X60333627Y-82607066D01*
X60330853Y-82610507D01*
X60296544Y-82650103D01*
X60296542Y-82650106D01*
X60294464Y-82654657D01*
X60280945Y-82677442D01*
X60277952Y-82681440D01*
X60277946Y-82681450D01*
X60259639Y-82730530D01*
X60257947Y-82734617D01*
X60236184Y-82782274D01*
X60236182Y-82782280D01*
X60235472Y-82787220D01*
X60228919Y-82812896D01*
X60227171Y-82817583D01*
X60227170Y-82817586D01*
X60223431Y-82869851D01*
X60222959Y-82874247D01*
X60220700Y-82889960D01*
X60220700Y-82905841D01*
X60220542Y-82910265D01*
X60216873Y-82961571D01*
X60216805Y-82962518D01*
X60217866Y-82967397D01*
X60220700Y-82993752D01*
X60220699Y-85447806D01*
X60201014Y-85514846D01*
X60148210Y-85560600D01*
X60146786Y-85561240D01*
X60050474Y-85603766D01*
X59969766Y-85684474D01*
X59923662Y-85788888D01*
X59923662Y-85788890D01*
X59920700Y-85814419D01*
X59920700Y-86905571D01*
X59920702Y-86905594D01*
X59923661Y-86931106D01*
X59923662Y-86931109D01*
X59969765Y-87035524D01*
X60050475Y-87116234D01*
X60145886Y-87158362D01*
X60199262Y-87203447D01*
X60219484Y-87262944D01*
X60220542Y-87277743D01*
X60220700Y-87282156D01*
X60220700Y-87298040D01*
X60222959Y-87313754D01*
X60223431Y-87318150D01*
X60227803Y-87379257D01*
X60224769Y-87379474D01*
X60220860Y-87434046D01*
X60178983Y-87489975D01*
X60113516Y-87514385D01*
X60104683Y-87514700D01*
X59579764Y-87514700D01*
X59444675Y-87529920D01*
X59444670Y-87529921D01*
X59273377Y-87589859D01*
X59273374Y-87589861D01*
X59119731Y-87686402D01*
X59119725Y-87686407D01*
X58991407Y-87814725D01*
X58991402Y-87814731D01*
X58894861Y-87968374D01*
X58894859Y-87968377D01*
X58834921Y-88139670D01*
X58834920Y-88139675D01*
X58814604Y-88319996D01*
X58814604Y-88320003D01*
X58834920Y-88500324D01*
X58834921Y-88500329D01*
X58894859Y-88671622D01*
X58894861Y-88671625D01*
X58991402Y-88825268D01*
X58991407Y-88825274D01*
X59119725Y-88953592D01*
X59119731Y-88953597D01*
X59273374Y-89050138D01*
X59273377Y-89050140D01*
X59273381Y-89050141D01*
X59273382Y-89050142D01*
X59393512Y-89092177D01*
X59444670Y-89110078D01*
X59444675Y-89110079D01*
X59527903Y-89119456D01*
X59579765Y-89125299D01*
X59579768Y-89125300D01*
X59579771Y-89125300D01*
X60270232Y-89125300D01*
X60270233Y-89125299D01*
X60337779Y-89117688D01*
X60405324Y-89110079D01*
X60405327Y-89110078D01*
X60405330Y-89110078D01*
X60576618Y-89050142D01*
X60576620Y-89050140D01*
X60576622Y-89050140D01*
X60576625Y-89050138D01*
X60730268Y-88953597D01*
X60730269Y-88953596D01*
X60730274Y-88953593D01*
X60858593Y-88825274D01*
X60858597Y-88825268D01*
X60955138Y-88671625D01*
X60955141Y-88671619D01*
X60955142Y-88671618D01*
X61010749Y-88512700D01*
X61051471Y-88455925D01*
X61116424Y-88430177D01*
X61184985Y-88443633D01*
X61215472Y-88465974D01*
X62345273Y-89595775D01*
X62378758Y-89657098D01*
X62373774Y-89726790D01*
X62331902Y-89782723D01*
X62266438Y-89807140D01*
X62264082Y-89807286D01*
X62112712Y-89815219D01*
X61729676Y-89875886D01*
X61729669Y-89875887D01*
X61355063Y-89976262D01*
X60993005Y-90115244D01*
X60647456Y-90291310D01*
X60322206Y-90502531D01*
X60064648Y-90711095D01*
X60064648Y-90711096D01*
X60962306Y-91608754D01*
X60900489Y-91567449D01*
X60827568Y-91552944D01*
X60778320Y-91552944D01*
X60705399Y-91567449D01*
X60622704Y-91622704D01*
X60567449Y-91705399D01*
X60548046Y-91802944D01*
X60567449Y-91900489D01*
X60608753Y-91962305D01*
X59711096Y-91064648D01*
X59711095Y-91064648D01*
X59502531Y-91322206D01*
X59291310Y-91647456D01*
X59115244Y-91993005D01*
X58976262Y-92355063D01*
X58875887Y-92729669D01*
X58875886Y-92729676D01*
X58815219Y-93112712D01*
X58794922Y-93499999D01*
X58794922Y-93500000D01*
X58815219Y-93887287D01*
X58875886Y-94270323D01*
X58875887Y-94270330D01*
X58976262Y-94644936D01*
X59115244Y-95006994D01*
X59291310Y-95352543D01*
X59502531Y-95677793D01*
X59711095Y-95935350D01*
X59711096Y-95935350D01*
X60608757Y-95037688D01*
X60567449Y-95099511D01*
X60548046Y-95197056D01*
X60567449Y-95294601D01*
X60622704Y-95377296D01*
X60705399Y-95432551D01*
X60778320Y-95447056D01*
X60827568Y-95447056D01*
X60900489Y-95432551D01*
X60962303Y-95391247D01*
X60064648Y-96288903D01*
X60064649Y-96288904D01*
X60322206Y-96497468D01*
X60647456Y-96708689D01*
X60993005Y-96884755D01*
X61355063Y-97023737D01*
X61729669Y-97124112D01*
X61729676Y-97124113D01*
X62112712Y-97184780D01*
X62499999Y-97205078D01*
X62500001Y-97205078D01*
X62887287Y-97184780D01*
X63270323Y-97124113D01*
X63270330Y-97124112D01*
X63644936Y-97023737D01*
X64006994Y-96884755D01*
X64352543Y-96708689D01*
X64677783Y-96497476D01*
X64677785Y-96497475D01*
X64935349Y-96288902D01*
X64037690Y-95391243D01*
X64099511Y-95432551D01*
X64172432Y-95447056D01*
X64221680Y-95447056D01*
X64294601Y-95432551D01*
X64377296Y-95377296D01*
X64432551Y-95294601D01*
X64451954Y-95197056D01*
X64432551Y-95099511D01*
X64391244Y-95037691D01*
X65288902Y-95935349D01*
X65497475Y-95677785D01*
X65497476Y-95677783D01*
X65708689Y-95352543D01*
X65884755Y-95006994D01*
X66023737Y-94644936D01*
X66124112Y-94270330D01*
X66124113Y-94270323D01*
X66184780Y-93887287D01*
X66205078Y-93500000D01*
X66205078Y-93499999D01*
X66184780Y-93112712D01*
X66124113Y-92729676D01*
X66124112Y-92729669D01*
X66023737Y-92355063D01*
X65884755Y-91993005D01*
X65708689Y-91647456D01*
X65497476Y-91322216D01*
X65497474Y-91322214D01*
X65387663Y-91186608D01*
X65360771Y-91122120D01*
X65373013Y-91053331D01*
X65420502Y-91002081D01*
X65488160Y-90984641D01*
X65554506Y-91006548D01*
X65571710Y-91020891D01*
X66638381Y-92087562D01*
X66671866Y-92148885D01*
X66674700Y-92175242D01*
X66674700Y-92949476D01*
X66677405Y-92972000D01*
X66685415Y-93038709D01*
X66691524Y-93054200D01*
X66741192Y-93180150D01*
X66741417Y-93180719D01*
X66833651Y-93302348D01*
X66898094Y-93351216D01*
X66939617Y-93407408D01*
X66944169Y-93477129D01*
X66910305Y-93538244D01*
X66898095Y-93548823D01*
X66808652Y-93616650D01*
X66716417Y-93738280D01*
X66660415Y-93880290D01*
X66649699Y-93969530D01*
X66649699Y-95006469D01*
X66660415Y-95095709D01*
X66671897Y-95124826D01*
X66694397Y-95181882D01*
X66716417Y-95237719D01*
X66808651Y-95359348D01*
X66924312Y-95447056D01*
X66930283Y-95451584D01*
X67072289Y-95507584D01*
X67161524Y-95518300D01*
X67161530Y-95518300D01*
X67923470Y-95518300D01*
X67923476Y-95518300D01*
X68012711Y-95507584D01*
X68154717Y-95451584D01*
X68276348Y-95359348D01*
X68303505Y-95323536D01*
X68373709Y-95230959D01*
X68376566Y-95233126D01*
X68414471Y-95196013D01*
X68482897Y-95181882D01*
X68548100Y-95206988D01*
X68589379Y-95263360D01*
X68590453Y-95266461D01*
X68595642Y-95282121D01*
X68595643Y-95282124D01*
X68687684Y-95431345D01*
X68811654Y-95555315D01*
X68960875Y-95647356D01*
X68960880Y-95647358D01*
X69127302Y-95702505D01*
X69127309Y-95702506D01*
X69230019Y-95712999D01*
X69367499Y-95712999D01*
X69367500Y-95712998D01*
X69367500Y-94738000D01*
X69867500Y-94738000D01*
X69867500Y-95712999D01*
X70004972Y-95712999D01*
X70004986Y-95712998D01*
X70107697Y-95702505D01*
X70274119Y-95647358D01*
X70274124Y-95647356D01*
X70423345Y-95555315D01*
X70547315Y-95431345D01*
X70639356Y-95282124D01*
X70639358Y-95282119D01*
X70694505Y-95115697D01*
X70694506Y-95115690D01*
X70704999Y-95012986D01*
X70705000Y-95012973D01*
X70705000Y-94738000D01*
X69867500Y-94738000D01*
X69367500Y-94738000D01*
X69367500Y-93988800D01*
X69387185Y-93921761D01*
X69439989Y-93876006D01*
X69491500Y-93864800D01*
X69743500Y-93864800D01*
X69810539Y-93884485D01*
X69856294Y-93937289D01*
X69867500Y-93988800D01*
X69867500Y-94238000D01*
X70704999Y-94238000D01*
X70704999Y-93988800D01*
X70724684Y-93921761D01*
X70777488Y-93876006D01*
X70828999Y-93864800D01*
X71396057Y-93864800D01*
X71463096Y-93884485D01*
X71483738Y-93901119D01*
X74371118Y-96788499D01*
X74461901Y-96879282D01*
X74474570Y-96885737D01*
X74481980Y-96889513D01*
X74498568Y-96899678D01*
X74516804Y-96912927D01*
X74538234Y-96919890D01*
X74556212Y-96927336D01*
X74576294Y-96937568D01*
X74598553Y-96941092D01*
X74617468Y-96945633D01*
X74638907Y-96952600D01*
X74638909Y-96952600D01*
X111796892Y-96952600D01*
X111796893Y-96952600D01*
X111818328Y-96945634D01*
X111837247Y-96941092D01*
X111859506Y-96937568D01*
X111879592Y-96927333D01*
X111897551Y-96919894D01*
X111918996Y-96912927D01*
X111918996Y-96912926D01*
X111918998Y-96912926D01*
X111925269Y-96908368D01*
X111937231Y-96899678D01*
X111953815Y-96889514D01*
X111973899Y-96879282D01*
X112064682Y-96788499D01*
X112064681Y-96788498D01*
X112100992Y-96752188D01*
X112101001Y-96752178D01*
X114189562Y-94663618D01*
X114250885Y-94630133D01*
X114277243Y-94627299D01*
X115703572Y-94627299D01*
X115703578Y-94627299D01*
X115729109Y-94624338D01*
X115833525Y-94578234D01*
X115914234Y-94497525D01*
X115960338Y-94393109D01*
X115963300Y-94367579D01*
X115963300Y-93624000D01*
X115982985Y-93556961D01*
X116035789Y-93511206D01*
X116087300Y-93500000D01*
X117677251Y-93500000D01*
X117744290Y-93519685D01*
X117790045Y-93572489D01*
X117801081Y-93617510D01*
X117815219Y-93887287D01*
X117875886Y-94270323D01*
X117875887Y-94270330D01*
X117976262Y-94644936D01*
X118115244Y-95006994D01*
X118291310Y-95352543D01*
X118502531Y-95677793D01*
X118711095Y-95935350D01*
X118711096Y-95935350D01*
X119608756Y-95037689D01*
X119567449Y-95099511D01*
X119548046Y-95197056D01*
X119567449Y-95294601D01*
X119622704Y-95377296D01*
X119705399Y-95432551D01*
X119778320Y-95447056D01*
X119827568Y-95447056D01*
X119900489Y-95432551D01*
X119962304Y-95391247D01*
X119064648Y-96288903D01*
X119064649Y-96288904D01*
X119322206Y-96497468D01*
X119647456Y-96708689D01*
X119993005Y-96884755D01*
X120355063Y-97023737D01*
X120729669Y-97124112D01*
X120729676Y-97124113D01*
X121112712Y-97184780D01*
X121499999Y-97205078D01*
X121500001Y-97205078D01*
X121887287Y-97184780D01*
X122270323Y-97124113D01*
X122270330Y-97124112D01*
X122644936Y-97023737D01*
X123006994Y-96884755D01*
X123352543Y-96708689D01*
X123677783Y-96497476D01*
X123677785Y-96497475D01*
X123935349Y-96288902D01*
X123037691Y-95391244D01*
X123099511Y-95432551D01*
X123172432Y-95447056D01*
X123221680Y-95447056D01*
X123294601Y-95432551D01*
X123377296Y-95377296D01*
X123432551Y-95294601D01*
X123451954Y-95197056D01*
X123432551Y-95099511D01*
X123391244Y-95037691D01*
X124288902Y-95935349D01*
X124497475Y-95677785D01*
X124497476Y-95677783D01*
X124708689Y-95352543D01*
X124884755Y-95006994D01*
X125023737Y-94644936D01*
X125124112Y-94270330D01*
X125124113Y-94270323D01*
X125184780Y-93887287D01*
X125198919Y-93617510D01*
X125222085Y-93551593D01*
X125277211Y-93508664D01*
X125322749Y-93500000D01*
X125875499Y-93500000D01*
X125942538Y-93519685D01*
X125988293Y-93572489D01*
X125999499Y-93624000D01*
X125999499Y-94168732D01*
X125999244Y-94174345D01*
X125985260Y-94328241D01*
X125963749Y-94556897D01*
X125962950Y-94562565D01*
X125938729Y-94691213D01*
X125928659Y-94744700D01*
X125928521Y-94745431D01*
X125888996Y-94944851D01*
X125887736Y-94950029D01*
X125834506Y-95134037D01*
X125776400Y-95323536D01*
X125774767Y-95328192D01*
X125703371Y-95508462D01*
X125627069Y-95689243D01*
X125625152Y-95693358D01*
X125536289Y-95867177D01*
X125442442Y-96038456D01*
X125440330Y-96042022D01*
X125334845Y-96207287D01*
X125224320Y-96367768D01*
X125222101Y-96370790D01*
X125100987Y-96525694D01*
X124974806Y-96673998D01*
X124972563Y-96676493D01*
X124837997Y-96818335D01*
X124835909Y-96820433D01*
X124696305Y-96954177D01*
X124694119Y-96956174D01*
X124546663Y-97084519D01*
X124544074Y-97086652D01*
X124390474Y-97206382D01*
X124230537Y-97320736D01*
X124227422Y-97322823D01*
X124062348Y-97426373D01*
X123892718Y-97524675D01*
X123889065Y-97526632D01*
X123713936Y-97613048D01*
X123536445Y-97694390D01*
X123532252Y-97696129D01*
X123348390Y-97764606D01*
X123165209Y-97828217D01*
X123160487Y-97829648D01*
X122968693Y-97879575D01*
X122782551Y-97924878D01*
X122777323Y-97925915D01*
X122765914Y-97927672D01*
X122576382Y-97956858D01*
X122392231Y-97983418D01*
X122386534Y-97983972D01*
X122156932Y-97995677D01*
X122067939Y-97999929D01*
X122064979Y-98000000D01*
X70161477Y-98000000D01*
X62001437Y-97999500D01*
X61998577Y-97999434D01*
X61827238Y-97991512D01*
X61627459Y-97981697D01*
X61621933Y-97981177D01*
X61436689Y-97955337D01*
X61250189Y-97927672D01*
X61245090Y-97926696D01*
X61060654Y-97883317D01*
X60879812Y-97838018D01*
X60875173Y-97836662D01*
X60694459Y-97776093D01*
X60519685Y-97713558D01*
X60515527Y-97711899D01*
X60340547Y-97634638D01*
X60173034Y-97555410D01*
X60169371Y-97553527D01*
X60117572Y-97524675D01*
X60070865Y-97498659D01*
X60001857Y-97460221D01*
X59843044Y-97365032D01*
X59839879Y-97363002D01*
X59730371Y-97287989D01*
X59681392Y-97254437D01*
X59532632Y-97144109D01*
X59529989Y-97142034D01*
X59381980Y-97019129D01*
X59312520Y-96956174D01*
X59244680Y-96894687D01*
X59242484Y-96892596D01*
X59107402Y-96757514D01*
X59105314Y-96755321D01*
X58980876Y-96618027D01*
X58857957Y-96470001D01*
X58855897Y-96467377D01*
X58745559Y-96318603D01*
X58636996Y-96160119D01*
X58634966Y-96156954D01*
X58624304Y-96139166D01*
X58539778Y-95998142D01*
X58446457Y-95830601D01*
X58444588Y-95826964D01*
X58412535Y-95759194D01*
X58365370Y-95659474D01*
X58288100Y-95484471D01*
X58286450Y-95480339D01*
X58223916Y-95305568D01*
X58163327Y-95124797D01*
X58161989Y-95120221D01*
X58116675Y-94939315D01*
X58111402Y-94916895D01*
X58073294Y-94754871D01*
X58072329Y-94749828D01*
X58044668Y-94563357D01*
X58018819Y-94378048D01*
X58018302Y-94372549D01*
X58008495Y-94172950D01*
X58001959Y-94031560D01*
X58000566Y-94001423D01*
X58000500Y-93998560D01*
X58000500Y-79680003D01*
X58814604Y-79680003D01*
X58834920Y-79860324D01*
X58834921Y-79860329D01*
X58894859Y-80031622D01*
X58894861Y-80031625D01*
X58991402Y-80185268D01*
X58991407Y-80185274D01*
X59119725Y-80313592D01*
X59119731Y-80313597D01*
X59273374Y-80410138D01*
X59273377Y-80410140D01*
X59273381Y-80410141D01*
X59273382Y-80410142D01*
X59440083Y-80468473D01*
X59444670Y-80470078D01*
X59444675Y-80470079D01*
X59534799Y-80480233D01*
X59579765Y-80485299D01*
X59579768Y-80485300D01*
X59579771Y-80485300D01*
X60270232Y-80485300D01*
X60270233Y-80485299D01*
X60339058Y-80477545D01*
X60405324Y-80470079D01*
X60405327Y-80470078D01*
X60405330Y-80470078D01*
X60576618Y-80410142D01*
X60576620Y-80410140D01*
X60576622Y-80410140D01*
X60576625Y-80410138D01*
X60730268Y-80313597D01*
X60730269Y-80313596D01*
X60730274Y-80313593D01*
X60858593Y-80185274D01*
X60864877Y-80175273D01*
X60955138Y-80031625D01*
X60955140Y-80031622D01*
X60955140Y-80031620D01*
X60955142Y-80031618D01*
X61015078Y-79860330D01*
X61028383Y-79742245D01*
X61035396Y-79680003D01*
X62744604Y-79680003D01*
X62764920Y-79860324D01*
X62764921Y-79860329D01*
X62824859Y-80031622D01*
X62824861Y-80031625D01*
X62921402Y-80185268D01*
X62921407Y-80185274D01*
X63049725Y-80313592D01*
X63049731Y-80313597D01*
X63203374Y-80410138D01*
X63203377Y-80410140D01*
X63203381Y-80410141D01*
X63203382Y-80410142D01*
X63370083Y-80468473D01*
X63374670Y-80470078D01*
X63374675Y-80470079D01*
X63464799Y-80480233D01*
X63509765Y-80485299D01*
X63509768Y-80485300D01*
X63509771Y-80485300D01*
X64700232Y-80485300D01*
X64700233Y-80485299D01*
X64769058Y-80477545D01*
X64835324Y-80470079D01*
X64835327Y-80470078D01*
X64835330Y-80470078D01*
X65006618Y-80410142D01*
X65006620Y-80410140D01*
X65006622Y-80410140D01*
X65006625Y-80410138D01*
X65160268Y-80313597D01*
X65160269Y-80313596D01*
X65160274Y-80313593D01*
X65288593Y-80185274D01*
X65294877Y-80175273D01*
X65385138Y-80031625D01*
X65385140Y-80031622D01*
X65385140Y-80031620D01*
X65385142Y-80031618D01*
X65445078Y-79860330D01*
X65458383Y-79742245D01*
X65465396Y-79680003D01*
X65465396Y-79679996D01*
X65445079Y-79499675D01*
X65445078Y-79499670D01*
X65403518Y-79380897D01*
X65385142Y-79328382D01*
X65385141Y-79328381D01*
X65385140Y-79328377D01*
X65385138Y-79328374D01*
X65288597Y-79174731D01*
X65288592Y-79174725D01*
X65160274Y-79046407D01*
X65160268Y-79046402D01*
X65006625Y-78949861D01*
X65006622Y-78949859D01*
X64835329Y-78889921D01*
X64835324Y-78889920D01*
X64700235Y-78874700D01*
X64700229Y-78874700D01*
X63509771Y-78874700D01*
X63509764Y-78874700D01*
X63374675Y-78889920D01*
X63374670Y-78889921D01*
X63203377Y-78949859D01*
X63203374Y-78949861D01*
X63049731Y-79046402D01*
X63049725Y-79046407D01*
X62921407Y-79174725D01*
X62921402Y-79174731D01*
X62824861Y-79328374D01*
X62824859Y-79328377D01*
X62764921Y-79499670D01*
X62764920Y-79499675D01*
X62744604Y-79679996D01*
X62744604Y-79680003D01*
X61035396Y-79680003D01*
X61035396Y-79679996D01*
X61015079Y-79499675D01*
X61015078Y-79499670D01*
X60973518Y-79380897D01*
X60955142Y-79328382D01*
X60955141Y-79328381D01*
X60955140Y-79328377D01*
X60955138Y-79328374D01*
X60858597Y-79174731D01*
X60858592Y-79174725D01*
X60730274Y-79046407D01*
X60730268Y-79046402D01*
X60576625Y-78949861D01*
X60576622Y-78949859D01*
X60405329Y-78889921D01*
X60405324Y-78889920D01*
X60270235Y-78874700D01*
X60270229Y-78874700D01*
X59579771Y-78874700D01*
X59579764Y-78874700D01*
X59444675Y-78889920D01*
X59444670Y-78889921D01*
X59273377Y-78949859D01*
X59273374Y-78949861D01*
X59119731Y-79046402D01*
X59119725Y-79046407D01*
X58991407Y-79174725D01*
X58991402Y-79174731D01*
X58894861Y-79328374D01*
X58894859Y-79328377D01*
X58834921Y-79499670D01*
X58834920Y-79499675D01*
X58814604Y-79679996D01*
X58814604Y-79680003D01*
X58000500Y-79680003D01*
X58000500Y-44001439D01*
X58000566Y-43998576D01*
X58008487Y-43827238D01*
X58008488Y-43827229D01*
X58008490Y-43827168D01*
X58018302Y-43627446D01*
X58018818Y-43621955D01*
X58044670Y-43436633D01*
X58072331Y-43250162D01*
X58073292Y-43245137D01*
X58116689Y-43060626D01*
X58161993Y-42879764D01*
X58163323Y-42875216D01*
X58223915Y-42694431D01*
X58286457Y-42519641D01*
X58288100Y-42515527D01*
X58365368Y-42340530D01*
X58444615Y-42172977D01*
X58446444Y-42169423D01*
X58539781Y-42001852D01*
X58634990Y-41843005D01*
X58636979Y-41839904D01*
X58745570Y-41681381D01*
X58855924Y-41532586D01*
X58857928Y-41530033D01*
X58980875Y-41381973D01*
X59105351Y-41244636D01*
X59107361Y-41242526D01*
X59242526Y-41107361D01*
X59244636Y-41105351D01*
X59381973Y-40980875D01*
X59530033Y-40857928D01*
X59532586Y-40855924D01*
X59681381Y-40745570D01*
X59839904Y-40636979D01*
X59843005Y-40634990D01*
X60001858Y-40539778D01*
X60169423Y-40446444D01*
X60172977Y-40444615D01*
X60340530Y-40365368D01*
X60515538Y-40288095D01*
X60519641Y-40286457D01*
X60694431Y-40223915D01*
X60875216Y-40163323D01*
X60879764Y-40161993D01*
X61060626Y-40116689D01*
X61245137Y-40073292D01*
X61250162Y-40072331D01*
X61436651Y-40044667D01*
X61621955Y-40018818D01*
X61627446Y-40018302D01*
X61826958Y-40008500D01*
X61968945Y-40001935D01*
X61998577Y-40000566D01*
X62001440Y-40000500D01*
X121998560Y-40000500D01*
X122001423Y-40000566D01*
G37*
%TD.AperFunction*%
%TA.AperFunction,Conductor*%
G36*
X73735177Y-86113685D02*
G01*
X73755819Y-86130319D01*
X73757000Y-86131500D01*
X76834000Y-86131500D01*
X76901039Y-86151185D01*
X76946794Y-86203989D01*
X76958000Y-86255500D01*
X76958000Y-87468999D01*
X77232972Y-87468999D01*
X77232986Y-87468998D01*
X77335697Y-87458505D01*
X77502119Y-87403358D01*
X77502124Y-87403356D01*
X77651345Y-87311315D01*
X77775315Y-87187345D01*
X77867356Y-87038124D01*
X77867358Y-87038119D01*
X77922505Y-86871697D01*
X77922506Y-86871690D01*
X77932999Y-86768986D01*
X77932999Y-86545464D01*
X77952683Y-86478424D01*
X78005487Y-86432669D01*
X78074645Y-86422725D01*
X78138201Y-86451750D01*
X78144680Y-86457782D01*
X80660357Y-88973459D01*
X80676990Y-88994098D01*
X80679692Y-88998303D01*
X80679695Y-88998306D01*
X80719292Y-89032617D01*
X80722519Y-89035621D01*
X80733749Y-89046851D01*
X80733751Y-89046853D01*
X80733758Y-89046859D01*
X80746467Y-89056373D01*
X80749903Y-89059142D01*
X80788028Y-89092177D01*
X80796209Y-89099266D01*
X80794092Y-89101708D01*
X80829480Y-89142524D01*
X80840700Y-89194067D01*
X80840700Y-89588879D01*
X80821015Y-89655918D01*
X80816471Y-89662512D01*
X80788914Y-89699850D01*
X80743584Y-89829396D01*
X80743583Y-89829399D01*
X80740700Y-89860149D01*
X80740700Y-90138700D01*
X80721015Y-90205739D01*
X80668211Y-90251494D01*
X80616700Y-90262700D01*
X79849299Y-90262700D01*
X79782260Y-90243015D01*
X79736505Y-90190211D01*
X79725299Y-90138700D01*
X79725299Y-89572428D01*
X79725299Y-89572422D01*
X79722338Y-89546891D01*
X79676234Y-89442475D01*
X79595525Y-89361766D01*
X79562532Y-89347198D01*
X79491110Y-89315662D01*
X79465579Y-89312700D01*
X78474428Y-89312700D01*
X78474405Y-89312702D01*
X78448893Y-89315661D01*
X78448890Y-89315662D01*
X78344475Y-89361765D01*
X78263766Y-89442474D01*
X78217662Y-89546888D01*
X78217662Y-89546890D01*
X78214700Y-89572419D01*
X78214700Y-91963571D01*
X78214702Y-91963594D01*
X78217661Y-91989106D01*
X78217662Y-91989109D01*
X78263765Y-92093524D01*
X78263766Y-92093525D01*
X78344475Y-92174234D01*
X78448891Y-92220338D01*
X78474421Y-92223300D01*
X79465578Y-92223299D01*
X79491109Y-92220338D01*
X79595525Y-92174234D01*
X79676234Y-92093525D01*
X79722338Y-91989109D01*
X79725300Y-91963579D01*
X79725300Y-91397300D01*
X79744985Y-91330261D01*
X79797789Y-91284506D01*
X79849300Y-91273300D01*
X80702810Y-91273300D01*
X80769849Y-91292985D01*
X80802580Y-91323666D01*
X80870417Y-91415582D01*
X80980847Y-91497084D01*
X80980849Y-91497085D01*
X81110398Y-91542416D01*
X81116549Y-91542992D01*
X81141150Y-91545300D01*
X81141154Y-91545300D01*
X81550842Y-91545300D01*
X81550846Y-91545300D01*
X81563518Y-91544111D01*
X81632100Y-91557448D01*
X81682588Y-91605747D01*
X81698948Y-91673674D01*
X81694421Y-91696856D01*
X81695194Y-91697025D01*
X81693583Y-91704399D01*
X81690700Y-91735149D01*
X81690700Y-93019850D01*
X81693583Y-93050600D01*
X81693584Y-93050603D01*
X81738914Y-93180150D01*
X81738915Y-93180152D01*
X81820417Y-93290582D01*
X81930847Y-93372084D01*
X81930849Y-93372085D01*
X82060398Y-93417416D01*
X82066549Y-93417992D01*
X82091150Y-93420300D01*
X82091154Y-93420300D01*
X82500850Y-93420300D01*
X82521350Y-93418377D01*
X82531602Y-93417416D01*
X82661151Y-93372085D01*
X82771582Y-93290582D01*
X82853085Y-93180151D01*
X82898416Y-93050602D01*
X82899531Y-93038709D01*
X82901300Y-93019850D01*
X82901300Y-93006800D01*
X82920985Y-92939761D01*
X82973789Y-92894006D01*
X83025300Y-92882800D01*
X83101447Y-92882800D01*
X83127804Y-92885634D01*
X83130379Y-92886194D01*
X83132682Y-92886695D01*
X83184937Y-92882957D01*
X83189358Y-92882800D01*
X83205236Y-92882800D01*
X83205238Y-92882800D01*
X83220984Y-92880535D01*
X83225325Y-92880068D01*
X83258269Y-92877713D01*
X83277608Y-92876331D01*
X83277610Y-92876330D01*
X83277614Y-92876330D01*
X83282296Y-92874583D01*
X83307984Y-92868026D01*
X83312923Y-92867317D01*
X83360595Y-92845544D01*
X83364643Y-92843867D01*
X83413755Y-92825551D01*
X83417747Y-92822561D01*
X83440553Y-92809030D01*
X83445095Y-92806957D01*
X83484716Y-92772624D01*
X83488130Y-92769873D01*
X83500848Y-92760354D01*
X83512084Y-92749116D01*
X83515288Y-92746132D01*
X83554907Y-92711804D01*
X83557606Y-92707603D01*
X83574237Y-92686963D01*
X83989320Y-92271881D01*
X84050642Y-92238397D01*
X84120334Y-92243381D01*
X84176267Y-92285253D01*
X84200684Y-92350717D01*
X84201000Y-92359563D01*
X84201000Y-95250000D01*
X94996000Y-95250000D01*
X95003877Y-94997905D01*
X95025646Y-94931516D01*
X95079853Y-94887433D01*
X95149289Y-94879654D01*
X95211907Y-94910650D01*
X95215498Y-94914100D01*
X95860857Y-95559459D01*
X95877490Y-95580098D01*
X95880192Y-95584303D01*
X95880195Y-95584306D01*
X95919792Y-95618617D01*
X95923019Y-95621621D01*
X95934249Y-95632851D01*
X95934251Y-95632853D01*
X95934258Y-95632859D01*
X95946967Y-95642373D01*
X95950403Y-95645142D01*
X95988073Y-95677783D01*
X95990005Y-95679457D01*
X95994547Y-95681531D01*
X96017349Y-95695058D01*
X96021346Y-95698051D01*
X96061420Y-95712998D01*
X96070434Y-95716360D01*
X96074525Y-95718055D01*
X96122177Y-95739817D01*
X96127102Y-95740525D01*
X96127109Y-95740526D01*
X96152803Y-95747084D01*
X96157482Y-95748829D01*
X96157483Y-95748829D01*
X96157486Y-95748830D01*
X96209756Y-95752568D01*
X96214135Y-95753038D01*
X96229862Y-95755300D01*
X96245732Y-95755300D01*
X96250153Y-95755457D01*
X96302418Y-95759196D01*
X96307299Y-95758134D01*
X96333658Y-95755300D01*
X99449762Y-95755300D01*
X110422347Y-95755300D01*
X110448704Y-95758134D01*
X110451279Y-95758694D01*
X110453582Y-95759195D01*
X110505837Y-95755457D01*
X110510258Y-95755300D01*
X110526136Y-95755300D01*
X110526138Y-95755300D01*
X110541884Y-95753035D01*
X110546225Y-95752568D01*
X110579169Y-95750213D01*
X110598508Y-95748831D01*
X110598510Y-95748830D01*
X110598514Y-95748830D01*
X110603196Y-95747083D01*
X110628884Y-95740526D01*
X110633823Y-95739817D01*
X110681495Y-95718044D01*
X110685543Y-95716367D01*
X110734655Y-95698051D01*
X110738647Y-95695061D01*
X110761453Y-95681530D01*
X110765995Y-95679457D01*
X110805616Y-95645124D01*
X110809030Y-95642373D01*
X110821748Y-95632854D01*
X110832984Y-95621616D01*
X110836188Y-95618632D01*
X110875807Y-95584304D01*
X110878506Y-95580103D01*
X110895137Y-95559463D01*
X111833689Y-94620911D01*
X111895010Y-94587428D01*
X111944457Y-94588994D01*
X111944848Y-94586903D01*
X111950479Y-94587955D01*
X111950483Y-94587957D01*
X112160946Y-94627300D01*
X112160948Y-94627300D01*
X112375052Y-94627300D01*
X112375054Y-94627300D01*
X112585517Y-94587957D01*
X112785167Y-94510612D01*
X112955777Y-94404974D01*
X113023135Y-94386420D01*
X113089834Y-94407228D01*
X113134696Y-94460794D01*
X113143476Y-94530109D01*
X113113388Y-94593169D01*
X113108733Y-94598084D01*
X111601138Y-96105681D01*
X111539815Y-96139166D01*
X111513457Y-96142000D01*
X74922343Y-96142000D01*
X74855304Y-96122315D01*
X74834662Y-96105681D01*
X73427251Y-94698270D01*
X73393766Y-94636947D01*
X73398750Y-94567255D01*
X73440622Y-94511322D01*
X73494523Y-94488280D01*
X73669492Y-94459083D01*
X73904603Y-94378369D01*
X73904614Y-94378364D01*
X74123228Y-94260057D01*
X74123231Y-94260055D01*
X74170056Y-94223609D01*
X73441365Y-93494918D01*
X73445161Y-93494373D01*
X73578562Y-93433451D01*
X73689395Y-93337413D01*
X73768682Y-93214040D01*
X73791132Y-93137580D01*
X74523434Y-93869882D01*
X74623731Y-93716369D01*
X74723587Y-93488717D01*
X74784612Y-93247738D01*
X74784614Y-93247729D01*
X74805141Y-93000005D01*
X74805141Y-92999994D01*
X74784614Y-92752270D01*
X74784612Y-92752261D01*
X74723587Y-92511282D01*
X74623731Y-92283630D01*
X74523434Y-92130116D01*
X73791132Y-92862418D01*
X73768682Y-92785960D01*
X73689395Y-92662587D01*
X73578562Y-92566549D01*
X73445161Y-92505627D01*
X73441366Y-92505081D01*
X74170057Y-91776390D01*
X74170056Y-91776389D01*
X74123229Y-91739943D01*
X73904614Y-91621635D01*
X73904603Y-91621630D01*
X73669493Y-91540916D01*
X73424293Y-91500000D01*
X73175707Y-91500000D01*
X72930506Y-91540916D01*
X72695396Y-91621630D01*
X72695390Y-91621632D01*
X72476761Y-91739949D01*
X72429942Y-91776388D01*
X72429942Y-91776390D01*
X73158634Y-92505081D01*
X73154839Y-92505627D01*
X73021438Y-92566549D01*
X72910605Y-92662587D01*
X72831318Y-92785960D01*
X72808866Y-92862419D01*
X72076564Y-92130116D01*
X71976267Y-92283632D01*
X71876412Y-92511282D01*
X71815387Y-92752261D01*
X71815385Y-92752269D01*
X71799794Y-92940440D01*
X71774641Y-93005625D01*
X71718239Y-93046863D01*
X71676218Y-93054200D01*
X70804000Y-93054200D01*
X70736961Y-93034515D01*
X70691206Y-92981711D01*
X70680000Y-92930200D01*
X70680000Y-92706000D01*
X69830000Y-92706000D01*
X69830000Y-92930200D01*
X69810315Y-92997239D01*
X69757511Y-93042994D01*
X69706000Y-93054200D01*
X69454000Y-93054200D01*
X69386961Y-93034515D01*
X69341206Y-92981711D01*
X69330000Y-92930200D01*
X69330000Y-92330000D01*
X69349685Y-92262961D01*
X69402489Y-92217206D01*
X69454000Y-92206000D01*
X70679999Y-92206000D01*
X70679999Y-91956028D01*
X70679998Y-91956013D01*
X70669505Y-91853302D01*
X70614358Y-91686880D01*
X70614356Y-91686875D01*
X70522315Y-91537654D01*
X70397035Y-91412374D01*
X70363550Y-91351051D01*
X70368534Y-91281359D01*
X70385913Y-91249767D01*
X70396312Y-91236054D01*
X70443584Y-91173717D01*
X70499584Y-91031711D01*
X70510300Y-90942476D01*
X70510300Y-90549687D01*
X70529985Y-90482649D01*
X70582789Y-90436894D01*
X70651947Y-90426950D01*
X70677628Y-90433504D01*
X70701761Y-90442506D01*
X70713436Y-90446861D01*
X70717516Y-90448550D01*
X70765177Y-90470317D01*
X70770114Y-90471026D01*
X70770109Y-90471026D01*
X70795803Y-90477584D01*
X70800482Y-90479329D01*
X70800483Y-90479329D01*
X70800486Y-90479330D01*
X70852756Y-90483068D01*
X70857135Y-90483538D01*
X70872862Y-90485800D01*
X70888732Y-90485800D01*
X70893153Y-90485957D01*
X70945418Y-90489696D01*
X70950299Y-90488634D01*
X70976658Y-90485800D01*
X73747534Y-90485800D01*
X73814573Y-90505485D01*
X73829761Y-90516985D01*
X73884199Y-90565213D01*
X73884201Y-90565214D01*
X74035860Y-90644810D01*
X74119010Y-90665305D01*
X74202160Y-90685800D01*
X74202161Y-90685800D01*
X74227136Y-90685800D01*
X74294175Y-90705485D01*
X74314817Y-90722119D01*
X74670157Y-91077459D01*
X74686790Y-91098098D01*
X74689492Y-91102303D01*
X74689495Y-91102306D01*
X74729092Y-91136617D01*
X74732319Y-91139621D01*
X74743550Y-91150852D01*
X74743561Y-91150862D01*
X74756259Y-91160368D01*
X74759704Y-91163144D01*
X74790399Y-91189740D01*
X74799305Y-91197457D01*
X74803851Y-91199533D01*
X74826655Y-91213064D01*
X74830645Y-91216051D01*
X74879732Y-91234359D01*
X74883823Y-91236054D01*
X74913850Y-91249767D01*
X74931477Y-91257817D01*
X74936413Y-91258526D01*
X74962103Y-91265084D01*
X74966782Y-91266829D01*
X74966784Y-91266829D01*
X74966786Y-91266830D01*
X75009729Y-91269900D01*
X75019046Y-91270567D01*
X75023453Y-91271041D01*
X75039161Y-91273300D01*
X75039162Y-91273300D01*
X75055041Y-91273300D01*
X75059464Y-91273458D01*
X75099546Y-91276324D01*
X75165010Y-91300739D01*
X75206882Y-91356672D01*
X75214701Y-91400008D01*
X75214701Y-91963571D01*
X75214702Y-91963594D01*
X75217661Y-91989106D01*
X75217662Y-91989109D01*
X75263765Y-92093524D01*
X75263766Y-92093525D01*
X75344475Y-92174234D01*
X75448891Y-92220338D01*
X75474421Y-92223300D01*
X76465578Y-92223299D01*
X76491109Y-92220338D01*
X76595525Y-92174234D01*
X76676234Y-92093525D01*
X76722338Y-91989109D01*
X76725300Y-91963579D01*
X76725299Y-89572422D01*
X76722338Y-89546891D01*
X76676234Y-89442475D01*
X76595525Y-89361766D01*
X76562532Y-89347198D01*
X76491110Y-89315662D01*
X76465579Y-89312700D01*
X75474428Y-89312700D01*
X75474405Y-89312702D01*
X75448893Y-89315661D01*
X75448890Y-89315662D01*
X75344475Y-89361765D01*
X75263766Y-89442474D01*
X75217662Y-89546888D01*
X75217662Y-89546890D01*
X75214700Y-89572419D01*
X75214700Y-89758913D01*
X75195015Y-89825952D01*
X75142211Y-89871707D01*
X75073053Y-89881651D01*
X75009497Y-89852626D01*
X74974758Y-89802884D01*
X74945899Y-89726790D01*
X74916899Y-89650323D01*
X74911844Y-89643000D01*
X74862424Y-89571403D01*
X74819602Y-89509365D01*
X74691399Y-89395786D01*
X74539740Y-89316190D01*
X74539739Y-89316189D01*
X74539738Y-89316189D01*
X74373440Y-89275200D01*
X74373439Y-89275200D01*
X74202161Y-89275200D01*
X74202160Y-89275200D01*
X74035861Y-89316189D01*
X73884199Y-89395786D01*
X73829761Y-89444015D01*
X73766528Y-89473737D01*
X73747534Y-89475200D01*
X71169664Y-89475200D01*
X71102625Y-89455515D01*
X71081983Y-89438881D01*
X71026619Y-89383517D01*
X70993134Y-89322194D01*
X70990300Y-89295836D01*
X70990300Y-87353505D01*
X71009985Y-87286466D01*
X71062789Y-87240711D01*
X71068790Y-87238158D01*
X71209717Y-87182584D01*
X71289961Y-87121732D01*
X71355272Y-87096910D01*
X71423636Y-87111338D01*
X71470424Y-87155440D01*
X71474680Y-87162340D01*
X71474683Y-87162344D01*
X71598654Y-87286315D01*
X71747875Y-87378356D01*
X71747880Y-87378358D01*
X71914302Y-87433505D01*
X71914309Y-87433506D01*
X72017019Y-87443999D01*
X72266999Y-87443999D01*
X72267000Y-87443998D01*
X72267000Y-86594000D01*
X72767000Y-86594000D01*
X72767000Y-87443999D01*
X73016972Y-87443999D01*
X73016986Y-87443998D01*
X73119697Y-87433505D01*
X73286119Y-87378358D01*
X73286124Y-87378356D01*
X73441491Y-87282525D01*
X73443219Y-87285328D01*
X73494203Y-87264509D01*
X73562899Y-87277259D01*
X73594521Y-87300182D01*
X73605654Y-87311315D01*
X73754875Y-87403356D01*
X73754880Y-87403358D01*
X73921302Y-87458505D01*
X73921309Y-87458506D01*
X74024019Y-87468999D01*
X74298999Y-87468999D01*
X74299000Y-87468998D01*
X74299000Y-86631500D01*
X74799000Y-86631500D01*
X74799000Y-87468999D01*
X75073972Y-87468999D01*
X75073986Y-87468998D01*
X75176697Y-87458505D01*
X75343119Y-87403358D01*
X75343124Y-87403356D01*
X75492345Y-87311315D01*
X75540819Y-87262842D01*
X75602142Y-87229357D01*
X75671834Y-87234341D01*
X75716181Y-87262842D01*
X75764654Y-87311315D01*
X75913875Y-87403356D01*
X75913880Y-87403358D01*
X76080302Y-87458505D01*
X76080309Y-87458506D01*
X76183019Y-87468999D01*
X76457999Y-87468999D01*
X76458000Y-87468998D01*
X76458000Y-86631500D01*
X74799000Y-86631500D01*
X74299000Y-86631500D01*
X73372862Y-86631500D01*
X73305823Y-86611815D01*
X73285181Y-86595181D01*
X73284000Y-86594000D01*
X72767000Y-86594000D01*
X72267000Y-86594000D01*
X72267000Y-86218000D01*
X72286685Y-86150961D01*
X72339489Y-86105206D01*
X72391000Y-86094000D01*
X73668138Y-86094000D01*
X73735177Y-86113685D01*
G37*
%TD.AperFunction*%
%TA.AperFunction,Conductor*%
G36*
X64356420Y-95002867D02*
G01*
X64294601Y-94961561D01*
X64221680Y-94947056D01*
X64172432Y-94947056D01*
X64099511Y-94961561D01*
X64016816Y-95016816D01*
X63961561Y-95099511D01*
X63942158Y-95197056D01*
X63961561Y-95294601D01*
X64002868Y-95356421D01*
X63444180Y-94797733D01*
X63634870Y-94634870D01*
X63797733Y-94444180D01*
X64356420Y-95002867D01*
G37*
%TD.AperFunction*%
%TA.AperFunction,Conductor*%
G36*
X123356420Y-95002867D02*
G01*
X123294601Y-94961561D01*
X123221680Y-94947056D01*
X123172432Y-94947056D01*
X123099511Y-94961561D01*
X123016816Y-95016816D01*
X122961561Y-95099511D01*
X122942158Y-95197056D01*
X122961561Y-95294601D01*
X123002867Y-95356420D01*
X122444180Y-94797733D01*
X122634870Y-94634870D01*
X122797733Y-94444180D01*
X123356420Y-95002867D01*
G37*
%TD.AperFunction*%
%TA.AperFunction,Conductor*%
G36*
X120365130Y-94634870D02*
G01*
X120555819Y-94797733D01*
X119997135Y-95356416D01*
X120038439Y-95294601D01*
X120057842Y-95197056D01*
X120038439Y-95099511D01*
X119983184Y-95016816D01*
X119900489Y-94961561D01*
X119827568Y-94947056D01*
X119778320Y-94947056D01*
X119705399Y-94961561D01*
X119643577Y-95002868D01*
X120202266Y-94444180D01*
X120365130Y-94634870D01*
G37*
%TD.AperFunction*%
%TA.AperFunction,Conductor*%
G36*
X61365130Y-94634870D02*
G01*
X61555818Y-94797732D01*
X60997135Y-95356415D01*
X61038439Y-95294601D01*
X61057842Y-95197056D01*
X61038439Y-95099511D01*
X60983184Y-95016816D01*
X60900489Y-94961561D01*
X60827568Y-94947056D01*
X60778320Y-94947056D01*
X60705399Y-94961561D01*
X60643576Y-95002869D01*
X61202266Y-94444179D01*
X61365130Y-94634870D01*
G37*
%TD.AperFunction*%
%TA.AperFunction,Conductor*%
G36*
X61555819Y-92202266D02*
G01*
X61365130Y-92365130D01*
X61202266Y-92555818D01*
X60643582Y-91997134D01*
X60705399Y-92038439D01*
X60778320Y-92052944D01*
X60827568Y-92052944D01*
X60900489Y-92038439D01*
X60983184Y-91983184D01*
X61038439Y-91900489D01*
X61057842Y-91802944D01*
X61038439Y-91705399D01*
X60997133Y-91643581D01*
X61555819Y-92202266D01*
G37*
%TD.AperFunction*%
%TA.AperFunction,Conductor*%
G36*
X64099571Y-87020700D02*
G01*
X64143918Y-87049200D01*
X64185068Y-87090348D01*
X64189418Y-87094698D01*
X64189418Y-87094699D01*
X64280201Y-87185482D01*
X64300287Y-87195716D01*
X64316869Y-87205877D01*
X64335104Y-87219126D01*
X64356534Y-87226088D01*
X64374513Y-87233536D01*
X64394594Y-87243768D01*
X64416851Y-87247292D01*
X64435776Y-87251836D01*
X64457206Y-87258800D01*
X64489503Y-87258800D01*
X65631175Y-87258800D01*
X65698214Y-87278485D01*
X65733224Y-87312359D01*
X65741694Y-87324630D01*
X65741698Y-87324635D01*
X65869901Y-87438214D01*
X66021560Y-87517810D01*
X66049242Y-87524633D01*
X66187860Y-87558800D01*
X66187861Y-87558800D01*
X66359141Y-87558800D01*
X66359143Y-87558799D01*
X66397320Y-87549389D01*
X66497758Y-87524633D01*
X66567559Y-87527701D01*
X66624621Y-87568020D01*
X66650827Y-87632789D01*
X66637857Y-87701444D01*
X66632972Y-87710125D01*
X66556645Y-87833871D01*
X66556641Y-87833880D01*
X66501494Y-88000302D01*
X66501493Y-88000309D01*
X66491000Y-88103013D01*
X66491000Y-88253000D01*
X67817000Y-88253000D01*
X67884039Y-88272685D01*
X67929794Y-88325489D01*
X67941000Y-88377000D01*
X67941000Y-89519000D01*
X67921315Y-89586039D01*
X67868511Y-89631794D01*
X67817000Y-89643000D01*
X67792500Y-89643000D01*
X67792500Y-90550000D01*
X67772815Y-90617039D01*
X67720011Y-90662794D01*
X67668500Y-90674000D01*
X66422543Y-90674000D01*
X66355504Y-90654315D01*
X66334862Y-90637681D01*
X65898519Y-90201338D01*
X65883591Y-90174000D01*
X66455000Y-90174000D01*
X67292500Y-90174000D01*
X67292500Y-89283000D01*
X67312185Y-89215961D01*
X67364989Y-89170206D01*
X67416500Y-89159000D01*
X67441000Y-89159000D01*
X67441000Y-88753000D01*
X66491001Y-88753000D01*
X66491001Y-88902986D01*
X66501494Y-89005697D01*
X66556641Y-89172119D01*
X66556645Y-89172128D01*
X66644254Y-89314165D01*
X66662694Y-89381557D01*
X66641771Y-89448221D01*
X66626399Y-89466940D01*
X66612683Y-89480656D01*
X66520643Y-89629875D01*
X66520641Y-89629880D01*
X66465494Y-89796302D01*
X66465493Y-89796309D01*
X66455000Y-89899013D01*
X66455000Y-90174000D01*
X65883591Y-90174000D01*
X65865034Y-90140015D01*
X65862200Y-90113657D01*
X65862200Y-88361654D01*
X65863727Y-88342255D01*
X65867252Y-88320000D01*
X65867252Y-88319997D01*
X65847169Y-88193198D01*
X65847168Y-88193196D01*
X65847168Y-88193194D01*
X65788882Y-88078801D01*
X65788880Y-88078799D01*
X65788877Y-88078795D01*
X65698104Y-87988022D01*
X65698099Y-87988018D01*
X65601205Y-87938648D01*
X65601202Y-87938646D01*
X65583703Y-87929730D01*
X65456902Y-87909648D01*
X65456898Y-87909648D01*
X65438916Y-87912496D01*
X65369622Y-87903541D01*
X65316170Y-87858545D01*
X65314524Y-87855995D01*
X65300625Y-87833875D01*
X65288593Y-87814726D01*
X65160274Y-87686407D01*
X65160268Y-87686402D01*
X65006625Y-87589861D01*
X65006622Y-87589859D01*
X64835329Y-87529921D01*
X64835324Y-87529920D01*
X64700235Y-87514700D01*
X64700229Y-87514700D01*
X63509771Y-87514700D01*
X63509764Y-87514700D01*
X63374675Y-87529920D01*
X63374670Y-87529921D01*
X63203377Y-87589859D01*
X63203374Y-87589861D01*
X63049731Y-87686402D01*
X63049724Y-87686408D01*
X62958886Y-87777245D01*
X62897563Y-87810729D01*
X62827871Y-87805744D01*
X62783525Y-87777244D01*
X62429618Y-87423337D01*
X62396133Y-87362014D01*
X62393299Y-87335665D01*
X62393299Y-87237131D01*
X62412984Y-87170096D01*
X62465788Y-87124341D01*
X62534946Y-87114397D01*
X62567385Y-87123701D01*
X62639268Y-87155440D01*
X62654891Y-87162338D01*
X62680421Y-87165300D01*
X63771578Y-87165299D01*
X63797109Y-87162338D01*
X63901525Y-87116234D01*
X63968560Y-87049198D01*
X64029879Y-87015716D01*
X64099571Y-87020700D01*
G37*
%TD.AperFunction*%
%TA.AperFunction,Conductor*%
G36*
X89723177Y-48486436D02*
G01*
X89779110Y-48528308D01*
X89794404Y-48555165D01*
X89838901Y-48662589D01*
X89932076Y-48784017D01*
X89957270Y-48849186D01*
X89957700Y-48859502D01*
X89957700Y-49041895D01*
X89972732Y-49136808D01*
X89972733Y-49136811D01*
X89994080Y-49178706D01*
X90006976Y-49247375D01*
X89994081Y-49291292D01*
X89972730Y-49333196D01*
X89957700Y-49428097D01*
X89957700Y-49691895D01*
X89972732Y-49786808D01*
X89972733Y-49786811D01*
X89994080Y-49828706D01*
X90006976Y-49897375D01*
X89994081Y-49941292D01*
X89972730Y-49983196D01*
X89957700Y-50078097D01*
X89957700Y-50341895D01*
X89972732Y-50436807D01*
X89980002Y-50451074D01*
X90031018Y-50551199D01*
X90031020Y-50551201D01*
X90031022Y-50551204D01*
X90121795Y-50641977D01*
X90121799Y-50641980D01*
X90121801Y-50641982D01*
X90236194Y-50700268D01*
X90236196Y-50700268D01*
X90236198Y-50700269D01*
X90331097Y-50715299D01*
X90331103Y-50715300D01*
X91669896Y-50715299D01*
X91764806Y-50700268D01*
X91819704Y-50672295D01*
X91888373Y-50659399D01*
X91953114Y-50685675D01*
X91993371Y-50742781D01*
X92000000Y-50782780D01*
X92000000Y-69833947D01*
X91980315Y-69900986D01*
X91927511Y-69946741D01*
X91858353Y-69956685D01*
X91836997Y-69951653D01*
X91697700Y-69905495D01*
X91697690Y-69905493D01*
X91594986Y-69895000D01*
X91457500Y-69895000D01*
X91457500Y-72344999D01*
X91594972Y-72344999D01*
X91594986Y-72344998D01*
X91697695Y-72334506D01*
X91836995Y-72288346D01*
X91906824Y-72285944D01*
X91966866Y-72321675D01*
X91998059Y-72384196D01*
X92000000Y-72406052D01*
X92000000Y-72889072D01*
X91980315Y-72956111D01*
X91927511Y-73001866D01*
X91858353Y-73011810D01*
X91836996Y-73006778D01*
X91676197Y-72953494D01*
X91676190Y-72953493D01*
X91573486Y-72943000D01*
X91436000Y-72943000D01*
X91436000Y-74947319D01*
X91454666Y-74981504D01*
X91457500Y-75007862D01*
X91457500Y-77424999D01*
X91594972Y-77424999D01*
X91594986Y-77424998D01*
X91697695Y-77414506D01*
X91836995Y-77368346D01*
X91906824Y-77365944D01*
X91966866Y-77401675D01*
X91998059Y-77464196D01*
X92000000Y-77486052D01*
X91999999Y-83328976D01*
X91980314Y-83396015D01*
X91927510Y-83441770D01*
X91858352Y-83451714D01*
X91794796Y-83422689D01*
X91788318Y-83416657D01*
X91748345Y-83376684D01*
X91599124Y-83284643D01*
X91599119Y-83284641D01*
X91432697Y-83229494D01*
X91432690Y-83229493D01*
X91329986Y-83219000D01*
X91055000Y-83219000D01*
X91055000Y-84432500D01*
X91035315Y-84499539D01*
X90982511Y-84545294D01*
X90931000Y-84556500D01*
X90679000Y-84556500D01*
X90611961Y-84536815D01*
X90566206Y-84484011D01*
X90555000Y-84432500D01*
X90555000Y-83219000D01*
X90280029Y-83219000D01*
X90280012Y-83219001D01*
X90177302Y-83229494D01*
X90010880Y-83284641D01*
X90010875Y-83284643D01*
X89861654Y-83376684D01*
X89737684Y-83500654D01*
X89689414Y-83578913D01*
X89637466Y-83625637D01*
X89568503Y-83636859D01*
X89504421Y-83609016D01*
X89496194Y-83601497D01*
X89492350Y-83597653D01*
X89370719Y-83505417D01*
X89370715Y-83505415D01*
X89229809Y-83449848D01*
X89174666Y-83406942D01*
X89151473Y-83341034D01*
X89151300Y-83334494D01*
X89151300Y-77354300D01*
X89170985Y-77287261D01*
X89223789Y-77241506D01*
X89275300Y-77230300D01*
X89513470Y-77230300D01*
X89513476Y-77230300D01*
X89602711Y-77219584D01*
X89744717Y-77163584D01*
X89866348Y-77071348D01*
X89958584Y-76949717D01*
X89958583Y-76949717D01*
X89963709Y-76942959D01*
X89966566Y-76945126D01*
X90004471Y-76908013D01*
X90072897Y-76893882D01*
X90138100Y-76918988D01*
X90179379Y-76975360D01*
X90180453Y-76978461D01*
X90185642Y-76994121D01*
X90185643Y-76994124D01*
X90277684Y-77143345D01*
X90401654Y-77267315D01*
X90550875Y-77359356D01*
X90550880Y-77359358D01*
X90717302Y-77414505D01*
X90717309Y-77414506D01*
X90820019Y-77424999D01*
X90957499Y-77424999D01*
X90957500Y-77424998D01*
X90957500Y-75420679D01*
X90938833Y-75386492D01*
X90936000Y-75360137D01*
X90936000Y-72943000D01*
X90798527Y-72943000D01*
X90798512Y-72943001D01*
X90695802Y-72953494D01*
X90529380Y-73008641D01*
X90529375Y-73008643D01*
X90380154Y-73100684D01*
X90256184Y-73224654D01*
X90164143Y-73373875D01*
X90164140Y-73373882D01*
X90158952Y-73389540D01*
X90119178Y-73446984D01*
X90054662Y-73473805D01*
X89985886Y-73461489D01*
X89944645Y-73423193D01*
X89942209Y-73425041D01*
X89844848Y-73296651D01*
X89736417Y-73214426D01*
X89694894Y-73158234D01*
X89690342Y-73088512D01*
X89723657Y-73027945D01*
X89724748Y-73026854D01*
X89735986Y-73015614D01*
X89739203Y-73012620D01*
X89778807Y-72978304D01*
X89781506Y-72974103D01*
X89798137Y-72953463D01*
X90437734Y-72313866D01*
X90499055Y-72280383D01*
X90564417Y-72283843D01*
X90717302Y-72334505D01*
X90717309Y-72334506D01*
X90820019Y-72344999D01*
X90957499Y-72344999D01*
X90957500Y-72344998D01*
X90957500Y-69895000D01*
X90820027Y-69895000D01*
X90820002Y-69895002D01*
X90811897Y-69895830D01*
X90743204Y-69883059D01*
X90692321Y-69835176D01*
X90675299Y-69772472D01*
X90675299Y-57493158D01*
X90678134Y-57466792D01*
X90679195Y-57461918D01*
X90675457Y-57409661D01*
X90675300Y-57405241D01*
X90675300Y-57389361D01*
X90673041Y-57373653D01*
X90672567Y-57369246D01*
X90668830Y-57316988D01*
X90668829Y-57316982D01*
X90667084Y-57312303D01*
X90660526Y-57286613D01*
X90659817Y-57281677D01*
X90638054Y-57234023D01*
X90636359Y-57229932D01*
X90633551Y-57222404D01*
X90618051Y-57180845D01*
X90615064Y-57176855D01*
X90601531Y-57154048D01*
X90599457Y-57149505D01*
X90593762Y-57142933D01*
X90565144Y-57109904D01*
X90562368Y-57106459D01*
X90552862Y-57093761D01*
X90552852Y-57093750D01*
X90541621Y-57082519D01*
X90538617Y-57079292D01*
X90504306Y-57039695D01*
X90504303Y-57039692D01*
X90500098Y-57036990D01*
X90479459Y-57020357D01*
X87219782Y-53760680D01*
X87186297Y-53699357D01*
X87191281Y-53629665D01*
X87233153Y-53573732D01*
X87298617Y-53549315D01*
X87307463Y-53548999D01*
X87530972Y-53548999D01*
X87530986Y-53548998D01*
X87633697Y-53538505D01*
X87800119Y-53483358D01*
X87800124Y-53483356D01*
X87949345Y-53391315D01*
X88073315Y-53267345D01*
X88165356Y-53118124D01*
X88165358Y-53118119D01*
X88220505Y-52951697D01*
X88220506Y-52951690D01*
X88230999Y-52848986D01*
X88231000Y-52848973D01*
X88231000Y-52574000D01*
X87017500Y-52574000D01*
X86950461Y-52554315D01*
X86904706Y-52501511D01*
X86893500Y-52450000D01*
X86893500Y-52198000D01*
X86913185Y-52130961D01*
X86965989Y-52085206D01*
X87017500Y-52074000D01*
X88230999Y-52074000D01*
X88230999Y-51799028D01*
X88230998Y-51799013D01*
X88220505Y-51696302D01*
X88165358Y-51529880D01*
X88165356Y-51529875D01*
X88073315Y-51380654D01*
X87949345Y-51256684D01*
X87800124Y-51164643D01*
X87800119Y-51164641D01*
X87633697Y-51109494D01*
X87633690Y-51109493D01*
X87530986Y-51099000D01*
X87307463Y-51099000D01*
X87240424Y-51079315D01*
X87194669Y-51026511D01*
X87184725Y-50957353D01*
X87213750Y-50893797D01*
X87219772Y-50887329D01*
X89592166Y-48514934D01*
X89653485Y-48481452D01*
X89723177Y-48486436D01*
G37*
%TD.AperFunction*%
%TA.AperFunction,Conductor*%
G36*
X83679929Y-72492362D02*
G01*
X83735862Y-72534233D01*
X83813305Y-72637682D01*
X83813311Y-72637689D01*
X83815509Y-72639334D01*
X83817153Y-72641530D01*
X83819579Y-72643956D01*
X83819230Y-72644304D01*
X83857381Y-72695267D01*
X83865200Y-72738601D01*
X83865200Y-72826070D01*
X83865202Y-72826094D01*
X83868161Y-72851606D01*
X83868162Y-72851609D01*
X83914265Y-72956024D01*
X83914266Y-72956024D01*
X83914266Y-72956025D01*
X83994975Y-73036734D01*
X84099391Y-73082838D01*
X84124921Y-73085800D01*
X84770200Y-73085799D01*
X84837239Y-73105483D01*
X84882994Y-73158287D01*
X84894200Y-73209798D01*
X84894200Y-73355070D01*
X84894202Y-73355094D01*
X84897161Y-73380606D01*
X84897161Y-73380608D01*
X84897162Y-73380609D01*
X84936134Y-73468873D01*
X84946700Y-73518958D01*
X84946700Y-73569745D01*
X84945173Y-73589144D01*
X84941648Y-73611399D01*
X84941648Y-73611400D01*
X84946700Y-73643297D01*
X84961730Y-73738201D01*
X84961731Y-73738204D01*
X84961732Y-73738206D01*
X85020018Y-73852599D01*
X85020019Y-73852600D01*
X85020022Y-73852604D01*
X85110795Y-73943377D01*
X85110798Y-73943379D01*
X85110801Y-73943382D01*
X85225194Y-74001668D01*
X85225196Y-74001668D01*
X85225198Y-74001669D01*
X85351998Y-74021752D01*
X85352000Y-74021752D01*
X85374256Y-74018226D01*
X85393654Y-74016700D01*
X86693792Y-74016700D01*
X86693793Y-74016700D01*
X86715228Y-74009734D01*
X86734147Y-74005192D01*
X86756406Y-74001668D01*
X86776492Y-73991433D01*
X86794451Y-73983994D01*
X86815896Y-73977027D01*
X86815896Y-73977026D01*
X86815898Y-73977026D01*
X86822169Y-73972468D01*
X86834127Y-73963780D01*
X86850715Y-73953614D01*
X86870799Y-73943382D01*
X86961582Y-73852599D01*
X86961581Y-73852598D01*
X86997888Y-73816292D01*
X86997893Y-73816285D01*
X87436145Y-73378036D01*
X87436144Y-73378036D01*
X87458982Y-73355199D01*
X87458983Y-73355196D01*
X87463138Y-73351042D01*
X87467110Y-73339244D01*
X87469212Y-73335120D01*
X87479380Y-73318527D01*
X87492627Y-73300296D01*
X87499594Y-73278851D01*
X87507033Y-73260892D01*
X87517268Y-73240806D01*
X87520792Y-73218547D01*
X87525334Y-73199628D01*
X87532300Y-73178193D01*
X87532300Y-73178187D01*
X87532529Y-73176745D01*
X87533297Y-73175124D01*
X87535317Y-73168909D01*
X87536119Y-73169169D01*
X87562455Y-73113608D01*
X87604919Y-73082701D01*
X87656640Y-73059865D01*
X87706724Y-73049300D01*
X87711924Y-73049300D01*
X87778963Y-73068985D01*
X87787410Y-73074924D01*
X87857954Y-73129054D01*
X87857953Y-73129054D01*
X87928529Y-73158287D01*
X87993038Y-73185007D01*
X88055543Y-73193235D01*
X88074739Y-73198142D01*
X88080927Y-73199298D01*
X88080930Y-73199300D01*
X88080933Y-73199300D01*
X88089208Y-73200847D01*
X88100964Y-73202487D01*
X88109339Y-73203262D01*
X88109343Y-73203263D01*
X88109346Y-73203262D01*
X88110452Y-73203365D01*
X88136260Y-73203862D01*
X88138000Y-73204092D01*
X88170365Y-73199830D01*
X88178466Y-73199300D01*
X88201322Y-73199300D01*
X88268361Y-73218985D01*
X88314116Y-73271789D01*
X88324060Y-73340947D01*
X88300126Y-73398225D01*
X88284917Y-73418280D01*
X88228915Y-73560290D01*
X88224256Y-73599096D01*
X88218200Y-73649524D01*
X88218200Y-74686476D01*
X88219612Y-74698232D01*
X88228915Y-74775709D01*
X88228916Y-74775711D01*
X88262897Y-74861882D01*
X88284917Y-74917719D01*
X88377151Y-75039348D01*
X88448360Y-75093347D01*
X88489883Y-75149539D01*
X88494435Y-75219261D01*
X88460570Y-75280375D01*
X88448362Y-75290953D01*
X88398652Y-75328650D01*
X88306417Y-75450280D01*
X88250415Y-75592290D01*
X88245020Y-75637223D01*
X88239700Y-75681524D01*
X88239699Y-75681530D01*
X88239700Y-75681530D01*
X88239700Y-76338062D01*
X88220016Y-76405100D01*
X88216544Y-76410501D01*
X88214464Y-76415057D01*
X88200945Y-76437842D01*
X88197952Y-76441840D01*
X88197946Y-76441850D01*
X88179639Y-76490930D01*
X88177947Y-76495017D01*
X88156184Y-76542674D01*
X88156182Y-76542680D01*
X88155472Y-76547620D01*
X88148919Y-76573296D01*
X88147171Y-76577983D01*
X88147170Y-76577986D01*
X88143431Y-76630251D01*
X88142959Y-76634647D01*
X88140700Y-76650360D01*
X88140700Y-76666241D01*
X88140542Y-76670665D01*
X88136917Y-76721358D01*
X88136805Y-76722918D01*
X88137866Y-76727797D01*
X88140700Y-76754152D01*
X88140700Y-83334494D01*
X88121015Y-83401533D01*
X88068211Y-83447288D01*
X88062191Y-83449848D01*
X87921284Y-83505415D01*
X87921280Y-83505417D01*
X87799651Y-83597651D01*
X87707417Y-83719280D01*
X87707415Y-83719283D01*
X87707416Y-83719283D01*
X87691283Y-83760191D01*
X87648379Y-83815334D01*
X87582471Y-83838527D01*
X87575930Y-83838700D01*
X87557070Y-83838700D01*
X87490031Y-83819015D01*
X87444276Y-83766211D01*
X87441723Y-83760210D01*
X87425584Y-83719283D01*
X87373023Y-83649971D01*
X87333348Y-83597651D01*
X87211719Y-83505417D01*
X87211717Y-83505416D01*
X87131461Y-83473767D01*
X87069709Y-83449415D01*
X87023904Y-83443915D01*
X86980476Y-83438700D01*
X85993524Y-83438700D01*
X85993512Y-83438700D01*
X85993479Y-83438702D01*
X85993470Y-83438700D01*
X85989818Y-83438700D01*
X85989818Y-83437860D01*
X85925385Y-83423050D01*
X85876563Y-83373069D01*
X85862513Y-83304626D01*
X85862989Y-83299976D01*
X85864293Y-83289241D01*
X85873380Y-83214400D01*
X85873241Y-83213259D01*
X85865791Y-83151900D01*
X85852735Y-83044371D01*
X85791999Y-82884223D01*
X85776909Y-82862362D01*
X85694703Y-82743267D01*
X85694701Y-82743264D01*
X85644627Y-82698902D01*
X85566499Y-82629686D01*
X85414840Y-82550090D01*
X85414839Y-82550089D01*
X85414838Y-82550089D01*
X85248540Y-82509100D01*
X85248539Y-82509100D01*
X85082143Y-82509100D01*
X85015104Y-82489415D01*
X84994462Y-82472781D01*
X84419662Y-81897981D01*
X84386177Y-81836658D01*
X84391161Y-81766966D01*
X84433033Y-81711033D01*
X84498497Y-81686616D01*
X84507343Y-81686300D01*
X84592470Y-81686300D01*
X84592476Y-81686300D01*
X84681711Y-81675584D01*
X84823717Y-81619584D01*
X84945348Y-81527348D01*
X85037584Y-81405717D01*
X85093584Y-81263711D01*
X85104300Y-81174476D01*
X85104300Y-80412524D01*
X85093584Y-80323289D01*
X85037584Y-80181283D01*
X85037582Y-80181280D01*
X84945348Y-80059651D01*
X84816959Y-79962291D01*
X84819106Y-79959459D01*
X84781907Y-79921329D01*
X84767901Y-79852877D01*
X84793125Y-79787720D01*
X84849572Y-79746543D01*
X84852466Y-79745545D01*
X84868118Y-79740358D01*
X84868124Y-79740356D01*
X85017345Y-79648315D01*
X85141315Y-79524345D01*
X85233356Y-79375124D01*
X85233358Y-79375119D01*
X85288505Y-79208697D01*
X85288506Y-79208690D01*
X85298999Y-79105986D01*
X85299000Y-79105973D01*
X85299000Y-78968500D01*
X83948000Y-78968500D01*
X83880961Y-78948815D01*
X83835206Y-78896011D01*
X83824000Y-78844500D01*
X83824000Y-77233500D01*
X84324000Y-77233500D01*
X84324000Y-78468500D01*
X85298999Y-78468500D01*
X85298999Y-78331028D01*
X85298998Y-78331013D01*
X85288505Y-78228302D01*
X85233358Y-78061880D01*
X85233353Y-78061869D01*
X85143439Y-77916097D01*
X85124998Y-77848705D01*
X85143439Y-77785903D01*
X85233353Y-77640130D01*
X85233358Y-77640119D01*
X85288505Y-77473697D01*
X85288506Y-77473690D01*
X85298999Y-77370986D01*
X85299000Y-77370973D01*
X85299000Y-77233500D01*
X84324000Y-77233500D01*
X83824000Y-77233500D01*
X83824000Y-76857500D01*
X83843685Y-76790461D01*
X83896489Y-76744706D01*
X83948000Y-76733500D01*
X85298999Y-76733500D01*
X85298999Y-76596028D01*
X85298998Y-76596013D01*
X85288505Y-76493302D01*
X85233358Y-76326880D01*
X85233356Y-76326875D01*
X85141315Y-76177654D01*
X85017345Y-76053684D01*
X84868124Y-75961643D01*
X84868121Y-75961642D01*
X84852461Y-75956453D01*
X84795016Y-75916679D01*
X84768194Y-75852163D01*
X84780510Y-75783388D01*
X84818806Y-75742145D01*
X84816959Y-75739709D01*
X84945348Y-75642348D01*
X84962626Y-75619564D01*
X85037584Y-75520717D01*
X85093584Y-75378711D01*
X85104300Y-75289476D01*
X85104300Y-74527524D01*
X85093584Y-74438289D01*
X85037584Y-74296283D01*
X85031074Y-74287698D01*
X84945348Y-74174651D01*
X84823719Y-74082417D01*
X84823717Y-74082416D01*
X84752714Y-74054416D01*
X84681709Y-74026415D01*
X84635904Y-74020915D01*
X84592476Y-74015700D01*
X83555524Y-74015700D01*
X83515353Y-74020523D01*
X83466290Y-74026415D01*
X83324280Y-74082417D01*
X83202651Y-74174651D01*
X83110417Y-74296280D01*
X83054415Y-74438290D01*
X83049361Y-74480385D01*
X83043700Y-74527524D01*
X83043700Y-74527530D01*
X83043700Y-74559200D01*
X83024015Y-74626239D01*
X82971211Y-74671994D01*
X82919700Y-74683200D01*
X82048974Y-74683200D01*
X81981935Y-74663515D01*
X81936180Y-74610711D01*
X81926236Y-74541553D01*
X81955261Y-74477997D01*
X82012978Y-74440540D01*
X82093098Y-74416234D01*
X82193800Y-74385687D01*
X82377130Y-74287695D01*
X82537820Y-74155820D01*
X82669695Y-73995130D01*
X82767687Y-73811800D01*
X82828031Y-73612875D01*
X82848406Y-73406000D01*
X82837600Y-73296291D01*
X82850619Y-73227647D01*
X82873319Y-73196460D01*
X83548919Y-72520860D01*
X83610238Y-72487378D01*
X83679929Y-72492362D01*
G37*
%TD.AperFunction*%
%TA.AperFunction,Conductor*%
G36*
X71763002Y-74463205D02*
G01*
X71783846Y-74486475D01*
X71786196Y-74489879D01*
X71811496Y-74526533D01*
X71811498Y-74526535D01*
X71939701Y-74640114D01*
X72091360Y-74719710D01*
X72174510Y-74740204D01*
X72257660Y-74760700D01*
X72257661Y-74760700D01*
X72428940Y-74760700D01*
X72484372Y-74747036D01*
X72595240Y-74719710D01*
X72746899Y-74640114D01*
X72875102Y-74526535D01*
X72883575Y-74514259D01*
X72937859Y-74470269D01*
X72985625Y-74460700D01*
X77720007Y-74460700D01*
X77723200Y-74460700D01*
X77790239Y-74480385D01*
X77835994Y-74533189D01*
X77847200Y-74584700D01*
X77847200Y-75109571D01*
X77847202Y-75109594D01*
X77850160Y-75135105D01*
X77850162Y-75135109D01*
X77851843Y-75138916D01*
X77852441Y-75143488D01*
X77852610Y-75144107D01*
X77852525Y-75144129D01*
X77860912Y-75208194D01*
X77851844Y-75239079D01*
X77850163Y-75242884D01*
X77850162Y-75242890D01*
X77847200Y-75268419D01*
X77847200Y-75909571D01*
X77847202Y-75909594D01*
X77850160Y-75935105D01*
X77850162Y-75935109D01*
X77851843Y-75938916D01*
X77852441Y-75943488D01*
X77852610Y-75944107D01*
X77852525Y-75944129D01*
X77860912Y-76008194D01*
X77851844Y-76039079D01*
X77850163Y-76042884D01*
X77850162Y-76042890D01*
X77847200Y-76068419D01*
X77847200Y-76709571D01*
X77847202Y-76709594D01*
X77850160Y-76735105D01*
X77850162Y-76735109D01*
X77851843Y-76738916D01*
X77852441Y-76743488D01*
X77852610Y-76744107D01*
X77852525Y-76744129D01*
X77860912Y-76808194D01*
X77851844Y-76839079D01*
X77850163Y-76842884D01*
X77850162Y-76842890D01*
X77847200Y-76868419D01*
X77847200Y-77509571D01*
X77847202Y-77509594D01*
X77850160Y-77535105D01*
X77850162Y-77535109D01*
X77851843Y-77538916D01*
X77852441Y-77543488D01*
X77852610Y-77544107D01*
X77852525Y-77544129D01*
X77860912Y-77608194D01*
X77851844Y-77639079D01*
X77850163Y-77642884D01*
X77850162Y-77642890D01*
X77847200Y-77668419D01*
X77847200Y-78209700D01*
X77827515Y-78276739D01*
X77774711Y-78322494D01*
X77723200Y-78333700D01*
X77181928Y-78333700D01*
X77181905Y-78333702D01*
X77156393Y-78336661D01*
X77156389Y-78336662D01*
X77152580Y-78338344D01*
X77148009Y-78338942D01*
X77147393Y-78339110D01*
X77147370Y-78339025D01*
X77083302Y-78347412D01*
X77052416Y-78338343D01*
X77051388Y-78337889D01*
X77048609Y-78336662D01*
X77023079Y-78333700D01*
X76381928Y-78333700D01*
X76381905Y-78333702D01*
X76356393Y-78336661D01*
X76356389Y-78336662D01*
X76352580Y-78338344D01*
X76348009Y-78338942D01*
X76347393Y-78339110D01*
X76347370Y-78339025D01*
X76283302Y-78347412D01*
X76252416Y-78338343D01*
X76251388Y-78337889D01*
X76248609Y-78336662D01*
X76223079Y-78333700D01*
X75581928Y-78333700D01*
X75581905Y-78333702D01*
X75556393Y-78336661D01*
X75556389Y-78336662D01*
X75552580Y-78338344D01*
X75548009Y-78338942D01*
X75547393Y-78339110D01*
X75547370Y-78339025D01*
X75483302Y-78347412D01*
X75452416Y-78338343D01*
X75451388Y-78337889D01*
X75448609Y-78336662D01*
X75423080Y-78333700D01*
X75035602Y-78333700D01*
X74968563Y-78314015D01*
X74936334Y-78284009D01*
X74934689Y-78281811D01*
X74934686Y-78281809D01*
X74819588Y-78195647D01*
X74819586Y-78195645D01*
X74684879Y-78145403D01*
X74684872Y-78145401D01*
X74625344Y-78139000D01*
X74552500Y-78139000D01*
X74552500Y-78479817D01*
X74541935Y-78529902D01*
X74525162Y-78567888D01*
X74525162Y-78567890D01*
X74522200Y-78593419D01*
X74522200Y-80284571D01*
X74522202Y-80284594D01*
X74525161Y-80310106D01*
X74525161Y-80310108D01*
X74525162Y-80310109D01*
X74540366Y-80344544D01*
X74541934Y-80348093D01*
X74552500Y-80398180D01*
X74552500Y-80739000D01*
X74573200Y-80739000D01*
X74640239Y-80758685D01*
X74685994Y-80811489D01*
X74697200Y-80863000D01*
X74697200Y-83289700D01*
X74677515Y-83356739D01*
X74624711Y-83402494D01*
X74573200Y-83413700D01*
X74050400Y-83413700D01*
X73983361Y-83394015D01*
X73937606Y-83341211D01*
X73926400Y-83289700D01*
X73926400Y-82666608D01*
X73926399Y-82666605D01*
X73919435Y-82645171D01*
X73914893Y-82626255D01*
X73911368Y-82603994D01*
X73901133Y-82583907D01*
X73893689Y-82565934D01*
X73891252Y-82558434D01*
X73886726Y-82544504D01*
X73873477Y-82526269D01*
X73863314Y-82509684D01*
X73853082Y-82489601D01*
X73762299Y-82398818D01*
X73456635Y-82093154D01*
X73144119Y-81780637D01*
X73110634Y-81719314D01*
X73107800Y-81692956D01*
X73107800Y-80668299D01*
X73127485Y-80601260D01*
X73180289Y-80555505D01*
X73231795Y-80544299D01*
X73569397Y-80544299D01*
X73636435Y-80563984D01*
X73668661Y-80593986D01*
X73670306Y-80596183D01*
X73670314Y-80596191D01*
X73785406Y-80682350D01*
X73785413Y-80682354D01*
X73920120Y-80732596D01*
X73920127Y-80732598D01*
X73979655Y-80738999D01*
X73979672Y-80739000D01*
X74052500Y-80739000D01*
X74052500Y-80398181D01*
X74063066Y-80348093D01*
X74079838Y-80310109D01*
X74082800Y-80284579D01*
X74082799Y-78593422D01*
X74079838Y-78567891D01*
X74063065Y-78529903D01*
X74052500Y-78479818D01*
X74052500Y-78139000D01*
X73979655Y-78139000D01*
X73920127Y-78145401D01*
X73920120Y-78145403D01*
X73785413Y-78195645D01*
X73785406Y-78195649D01*
X73670312Y-78281809D01*
X73670308Y-78281813D01*
X73668658Y-78284018D01*
X73666455Y-78285666D01*
X73664041Y-78288081D01*
X73663693Y-78287733D01*
X73612722Y-78325885D01*
X73569397Y-78333700D01*
X73181928Y-78333700D01*
X73181905Y-78333702D01*
X73156393Y-78336661D01*
X73156389Y-78336662D01*
X73152580Y-78338344D01*
X73148009Y-78338942D01*
X73147393Y-78339110D01*
X73147370Y-78339025D01*
X73083302Y-78347412D01*
X73052416Y-78338343D01*
X73051388Y-78337889D01*
X73048609Y-78336662D01*
X73023079Y-78333700D01*
X72381928Y-78333700D01*
X72381905Y-78333702D01*
X72356393Y-78336661D01*
X72356389Y-78336662D01*
X72352580Y-78338344D01*
X72348009Y-78338942D01*
X72347393Y-78339110D01*
X72347370Y-78339025D01*
X72283302Y-78347412D01*
X72252416Y-78338343D01*
X72251388Y-78337889D01*
X72248609Y-78336662D01*
X72223080Y-78333700D01*
X71681799Y-78333700D01*
X71614760Y-78314015D01*
X71569005Y-78261211D01*
X71557799Y-78209703D01*
X71557799Y-77668422D01*
X71556791Y-77659727D01*
X71554839Y-77642894D01*
X71554837Y-77642890D01*
X71553157Y-77639085D01*
X71552559Y-77634513D01*
X71552390Y-77633892D01*
X71552474Y-77633868D01*
X71544086Y-77569809D01*
X71553157Y-77538915D01*
X71554838Y-77535109D01*
X71557800Y-77509579D01*
X71557799Y-76868422D01*
X71557673Y-76867340D01*
X71554839Y-76842894D01*
X71554837Y-76842890D01*
X71553157Y-76839085D01*
X71552559Y-76834513D01*
X71552390Y-76833892D01*
X71552474Y-76833868D01*
X71544086Y-76769809D01*
X71553157Y-76738915D01*
X71554838Y-76735109D01*
X71557800Y-76709579D01*
X71557799Y-76068422D01*
X71556090Y-76053684D01*
X71554839Y-76042894D01*
X71554837Y-76042890D01*
X71553157Y-76039085D01*
X71552559Y-76034513D01*
X71552390Y-76033892D01*
X71552474Y-76033868D01*
X71544086Y-75969809D01*
X71553157Y-75938915D01*
X71554838Y-75935109D01*
X71557800Y-75909579D01*
X71557799Y-75268422D01*
X71556723Y-75259145D01*
X71554839Y-75242894D01*
X71554837Y-75242890D01*
X71553157Y-75239085D01*
X71552559Y-75234513D01*
X71552390Y-75233892D01*
X71552474Y-75233868D01*
X71544086Y-75169809D01*
X71553157Y-75138915D01*
X71554838Y-75135109D01*
X71557800Y-75109579D01*
X71557799Y-74556917D01*
X71577483Y-74489879D01*
X71630287Y-74444124D01*
X71699446Y-74434180D01*
X71763002Y-74463205D01*
G37*
%TD.AperFunction*%
%TA.AperFunction,Conductor*%
G36*
X76865239Y-70708685D02*
G01*
X76910994Y-70761489D01*
X76922200Y-70813000D01*
X76922200Y-71784571D01*
X76922202Y-71784594D01*
X76925161Y-71810106D01*
X76925161Y-71810108D01*
X76925162Y-71810109D01*
X76940871Y-71845687D01*
X76941934Y-71848093D01*
X76952500Y-71898180D01*
X76952500Y-72239000D01*
X77025328Y-72239000D01*
X77025344Y-72238999D01*
X77084872Y-72232598D01*
X77084879Y-72232596D01*
X77219586Y-72182354D01*
X77219588Y-72182352D01*
X77334689Y-72096188D01*
X77336337Y-72093988D01*
X77338540Y-72092338D01*
X77340961Y-72089918D01*
X77341309Y-72090266D01*
X77392271Y-72052117D01*
X77435600Y-72044299D01*
X77723200Y-72044299D01*
X77790239Y-72063984D01*
X77835994Y-72116788D01*
X77847200Y-72168299D01*
X77847200Y-72515264D01*
X77827515Y-72582303D01*
X77774711Y-72628058D01*
X77705553Y-72638002D01*
X77693525Y-72635661D01*
X77584140Y-72608700D01*
X77584139Y-72608700D01*
X77412861Y-72608700D01*
X77412860Y-72608700D01*
X77246561Y-72649689D01*
X77094902Y-72729285D01*
X76966698Y-72842864D01*
X76966696Y-72842867D01*
X76869401Y-72983821D01*
X76869401Y-72983822D01*
X76808665Y-73143970D01*
X76788020Y-73313999D01*
X76788020Y-73314000D01*
X76808665Y-73484030D01*
X76810460Y-73491313D01*
X76808685Y-73491750D01*
X76813311Y-73551794D01*
X76780162Y-73613300D01*
X76719023Y-73647120D01*
X76692002Y-73650100D01*
X72985625Y-73650100D01*
X72918586Y-73630415D01*
X72883576Y-73596541D01*
X72875105Y-73584269D01*
X72875101Y-73584264D01*
X72848039Y-73560289D01*
X72746899Y-73470686D01*
X72637932Y-73413496D01*
X72587720Y-73364912D01*
X72571745Y-73296894D01*
X72595080Y-73231036D01*
X72637931Y-73193904D01*
X72654299Y-73185314D01*
X72782502Y-73071735D01*
X72879799Y-72930777D01*
X72940535Y-72770629D01*
X72961180Y-72600600D01*
X72940535Y-72430571D01*
X72879799Y-72270423D01*
X72874476Y-72262712D01*
X72857929Y-72238739D01*
X72836046Y-72172385D01*
X72853511Y-72104733D01*
X72904779Y-72057263D01*
X72959979Y-72044299D01*
X73023072Y-72044299D01*
X73023078Y-72044299D01*
X73048609Y-72041338D01*
X73052409Y-72039659D01*
X73056977Y-72039061D01*
X73057608Y-72038890D01*
X73057631Y-72038975D01*
X73121686Y-72030585D01*
X73152584Y-72039657D01*
X73156391Y-72041338D01*
X73181921Y-72044300D01*
X73823078Y-72044299D01*
X73848609Y-72041338D01*
X73852409Y-72039659D01*
X73856977Y-72039061D01*
X73857608Y-72038890D01*
X73857631Y-72038975D01*
X73921686Y-72030585D01*
X73952584Y-72039657D01*
X73956391Y-72041338D01*
X73981921Y-72044300D01*
X74623078Y-72044299D01*
X74648609Y-72041338D01*
X74652409Y-72039659D01*
X74656977Y-72039061D01*
X74657608Y-72038890D01*
X74657631Y-72038975D01*
X74721686Y-72030585D01*
X74752584Y-72039657D01*
X74756391Y-72041338D01*
X74781921Y-72044300D01*
X75423078Y-72044299D01*
X75448609Y-72041338D01*
X75452409Y-72039659D01*
X75456977Y-72039061D01*
X75457608Y-72038890D01*
X75457631Y-72038975D01*
X75521686Y-72030585D01*
X75552584Y-72039657D01*
X75556391Y-72041338D01*
X75581921Y-72044300D01*
X75969397Y-72044299D01*
X76036435Y-72063983D01*
X76068661Y-72093986D01*
X76070306Y-72096183D01*
X76070314Y-72096191D01*
X76185406Y-72182350D01*
X76185413Y-72182354D01*
X76320120Y-72232596D01*
X76320127Y-72232598D01*
X76379655Y-72238999D01*
X76379672Y-72239000D01*
X76452500Y-72239000D01*
X76452500Y-71898181D01*
X76463066Y-71848093D01*
X76479838Y-71810109D01*
X76482800Y-71784579D01*
X76482799Y-70812998D01*
X76502483Y-70745961D01*
X76555287Y-70700206D01*
X76606799Y-70689000D01*
X76798200Y-70689000D01*
X76865239Y-70708685D01*
G37*
%TD.AperFunction*%
%TA.AperFunction,Conductor*%
G36*
X85895336Y-70902940D02*
G01*
X85939681Y-70931440D01*
X85968181Y-70959940D01*
X86001666Y-71021263D01*
X86004500Y-71047621D01*
X86004500Y-71259500D01*
X86052328Y-71259500D01*
X86052344Y-71259499D01*
X86111872Y-71253098D01*
X86111883Y-71253095D01*
X86247866Y-71202376D01*
X86317557Y-71197391D01*
X86378881Y-71230875D01*
X86412366Y-71292198D01*
X86415200Y-71318546D01*
X86415200Y-71326065D01*
X86415202Y-71326094D01*
X86419236Y-71360875D01*
X86416492Y-71361193D01*
X86416493Y-71394810D01*
X86419237Y-71395129D01*
X86415200Y-71429919D01*
X86415200Y-71826071D01*
X86415202Y-71826094D01*
X86419236Y-71860875D01*
X86416492Y-71861193D01*
X86416493Y-71894810D01*
X86419237Y-71895129D01*
X86418162Y-71904390D01*
X86418162Y-71904391D01*
X86416986Y-71914525D01*
X86415200Y-71929919D01*
X86415200Y-72067200D01*
X86395515Y-72134239D01*
X86342711Y-72179994D01*
X86291201Y-72191200D01*
X86153929Y-72191200D01*
X86153905Y-72191202D01*
X86119125Y-72195236D01*
X86118807Y-72192494D01*
X86085189Y-72192491D01*
X86084871Y-72195237D01*
X86075609Y-72194162D01*
X86050079Y-72191200D01*
X85653928Y-72191200D01*
X85653905Y-72191202D01*
X85619125Y-72195236D01*
X85618807Y-72192494D01*
X85585188Y-72192491D01*
X85584870Y-72195237D01*
X85575610Y-72194162D01*
X85575609Y-72194162D01*
X85556124Y-72191901D01*
X85551838Y-72191404D01*
X85487514Y-72164123D01*
X85448151Y-72106397D01*
X85446245Y-72036553D01*
X85478451Y-71980548D01*
X85483500Y-71975499D01*
X85483500Y-71927672D01*
X85483499Y-71927655D01*
X85477098Y-71868127D01*
X85477097Y-71868123D01*
X85426851Y-71733408D01*
X85403572Y-71702312D01*
X85379154Y-71636848D01*
X85394005Y-71568575D01*
X85403572Y-71553688D01*
X85426851Y-71522591D01*
X85477096Y-71387878D01*
X85479481Y-71365702D01*
X85506219Y-71301151D01*
X85563612Y-71261303D01*
X85616028Y-71255668D01*
X85651658Y-71259499D01*
X85651672Y-71259500D01*
X85699500Y-71259500D01*
X85699500Y-71047620D01*
X85719185Y-70980581D01*
X85735811Y-70959947D01*
X85760734Y-70935025D01*
X85760734Y-70935022D01*
X85764320Y-70931438D01*
X85825644Y-70897954D01*
X85895336Y-70902940D01*
G37*
%TD.AperFunction*%
%TA.AperFunction,Conductor*%
G36*
X88011534Y-68077460D02*
G01*
X88067467Y-68119332D01*
X88091884Y-68184796D01*
X88092200Y-68193642D01*
X88092200Y-68954656D01*
X88072515Y-69021695D01*
X88055881Y-69042337D01*
X87842463Y-69255755D01*
X87594201Y-69504017D01*
X87576760Y-69521459D01*
X87503417Y-69594802D01*
X87493184Y-69614884D01*
X87483024Y-69631463D01*
X87469774Y-69649701D01*
X87469771Y-69649706D01*
X87462806Y-69671143D01*
X87455363Y-69689112D01*
X87445133Y-69709191D01*
X87445130Y-69709198D01*
X87441606Y-69731453D01*
X87437065Y-69750370D01*
X87430100Y-69771804D01*
X87430100Y-69851500D01*
X87410415Y-69918539D01*
X87357611Y-69964294D01*
X87306100Y-69975500D01*
X87279500Y-69975500D01*
X87279500Y-70546200D01*
X87259815Y-70613239D01*
X87207011Y-70658994D01*
X87155500Y-70670200D01*
X87098500Y-70670200D01*
X87031461Y-70650515D01*
X86985706Y-70597711D01*
X86974500Y-70546200D01*
X86974500Y-69975500D01*
X86928845Y-69975500D01*
X86861806Y-69955815D01*
X86816051Y-69903011D01*
X86809194Y-69884051D01*
X86806837Y-69875390D01*
X86775847Y-69805203D01*
X86767866Y-69787127D01*
X86757300Y-69737041D01*
X86757300Y-69280542D01*
X86776985Y-69213503D01*
X86793619Y-69192861D01*
X87880519Y-68105961D01*
X87941842Y-68072476D01*
X88011534Y-68077460D01*
G37*
%TD.AperFunction*%
%TA.AperFunction,Conductor*%
G36*
X73760983Y-60761288D02*
G01*
X73794884Y-60822382D01*
X73797900Y-60849563D01*
X73797900Y-65854298D01*
X73778215Y-65921337D01*
X73725411Y-65967092D01*
X73656253Y-65977036D01*
X73592697Y-65948011D01*
X73586219Y-65941979D01*
X73576561Y-65932321D01*
X73576552Y-65932314D01*
X73435196Y-65848717D01*
X73435193Y-65848716D01*
X73277494Y-65802900D01*
X73277497Y-65802900D01*
X73275000Y-65802703D01*
X73275000Y-68397295D01*
X73275001Y-68397295D01*
X73277486Y-68397100D01*
X73435198Y-68351281D01*
X73576552Y-68267685D01*
X73576561Y-68267678D01*
X73586219Y-68258021D01*
X73647542Y-68224536D01*
X73717234Y-68229520D01*
X73773167Y-68271392D01*
X73797584Y-68336856D01*
X73797900Y-68345702D01*
X73797900Y-69709700D01*
X73778215Y-69776739D01*
X73725411Y-69822494D01*
X73673900Y-69833700D01*
X73181928Y-69833700D01*
X73181905Y-69833702D01*
X73156393Y-69836661D01*
X73156389Y-69836662D01*
X73152580Y-69838344D01*
X73148009Y-69838942D01*
X73147393Y-69839110D01*
X73147370Y-69839025D01*
X73083302Y-69847412D01*
X73052416Y-69838343D01*
X73048609Y-69836662D01*
X73023079Y-69833700D01*
X72381928Y-69833700D01*
X72381905Y-69833702D01*
X72356393Y-69836661D01*
X72356389Y-69836662D01*
X72352580Y-69838344D01*
X72348009Y-69838942D01*
X72347393Y-69839110D01*
X72347370Y-69839025D01*
X72283302Y-69847412D01*
X72252416Y-69838343D01*
X72248609Y-69836662D01*
X72223080Y-69833700D01*
X71649500Y-69833700D01*
X71582461Y-69814015D01*
X71536706Y-69761211D01*
X71525500Y-69709700D01*
X71525500Y-68329300D01*
X71545185Y-68262261D01*
X71597989Y-68216506D01*
X71649500Y-68205300D01*
X71959850Y-68205300D01*
X71980350Y-68203377D01*
X71990602Y-68202416D01*
X72120151Y-68157085D01*
X72177055Y-68115086D01*
X72242683Y-68091115D01*
X72310854Y-68106429D01*
X72351630Y-68146096D01*
X72352537Y-68145393D01*
X72357321Y-68151561D01*
X72473438Y-68267678D01*
X72473447Y-68267685D01*
X72614801Y-68351281D01*
X72772514Y-68397100D01*
X72772511Y-68397100D01*
X72774998Y-68397295D01*
X72775000Y-68397294D01*
X72775000Y-65802703D01*
X72772503Y-65802900D01*
X72614806Y-65848716D01*
X72614803Y-65848717D01*
X72473447Y-65932314D01*
X72473438Y-65932321D01*
X72357319Y-66048440D01*
X72352538Y-66054605D01*
X72351498Y-66053798D01*
X72306346Y-66095951D01*
X72237603Y-66108450D01*
X72177057Y-66084913D01*
X72120152Y-66042915D01*
X72120150Y-66042914D01*
X71990603Y-65997584D01*
X71990600Y-65997583D01*
X71959850Y-65994700D01*
X71959846Y-65994700D01*
X71649500Y-65994700D01*
X71582461Y-65975015D01*
X71536706Y-65922211D01*
X71525500Y-65870700D01*
X71525500Y-65580643D01*
X71545185Y-65513604D01*
X71561819Y-65492962D01*
X72384492Y-64670289D01*
X73334145Y-63720636D01*
X73334145Y-63720635D01*
X73356982Y-63697799D01*
X73367214Y-63677715D01*
X73377380Y-63661127D01*
X73390627Y-63642896D01*
X73397594Y-63621451D01*
X73405033Y-63603492D01*
X73415268Y-63583406D01*
X73418792Y-63561147D01*
X73423334Y-63542228D01*
X73430300Y-63520793D01*
X73430300Y-63392407D01*
X73430300Y-63392406D01*
X73430300Y-60990050D01*
X73449985Y-60923012D01*
X73480666Y-60890281D01*
X73500582Y-60875582D01*
X73560230Y-60794763D01*
X73574130Y-60775928D01*
X73629778Y-60733678D01*
X73699434Y-60728220D01*
X73760983Y-60761288D01*
G37*
%TD.AperFunction*%
%TA.AperFunction,Conductor*%
G36*
X76350224Y-63780309D02*
G01*
X76360804Y-63792520D01*
X76415651Y-63864848D01*
X76537280Y-63957082D01*
X76537283Y-63957084D01*
X76679289Y-64013084D01*
X76747485Y-64021273D01*
X76811697Y-64048808D01*
X76850831Y-64106691D01*
X76856700Y-64144388D01*
X76856700Y-65103195D01*
X76863665Y-65124631D01*
X76868206Y-65143548D01*
X76871731Y-65165806D01*
X76881961Y-65185884D01*
X76889405Y-65203854D01*
X76896371Y-65225292D01*
X76896372Y-65225293D01*
X76896373Y-65225296D01*
X76909622Y-65243533D01*
X76919783Y-65260114D01*
X76930016Y-65280196D01*
X76930017Y-65280198D01*
X76962381Y-65312562D01*
X76995866Y-65373885D01*
X76998700Y-65400243D01*
X76998700Y-68046056D01*
X76979015Y-68113095D01*
X76962381Y-68133737D01*
X75719481Y-69376635D01*
X75658158Y-69410120D01*
X75588466Y-69405136D01*
X75532533Y-69363264D01*
X75508116Y-69297800D01*
X75507800Y-69288954D01*
X75507800Y-67458506D01*
X75527485Y-67391467D01*
X75574176Y-67348709D01*
X75588018Y-67341443D01*
X75631899Y-67318414D01*
X75760102Y-67204835D01*
X75857399Y-67063877D01*
X75918135Y-66903729D01*
X75938780Y-66733700D01*
X75938450Y-66730986D01*
X75932539Y-66682302D01*
X75918135Y-66563671D01*
X75857399Y-66403523D01*
X75851622Y-66395154D01*
X75762030Y-66265358D01*
X75760102Y-66262565D01*
X75760098Y-66262562D01*
X75760096Y-66262559D01*
X75675372Y-66187498D01*
X75638246Y-66128308D01*
X75633600Y-66094684D01*
X75633600Y-65675943D01*
X75653285Y-65608904D01*
X75669914Y-65588265D01*
X75761140Y-65497039D01*
X75775922Y-65484414D01*
X75794163Y-65471163D01*
X75869627Y-65367296D01*
X75909300Y-65245193D01*
X75909300Y-65116807D01*
X75892932Y-65066432D01*
X75869627Y-64994704D01*
X75869626Y-64994702D01*
X75794164Y-64890837D01*
X75775925Y-64877586D01*
X75761130Y-64864949D01*
X75703619Y-64807438D01*
X75670134Y-64746115D01*
X75667300Y-64719757D01*
X75667300Y-64144388D01*
X75686985Y-64077349D01*
X75739789Y-64031594D01*
X75776511Y-64021273D01*
X75844711Y-64013084D01*
X75986717Y-63957084D01*
X76108348Y-63864848D01*
X76163196Y-63792519D01*
X76219388Y-63750997D01*
X76289109Y-63746445D01*
X76350224Y-63780309D01*
G37*
%TD.AperFunction*%
%TA.AperFunction,Conductor*%
G36*
X85640322Y-63668485D02*
G01*
X85686077Y-63721289D01*
X85688637Y-63727310D01*
X85729414Y-63830713D01*
X85729417Y-63830719D01*
X85821651Y-63952348D01*
X85943280Y-64044582D01*
X85943283Y-64044584D01*
X86085289Y-64100584D01*
X86174524Y-64111300D01*
X86174530Y-64111300D01*
X87545500Y-64111300D01*
X87612539Y-64130985D01*
X87658294Y-64183789D01*
X87669500Y-64235300D01*
X87669500Y-64982000D01*
X87649815Y-65049039D01*
X87597011Y-65094794D01*
X87545500Y-65106000D01*
X87118000Y-65106000D01*
X87118000Y-67430999D01*
X87121426Y-67434425D01*
X87176796Y-67450684D01*
X87222551Y-67503488D01*
X87232495Y-67572646D01*
X87203470Y-67636202D01*
X87197438Y-67642680D01*
X86220438Y-68619681D01*
X86159115Y-68653166D01*
X86132757Y-68656000D01*
X83071765Y-68656000D01*
X83004726Y-68636315D01*
X82958971Y-68583511D01*
X82949027Y-68514353D01*
X82978052Y-68450797D01*
X83006668Y-68426461D01*
X83086345Y-68377315D01*
X83210315Y-68253345D01*
X83302356Y-68104124D01*
X83302358Y-68104119D01*
X83357505Y-67937697D01*
X83357506Y-67937690D01*
X83367999Y-67834986D01*
X83368000Y-67834973D01*
X83368000Y-67560000D01*
X82154500Y-67560000D01*
X82087461Y-67540315D01*
X82041706Y-67487511D01*
X82030500Y-67436000D01*
X82030500Y-67060000D01*
X82530500Y-67060000D01*
X83367999Y-67060000D01*
X83367999Y-66785028D01*
X83367998Y-66785013D01*
X83357505Y-66682302D01*
X83303226Y-66518500D01*
X85468001Y-66518500D01*
X85468001Y-66730986D01*
X85478494Y-66833697D01*
X85533641Y-67000119D01*
X85533643Y-67000124D01*
X85625684Y-67149345D01*
X85749654Y-67273315D01*
X85898875Y-67365356D01*
X85898880Y-67365358D01*
X86065302Y-67420505D01*
X86065309Y-67420506D01*
X86168019Y-67430999D01*
X86617999Y-67430999D01*
X86618000Y-67430998D01*
X86618000Y-66518500D01*
X85468001Y-66518500D01*
X83303226Y-66518500D01*
X83302358Y-66515880D01*
X83302356Y-66515875D01*
X83206525Y-66360509D01*
X83208898Y-66359044D01*
X83187543Y-66306142D01*
X83200568Y-66237497D01*
X83206862Y-66227703D01*
X83206523Y-66227494D01*
X83228077Y-66192547D01*
X83280024Y-66145821D01*
X83348986Y-66134597D01*
X83413069Y-66162438D01*
X83421299Y-66169960D01*
X83424654Y-66173315D01*
X83573875Y-66265356D01*
X83573880Y-66265358D01*
X83740302Y-66320505D01*
X83740309Y-66320506D01*
X83843019Y-66330999D01*
X84117999Y-66330999D01*
X84118000Y-66330998D01*
X84118000Y-65493500D01*
X83406488Y-65493500D01*
X83348496Y-65525166D01*
X83322138Y-65528000D01*
X82530500Y-65528000D01*
X82530500Y-67060000D01*
X82030500Y-67060000D01*
X82030500Y-65152000D01*
X82050185Y-65084961D01*
X82102989Y-65039206D01*
X82154500Y-65028000D01*
X83104512Y-65028000D01*
X83162504Y-64996334D01*
X83188862Y-64993500D01*
X84494000Y-64993500D01*
X84561039Y-65013185D01*
X84606794Y-65065989D01*
X84618000Y-65117500D01*
X84618000Y-66330999D01*
X84892972Y-66330999D01*
X84892986Y-66330998D01*
X84995697Y-66320505D01*
X85162119Y-66265358D01*
X85162124Y-66265356D01*
X85311345Y-66173315D01*
X85429840Y-66054819D01*
X85491163Y-66021334D01*
X85517522Y-66018500D01*
X86618000Y-66018500D01*
X86618000Y-65106000D01*
X86168028Y-65106000D01*
X86168012Y-65106001D01*
X86065302Y-65116494D01*
X85898880Y-65171641D01*
X85898875Y-65171643D01*
X85782096Y-65243674D01*
X85714703Y-65262114D01*
X85648040Y-65241191D01*
X85603270Y-65187549D01*
X85592999Y-65138135D01*
X85592999Y-64856028D01*
X85592998Y-64856013D01*
X85582505Y-64753302D01*
X85527358Y-64586880D01*
X85527356Y-64586875D01*
X85435315Y-64437654D01*
X85311345Y-64313684D01*
X85162124Y-64221643D01*
X85162121Y-64221642D01*
X85146461Y-64216453D01*
X85089016Y-64176679D01*
X85062194Y-64112163D01*
X85074510Y-64043388D01*
X85112806Y-64002145D01*
X85110959Y-63999709D01*
X85239348Y-63902348D01*
X85293666Y-63830719D01*
X85331584Y-63780717D01*
X85346372Y-63743217D01*
X85352646Y-63727309D01*
X85395552Y-63672165D01*
X85461460Y-63648973D01*
X85468000Y-63648800D01*
X85573283Y-63648800D01*
X85640322Y-63668485D01*
G37*
%TD.AperFunction*%
%TA.AperFunction,Conductor*%
G36*
X80440139Y-49680085D02*
G01*
X80485894Y-49732889D01*
X80497100Y-49784400D01*
X80497100Y-50749695D01*
X80504065Y-50771131D01*
X80508606Y-50790048D01*
X80512131Y-50812306D01*
X80522361Y-50832384D01*
X80529805Y-50850354D01*
X80536771Y-50871792D01*
X80536773Y-50871796D01*
X80550020Y-50890029D01*
X80560184Y-50906615D01*
X80570417Y-50926698D01*
X80570419Y-50926700D01*
X80610690Y-50966973D01*
X80610696Y-50966977D01*
X84127674Y-54483955D01*
X87633181Y-57989461D01*
X87666666Y-58050784D01*
X87669500Y-58077142D01*
X87669500Y-62051700D01*
X87649815Y-62118739D01*
X87597011Y-62164494D01*
X87545500Y-62175700D01*
X86174524Y-62175700D01*
X86139200Y-62179942D01*
X86085290Y-62186415D01*
X85943280Y-62242417D01*
X85821651Y-62334651D01*
X85729417Y-62456280D01*
X85729414Y-62456286D01*
X85688637Y-62559690D01*
X85645732Y-62614834D01*
X85579824Y-62638027D01*
X85573283Y-62638200D01*
X85448282Y-62638200D01*
X85381243Y-62618515D01*
X85335488Y-62565711D01*
X85332931Y-62559698D01*
X85331584Y-62556283D01*
X85331583Y-62556282D01*
X85331583Y-62556281D01*
X85239348Y-62434651D01*
X85117719Y-62342417D01*
X85117717Y-62342416D01*
X85023851Y-62305400D01*
X84975709Y-62286415D01*
X84929904Y-62280915D01*
X84886476Y-62275700D01*
X83849524Y-62275700D01*
X83809353Y-62280523D01*
X83760290Y-62286415D01*
X83618280Y-62342417D01*
X83496651Y-62434651D01*
X83404416Y-62556281D01*
X83393214Y-62584690D01*
X83350308Y-62639834D01*
X83284400Y-62663027D01*
X83277859Y-62663200D01*
X83221943Y-62663200D01*
X83154904Y-62643515D01*
X83109149Y-62590711D01*
X83106595Y-62584708D01*
X83081584Y-62521283D01*
X83081583Y-62521282D01*
X83081583Y-62521281D01*
X82989348Y-62399651D01*
X82867719Y-62307417D01*
X82867717Y-62307416D01*
X82787291Y-62275700D01*
X82725709Y-62251415D01*
X82679904Y-62245915D01*
X82636476Y-62240700D01*
X82636470Y-62240700D01*
X82357564Y-62240700D01*
X82290525Y-62221015D01*
X82269883Y-62204381D01*
X80874540Y-60809038D01*
X80857908Y-60788399D01*
X80855207Y-60784196D01*
X80855204Y-60784193D01*
X80815605Y-60749880D01*
X80812365Y-60746863D01*
X80801155Y-60735653D01*
X80801148Y-60735646D01*
X80801142Y-60735642D01*
X80801136Y-60735636D01*
X80788433Y-60726127D01*
X80784999Y-60723360D01*
X80745395Y-60689043D01*
X80745394Y-60689042D01*
X80745392Y-60689041D01*
X80740846Y-60686965D01*
X80718050Y-60673440D01*
X80714055Y-60670449D01*
X80714052Y-60670448D01*
X80664955Y-60652135D01*
X80660871Y-60650443D01*
X80613223Y-60628683D01*
X80608274Y-60627971D01*
X80582598Y-60621417D01*
X80577915Y-60619670D01*
X80525650Y-60615931D01*
X80521254Y-60615459D01*
X80505540Y-60613200D01*
X80505538Y-60613200D01*
X80489658Y-60613200D01*
X80485237Y-60613042D01*
X80469536Y-60611919D01*
X80432986Y-60609305D01*
X80432978Y-60609305D01*
X80428104Y-60610366D01*
X80401747Y-60613200D01*
X78332070Y-60613200D01*
X78265031Y-60593515D01*
X78219276Y-60540711D01*
X78216723Y-60534710D01*
X78200584Y-60493783D01*
X78200582Y-60493780D01*
X78108348Y-60372151D01*
X77986719Y-60279917D01*
X77986717Y-60279916D01*
X77915498Y-60251831D01*
X77844709Y-60223915D01*
X77798904Y-60218415D01*
X77755476Y-60213200D01*
X76768524Y-60213200D01*
X76728353Y-60218023D01*
X76679290Y-60223915D01*
X76537280Y-60279917D01*
X76415651Y-60372151D01*
X76360804Y-60444479D01*
X76304611Y-60486003D01*
X76234890Y-60490554D01*
X76173776Y-60456689D01*
X76163196Y-60444479D01*
X76108348Y-60372151D01*
X75986719Y-60279917D01*
X75986715Y-60279915D01*
X75845809Y-60224348D01*
X75790666Y-60181442D01*
X75767473Y-60115534D01*
X75767300Y-60108994D01*
X75767300Y-56891252D01*
X75770133Y-56864897D01*
X75771195Y-56860018D01*
X75767457Y-56807761D01*
X75767300Y-56803341D01*
X75767300Y-56787461D01*
X75765041Y-56771753D01*
X75764567Y-56767346D01*
X75760830Y-56715088D01*
X75760829Y-56715082D01*
X75759084Y-56710403D01*
X75752526Y-56684713D01*
X75751817Y-56679777D01*
X75730054Y-56632123D01*
X75728359Y-56628032D01*
X75710051Y-56578945D01*
X75707064Y-56574955D01*
X75693531Y-56552148D01*
X75691457Y-56547605D01*
X75683484Y-56538404D01*
X75657144Y-56508004D01*
X75654368Y-56504559D01*
X75644862Y-56491861D01*
X75644852Y-56491850D01*
X75642473Y-56489471D01*
X75633621Y-56480619D01*
X75630617Y-56477392D01*
X75596306Y-56437795D01*
X75596303Y-56437792D01*
X75592098Y-56435090D01*
X75571459Y-56418457D01*
X73543003Y-54390001D01*
X75319454Y-54390001D01*
X75339613Y-54671866D01*
X75399678Y-54947977D01*
X75399680Y-54947984D01*
X75434007Y-55040018D01*
X75498432Y-55212750D01*
X75498434Y-55212754D01*
X75633855Y-55460758D01*
X75633860Y-55460766D01*
X75803196Y-55686974D01*
X75803212Y-55686992D01*
X76003007Y-55886787D01*
X76003025Y-55886803D01*
X76229233Y-56056139D01*
X76229241Y-56056144D01*
X76477245Y-56191565D01*
X76477249Y-56191567D01*
X76477251Y-56191568D01*
X76742016Y-56290320D01*
X76880077Y-56320353D01*
X77018133Y-56350386D01*
X77018135Y-56350386D01*
X77018139Y-56350387D01*
X77229447Y-56365500D01*
X77370553Y-56365500D01*
X77581861Y-56350387D01*
X77614017Y-56343392D01*
X77623330Y-56341366D01*
X77857984Y-56290320D01*
X78122749Y-56191568D01*
X78370764Y-56056141D01*
X78596982Y-55886797D01*
X78796797Y-55686982D01*
X78966141Y-55460764D01*
X79101568Y-55212749D01*
X79200320Y-54947984D01*
X79260387Y-54671861D01*
X79279436Y-54405516D01*
X79280546Y-54390001D01*
X79280546Y-54389998D01*
X79267565Y-54208500D01*
X79260387Y-54108139D01*
X79200320Y-53832016D01*
X79101568Y-53567251D01*
X79092547Y-53550731D01*
X78966144Y-53319241D01*
X78966139Y-53319233D01*
X78796803Y-53093025D01*
X78796787Y-53093007D01*
X78596992Y-52893212D01*
X78596974Y-52893196D01*
X78370766Y-52723860D01*
X78370758Y-52723855D01*
X78122754Y-52588434D01*
X78122750Y-52588432D01*
X77988980Y-52538539D01*
X77857984Y-52489680D01*
X77857980Y-52489679D01*
X77857977Y-52489678D01*
X77581866Y-52429613D01*
X77370553Y-52414500D01*
X77229447Y-52414500D01*
X77018133Y-52429613D01*
X76742022Y-52489678D01*
X76742017Y-52489679D01*
X76742016Y-52489680D01*
X76710296Y-52501511D01*
X76477249Y-52588432D01*
X76477245Y-52588434D01*
X76229241Y-52723855D01*
X76229233Y-52723860D01*
X76003025Y-52893196D01*
X76003007Y-52893212D01*
X75803212Y-53093007D01*
X75803196Y-53093025D01*
X75633860Y-53319233D01*
X75633855Y-53319241D01*
X75498434Y-53567245D01*
X75498432Y-53567249D01*
X75467436Y-53650354D01*
X75404987Y-53817789D01*
X75399678Y-53832022D01*
X75339613Y-54108133D01*
X75319454Y-54389998D01*
X75319454Y-54390001D01*
X73543003Y-54390001D01*
X72876982Y-53723980D01*
X72843497Y-53662657D01*
X72848481Y-53592965D01*
X72890353Y-53537032D01*
X72955817Y-53512615D01*
X72964653Y-53512299D01*
X73093578Y-53512299D01*
X73099173Y-53511650D01*
X73128376Y-53508264D01*
X73128616Y-53510337D01*
X73167386Y-53510337D01*
X73167627Y-53508263D01*
X73176889Y-53509337D01*
X73176891Y-53509338D01*
X73202421Y-53512300D01*
X73289897Y-53512299D01*
X73356934Y-53531983D01*
X73389161Y-53561986D01*
X73390806Y-53564183D01*
X73390814Y-53564191D01*
X73505906Y-53650350D01*
X73505913Y-53650354D01*
X73640620Y-53700596D01*
X73640627Y-53700598D01*
X73700155Y-53706999D01*
X73700172Y-53707000D01*
X73748000Y-53707000D01*
X73748000Y-53490121D01*
X73767685Y-53423082D01*
X73784319Y-53402440D01*
X73788725Y-53398034D01*
X73804234Y-53382525D01*
X73810566Y-53368183D01*
X73855651Y-53314808D01*
X73922437Y-53294280D01*
X73989719Y-53313118D01*
X74036136Y-53365341D01*
X74048000Y-53418270D01*
X74048000Y-53707000D01*
X74095828Y-53707000D01*
X74095844Y-53706999D01*
X74155372Y-53700598D01*
X74155379Y-53700596D01*
X74290086Y-53650354D01*
X74290093Y-53650350D01*
X74405187Y-53564190D01*
X74405190Y-53564187D01*
X74491350Y-53449093D01*
X74491354Y-53449086D01*
X74541596Y-53314379D01*
X74541598Y-53314372D01*
X74547999Y-53254844D01*
X74548000Y-53254827D01*
X74548000Y-52982000D01*
X74033883Y-52982000D01*
X74003654Y-52998505D01*
X73933962Y-52993519D01*
X73878030Y-52951646D01*
X73853615Y-52886181D01*
X73853299Y-52877353D01*
X73853299Y-52805998D01*
X73872984Y-52738961D01*
X73925788Y-52693206D01*
X73977299Y-52682000D01*
X74548000Y-52682000D01*
X74548000Y-52409172D01*
X74547999Y-52409155D01*
X74541598Y-52349627D01*
X74541596Y-52349620D01*
X74491354Y-52214913D01*
X74491350Y-52214906D01*
X74405190Y-52099812D01*
X74405187Y-52099809D01*
X74290092Y-52013648D01*
X74283960Y-52011361D01*
X74228028Y-51969487D01*
X74203615Y-51904021D01*
X74203299Y-51895205D01*
X74203299Y-50686422D01*
X74200338Y-50660891D01*
X74200337Y-50660890D01*
X74199507Y-50653726D01*
X74211336Y-50584865D01*
X74234994Y-50551764D01*
X74304234Y-50482525D01*
X74350338Y-50378109D01*
X74353300Y-50352579D01*
X74353299Y-49784399D01*
X74372983Y-49717361D01*
X74425787Y-49671606D01*
X74477299Y-49660400D01*
X80373100Y-49660400D01*
X80440139Y-49680085D01*
G37*
%TD.AperFunction*%
%TA.AperFunction,Conductor*%
G36*
X67763739Y-57944985D02*
G01*
X67809494Y-57997789D01*
X67820700Y-58049300D01*
X67820700Y-58943345D01*
X67817868Y-58969697D01*
X67816804Y-58974585D01*
X67820542Y-59026833D01*
X67820700Y-59031257D01*
X67820700Y-59047140D01*
X67822959Y-59062854D01*
X67823431Y-59067250D01*
X67827170Y-59119515D01*
X67828917Y-59124198D01*
X67835471Y-59149874D01*
X67836183Y-59154823D01*
X67854601Y-59195154D01*
X67857941Y-59202466D01*
X67859635Y-59206555D01*
X67877948Y-59255652D01*
X67877949Y-59255655D01*
X67880940Y-59259650D01*
X67894465Y-59282446D01*
X67896541Y-59286992D01*
X67896542Y-59286994D01*
X67896543Y-59286995D01*
X67930860Y-59326599D01*
X67933627Y-59330033D01*
X67943136Y-59342736D01*
X67943142Y-59342742D01*
X67943146Y-59342748D01*
X67943153Y-59342755D01*
X67954363Y-59353965D01*
X67957380Y-59357205D01*
X67991696Y-59396807D01*
X67995899Y-59399508D01*
X68016538Y-59416140D01*
X68573381Y-59972983D01*
X68606866Y-60034306D01*
X68609700Y-60060664D01*
X68609700Y-60604850D01*
X68612583Y-60635600D01*
X68612584Y-60635603D01*
X68657914Y-60765150D01*
X68657915Y-60765152D01*
X68739417Y-60875582D01*
X68834733Y-60945929D01*
X68849849Y-60957085D01*
X68878069Y-60966959D01*
X68934843Y-61007680D01*
X68960590Y-61072633D01*
X68947134Y-61141194D01*
X68898747Y-61191597D01*
X68837112Y-61208000D01*
X64522503Y-61208000D01*
X64501068Y-61214965D01*
X64482152Y-61219506D01*
X64459894Y-61223031D01*
X64439807Y-61233266D01*
X64421837Y-61240709D01*
X64400406Y-61247672D01*
X64400403Y-61247674D01*
X64382170Y-61260921D01*
X64365583Y-61271085D01*
X64340376Y-61283929D01*
X64271707Y-61296826D01*
X64206966Y-61270551D01*
X64166709Y-61213445D01*
X64160080Y-61173445D01*
X64160080Y-60499995D01*
X64158757Y-60471388D01*
X64126334Y-60357434D01*
X64126920Y-60287567D01*
X64132163Y-60273420D01*
X64177338Y-60171109D01*
X64180300Y-60145579D01*
X64180299Y-58954422D01*
X64177338Y-58928891D01*
X64175363Y-58924417D01*
X64165865Y-58902905D01*
X64155300Y-58852821D01*
X64155300Y-58851288D01*
X64174985Y-58784249D01*
X64180913Y-58775815D01*
X64239054Y-58700046D01*
X64295007Y-58564962D01*
X64303236Y-58502453D01*
X64308141Y-58483267D01*
X64309298Y-58477073D01*
X64309300Y-58477070D01*
X64309300Y-58477066D01*
X64310844Y-58468806D01*
X64312487Y-58457032D01*
X64313365Y-58447551D01*
X64313862Y-58421739D01*
X64314092Y-58420000D01*
X64309830Y-58387633D01*
X64309300Y-58379534D01*
X64309300Y-58049300D01*
X64328985Y-57982261D01*
X64381789Y-57936506D01*
X64433300Y-57925300D01*
X67696700Y-57925300D01*
X67763739Y-57944985D01*
G37*
%TD.AperFunction*%
%TA.AperFunction,Conductor*%
G36*
X63193039Y-52769685D02*
G01*
X63238794Y-52822489D01*
X63250000Y-52874000D01*
X63250000Y-53860000D01*
X64285000Y-53860000D01*
X64285000Y-53584500D01*
X64284999Y-53584486D01*
X64277843Y-53517932D01*
X64290247Y-53449172D01*
X64337857Y-53398034D01*
X64405556Y-53380754D01*
X64471851Y-53402818D01*
X64488813Y-53416994D01*
X66685018Y-55613199D01*
X66775801Y-55703982D01*
X66795887Y-55714216D01*
X66812469Y-55724377D01*
X66830704Y-55737626D01*
X66836318Y-55739450D01*
X66852134Y-55744589D01*
X66870107Y-55752033D01*
X66890194Y-55762268D01*
X66912455Y-55765793D01*
X66931371Y-55770335D01*
X66952807Y-55777300D01*
X66985103Y-55777300D01*
X67188118Y-55777300D01*
X67255157Y-55796985D01*
X67300912Y-55849789D01*
X67310856Y-55918947D01*
X67308337Y-55931687D01*
X67306416Y-55939284D01*
X67303240Y-55965737D01*
X67295700Y-56028524D01*
X67295700Y-56028530D01*
X67295700Y-56790700D01*
X67276015Y-56857739D01*
X67223211Y-56903494D01*
X67171700Y-56914700D01*
X64014693Y-56914700D01*
X63947654Y-56895015D01*
X63927005Y-56878374D01*
X63906373Y-56857739D01*
X63545260Y-56496568D01*
X63545202Y-56496500D01*
X63530338Y-56481636D01*
X63513927Y-56465225D01*
X63513753Y-56465037D01*
X63486375Y-56437673D01*
X63486180Y-56437477D01*
X63459759Y-56411053D01*
X63459691Y-56410989D01*
X63435429Y-56386727D01*
X63435428Y-56386726D01*
X63429274Y-56380572D01*
X63429063Y-56380389D01*
X63318405Y-56269783D01*
X63306294Y-56257678D01*
X63305118Y-56256416D01*
X63292934Y-56244232D01*
X63289917Y-56240992D01*
X63255606Y-56201395D01*
X63255603Y-56201392D01*
X63251398Y-56198690D01*
X63230759Y-56182057D01*
X63075762Y-56027060D01*
X63042277Y-55965737D01*
X63043710Y-55920240D01*
X63042203Y-55920101D01*
X63043365Y-55907551D01*
X63043862Y-55881739D01*
X63044092Y-55880000D01*
X63039830Y-55847633D01*
X63039300Y-55839534D01*
X63039300Y-54989000D01*
X63058985Y-54921961D01*
X63111789Y-54876206D01*
X63163300Y-54865000D01*
X63175500Y-54865000D01*
X63175516Y-54864999D01*
X63236011Y-54858494D01*
X63236014Y-54858493D01*
X63281663Y-54841467D01*
X63351354Y-54836481D01*
X63368332Y-54841467D01*
X63413978Y-54858492D01*
X63413983Y-54858493D01*
X63474483Y-54864999D01*
X63474500Y-54865000D01*
X63515000Y-54865000D01*
X63515000Y-54130000D01*
X63785000Y-54130000D01*
X63785000Y-54865000D01*
X63825500Y-54865000D01*
X63825516Y-54864999D01*
X63886016Y-54858493D01*
X63886017Y-54858493D01*
X64022907Y-54807436D01*
X64022909Y-54807435D01*
X64139875Y-54719875D01*
X64227435Y-54602909D01*
X64227436Y-54602907D01*
X64278493Y-54466017D01*
X64278493Y-54466016D01*
X64284999Y-54405516D01*
X64285000Y-54405499D01*
X64285000Y-54130000D01*
X63785000Y-54130000D01*
X63515000Y-54130000D01*
X62989000Y-54130000D01*
X62921961Y-54110315D01*
X62876206Y-54057511D01*
X62865000Y-54006000D01*
X62865000Y-53865000D01*
X62828681Y-53828681D01*
X62830913Y-53826448D01*
X62801506Y-53792511D01*
X62790300Y-53741000D01*
X62790300Y-53596375D01*
X62786465Y-53567249D01*
X62784291Y-53550735D01*
X62766369Y-53512300D01*
X62761617Y-53502108D01*
X62750000Y-53449705D01*
X62750000Y-52874000D01*
X62769685Y-52806961D01*
X62822489Y-52761206D01*
X62874000Y-52750000D01*
X63126000Y-52750000D01*
X63193039Y-52769685D01*
G37*
%TD.AperFunction*%
%TA.AperFunction,Conductor*%
G36*
X67051334Y-53764985D02*
G01*
X67097089Y-53817789D01*
X67107653Y-53881903D01*
X67101000Y-53947014D01*
X67101000Y-54084500D01*
X68076000Y-54084500D01*
X68076000Y-53869300D01*
X68095685Y-53802261D01*
X68148489Y-53756506D01*
X68200000Y-53745300D01*
X68452000Y-53745300D01*
X68519039Y-53764985D01*
X68564794Y-53817789D01*
X68576000Y-53869300D01*
X68576000Y-54084500D01*
X70484000Y-54084500D01*
X70551039Y-54104185D01*
X70596794Y-54156989D01*
X70608000Y-54208500D01*
X70608000Y-54460500D01*
X70588315Y-54527539D01*
X70535511Y-54573294D01*
X70484000Y-54584500D01*
X67101001Y-54584500D01*
X67100567Y-54584933D01*
X67081316Y-54650497D01*
X67028512Y-54696252D01*
X66959354Y-54706196D01*
X66895798Y-54677171D01*
X66889320Y-54671139D01*
X66175162Y-53956981D01*
X66141677Y-53895658D01*
X66146661Y-53825966D01*
X66188533Y-53770033D01*
X66253997Y-53745616D01*
X66262843Y-53745300D01*
X66290403Y-53745300D01*
X66984295Y-53745300D01*
X67051334Y-53764985D01*
G37*
%TD.AperFunction*%
%TA.AperFunction,Conductor*%
G36*
X69550210Y-45895041D02*
G01*
X69576487Y-45915089D01*
X70451436Y-46790037D01*
X71587717Y-47926318D01*
X71621202Y-47987641D01*
X71616218Y-48057333D01*
X71587717Y-48101680D01*
X70348017Y-49341381D01*
X70286694Y-49374866D01*
X70260336Y-49377700D01*
X70093524Y-49377700D01*
X70053353Y-49382523D01*
X70004290Y-49388415D01*
X69862280Y-49444417D01*
X69740651Y-49536651D01*
X69648416Y-49658281D01*
X69637214Y-49686690D01*
X69594308Y-49741834D01*
X69528400Y-49765027D01*
X69521859Y-49765200D01*
X69416141Y-49765200D01*
X69349102Y-49745515D01*
X69303347Y-49692711D01*
X69300786Y-49686690D01*
X69298181Y-49680085D01*
X69289584Y-49658283D01*
X69289583Y-49658282D01*
X69289583Y-49658281D01*
X69197348Y-49536651D01*
X69075719Y-49444417D01*
X69075717Y-49444416D01*
X69004714Y-49416416D01*
X68933709Y-49388415D01*
X68887904Y-49382915D01*
X68844476Y-49377700D01*
X67807524Y-49377700D01*
X67767353Y-49382523D01*
X67718290Y-49388415D01*
X67576280Y-49444417D01*
X67454651Y-49536651D01*
X67362417Y-49658280D01*
X67306415Y-49800290D01*
X67303823Y-49821878D01*
X67295700Y-49889524D01*
X67295700Y-50651476D01*
X67301327Y-50698341D01*
X67306415Y-50740709D01*
X67362417Y-50882719D01*
X67454651Y-51004348D01*
X67583041Y-51101709D01*
X67580884Y-51104552D01*
X67618045Y-51142583D01*
X67632106Y-51211023D01*
X67606934Y-51276200D01*
X67550520Y-51317422D01*
X67547540Y-51318452D01*
X67531882Y-51323640D01*
X67531875Y-51323643D01*
X67382654Y-51415684D01*
X67258684Y-51539654D01*
X67166643Y-51688875D01*
X67166641Y-51688880D01*
X67111494Y-51855302D01*
X67111493Y-51855309D01*
X67101000Y-51958013D01*
X67101000Y-52095500D01*
X70738000Y-52095500D01*
X70805039Y-52115185D01*
X70850794Y-52167989D01*
X70862000Y-52219500D01*
X70862000Y-52471500D01*
X70842315Y-52538539D01*
X70789511Y-52584294D01*
X70738000Y-52595500D01*
X68576000Y-52595500D01*
X68576000Y-52810700D01*
X68556315Y-52877739D01*
X68503511Y-52923494D01*
X68452000Y-52934700D01*
X68200000Y-52934700D01*
X68132961Y-52915015D01*
X68087206Y-52862211D01*
X68076000Y-52810700D01*
X68076000Y-52595500D01*
X67101001Y-52595500D01*
X67101001Y-52732989D01*
X67107653Y-52798099D01*
X67094883Y-52866792D01*
X67047002Y-52917676D01*
X66984295Y-52934700D01*
X66541543Y-52934700D01*
X66474504Y-52915015D01*
X66453862Y-52898381D01*
X64734019Y-51178538D01*
X64700534Y-51117215D01*
X64697700Y-51090857D01*
X64697700Y-50480842D01*
X64717385Y-50413803D01*
X64734019Y-50393161D01*
X66297065Y-48830115D01*
X67867105Y-47260074D01*
X67928426Y-47226591D01*
X67990778Y-47229096D01*
X68119125Y-47268031D01*
X68326000Y-47288406D01*
X68532875Y-47268031D01*
X68731800Y-47207687D01*
X68915130Y-47109695D01*
X69075820Y-46977820D01*
X69207695Y-46817130D01*
X69305687Y-46633800D01*
X69366031Y-46434875D01*
X69386406Y-46228000D01*
X69366031Y-46021125D01*
X69365434Y-46015063D01*
X69368274Y-46014783D01*
X69373437Y-45957330D01*
X69416320Y-45902169D01*
X69482219Y-45878948D01*
X69550210Y-45895041D01*
G37*
%TD.AperFunction*%
%TA.AperFunction,Conductor*%
G36*
X61365130Y-45634870D02*
G01*
X61555819Y-45797733D01*
X60997135Y-46356416D01*
X61038439Y-46294601D01*
X61057842Y-46197056D01*
X61038439Y-46099511D01*
X60983184Y-46016816D01*
X60900489Y-45961561D01*
X60827568Y-45947056D01*
X60778320Y-45947056D01*
X60705399Y-45961561D01*
X60643577Y-46002868D01*
X61202266Y-45444180D01*
X61365130Y-45634870D01*
G37*
%TD.AperFunction*%
%TA.AperFunction,Conductor*%
G36*
X120555819Y-43202266D02*
G01*
X120365130Y-43365130D01*
X120202266Y-43555819D01*
X119643581Y-42997133D01*
X119705399Y-43038439D01*
X119778320Y-43052944D01*
X119827568Y-43052944D01*
X119900489Y-43038439D01*
X119983184Y-42983184D01*
X120038439Y-42900489D01*
X120057842Y-42802944D01*
X120038439Y-42705399D01*
X119997133Y-42643581D01*
X120555819Y-43202266D01*
G37*
%TD.AperFunction*%
%TA.AperFunction,Conductor*%
G36*
X61555819Y-43202266D02*
G01*
X61365130Y-43365130D01*
X61202266Y-43555818D01*
X60643582Y-42997134D01*
X60705399Y-43038439D01*
X60778320Y-43052944D01*
X60827568Y-43052944D01*
X60900489Y-43038439D01*
X60983184Y-42983184D01*
X61038439Y-42900489D01*
X61057842Y-42802944D01*
X61038439Y-42705399D01*
X60997133Y-42643581D01*
X61555819Y-43202266D01*
G37*
%TD.AperFunction*%
%TA.AperFunction,Conductor*%
G36*
X63961561Y-42705399D02*
G01*
X63942158Y-42802944D01*
X63961561Y-42900489D01*
X64016816Y-42983184D01*
X64099511Y-43038439D01*
X64172432Y-43052944D01*
X64221680Y-43052944D01*
X64294601Y-43038439D01*
X64356416Y-42997135D01*
X63797733Y-43555818D01*
X63634870Y-43365130D01*
X63444180Y-43202266D01*
X64002867Y-42643578D01*
X63961561Y-42705399D01*
G37*
%TD.AperFunction*%
%TA.AperFunction,Conductor*%
G36*
X122961561Y-42705399D02*
G01*
X122942158Y-42802944D01*
X122961561Y-42900489D01*
X123016816Y-42983184D01*
X123099511Y-43038439D01*
X123172432Y-43052944D01*
X123221680Y-43052944D01*
X123294601Y-43038439D01*
X123356414Y-42997136D01*
X122797732Y-43555818D01*
X122634870Y-43365130D01*
X122444180Y-43202266D01*
X123002867Y-42643578D01*
X122961561Y-42705399D01*
G37*
%TD.AperFunction*%
%TD*%
M02*
