%TF.GenerationSoftware,KiCad,Pcbnew,7.0.6-0*%
%TF.CreationDate,2023-08-18T22:24:39+03:00*%
%TF.ProjectId,iot-data-logger-nfc-samd21,696f742d-6461-4746-912d-6c6f67676572,rev?*%
%TF.SameCoordinates,Original*%
%TF.FileFunction,Soldermask,Top*%
%TF.FilePolarity,Negative*%
%FSLAX46Y46*%
G04 Gerber Fmt 4.6, Leading zero omitted, Abs format (unit mm)*
G04 Created by KiCad (PCBNEW 7.0.6-0) date 2023-08-18 22:24:39*
%MOMM*%
%LPD*%
G01*
G04 APERTURE LIST*
G04 Aperture macros list*
%AMRoundRect*
0 Rectangle with rounded corners*
0 $1 Rounding radius*
0 $2 $3 $4 $5 $6 $7 $8 $9 X,Y pos of 4 corners*
0 Add a 4 corners polygon primitive as box body*
4,1,4,$2,$3,$4,$5,$6,$7,$8,$9,$2,$3,0*
0 Add four circle primitives for the rounded corners*
1,1,$1+$1,$2,$3*
1,1,$1+$1,$4,$5*
1,1,$1+$1,$6,$7*
1,1,$1+$1,$8,$9*
0 Add four rect primitives between the rounded corners*
20,1,$1+$1,$2,$3,$4,$5,0*
20,1,$1+$1,$4,$5,$6,$7,0*
20,1,$1+$1,$6,$7,$8,$9,0*
20,1,$1+$1,$8,$9,$2,$3,0*%
%AMFreePoly0*
4,1,9,5.362500,-0.866500,1.237500,-0.866500,1.237500,-0.450000,-1.237500,-0.450000,-1.237500,0.450000,1.237500,0.450000,1.237500,0.866500,5.362500,0.866500,5.362500,-0.866500,5.362500,-0.866500,$1*%
%AMFreePoly1*
4,1,6,0.500000,-0.850000,-0.500000,-0.850000,-0.500000,0.550000,-0.200000,0.850000,0.500000,0.850000,0.500000,-0.850000,0.500000,-0.850000,$1*%
G04 Aperture macros list end*
%ADD10C,0.010000*%
%ADD11R,0.900000X2.300000*%
%ADD12FreePoly0,270.000000*%
%ADD13RoundRect,0.250000X-0.450000X0.350000X-0.450000X-0.350000X0.450000X-0.350000X0.450000X0.350000X0*%
%ADD14RoundRect,0.008100X0.126900X-0.361900X0.126900X0.361900X-0.126900X0.361900X-0.126900X-0.361900X0*%
%ADD15R,1.350000X0.650000*%
%ADD16RoundRect,0.250000X-0.337500X-0.475000X0.337500X-0.475000X0.337500X0.475000X-0.337500X0.475000X0*%
%ADD17RoundRect,0.250000X0.450000X-0.350000X0.450000X0.350000X-0.450000X0.350000X-0.450000X-0.350000X0*%
%ADD18C,1.500000*%
%ADD19RoundRect,0.250000X-0.475000X0.337500X-0.475000X-0.337500X0.475000X-0.337500X0.475000X0.337500X0*%
%ADD20R,1.000000X0.700000*%
%ADD21R,0.600000X0.700000*%
%ADD22R,1.000000X1.000000*%
%ADD23RoundRect,0.250000X0.400000X1.450000X-0.400000X1.450000X-0.400000X-1.450000X0.400000X-1.450000X0*%
%ADD24R,1.700000X1.700000*%
%ADD25O,1.700000X1.700000*%
%ADD26C,0.800000*%
%ADD27C,6.400000*%
%ADD28RoundRect,0.150000X-0.150000X0.587500X-0.150000X-0.587500X0.150000X-0.587500X0.150000X0.587500X0*%
%ADD29RoundRect,0.250000X0.475000X-0.337500X0.475000X0.337500X-0.475000X0.337500X-0.475000X-0.337500X0*%
%ADD30R,0.250000X1.100000*%
%ADD31FreePoly1,90.000000*%
%ADD32RoundRect,0.250000X0.350000X0.450000X-0.350000X0.450000X-0.350000X-0.450000X0.350000X-0.450000X0*%
%ADD33RoundRect,0.250000X0.337500X0.475000X-0.337500X0.475000X-0.337500X-0.475000X0.337500X-0.475000X0*%
%ADD34R,0.300000X0.750000*%
%ADD35R,1.500000X1.300000*%
%ADD36RoundRect,0.250000X-0.350000X-0.450000X0.350000X-0.450000X0.350000X0.450000X-0.350000X0.450000X0*%
%ADD37R,1.600000X0.550000*%
%ADD38R,0.550000X1.600000*%
%ADD39R,1.800000X1.750000*%
%ADD40RoundRect,0.150000X0.150000X-0.650000X0.150000X0.650000X-0.150000X0.650000X-0.150000X-0.650000X0*%
%ADD41RoundRect,0.250000X-0.650000X0.412500X-0.650000X-0.412500X0.650000X-0.412500X0.650000X0.412500X0*%
%ADD42RoundRect,0.100000X0.637500X0.100000X-0.637500X0.100000X-0.637500X-0.100000X0.637500X-0.100000X0*%
%ADD43C,0.600000*%
%ADD44C,0.500000*%
%ADD45RoundRect,0.250000X0.325000X0.450000X-0.325000X0.450000X-0.325000X-0.450000X0.325000X-0.450000X0*%
%ADD46O,1.600000X1.000000*%
%ADD47O,2.100000X1.000000*%
%ADD48C,3.450000*%
%ADD49R,2.000000X2.000000*%
%ADD50C,2.000000*%
G04 APERTURE END LIST*
%TO.C,U7*%
D10*
X87584500Y-72831000D02*
X86669500Y-72831000D01*
X86669500Y-72425000D01*
X87584500Y-72425000D01*
X87584500Y-72831000D01*
G36*
X87584500Y-72831000D02*
G01*
X86669500Y-72831000D01*
X86669500Y-72425000D01*
X87584500Y-72425000D01*
X87584500Y-72831000D01*
G37*
X87584500Y-72331000D02*
X86669500Y-72331000D01*
X86669500Y-71925000D01*
X87584500Y-71925000D01*
X87584500Y-72331000D01*
G36*
X87584500Y-72331000D02*
G01*
X86669500Y-72331000D01*
X86669500Y-71925000D01*
X87584500Y-71925000D01*
X87584500Y-72331000D01*
G37*
X87584500Y-71831000D02*
X86669500Y-71831000D01*
X86669500Y-71425000D01*
X87584500Y-71425000D01*
X87584500Y-71831000D01*
G36*
X87584500Y-71831000D02*
G01*
X86669500Y-71831000D01*
X86669500Y-71425000D01*
X87584500Y-71425000D01*
X87584500Y-71831000D01*
G37*
X87584500Y-71331000D02*
X86669500Y-71331000D01*
X86669500Y-70925000D01*
X87584500Y-70925000D01*
X87584500Y-71331000D01*
G36*
X87584500Y-71331000D02*
G01*
X86669500Y-71331000D01*
X86669500Y-70925000D01*
X87584500Y-70925000D01*
X87584500Y-71331000D01*
G37*
X87584500Y-70831000D02*
X86669500Y-70831000D01*
X86669500Y-70425000D01*
X87584500Y-70425000D01*
X87584500Y-70831000D01*
G36*
X87584500Y-70831000D02*
G01*
X86669500Y-70831000D01*
X86669500Y-70425000D01*
X87584500Y-70425000D01*
X87584500Y-70831000D01*
G37*
X86555000Y-73360500D02*
X86149000Y-73360500D01*
X86149000Y-72445500D01*
X86555000Y-72445500D01*
X86555000Y-73360500D01*
G36*
X86555000Y-73360500D02*
G01*
X86149000Y-73360500D01*
X86149000Y-72445500D01*
X86555000Y-72445500D01*
X86555000Y-73360500D01*
G37*
X86555000Y-70810500D02*
X86149000Y-70810500D01*
X86149000Y-69895500D01*
X86555000Y-69895500D01*
X86555000Y-70810500D01*
G36*
X86555000Y-70810500D02*
G01*
X86149000Y-70810500D01*
X86149000Y-69895500D01*
X86555000Y-69895500D01*
X86555000Y-70810500D01*
G37*
X86055000Y-73360500D02*
X85649000Y-73360500D01*
X85649000Y-72445500D01*
X86055000Y-72445500D01*
X86055000Y-73360500D01*
G36*
X86055000Y-73360500D02*
G01*
X85649000Y-73360500D01*
X85649000Y-72445500D01*
X86055000Y-72445500D01*
X86055000Y-73360500D01*
G37*
X86055000Y-70810500D02*
X85649000Y-70810500D01*
X85649000Y-69895500D01*
X86055000Y-69895500D01*
X86055000Y-70810500D01*
G36*
X86055000Y-70810500D02*
G01*
X85649000Y-70810500D01*
X85649000Y-69895500D01*
X86055000Y-69895500D01*
X86055000Y-70810500D01*
G37*
X85555000Y-73360500D02*
X85149000Y-73360500D01*
X85149000Y-72445500D01*
X85555000Y-72445500D01*
X85555000Y-73360500D01*
G36*
X85555000Y-73360500D02*
G01*
X85149000Y-73360500D01*
X85149000Y-72445500D01*
X85555000Y-72445500D01*
X85555000Y-73360500D01*
G37*
X85555000Y-70810500D02*
X85149000Y-70810500D01*
X85149000Y-69895500D01*
X85555000Y-69895500D01*
X85555000Y-70810500D01*
G36*
X85555000Y-70810500D02*
G01*
X85149000Y-70810500D01*
X85149000Y-69895500D01*
X85555000Y-69895500D01*
X85555000Y-70810500D01*
G37*
X85034500Y-72831000D02*
X84119500Y-72831000D01*
X84119500Y-72425000D01*
X85034500Y-72425000D01*
X85034500Y-72831000D01*
G36*
X85034500Y-72831000D02*
G01*
X84119500Y-72831000D01*
X84119500Y-72425000D01*
X85034500Y-72425000D01*
X85034500Y-72831000D01*
G37*
X85034500Y-72331000D02*
X84119500Y-72331000D01*
X84119500Y-71925000D01*
X85034500Y-71925000D01*
X85034500Y-72331000D01*
G36*
X85034500Y-72331000D02*
G01*
X84119500Y-72331000D01*
X84119500Y-71925000D01*
X85034500Y-71925000D01*
X85034500Y-72331000D01*
G37*
X85034500Y-71831000D02*
X84119500Y-71831000D01*
X84119500Y-71425000D01*
X85034500Y-71425000D01*
X85034500Y-71831000D01*
G36*
X85034500Y-71831000D02*
G01*
X84119500Y-71831000D01*
X84119500Y-71425000D01*
X85034500Y-71425000D01*
X85034500Y-71831000D01*
G37*
X85034500Y-71331000D02*
X84119500Y-71331000D01*
X84119500Y-70925000D01*
X85034500Y-70925000D01*
X85034500Y-71331000D01*
G36*
X85034500Y-71331000D02*
G01*
X84119500Y-71331000D01*
X84119500Y-70925000D01*
X85034500Y-70925000D01*
X85034500Y-71331000D01*
G37*
X85034500Y-70831000D02*
X84119500Y-70831000D01*
X84119500Y-70425000D01*
X85034500Y-70425000D01*
X85034500Y-70831000D01*
G36*
X85034500Y-70831000D02*
G01*
X84119500Y-70831000D01*
X84119500Y-70425000D01*
X85034500Y-70425000D01*
X85034500Y-70831000D01*
G37*
%TD*%
D11*
%TO.C,U1*%
X78970000Y-90768000D03*
D12*
X77470000Y-90855500D03*
D11*
X75970000Y-90768000D03*
%TD*%
D13*
%TO.C,R9*%
X77262000Y-61118500D03*
X77262000Y-63118500D03*
%TD*%
D14*
%TO.C,U8*%
X62350000Y-53995000D03*
X63000000Y-53995000D03*
X63650000Y-53995000D03*
X63650000Y-52005000D03*
X63000000Y-52005000D03*
X62350000Y-52005000D03*
D15*
X63000000Y-53000000D03*
%TD*%
D16*
%TO.C,C19*%
X89132500Y-76200000D03*
X91207500Y-76200000D03*
%TD*%
D17*
%TO.C,R1*%
X70485000Y-86344000D03*
X70485000Y-84344000D03*
%TD*%
D18*
%TO.C,TP1*%
X83566000Y-46228000D03*
%TD*%
D19*
%TO.C,C4*%
X84368000Y-63168500D03*
X84368000Y-65243500D03*
%TD*%
D20*
%TO.C,D3*%
X61988000Y-84566000D03*
D21*
X63688000Y-84566000D03*
X63688000Y-82566000D03*
X61788000Y-82566000D03*
%TD*%
D22*
%TO.C,D1*%
X60726000Y-86360000D03*
X63226000Y-86360000D03*
%TD*%
D23*
%TO.C,F1*%
X92903000Y-93218000D03*
X88453000Y-93218000D03*
%TD*%
D19*
%TO.C,C11*%
X74549000Y-84306500D03*
X74549000Y-86381500D03*
%TD*%
D24*
%TO.C,J1*%
X114808000Y-93472000D03*
D25*
X112268000Y-93472000D03*
X109728000Y-93472000D03*
X107188000Y-93472000D03*
X104648000Y-93472000D03*
X102108000Y-93472000D03*
X99568000Y-93472000D03*
X97028000Y-93472000D03*
%TD*%
D26*
%TO.C,H3*%
X119100000Y-93500000D03*
X119802944Y-91802944D03*
X119802944Y-95197056D03*
X121500000Y-91100000D03*
D27*
X121500000Y-93500000D03*
D26*
X121500000Y-95900000D03*
X123197056Y-91802944D03*
X123197056Y-95197056D03*
X123900000Y-93500000D03*
%TD*%
D28*
%TO.C,Q1*%
X83246000Y-90502500D03*
X81346000Y-90502500D03*
X82296000Y-92377500D03*
%TD*%
D29*
%TO.C,C16*%
X68326000Y-56409500D03*
X68326000Y-54334500D03*
%TD*%
D13*
%TO.C,R3*%
X86487000Y-84344000D03*
X86487000Y-86344000D03*
%TD*%
D17*
%TO.C,R6*%
X67691000Y-88503000D03*
X67691000Y-86503000D03*
%TD*%
D16*
%TO.C,C14*%
X80205500Y-65278000D03*
X82280500Y-65278000D03*
%TD*%
%TO.C,C20*%
X89132500Y-71120000D03*
X91207500Y-71120000D03*
%TD*%
D19*
%TO.C,C2*%
X84074000Y-74908500D03*
X84074000Y-76983500D03*
%TD*%
D13*
%TO.C,R4*%
X88646000Y-84344000D03*
X88646000Y-86344000D03*
%TD*%
D18*
%TO.C,TP6*%
X89154000Y-46228000D03*
%TD*%
D13*
%TO.C,R10*%
X75262000Y-61118500D03*
X75262000Y-63118500D03*
%TD*%
D16*
%TO.C,C10*%
X85068500Y-52324000D03*
X87143500Y-52324000D03*
%TD*%
%TO.C,C12*%
X67542500Y-94488000D03*
X69617500Y-94488000D03*
%TD*%
D30*
%TO.C,U6*%
X62250000Y-62450000D03*
X62750000Y-62450000D03*
X63250000Y-62450000D03*
X63750000Y-62450000D03*
X63750000Y-59550000D03*
X63250000Y-59550000D03*
X62750000Y-59550000D03*
X62250000Y-59550000D03*
D31*
X63000000Y-61000000D03*
%TD*%
D32*
%TO.C,R8*%
X64246000Y-74295000D03*
X62246000Y-74295000D03*
%TD*%
D18*
%TO.C,TP8*%
X81788000Y-70866000D03*
%TD*%
D16*
%TO.C,C13*%
X80205500Y-67310000D03*
X82280500Y-67310000D03*
%TD*%
D33*
%TO.C,C5*%
X69617500Y-90424000D03*
X67542500Y-90424000D03*
%TD*%
D34*
%TO.C,U4*%
X72398000Y-52832000D03*
X72898000Y-52832000D03*
X73398000Y-52832000D03*
X73898000Y-52832000D03*
X73898000Y-49932000D03*
X73398000Y-49932000D03*
X72898000Y-49932000D03*
X72398000Y-49932000D03*
D35*
X73148000Y-51382000D03*
%TD*%
D36*
%TO.C,R7*%
X62246000Y-76454000D03*
X64246000Y-76454000D03*
%TD*%
D37*
%TO.C,U2*%
X78952500Y-77989000D03*
X78952500Y-77189000D03*
X78952500Y-76389000D03*
X78952500Y-75589000D03*
X78952500Y-74789000D03*
X78952500Y-73989000D03*
X78952500Y-73189000D03*
X78952500Y-72389000D03*
D38*
X77502500Y-70939000D03*
X76702500Y-70939000D03*
X75902500Y-70939000D03*
X75102500Y-70939000D03*
X74302500Y-70939000D03*
X73502500Y-70939000D03*
X72702500Y-70939000D03*
X71902500Y-70939000D03*
D37*
X70452500Y-72389000D03*
X70452500Y-73189000D03*
X70452500Y-73989000D03*
X70452500Y-74789000D03*
X70452500Y-75589000D03*
X70452500Y-76389000D03*
X70452500Y-77189000D03*
X70452500Y-77989000D03*
D38*
X71902500Y-79439000D03*
X72702500Y-79439000D03*
X73502500Y-79439000D03*
X74302500Y-79439000D03*
X75102500Y-79439000D03*
X75902500Y-79439000D03*
X76702500Y-79439000D03*
X77502500Y-79439000D03*
%TD*%
D36*
%TO.C,R5*%
X67580000Y-92456000D03*
X69580000Y-92456000D03*
%TD*%
D29*
%TO.C,C8*%
X70358000Y-56409500D03*
X70358000Y-54334500D03*
%TD*%
D18*
%TO.C,TP2*%
X86360000Y-46228000D03*
%TD*%
D32*
%TO.C,FB1*%
X82243000Y-63246000D03*
X80243000Y-63246000D03*
%TD*%
D39*
%TO.C,Y1*%
X81788000Y-79349000D03*
X81788000Y-76099000D03*
%TD*%
D18*
%TO.C,TP11*%
X68326000Y-46228000D03*
%TD*%
D19*
%TO.C,C15*%
X70612000Y-50270500D03*
X70612000Y-52345500D03*
%TD*%
D26*
%TO.C,H1*%
X60100000Y-44500000D03*
X60802944Y-42802944D03*
X60802944Y-46197056D03*
X62500000Y-42100000D03*
D27*
X62500000Y-44500000D03*
D26*
X62500000Y-46900000D03*
X64197056Y-42802944D03*
X64197056Y-46197056D03*
X64900000Y-44500000D03*
%TD*%
D19*
%TO.C,C9*%
X76708000Y-84306500D03*
X76708000Y-86381500D03*
%TD*%
D40*
%TO.C,U3*%
X69215000Y-67100000D03*
X70485000Y-67100000D03*
X71755000Y-67100000D03*
X73025000Y-67100000D03*
X73025000Y-59900000D03*
X71755000Y-59900000D03*
X70485000Y-59900000D03*
X69215000Y-59900000D03*
%TD*%
D41*
%TO.C,C3*%
X86868000Y-63143500D03*
X86868000Y-66268500D03*
%TD*%
D18*
%TO.C,TP9*%
X81788000Y-73406000D03*
%TD*%
D29*
%TO.C,C6*%
X90805000Y-86381500D03*
X90805000Y-84306500D03*
%TD*%
D42*
%TO.C,U9*%
X91000500Y-50210000D03*
X91000500Y-49560000D03*
X91000500Y-48910000D03*
X91000500Y-48260000D03*
X85275500Y-48260000D03*
X85275500Y-48910000D03*
X85275500Y-49560000D03*
X85275500Y-50210000D03*
%TD*%
D13*
%TO.C,R2*%
X72517000Y-84344000D03*
X72517000Y-86344000D03*
%TD*%
D19*
%TO.C,C21*%
X68326000Y-50270500D03*
X68326000Y-52345500D03*
%TD*%
D29*
%TO.C,C1*%
X84074000Y-80793500D03*
X84074000Y-78718500D03*
%TD*%
D16*
%TO.C,C18*%
X89111000Y-74168000D03*
X91186000Y-74168000D03*
%TD*%
D43*
%TO.C,AE1*%
X98500000Y-54000000D03*
D44*
X94500000Y-49000000D03*
%TD*%
D45*
%TO.C,D2*%
X64025000Y-69000000D03*
X61975000Y-69000000D03*
%TD*%
D26*
%TO.C,H4*%
X60100000Y-93500000D03*
X60802944Y-91802944D03*
X60802944Y-95197056D03*
X62500000Y-91100000D03*
D27*
X62500000Y-93500000D03*
D26*
X62500000Y-95900000D03*
X64197056Y-91802944D03*
X64197056Y-95197056D03*
X64900000Y-93500000D03*
%TD*%
%TO.C,H2*%
X119100000Y-44500000D03*
X119802944Y-42802944D03*
X119802944Y-46197056D03*
X121500000Y-42100000D03*
D27*
X121500000Y-44500000D03*
D26*
X121500000Y-46900000D03*
X123197056Y-42802944D03*
X123197056Y-46197056D03*
X123900000Y-44500000D03*
%TD*%
D46*
%TO.C,J2*%
X59925000Y-88320000D03*
X59925000Y-79680000D03*
D47*
X64105000Y-79680000D03*
X64105000Y-88320000D03*
%TD*%
D48*
%TO.C,BT1*%
X82000000Y-84360000D03*
X77300000Y-54390000D03*
D49*
X86000000Y-93000000D03*
D50*
X73300000Y-93000000D03*
%TD*%
M02*
